<svg width="1398" height="352" viewBox="0 0 1398 352" fill="none" xmlns="http://www.w3.org/2000/svg">
<g opacity="0.5" filter="url(#filter0_bd_59_1205)">
<path d="M321.5 106.295L266.422 279H215.445L294.4 65.7188H326.627L321.5 106.295ZM367.203 279L311.979 106.295L306.266 65.7188H338.932L418.18 279H367.203ZM364.859 199.605V236.52H253.678V199.605H364.859ZM433.707 54H479.41V241.354L474.723 279H433.707V54ZM578.287 197.994V201.07C578.287 213.082 577.018 224.02 574.479 233.883C572.037 243.746 568.277 252.291 563.199 259.518C558.121 266.646 551.725 272.164 544.01 276.07C536.295 279.977 527.213 281.93 516.764 281.93C507.096 281.93 498.795 279.928 491.861 275.924C484.928 271.822 479.117 266.158 474.43 258.932C469.742 251.705 465.934 243.258 463.004 233.59C460.172 223.922 457.975 213.521 456.412 202.389V197.115C457.975 185.982 460.172 175.582 463.004 165.914C465.934 156.246 469.742 147.799 474.43 140.572C479.117 133.346 484.879 127.73 491.715 123.727C498.648 119.625 506.9 117.574 516.471 117.574C527.018 117.574 536.148 119.576 543.863 123.58C551.676 127.584 558.121 133.199 563.199 140.426C568.277 147.555 572.037 156.051 574.479 165.914C577.018 175.68 578.287 186.373 578.287 197.994ZM532.584 201.07V197.994C532.584 191.939 532.145 186.227 531.266 180.855C530.484 175.484 529.068 170.748 527.018 166.646C525.064 162.447 522.281 159.176 518.668 156.832C515.152 154.391 510.611 153.17 505.045 153.17C499.576 153.17 494.938 154.098 491.129 155.953C487.32 157.809 484.244 160.445 481.9 163.863C479.557 167.184 477.848 171.236 476.773 176.021C475.699 180.807 475.113 186.129 475.016 191.988V207.516C475.113 215.328 476.139 222.164 478.092 228.023C480.045 233.883 483.219 238.424 487.613 241.646C492.008 244.771 497.916 246.334 505.338 246.334C511.002 246.334 515.592 245.26 519.107 243.111C522.721 240.865 525.455 237.74 527.311 233.736C529.264 229.732 530.631 224.947 531.412 219.381C532.193 213.814 532.584 207.711 532.584 201.07ZM596.012 201.363V198.287C596.012 186.666 597.672 175.973 600.992 166.207C604.312 156.344 609.195 147.799 615.641 140.572C622.086 133.346 629.996 127.73 639.371 123.727C648.746 119.625 659.488 117.574 671.598 117.574C683.902 117.574 694.742 119.625 704.117 123.727C713.59 127.73 721.549 133.346 727.994 140.572C734.439 147.799 739.322 156.344 742.643 166.207C745.963 175.973 747.623 186.666 747.623 198.287V201.363C747.623 212.887 745.963 223.58 742.643 233.443C739.322 243.209 734.439 251.754 727.994 259.078C721.549 266.305 713.639 271.92 704.264 275.924C694.889 279.928 684.098 281.93 671.891 281.93C659.781 281.93 648.99 279.928 639.518 275.924C630.045 271.92 622.086 266.305 615.641 259.078C609.195 251.754 604.312 243.209 600.992 233.443C597.672 223.58 596.012 212.887 596.012 201.363ZM641.861 198.287V201.363C641.861 207.613 642.35 213.473 643.326 218.941C644.4 224.41 646.109 229.195 648.453 233.297C650.797 237.398 653.873 240.621 657.682 242.965C661.588 245.211 666.324 246.334 671.891 246.334C677.457 246.334 682.145 245.211 685.953 242.965C689.762 240.621 692.838 237.398 695.182 233.297C697.525 229.195 699.186 224.41 700.162 218.941C701.236 213.473 701.773 207.613 701.773 201.363V198.287C701.773 192.135 701.236 186.373 700.162 181.002C699.186 175.533 697.525 170.699 695.182 166.5C692.838 162.301 689.713 159.029 685.807 156.686C681.998 154.342 677.262 153.17 671.598 153.17C666.129 153.17 661.49 154.342 657.682 156.686C653.873 159.029 650.797 162.301 648.453 166.5C646.109 170.699 644.4 175.533 643.326 181.002C642.35 186.373 641.861 192.135 641.861 198.287ZM864.664 240.768V120.504H910.66V279H867.594L864.664 240.768ZM869.498 208.395L882.096 208.102C882.096 218.746 880.826 228.561 878.287 237.545C875.846 246.529 872.135 254.342 867.154 260.982C862.271 267.623 856.168 272.799 848.844 276.51C841.617 280.123 833.17 281.93 823.502 281.93C815.689 281.93 808.512 280.855 801.969 278.707C795.523 276.461 789.957 272.994 785.27 268.307C780.582 263.521 776.969 257.418 774.43 249.996C771.891 242.477 770.621 233.492 770.621 223.043V120.504H816.324V223.336C816.324 227.438 816.812 230.953 817.789 233.883C818.863 236.715 820.279 239.059 822.037 240.914C823.893 242.77 826.139 244.137 828.775 245.016C831.51 245.895 834.488 246.334 837.711 246.334C845.816 246.334 852.164 244.674 856.754 241.354C861.441 237.936 864.713 233.395 866.568 227.73C868.521 221.969 869.498 215.523 869.498 208.395ZM1020.96 120.504V152.584H926.92V120.504H1020.96ZM948.453 81.2461H994.303V229.342C994.303 233.736 994.84 237.105 995.914 239.449C996.988 241.793 998.746 243.453 1001.19 244.43C1003.63 245.309 1006.75 245.748 1010.56 245.748C1013.3 245.748 1015.64 245.65 1017.59 245.455C1019.55 245.26 1021.35 245.016 1023.01 244.723V277.828C1019.11 279.098 1014.96 280.074 1010.56 280.758C1006.17 281.539 1001.38 281.93 996.207 281.93C986.344 281.93 977.799 280.318 970.572 277.096C963.443 273.873 957.975 268.795 954.166 261.861C950.357 254.83 948.453 245.699 948.453 234.469V81.2461Z" fill="#FAE9E9" fill-opacity="0.1" shape-rendering="crispEdges"/>
<path d="M321.5 106.295L322.453 106.599L322.481 106.511L322.492 106.42L321.5 106.295ZM266.422 279V280H267.153L267.375 279.304L266.422 279ZM215.445 279L214.508 278.653L214.009 280H215.445V279ZM294.4 65.7188V64.7188H293.704L293.463 65.3716L294.4 65.7188ZM326.627 65.7188L327.619 65.8441L327.761 64.7188H326.627V65.7188ZM367.203 279L366.251 279.305L366.473 280H367.203V279ZM311.979 106.295L310.988 106.434L311 106.519L311.026 106.599L311.979 106.295ZM306.266 65.7188V64.7188H305.115L305.275 65.8582L306.266 65.7188ZM338.932 65.7188L339.869 65.3705L339.627 64.7188H338.932V65.7188ZM418.18 279V280H419.618L419.117 278.652L418.18 279ZM364.859 199.605H365.859V198.605H364.859V199.605ZM364.859 236.52V237.52H365.859V236.52H364.859ZM253.678 236.52H252.678V237.52H253.678V236.52ZM253.678 199.605V198.605H252.678V199.605H253.678ZM320.547 105.991L265.469 278.696L267.375 279.304L322.453 106.599L320.547 105.991ZM266.422 278H215.445V280H266.422V278ZM216.383 279.347L295.338 66.0659L293.463 65.3716L214.508 278.653L216.383 279.347ZM294.4 66.7188H326.627V64.7188H294.4V66.7188ZM325.635 65.5934L320.508 106.17L322.492 106.42L327.619 65.8441L325.635 65.5934ZM368.156 278.695L312.931 105.99L311.026 106.599L366.251 279.305L368.156 278.695ZM312.969 106.156L307.256 65.5793L305.275 65.8582L310.988 106.434L312.969 106.156ZM306.266 66.7188H338.932V64.7188H306.266V66.7188ZM337.994 66.067L417.242 279.348L419.117 278.652L339.869 65.3705L337.994 66.067ZM418.18 278H367.203V280H418.18V278ZM363.859 199.605V236.52H365.859V199.605H363.859ZM364.859 235.52H253.678V237.52H364.859V235.52ZM254.678 236.52V199.605H252.678V236.52H254.678ZM253.678 200.605H364.859V198.605H253.678V200.605ZM433.707 54V53H432.707V54H433.707ZM479.41 54H480.41V53H479.41V54ZM479.41 241.354L480.402 241.477L480.41 241.416V241.354H479.41ZM474.723 279V280H475.606L475.715 279.124L474.723 279ZM433.707 279H432.707V280H433.707V279ZM574.479 233.883L573.51 233.633L573.508 233.643L574.479 233.883ZM563.199 259.518L564.014 260.098L564.017 260.093L563.199 259.518ZM491.861 275.924L491.352 276.785L491.361 276.79L491.861 275.924ZM463.004 233.59L462.044 233.871L462.047 233.88L463.004 233.59ZM456.412 202.389H455.412V202.459L455.422 202.528L456.412 202.389ZM456.412 197.115L455.422 196.976L455.412 197.045V197.115H456.412ZM463.004 165.914L462.047 165.624L462.044 165.633L463.004 165.914ZM491.715 123.727L492.22 124.589L492.224 124.587L491.715 123.727ZM543.863 123.58L543.403 124.468L543.407 124.47L543.863 123.58ZM563.199 140.426L562.381 141.001L562.385 141.006L563.199 140.426ZM574.479 165.914L573.508 166.154L573.511 166.166L574.479 165.914ZM531.266 180.855L530.276 180.999L530.277 181.008L530.279 181.017L531.266 180.855ZM527.018 166.646L526.111 167.068L526.117 167.081L526.123 167.094L527.018 166.646ZM518.668 156.832L518.098 157.653L518.111 157.662L518.124 157.671L518.668 156.832ZM481.9 163.863L482.717 164.44L482.725 164.429L481.9 163.863ZM475.016 191.988L474.016 191.972L474.016 191.98V191.988H475.016ZM475.016 207.516H474.016L474.016 207.528L475.016 207.516ZM487.613 241.646L487.022 242.453L487.028 242.457L487.034 242.461L487.613 241.646ZM519.107 243.111L519.629 243.965L519.635 243.961L519.107 243.111ZM527.311 233.736L526.412 233.298L526.407 233.307L526.403 233.316L527.311 233.736ZM433.707 55H479.41V53H433.707V55ZM478.41 54V241.354H480.41V54H478.41ZM478.418 241.23L473.73 278.876L475.715 279.124L480.402 241.477L478.418 241.23ZM474.723 278H433.707V280H474.723V278ZM434.707 279V54H432.707V279H434.707ZM577.287 197.994V201.07H579.287V197.994H577.287ZM577.287 201.07C577.287 213.013 576.025 223.865 573.51 233.634L575.447 234.132C578.01 224.174 579.287 213.152 579.287 201.07H577.287ZM573.508 233.643C571.092 243.404 567.378 251.831 562.381 258.943L564.017 260.093C569.176 252.751 572.983 244.089 575.449 234.123L573.508 233.643ZM562.385 258.937C557.399 265.936 551.127 271.346 543.558 275.178L544.461 276.962C552.323 272.982 558.843 267.357 564.014 260.098L562.385 258.937ZM543.558 275.178C536.009 279 527.088 280.93 516.764 280.93V282.93C527.338 282.93 536.58 280.953 544.461 276.962L543.558 275.178ZM516.764 280.93C507.235 280.93 499.114 278.957 492.361 275.058L491.361 276.79C498.476 280.898 506.957 282.93 516.764 282.93V280.93ZM492.37 275.063C485.579 271.046 479.878 265.494 475.269 258.387L473.591 259.476C478.356 266.823 484.277 272.599 491.352 276.785L492.37 275.063ZM475.269 258.387C470.64 251.252 466.868 242.893 463.961 233.3L462.047 233.88C464.999 243.623 468.844 252.158 473.591 259.476L475.269 258.387ZM463.964 233.309C461.147 223.692 458.959 213.34 457.402 202.25L455.422 202.528C456.99 213.703 459.197 224.151 462.044 233.871L463.964 233.309ZM457.412 202.389V197.115H455.412V202.389H457.412ZM457.402 197.254C458.959 186.164 461.147 175.812 463.964 166.195L462.044 165.633C459.197 175.352 456.99 185.801 455.422 196.976L457.402 197.254ZM463.961 166.204C466.868 156.611 470.64 148.252 475.269 141.116L473.591 140.028C468.844 147.346 464.999 155.881 462.047 165.624L463.961 166.204ZM475.269 141.116C479.879 134.009 485.53 128.508 492.22 124.589L491.209 122.864C484.228 126.953 478.356 132.682 473.591 140.028L475.269 141.116ZM492.224 124.587C498.977 120.593 507.046 118.574 516.471 118.574V116.574C506.755 116.574 498.32 118.657 491.206 122.866L492.224 124.587ZM516.471 118.574C526.891 118.574 535.857 120.552 543.403 124.468L544.324 122.692C536.44 118.601 527.144 116.574 516.471 116.574V118.574ZM543.407 124.47C551.074 128.399 557.396 133.906 562.381 141.001L564.017 139.851C558.847 132.492 552.277 126.769 544.319 122.69L543.407 124.47ZM562.385 141.006C567.379 148.017 571.092 156.394 573.508 166.154L575.449 165.674C572.982 155.708 569.176 147.092 564.014 139.846L562.385 141.006ZM573.511 166.166C576.025 175.838 577.287 186.445 577.287 197.994H579.287C579.287 186.301 578.01 175.522 575.446 165.662L573.511 166.166ZM533.584 201.07V197.994H531.584V201.07H533.584ZM533.584 197.994C533.584 191.891 533.141 186.124 532.253 180.694L530.279 181.017C531.148 186.329 531.584 191.988 531.584 197.994H533.584ZM532.255 180.712C531.461 175.254 530.018 170.412 527.912 166.199L526.123 167.094C528.118 171.084 529.507 175.715 530.276 180.999L532.255 180.712ZM527.924 166.225C525.898 161.869 522.995 158.447 519.212 155.993L518.124 157.671C521.568 159.905 524.231 163.026 526.111 167.068L527.924 166.225ZM519.238 156.011C515.511 153.423 510.754 152.17 505.045 152.17V154.17C510.468 154.17 514.793 155.359 518.098 157.653L519.238 156.011ZM505.045 152.17C499.467 152.17 494.67 153.116 490.691 155.054L491.567 156.852C495.205 155.08 499.685 154.17 505.045 154.17V152.17ZM490.691 155.054C486.73 156.984 483.52 159.734 481.076 163.298L482.725 164.429C484.969 161.157 487.91 158.634 491.567 156.852L490.691 155.054ZM481.083 163.287C478.65 166.734 476.895 170.915 475.798 175.802L477.749 176.241C478.8 171.558 480.464 167.633 482.717 164.44L481.083 163.287ZM475.798 175.802C474.706 180.665 474.114 186.057 474.016 191.972L476.016 192.005C476.112 186.201 476.692 180.948 477.749 176.241L475.798 175.802ZM474.016 191.988V207.516H476.016V191.988H474.016ZM474.016 207.528C474.114 215.418 475.15 222.36 477.143 228.34L479.04 227.707C477.127 221.968 476.112 215.238 476.016 207.503L474.016 207.528ZM477.143 228.34C479.153 234.368 482.439 239.092 487.022 242.453L488.205 240.84C483.999 237.756 480.937 233.397 479.04 227.707L477.143 228.34ZM487.034 242.461C491.651 245.745 497.785 247.334 505.338 247.334V245.334C498.047 245.334 492.365 243.798 488.193 240.832L487.034 242.461ZM505.338 247.334C511.12 247.334 515.908 246.239 519.629 243.965L518.586 242.258C515.276 244.281 510.884 245.334 505.338 245.334V247.334ZM519.635 243.961C523.421 241.608 526.284 238.331 528.218 234.157L526.403 233.316C524.627 237.15 522.021 240.123 518.579 242.262L519.635 243.961ZM528.209 234.175C530.219 230.055 531.61 225.164 532.402 219.52L530.422 219.242C529.652 224.73 528.309 229.409 526.412 233.298L528.209 234.175ZM532.402 219.52C533.191 213.9 533.584 207.749 533.584 201.07H531.584C531.584 207.673 531.196 213.729 530.422 219.242L532.402 219.52ZM600.992 166.207L601.939 166.529L601.94 166.526L600.992 166.207ZM639.371 123.727L639.764 124.646L639.772 124.643L639.371 123.727ZM704.117 123.727L703.716 124.643L703.728 124.648L704.117 123.727ZM742.643 166.207L741.695 166.526L741.696 166.529L742.643 166.207ZM742.643 233.443L743.589 233.765L743.59 233.762L742.643 233.443ZM727.994 259.078L728.74 259.744L728.745 259.739L727.994 259.078ZM615.641 259.078L614.89 259.739L614.894 259.744L615.641 259.078ZM600.992 233.443L600.044 233.762L600.045 233.765L600.992 233.443ZM643.326 218.941L642.342 219.117L642.343 219.126L642.345 219.134L643.326 218.941ZM657.682 242.965L657.158 243.816L657.17 243.824L657.183 243.832L657.682 242.965ZM685.953 242.965L686.461 243.826L686.469 243.821L686.477 243.816L685.953 242.965ZM700.162 218.941L699.181 218.749L699.179 218.757L699.178 218.766L700.162 218.941ZM700.162 181.002L699.178 181.178L699.18 181.188L699.182 181.198L700.162 181.002ZM685.807 156.686L685.283 157.537L685.292 157.543L685.807 156.686ZM643.326 181.002L642.345 180.809L642.342 180.823L643.326 181.002ZM597.012 201.363V198.287H595.012V201.363H597.012ZM597.012 198.287C597.012 186.762 598.658 176.179 601.939 166.529L600.045 165.885C596.686 175.767 595.012 186.57 595.012 198.287H597.012ZM601.94 166.526C605.22 156.781 610.038 148.356 616.387 141.238L614.894 139.907C608.353 147.241 603.405 155.906 600.044 165.888L601.94 166.526ZM616.387 141.238C622.729 134.127 630.517 128.596 639.764 124.646L638.978 122.807C629.476 126.865 621.443 132.565 614.894 139.907L616.387 141.238ZM639.772 124.643C649 120.606 659.601 118.574 671.598 118.574V116.574C659.375 116.574 648.493 118.644 638.97 122.81L639.772 124.643ZM671.598 118.574C683.792 118.574 694.491 120.606 703.716 124.643L704.518 122.81C694.994 118.644 684.013 116.574 671.598 116.574V118.574ZM703.728 124.648C713.073 128.598 720.907 134.129 727.248 141.238L728.74 139.907C722.19 132.563 714.107 126.863 704.507 122.805L703.728 124.648ZM727.248 141.238C733.597 148.356 738.414 156.781 741.695 166.526L743.59 165.888C740.23 155.906 735.282 147.241 728.74 139.907L727.248 141.238ZM741.696 166.529C744.977 176.179 746.623 186.762 746.623 198.287H748.623C748.623 186.57 746.949 175.767 743.589 165.885L741.696 166.529ZM746.623 198.287V201.363H748.623V198.287H746.623ZM746.623 201.363C746.623 212.79 744.977 223.374 741.695 233.124L743.59 233.762C746.949 223.786 748.623 212.984 748.623 201.363H746.623ZM741.696 233.121C738.415 242.77 733.597 251.198 727.243 258.418L728.745 259.739C735.282 252.31 740.229 243.648 743.589 233.765L741.696 233.121ZM727.248 258.413C720.905 265.524 713.118 271.055 703.871 275.004L704.656 276.843C714.159 272.785 722.192 267.086 728.74 259.744L727.248 258.413ZM703.871 275.004C694.642 278.946 683.989 280.93 671.891 280.93V282.93C684.207 282.93 695.135 280.91 704.656 276.843L703.871 275.004ZM671.891 280.93C659.892 280.93 649.237 278.946 639.907 275.003L639.128 276.845C648.744 280.909 659.671 282.93 671.891 282.93V280.93ZM639.907 275.003C630.562 271.053 622.728 265.522 616.387 258.413L614.894 259.744C621.444 267.088 629.528 272.787 639.128 276.845L639.907 275.003ZM616.391 258.418C610.038 251.198 605.219 242.77 601.939 233.121L600.045 233.765C603.406 243.648 608.353 252.31 614.89 259.739L616.391 258.418ZM601.94 233.124C598.658 223.374 597.012 212.79 597.012 201.363H595.012C595.012 212.984 596.686 223.786 600.044 233.762L601.94 233.124ZM640.861 198.287V201.363H642.861V198.287H640.861ZM640.861 201.363C640.861 207.665 641.354 213.584 642.342 219.117L644.311 218.766C643.346 213.362 642.861 207.562 642.861 201.363H640.861ZM642.345 219.134C643.436 224.691 645.179 229.582 647.585 233.793L649.321 232.801C647.04 228.809 645.364 224.129 644.307 218.749L642.345 219.134ZM647.585 233.793C650.007 238.032 653.198 241.38 657.158 243.816L658.206 242.113C654.548 239.862 651.587 236.765 649.321 232.801L647.585 233.793ZM657.183 243.832C661.273 246.183 666.19 247.334 671.891 247.334V245.334C666.458 245.334 661.903 244.239 658.18 242.098L657.183 243.832ZM671.891 247.334C677.59 247.334 682.464 246.184 686.461 243.826L685.445 242.103C681.826 244.238 677.324 245.334 671.891 245.334V247.334ZM686.477 243.816C690.437 241.38 693.628 238.032 696.05 233.793L694.313 232.801C692.048 236.765 689.087 239.862 685.429 242.113L686.477 243.816ZM696.05 233.793C698.459 229.576 700.153 224.679 701.147 219.117L699.178 218.766C698.218 224.141 696.591 228.814 694.313 232.801L696.05 233.793ZM701.143 219.134C702.231 213.595 702.773 207.67 702.773 201.363H700.773C700.773 207.556 700.241 213.351 699.181 218.749L701.143 219.134ZM702.773 201.363V198.287H700.773V201.363H702.773ZM702.773 198.287C702.773 192.077 702.231 186.249 701.143 180.806L699.182 181.198C700.241 186.497 700.773 192.193 700.773 198.287H702.773ZM701.147 180.826C700.153 175.265 698.46 170.323 696.055 166.013L694.308 166.987C696.59 171.076 698.218 175.802 699.178 181.178L701.147 180.826ZM696.055 166.013C693.631 161.67 690.386 158.267 686.321 155.828L685.292 157.543C689.04 159.792 692.045 162.932 694.308 166.987L696.055 166.013ZM686.331 155.834C682.328 153.37 677.398 152.17 671.598 152.17V154.17C677.125 154.17 681.669 155.313 685.283 157.537L686.331 155.834ZM671.598 152.17C665.985 152.17 661.156 153.374 657.158 155.834L658.206 157.537C661.825 155.31 666.273 154.17 671.598 154.17V152.17ZM657.158 155.834C653.192 158.274 650.001 161.676 647.58 166.013L649.326 166.987C651.593 162.926 654.554 159.785 658.206 157.537L657.158 155.834ZM647.58 166.013C645.177 170.317 643.436 175.253 642.345 180.809L644.307 181.195C645.365 175.813 647.041 171.081 649.326 166.987L647.58 166.013ZM642.342 180.823C641.354 186.26 640.861 192.082 640.861 198.287H642.861C642.861 192.187 643.345 186.486 644.31 181.181L642.342 180.823ZM864.664 240.768H863.664V240.806L863.667 240.844L864.664 240.768ZM864.664 120.504V119.504H863.664V120.504H864.664ZM910.66 120.504H911.66V119.504H910.66V120.504ZM910.66 279V280H911.66V279H910.66ZM867.594 279L866.597 279.076L866.667 280H867.594V279ZM869.498 208.395L869.475 207.395L868.498 207.418V208.395H869.498ZM882.096 208.102H883.096V207.078L882.073 207.102L882.096 208.102ZM878.287 237.545L877.325 237.273L877.322 237.283L878.287 237.545ZM867.154 260.982L866.354 260.382L866.349 260.39L867.154 260.982ZM848.844 276.51L849.291 277.404L849.296 277.402L848.844 276.51ZM801.969 278.707L801.64 279.651L801.648 279.654L801.657 279.657L801.969 278.707ZM785.27 268.307L784.555 269.006L784.562 269.014L785.27 268.307ZM774.43 249.996L773.482 250.316L773.484 250.32L774.43 249.996ZM770.621 120.504V119.504H769.621V120.504H770.621ZM816.324 120.504H817.324V119.504H816.324V120.504ZM817.789 233.883L816.84 234.199L816.847 234.218L816.854 234.237L817.789 233.883ZM822.037 240.914L821.311 241.602L821.32 241.612L821.33 241.621L822.037 240.914ZM828.775 245.016L828.459 245.964L828.469 245.968L828.775 245.016ZM856.754 241.354L857.34 242.164L857.343 242.162L856.754 241.354ZM866.568 227.73L865.621 227.409L865.618 227.419L866.568 227.73ZM865.664 240.768V120.504H863.664V240.768H865.664ZM864.664 121.504H910.66V119.504H864.664V121.504ZM909.66 120.504V279H911.66V120.504H909.66ZM910.66 278H867.594V280H910.66V278ZM868.591 278.924L865.661 240.691L863.667 240.844L866.597 279.076L868.591 278.924ZM869.521 209.394L882.119 209.101L882.073 207.102L869.475 207.395L869.521 209.394ZM881.096 208.102C881.096 218.667 879.836 228.388 877.325 237.273L879.249 237.817C881.817 228.733 883.096 218.825 883.096 208.102H881.096ZM877.322 237.283C874.91 246.16 871.25 253.855 866.354 260.382L867.954 261.582C873.019 254.829 876.782 246.899 879.252 237.807L877.322 237.283ZM866.349 260.39C861.558 266.905 855.576 271.978 848.392 275.618L849.296 277.402C856.76 273.62 862.985 268.341 867.96 261.575L866.349 260.39ZM848.397 275.615C841.334 279.147 833.045 280.93 823.502 280.93V282.93C833.295 282.93 841.901 281.099 849.291 277.404L848.397 275.615ZM823.502 280.93C815.781 280.93 808.711 279.868 802.281 277.757L801.657 279.657C808.313 281.843 815.598 282.93 823.502 282.93V280.93ZM802.298 277.763C795.99 275.565 790.554 272.177 785.977 267.6L784.562 269.014C789.36 273.811 795.056 277.357 801.64 279.651L802.298 277.763ZM785.984 267.607C781.417 262.945 777.875 256.977 775.376 249.672L773.484 250.32C776.063 257.859 779.747 264.098 784.555 269.006L785.984 267.607ZM775.377 249.676C772.882 242.286 771.621 233.416 771.621 223.043H769.621C769.621 233.569 770.899 242.667 773.482 250.316L775.377 249.676ZM771.621 223.043V120.504H769.621V223.043H771.621ZM770.621 121.504H816.324V119.504H770.621V121.504ZM815.324 120.504V223.336H817.324V120.504H815.324ZM815.324 223.336C815.324 227.512 815.821 231.14 816.84 234.199L818.738 233.567C817.804 230.766 817.324 227.363 817.324 223.336H815.324ZM816.854 234.237C817.967 237.171 819.447 239.634 821.311 241.602L822.763 240.226C821.112 238.483 819.76 236.259 818.724 233.528L816.854 234.237ZM821.33 241.621C823.302 243.593 825.684 245.039 828.459 245.964L829.092 244.067C826.593 243.234 824.483 241.946 822.744 240.207L821.33 241.621ZM828.469 245.968C831.314 246.882 834.397 247.334 837.711 247.334V245.334C834.58 245.334 831.706 244.907 829.081 244.064L828.469 245.968ZM837.711 247.334C845.939 247.334 852.52 245.65 857.34 242.164L856.168 240.543C851.808 243.697 845.693 245.334 837.711 245.334V247.334ZM857.343 242.162C862.205 238.616 865.6 233.899 867.519 228.042L865.618 227.419C863.826 232.89 860.678 237.255 856.165 240.546L857.343 242.162ZM867.515 228.052C869.509 222.17 870.498 215.614 870.498 208.395H868.498C868.498 215.433 867.534 221.767 865.621 227.409L867.515 228.052ZM1020.96 120.504H1021.96V119.504H1020.96V120.504ZM1020.96 152.584V153.584H1021.96V152.584H1020.96ZM926.92 152.584H925.92V153.584H926.92V152.584ZM926.92 120.504V119.504H925.92V120.504H926.92ZM948.453 81.2461V80.2461H947.453V81.2461H948.453ZM994.303 81.2461H995.303V80.2461H994.303V81.2461ZM1001.19 244.43L1000.82 245.358L1000.83 245.365L1000.85 245.371L1001.19 244.43ZM1023.01 244.723H1024.01V243.531L1022.84 243.738L1023.01 244.723ZM1023.01 277.828L1023.32 278.779L1024.01 278.555V277.828H1023.01ZM1010.56 280.758L1010.41 279.77L1010.4 279.771L1010.39 279.773L1010.56 280.758ZM970.572 277.096L970.16 278.007L970.165 278.009L970.572 277.096ZM954.166 261.861L953.287 262.338L953.29 262.343L954.166 261.861ZM1019.96 120.504V152.584H1021.96V120.504H1019.96ZM1020.96 151.584H926.92V153.584H1020.96V151.584ZM927.92 152.584V120.504H925.92V152.584H927.92ZM926.92 121.504H1020.96V119.504H926.92V121.504ZM948.453 82.2461H994.303V80.2461H948.453V82.2461ZM993.303 81.2461V229.342H995.303V81.2461H993.303ZM993.303 229.342C993.303 233.793 993.843 237.33 995.005 239.866L996.823 239.033C995.837 236.881 995.303 233.68 995.303 229.342H993.303ZM995.005 239.866C996.188 242.448 998.142 244.288 1000.82 245.358L1001.56 243.501C999.35 242.618 997.788 241.138 996.823 239.033L995.005 239.866ZM1000.85 245.371C1003.44 246.302 1006.69 246.748 1010.56 246.748V244.748C1006.82 244.748 1003.82 244.315 1001.53 243.489L1000.85 245.371ZM1010.56 246.748C1013.32 246.748 1015.7 246.65 1017.69 246.45L1017.49 244.46C1015.58 244.651 1013.28 244.748 1010.56 244.748V246.748ZM1017.69 246.45C1019.67 246.253 1021.5 246.005 1023.19 245.707L1022.84 243.738C1021.21 244.026 1019.43 244.267 1017.49 244.46L1017.69 246.45ZM1022.01 244.723V277.828H1024.01V244.723H1022.01ZM1022.7 276.877C1018.85 278.129 1014.75 279.094 1010.41 279.77L1010.72 281.746C1015.16 281.055 1019.36 280.066 1023.32 278.779L1022.7 276.877ZM1010.39 279.773C1006.06 280.543 1001.33 280.93 996.207 280.93V282.93C1001.43 282.93 1006.28 282.535 1010.74 281.742L1010.39 279.773ZM996.207 280.93C986.451 280.93 978.05 279.336 970.979 276.182L970.165 278.009C977.547 281.301 986.237 282.93 996.207 282.93V280.93ZM970.984 276.184C964.055 273.052 958.748 268.126 955.042 261.38L953.29 262.343C957.201 269.464 962.832 274.694 970.16 278.007L970.984 276.184ZM955.045 261.385C951.341 254.547 949.453 245.596 949.453 234.469H947.453C947.453 245.802 949.373 255.113 953.287 262.338L955.045 261.385ZM949.453 234.469V81.2461H947.453V234.469H949.453Z" fill="black" fill-opacity="0.05"/>
</g>
<g opacity="0.5" filter="url(#filter1_bd_59_1205)">
<path d="M303.5 94.2949L248.422 267H197.445L276.4 53.7188H308.627L303.5 94.2949ZM349.203 267L293.979 94.2949L288.266 53.7188H320.932L400.18 267H349.203ZM346.859 187.605V224.52H235.678V187.605H346.859ZM415.707 42H461.41V229.354L456.723 267H415.707V42ZM560.287 185.994V189.07C560.287 201.082 559.018 212.02 556.479 221.883C554.037 231.746 550.277 240.291 545.199 247.518C540.121 254.646 533.725 260.164 526.01 264.07C518.295 267.977 509.213 269.93 498.764 269.93C489.096 269.93 480.795 267.928 473.861 263.924C466.928 259.822 461.117 254.158 456.43 246.932C451.742 239.705 447.934 231.258 445.004 221.59C442.172 211.922 439.975 201.521 438.412 190.389V185.115C439.975 173.982 442.172 163.582 445.004 153.914C447.934 144.246 451.742 135.799 456.43 128.572C461.117 121.346 466.879 115.73 473.715 111.727C480.648 107.625 488.9 105.574 498.471 105.574C509.018 105.574 518.148 107.576 525.863 111.58C533.676 115.584 540.121 121.199 545.199 128.426C550.277 135.555 554.037 144.051 556.479 153.914C559.018 163.68 560.287 174.373 560.287 185.994ZM514.584 189.07V185.994C514.584 179.939 514.145 174.227 513.266 168.855C512.484 163.484 511.068 158.748 509.018 154.646C507.064 150.447 504.281 147.176 500.668 144.832C497.152 142.391 492.611 141.17 487.045 141.17C481.576 141.17 476.938 142.098 473.129 143.953C469.32 145.809 466.244 148.445 463.9 151.863C461.557 155.184 459.848 159.236 458.773 164.021C457.699 168.807 457.113 174.129 457.016 179.988V195.516C457.113 203.328 458.139 210.164 460.092 216.023C462.045 221.883 465.219 226.424 469.613 229.646C474.008 232.771 479.916 234.334 487.338 234.334C493.002 234.334 497.592 233.26 501.107 231.111C504.721 228.865 507.455 225.74 509.311 221.736C511.264 217.732 512.631 212.947 513.412 207.381C514.193 201.814 514.584 195.711 514.584 189.07ZM578.012 189.363V186.287C578.012 174.666 579.672 163.973 582.992 154.207C586.312 144.344 591.195 135.799 597.641 128.572C604.086 121.346 611.996 115.73 621.371 111.727C630.746 107.625 641.488 105.574 653.598 105.574C665.902 105.574 676.742 107.625 686.117 111.727C695.59 115.73 703.549 121.346 709.994 128.572C716.439 135.799 721.322 144.344 724.643 154.207C727.963 163.973 729.623 174.666 729.623 186.287V189.363C729.623 200.887 727.963 211.58 724.643 221.443C721.322 231.209 716.439 239.754 709.994 247.078C703.549 254.305 695.639 259.92 686.264 263.924C676.889 267.928 666.098 269.93 653.891 269.93C641.781 269.93 630.99 267.928 621.518 263.924C612.045 259.92 604.086 254.305 597.641 247.078C591.195 239.754 586.312 231.209 582.992 221.443C579.672 211.58 578.012 200.887 578.012 189.363ZM623.861 186.287V189.363C623.861 195.613 624.35 201.473 625.326 206.941C626.4 212.41 628.109 217.195 630.453 221.297C632.797 225.398 635.873 228.621 639.682 230.965C643.588 233.211 648.324 234.334 653.891 234.334C659.457 234.334 664.145 233.211 667.953 230.965C671.762 228.621 674.838 225.398 677.182 221.297C679.525 217.195 681.186 212.41 682.162 206.941C683.236 201.473 683.773 195.613 683.773 189.363V186.287C683.773 180.135 683.236 174.373 682.162 169.002C681.186 163.533 679.525 158.699 677.182 154.5C674.838 150.301 671.713 147.029 667.807 144.686C663.998 142.342 659.262 141.17 653.598 141.17C648.129 141.17 643.49 142.342 639.682 144.686C635.873 147.029 632.797 150.301 630.453 154.5C628.109 158.699 626.4 163.533 625.326 169.002C624.35 174.373 623.861 180.135 623.861 186.287ZM846.664 228.768V108.504H892.66V267H849.594L846.664 228.768ZM851.498 196.395L864.096 196.102C864.096 206.746 862.826 216.561 860.287 225.545C857.846 234.529 854.135 242.342 849.154 248.982C844.271 255.623 838.168 260.799 830.844 264.51C823.617 268.123 815.17 269.93 805.502 269.93C797.689 269.93 790.512 268.855 783.969 266.707C777.523 264.461 771.957 260.994 767.27 256.307C762.582 251.521 758.969 245.418 756.43 237.996C753.891 230.477 752.621 221.492 752.621 211.043V108.504H798.324V211.336C798.324 215.438 798.812 218.953 799.789 221.883C800.863 224.715 802.279 227.059 804.037 228.914C805.893 230.77 808.139 232.137 810.775 233.016C813.51 233.895 816.488 234.334 819.711 234.334C827.816 234.334 834.164 232.674 838.754 229.354C843.441 225.936 846.713 221.395 848.568 215.73C850.521 209.969 851.498 203.523 851.498 196.395ZM1002.96 108.504V140.584H908.92V108.504H1002.96ZM930.453 69.2461H976.303V217.342C976.303 221.736 976.84 225.105 977.914 227.449C978.988 229.793 980.746 231.453 983.188 232.43C985.629 233.309 988.754 233.748 992.562 233.748C995.297 233.748 997.641 233.65 999.594 233.455C1001.55 233.26 1003.35 233.016 1005.01 232.723V265.828C1001.11 267.098 996.957 268.074 992.562 268.758C988.168 269.539 983.383 269.93 978.207 269.93C968.344 269.93 959.799 268.318 952.572 265.096C945.443 261.873 939.975 256.795 936.166 249.861C932.357 242.83 930.453 233.699 930.453 222.469V69.2461Z" fill="#C78C8C" fill-opacity="0.1" shape-rendering="crispEdges"/>
<path d="M303.5 94.2949L304.453 94.5988L304.481 94.5113L304.492 94.4203L303.5 94.2949ZM248.422 267V268H249.153L249.375 267.304L248.422 267ZM197.445 267L196.508 266.653L196.009 268H197.445V267ZM276.4 53.7188V52.7188H275.704L275.463 53.3716L276.4 53.7188ZM308.627 53.7188L309.619 53.8441L309.761 52.7188H308.627V53.7188ZM349.203 267L348.251 267.305L348.473 268H349.203V267ZM293.979 94.2949L292.988 94.4343L293 94.5185L293.026 94.5995L293.979 94.2949ZM288.266 53.7188V52.7188H287.115L287.275 53.8582L288.266 53.7188ZM320.932 53.7188L321.869 53.3704L321.627 52.7188H320.932V53.7188ZM400.18 267V268H401.618L401.117 266.652L400.18 267ZM346.859 187.605H347.859V186.605H346.859V187.605ZM346.859 224.52V225.52H347.859V224.52H346.859ZM235.678 224.52H234.678V225.52H235.678V224.52ZM235.678 187.605V186.605H234.678V187.605H235.678ZM302.547 93.9911L247.469 266.696L249.375 267.304L304.453 94.5988L302.547 93.9911ZM248.422 266H197.445V268H248.422V266ZM198.383 267.347L277.338 54.0659L275.463 53.3716L196.508 266.653L198.383 267.347ZM276.4 54.7188H308.627V52.7188H276.4V54.7188ZM307.635 53.5934L302.508 94.1696L304.492 94.4203L309.619 53.8441L307.635 53.5934ZM350.156 266.695L294.931 93.9903L293.026 94.5995L348.251 267.305L350.156 266.695ZM294.969 94.1555L289.256 53.5793L287.275 53.8582L292.988 94.4343L294.969 94.1555ZM288.266 54.7188H320.932V52.7188H288.266V54.7188ZM319.994 54.0671L399.242 267.348L401.117 266.652L321.869 53.3704L319.994 54.0671ZM400.18 266H349.203V268H400.18V266ZM345.859 187.605V224.52H347.859V187.605H345.859ZM346.859 223.52H235.678V225.52H346.859V223.52ZM236.678 224.52V187.605H234.678V224.52H236.678ZM235.678 188.605H346.859V186.605H235.678V188.605ZM415.707 42V41H414.707V42H415.707ZM461.41 42H462.41V41H461.41V42ZM461.41 229.354L462.402 229.477L462.41 229.416V229.354H461.41ZM456.723 267V268H457.606L457.715 267.124L456.723 267ZM415.707 267H414.707V268H415.707V267ZM556.479 221.883L555.51 221.633L555.508 221.643L556.479 221.883ZM545.199 247.518L546.014 248.098L546.017 248.093L545.199 247.518ZM473.861 263.924L473.352 264.785L473.361 264.79L473.861 263.924ZM445.004 221.59L444.044 221.871L444.047 221.88L445.004 221.59ZM438.412 190.389H437.412V190.459L437.422 190.528L438.412 190.389ZM438.412 185.115L437.422 184.976L437.412 185.045V185.115H438.412ZM445.004 153.914L444.047 153.624L444.044 153.633L445.004 153.914ZM473.715 111.727L474.22 112.589L474.224 112.587L473.715 111.727ZM525.863 111.58L525.403 112.468L525.407 112.47L525.863 111.58ZM545.199 128.426L544.381 129.001L544.385 129.006L545.199 128.426ZM556.479 153.914L555.508 154.154L555.511 154.166L556.479 153.914ZM513.266 168.855L512.276 168.999L512.277 169.008L512.279 169.017L513.266 168.855ZM509.018 154.646L508.111 155.068L508.117 155.081L508.123 155.094L509.018 154.646ZM500.668 144.832L500.098 145.653L500.111 145.662L500.124 145.671L500.668 144.832ZM463.9 151.863L464.717 152.44L464.725 152.429L463.9 151.863ZM457.016 179.988L456.016 179.972L456.016 179.98V179.988H457.016ZM457.016 195.516H456.016L456.016 195.528L457.016 195.516ZM469.613 229.646L469.022 230.453L469.028 230.457L469.034 230.461L469.613 229.646ZM501.107 231.111L501.629 231.965L501.635 231.961L501.107 231.111ZM509.311 221.736L508.412 221.298L508.407 221.307L508.403 221.316L509.311 221.736ZM415.707 43H461.41V41H415.707V43ZM460.41 42V229.354H462.41V42H460.41ZM460.418 229.23L455.73 266.876L457.715 267.124L462.402 229.477L460.418 229.23ZM456.723 266H415.707V268H456.723V266ZM416.707 267V42H414.707V267H416.707ZM559.287 185.994V189.07H561.287V185.994H559.287ZM559.287 189.07C559.287 201.013 558.025 211.865 555.51 221.634L557.447 222.132C560.01 212.174 561.287 201.152 561.287 189.07H559.287ZM555.508 221.643C553.092 231.404 549.378 239.831 544.381 246.943L546.017 248.093C551.176 240.751 554.983 232.089 557.449 222.123L555.508 221.643ZM544.385 246.937C539.399 253.936 533.127 259.346 525.558 263.178L526.461 264.962C534.323 260.982 540.843 255.357 546.014 248.098L544.385 246.937ZM525.558 263.178C518.009 267 509.088 268.93 498.764 268.93V270.93C509.338 270.93 518.58 268.953 526.461 264.962L525.558 263.178ZM498.764 268.93C489.235 268.93 481.114 266.957 474.361 263.058L473.361 264.79C480.476 268.898 488.957 270.93 498.764 270.93V268.93ZM474.37 263.063C467.579 259.046 461.878 253.494 457.269 246.387L455.591 247.476C460.356 254.823 466.277 260.599 473.352 264.785L474.37 263.063ZM457.269 246.387C452.64 239.252 448.868 230.893 445.961 221.3L444.047 221.88C446.999 231.623 450.844 240.158 455.591 247.476L457.269 246.387ZM445.964 221.309C443.147 211.692 440.959 201.34 439.402 190.25L437.422 190.528C438.99 201.703 441.197 212.151 444.044 221.871L445.964 221.309ZM439.412 190.389V185.115H437.412V190.389H439.412ZM439.402 185.254C440.959 174.164 443.147 163.812 445.964 154.195L444.044 153.633C441.197 163.352 438.99 173.801 437.422 184.976L439.402 185.254ZM445.961 154.204C448.868 144.611 452.64 136.252 457.269 129.116L455.591 128.028C450.844 135.346 446.999 143.881 444.047 153.624L445.961 154.204ZM457.269 129.116C461.879 122.009 467.53 116.508 474.22 112.589L473.209 110.864C466.228 114.953 460.356 120.682 455.591 128.028L457.269 129.116ZM474.224 112.587C480.977 108.593 489.046 106.574 498.471 106.574V104.574C488.755 104.574 480.32 106.657 473.206 110.866L474.224 112.587ZM498.471 106.574C508.891 106.574 517.857 108.552 525.403 112.468L526.324 110.692C518.44 106.601 509.144 104.574 498.471 104.574V106.574ZM525.407 112.47C533.074 116.399 539.396 121.906 544.381 129.001L546.017 127.851C540.847 120.492 534.277 114.769 526.319 110.69L525.407 112.47ZM544.385 129.006C549.379 136.017 553.092 144.394 555.508 154.154L557.449 153.674C554.982 143.708 551.176 135.092 546.014 127.846L544.385 129.006ZM555.511 154.166C558.025 163.838 559.287 174.445 559.287 185.994H561.287C561.287 174.301 560.01 163.522 557.446 153.662L555.511 154.166ZM515.584 189.07V185.994H513.584V189.07H515.584ZM515.584 185.994C515.584 179.891 515.141 174.124 514.253 168.694L512.279 169.017C513.148 174.329 513.584 179.988 513.584 185.994H515.584ZM514.255 168.712C513.461 163.254 512.018 158.412 509.912 154.199L508.123 155.094C510.118 159.084 511.507 163.715 512.276 168.999L514.255 168.712ZM509.924 154.225C507.898 149.869 504.995 146.447 501.212 143.993L500.124 145.671C503.568 147.905 506.231 151.026 508.111 155.068L509.924 154.225ZM501.238 144.011C497.511 141.423 492.754 140.17 487.045 140.17V142.17C492.468 142.17 496.793 143.359 500.098 145.653L501.238 144.011ZM487.045 140.17C481.467 140.17 476.67 141.116 472.691 143.054L473.567 144.852C477.205 143.08 481.685 142.17 487.045 142.17V140.17ZM472.691 143.054C468.73 144.984 465.52 147.734 463.076 151.298L464.725 152.429C466.969 149.157 469.91 146.634 473.567 144.852L472.691 143.054ZM463.083 151.287C460.65 154.734 458.895 158.915 457.798 163.802L459.749 164.241C460.8 159.558 462.464 155.633 464.717 152.44L463.083 151.287ZM457.798 163.802C456.706 168.665 456.114 174.057 456.016 179.972L458.016 180.005C458.112 174.201 458.692 168.948 459.749 164.241L457.798 163.802ZM456.016 179.988V195.516H458.016V179.988H456.016ZM456.016 195.528C456.114 203.418 457.15 210.36 459.143 216.34L461.04 215.707C459.127 209.968 458.112 203.238 458.016 195.503L456.016 195.528ZM459.143 216.34C461.153 222.368 464.439 227.092 469.022 230.453L470.205 228.84C465.999 225.756 462.937 221.397 461.04 215.707L459.143 216.34ZM469.034 230.461C473.651 233.745 479.785 235.334 487.338 235.334V233.334C480.047 233.334 474.365 231.798 470.193 228.832L469.034 230.461ZM487.338 235.334C493.12 235.334 497.908 234.239 501.629 231.965L500.586 230.258C497.276 232.281 492.884 233.334 487.338 233.334V235.334ZM501.635 231.961C505.421 229.608 508.284 226.331 510.218 222.157L508.403 221.316C506.627 225.15 504.021 228.123 500.579 230.262L501.635 231.961ZM510.209 222.175C512.219 218.055 513.61 213.164 514.402 207.52L512.422 207.242C511.652 212.73 510.309 217.409 508.412 221.298L510.209 222.175ZM514.402 207.52C515.191 201.9 515.584 195.749 515.584 189.07H513.584C513.584 195.673 513.196 201.729 512.422 207.242L514.402 207.52ZM582.992 154.207L583.939 154.529L583.94 154.526L582.992 154.207ZM621.371 111.727L621.764 112.646L621.772 112.643L621.371 111.727ZM686.117 111.727L685.716 112.643L685.728 112.648L686.117 111.727ZM724.643 154.207L723.695 154.526L723.696 154.529L724.643 154.207ZM724.643 221.443L725.589 221.765L725.59 221.762L724.643 221.443ZM709.994 247.078L710.74 247.744L710.745 247.739L709.994 247.078ZM597.641 247.078L596.89 247.739L596.894 247.744L597.641 247.078ZM582.992 221.443L582.044 221.762L582.045 221.765L582.992 221.443ZM625.326 206.941L624.342 207.117L624.343 207.126L624.345 207.134L625.326 206.941ZM639.682 230.965L639.158 231.816L639.17 231.824L639.183 231.832L639.682 230.965ZM667.953 230.965L668.461 231.826L668.469 231.821L668.477 231.816L667.953 230.965ZM682.162 206.941L681.181 206.749L681.179 206.757L681.178 206.766L682.162 206.941ZM682.162 169.002L681.178 169.178L681.18 169.188L681.182 169.198L682.162 169.002ZM667.807 144.686L667.283 145.537L667.292 145.543L667.807 144.686ZM625.326 169.002L624.345 168.809L624.342 168.823L625.326 169.002ZM579.012 189.363V186.287H577.012V189.363H579.012ZM579.012 186.287C579.012 174.762 580.658 164.179 583.939 154.529L582.045 153.885C578.686 163.767 577.012 174.57 577.012 186.287H579.012ZM583.94 154.526C587.22 144.781 592.038 136.356 598.387 129.238L596.894 127.907C590.353 135.241 585.405 143.906 582.044 153.888L583.94 154.526ZM598.387 129.238C604.729 122.127 612.517 116.596 621.764 112.646L620.978 110.807C611.476 114.865 603.443 120.565 596.894 127.907L598.387 129.238ZM621.772 112.643C631 108.606 641.601 106.574 653.598 106.574V104.574C641.375 104.574 630.493 106.644 620.97 110.81L621.772 112.643ZM653.598 106.574C665.792 106.574 676.491 108.606 685.716 112.643L686.518 110.81C676.994 106.644 666.013 104.574 653.598 104.574V106.574ZM685.728 112.648C695.073 116.598 702.907 122.129 709.248 129.238L710.74 127.907C704.19 120.563 696.107 114.863 686.507 110.805L685.728 112.648ZM709.248 129.238C715.597 136.356 720.414 144.781 723.695 154.526L725.59 153.888C722.23 143.906 717.282 135.241 710.74 127.907L709.248 129.238ZM723.696 154.529C726.977 164.179 728.623 174.762 728.623 186.287H730.623C730.623 174.57 728.949 163.767 725.589 153.885L723.696 154.529ZM728.623 186.287V189.363H730.623V186.287H728.623ZM728.623 189.363C728.623 200.79 726.977 211.374 723.695 221.124L725.59 221.762C728.949 211.786 730.623 200.984 730.623 189.363H728.623ZM723.696 221.121C720.415 230.77 715.597 239.198 709.243 246.417L710.745 247.739C717.282 240.31 722.229 231.648 725.589 221.765L723.696 221.121ZM709.248 246.413C702.905 253.524 695.118 259.055 685.871 263.004L686.656 264.843C696.159 260.785 704.192 255.086 710.74 247.744L709.248 246.413ZM685.871 263.004C676.642 266.946 665.989 268.93 653.891 268.93V270.93C666.207 270.93 677.135 268.91 686.656 264.843L685.871 263.004ZM653.891 268.93C641.892 268.93 631.237 266.946 621.907 263.003L621.128 264.845C630.744 268.909 641.671 270.93 653.891 270.93V268.93ZM621.907 263.003C612.562 259.053 604.728 253.522 598.387 246.413L596.894 247.744C603.444 255.088 611.528 260.787 621.128 264.845L621.907 263.003ZM598.391 246.417C592.038 239.198 587.219 230.77 583.939 221.121L582.045 221.765C585.406 231.648 590.353 240.31 596.89 247.739L598.391 246.417ZM583.94 221.124C580.658 211.374 579.012 200.79 579.012 189.363H577.012C577.012 200.984 578.686 211.786 582.044 221.762L583.94 221.124ZM622.861 186.287V189.363H624.861V186.287H622.861ZM622.861 189.363C622.861 195.665 623.354 201.584 624.342 207.117L626.311 206.766C625.346 201.362 624.861 195.562 624.861 189.363H622.861ZM624.345 207.134C625.436 212.691 627.179 217.582 629.585 221.793L631.321 220.801C629.04 216.809 627.364 212.129 626.307 206.749L624.345 207.134ZM629.585 221.793C632.007 226.032 635.198 229.38 639.158 231.816L640.206 230.113C636.548 227.862 633.587 224.765 631.321 220.801L629.585 221.793ZM639.183 231.832C643.273 234.183 648.19 235.334 653.891 235.334V233.334C648.458 233.334 643.903 232.239 640.18 230.098L639.183 231.832ZM653.891 235.334C659.59 235.334 664.464 234.184 668.461 231.826L667.445 230.103C663.826 232.238 659.324 233.334 653.891 233.334V235.334ZM668.477 231.816C672.437 229.38 675.628 226.032 678.05 221.793L676.313 220.801C674.048 224.765 671.087 227.862 667.429 230.113L668.477 231.816ZM678.05 221.793C680.459 217.576 682.153 212.679 683.147 207.117L681.178 206.766C680.218 212.141 678.591 216.814 676.313 220.801L678.05 221.793ZM683.143 207.134C684.231 201.595 684.773 195.67 684.773 189.363H682.773C682.773 195.556 682.241 201.351 681.181 206.749L683.143 207.134ZM684.773 189.363V186.287H682.773V189.363H684.773ZM684.773 186.287C684.773 180.077 684.231 174.249 683.143 168.806L681.182 169.198C682.241 174.497 682.773 180.193 682.773 186.287H684.773ZM683.147 168.826C682.153 163.265 680.46 158.323 678.055 154.013L676.308 154.987C678.59 159.076 680.218 163.802 681.178 169.178L683.147 168.826ZM678.055 154.013C675.631 149.67 672.386 146.267 668.321 143.828L667.292 145.543C671.04 147.792 674.045 150.932 676.308 154.987L678.055 154.013ZM668.331 143.834C664.328 141.37 659.398 140.17 653.598 140.17V142.17C659.125 142.17 663.669 143.313 667.283 145.537L668.331 143.834ZM653.598 140.17C647.985 140.17 643.156 141.374 639.158 143.834L640.206 145.537C643.825 143.31 648.273 142.17 653.598 142.17V140.17ZM639.158 143.834C635.192 146.274 632.001 149.676 629.58 154.013L631.326 154.987C633.593 150.926 636.554 147.785 640.206 145.537L639.158 143.834ZM629.58 154.013C627.177 158.317 625.436 163.253 624.345 168.809L626.307 169.195C627.365 163.813 629.041 159.081 631.326 154.987L629.58 154.013ZM624.342 168.823C623.354 174.26 622.861 180.082 622.861 186.287H624.861C624.861 180.187 625.345 174.486 626.31 169.181L624.342 168.823ZM846.664 228.768H845.664V228.806L845.667 228.844L846.664 228.768ZM846.664 108.504V107.504H845.664V108.504H846.664ZM892.66 108.504H893.66V107.504H892.66V108.504ZM892.66 267V268H893.66V267H892.66ZM849.594 267L848.597 267.076L848.667 268H849.594V267ZM851.498 196.395L851.475 195.395L850.498 195.418V196.395H851.498ZM864.096 196.102H865.096V195.078L864.072 195.102L864.096 196.102ZM860.287 225.545L859.325 225.273L859.322 225.283L860.287 225.545ZM849.154 248.982L848.354 248.382L848.349 248.39L849.154 248.982ZM830.844 264.51L831.291 265.404L831.296 265.402L830.844 264.51ZM783.969 266.707L783.64 267.651L783.648 267.654L783.657 267.657L783.969 266.707ZM767.27 256.307L766.555 257.006L766.562 257.014L767.27 256.307ZM756.43 237.996L755.482 238.316L755.484 238.32L756.43 237.996ZM752.621 108.504V107.504H751.621V108.504H752.621ZM798.324 108.504H799.324V107.504H798.324V108.504ZM799.789 221.883L798.84 222.199L798.847 222.218L798.854 222.237L799.789 221.883ZM804.037 228.914L803.311 229.602L803.32 229.612L803.33 229.621L804.037 228.914ZM810.775 233.016L810.459 233.964L810.469 233.968L810.775 233.016ZM838.754 229.354L839.34 230.164L839.343 230.162L838.754 229.354ZM848.568 215.73L847.621 215.409L847.618 215.419L848.568 215.73ZM847.664 228.768V108.504H845.664V228.768H847.664ZM846.664 109.504H892.66V107.504H846.664V109.504ZM891.66 108.504V267H893.66V108.504H891.66ZM892.66 266H849.594V268H892.66V266ZM850.591 266.924L847.661 228.691L845.667 228.844L848.597 267.076L850.591 266.924ZM851.521 197.394L864.119 197.101L864.072 195.102L851.475 195.395L851.521 197.394ZM863.096 196.102C863.096 206.667 861.836 216.388 859.325 225.273L861.249 225.817C863.817 216.733 865.096 206.825 865.096 196.102H863.096ZM859.322 225.283C856.91 234.16 853.25 241.855 848.354 248.382L849.954 249.582C855.019 242.829 858.782 234.899 861.252 225.807L859.322 225.283ZM848.349 248.39C843.558 254.905 837.576 259.978 830.392 263.618L831.296 265.402C838.76 261.62 844.985 256.341 849.96 249.575L848.349 248.39ZM830.397 263.615C823.334 267.147 815.045 268.93 805.502 268.93V270.93C815.295 270.93 823.901 269.099 831.291 265.404L830.397 263.615ZM805.502 268.93C797.781 268.93 790.711 267.868 784.281 265.757L783.657 267.657C790.313 269.843 797.598 270.93 805.502 270.93V268.93ZM784.298 265.763C777.99 263.565 772.554 260.177 767.977 255.6L766.562 257.014C771.36 261.811 777.056 265.357 783.64 267.651L784.298 265.763ZM767.984 255.607C763.417 250.945 759.875 244.977 757.376 237.672L755.484 238.32C758.063 245.859 761.747 252.098 766.555 257.006L767.984 255.607ZM757.377 237.676C754.882 230.286 753.621 221.416 753.621 211.043H751.621C751.621 221.569 752.899 230.667 755.482 238.316L757.377 237.676ZM753.621 211.043V108.504H751.621V211.043H753.621ZM752.621 109.504H798.324V107.504H752.621V109.504ZM797.324 108.504V211.336H799.324V108.504H797.324ZM797.324 211.336C797.324 215.512 797.821 219.14 798.84 222.199L800.738 221.567C799.804 218.766 799.324 215.363 799.324 211.336H797.324ZM798.854 222.237C799.967 225.171 801.447 227.634 803.311 229.602L804.763 228.226C803.112 226.483 801.76 224.259 800.724 221.528L798.854 222.237ZM803.33 229.621C805.302 231.593 807.684 233.039 810.459 233.964L811.092 232.067C808.593 231.234 806.483 229.946 804.744 228.207L803.33 229.621ZM810.469 233.968C813.314 234.882 816.397 235.334 819.711 235.334V233.334C816.58 233.334 813.706 232.907 811.081 232.064L810.469 233.968ZM819.711 235.334C827.939 235.334 834.52 233.65 839.34 230.164L838.168 228.543C833.808 231.697 827.693 233.334 819.711 233.334V235.334ZM839.343 230.162C844.205 226.616 847.6 221.899 849.519 216.042L847.618 215.419C845.826 220.89 842.678 225.255 838.165 228.546L839.343 230.162ZM849.515 216.052C851.509 210.17 852.498 203.614 852.498 196.395H850.498C850.498 203.433 849.534 209.767 847.621 215.409L849.515 216.052ZM1002.96 108.504H1003.96V107.504H1002.96V108.504ZM1002.96 140.584V141.584H1003.96V140.584H1002.96ZM908.92 140.584H907.92V141.584H908.92V140.584ZM908.92 108.504V107.504H907.92V108.504H908.92ZM930.453 69.2461V68.2461H929.453V69.2461H930.453ZM976.303 69.2461H977.303V68.2461H976.303V69.2461ZM983.188 232.43L982.816 233.358L982.832 233.365L982.849 233.371L983.188 232.43ZM1005.01 232.723H1006.01V231.531L1004.84 231.738L1005.01 232.723ZM1005.01 265.828L1005.32 266.779L1006.01 266.555V265.828H1005.01ZM992.562 268.758L992.409 267.77L992.398 267.771L992.387 267.773L992.562 268.758ZM952.572 265.096L952.16 266.007L952.165 266.009L952.572 265.096ZM936.166 249.861L935.287 250.338L935.29 250.343L936.166 249.861ZM1001.96 108.504V140.584H1003.96V108.504H1001.96ZM1002.96 139.584H908.92V141.584H1002.96V139.584ZM909.92 140.584V108.504H907.92V140.584H909.92ZM908.92 109.504H1002.96V107.504H908.92V109.504ZM930.453 70.2461H976.303V68.2461H930.453V70.2461ZM975.303 69.2461V217.342H977.303V69.2461H975.303ZM975.303 217.342C975.303 221.793 975.843 225.33 977.005 227.866L978.823 227.033C977.837 224.881 977.303 221.68 977.303 217.342H975.303ZM977.005 227.866C978.188 230.448 980.142 232.288 982.816 233.358L983.559 231.501C981.35 230.618 979.788 229.138 978.823 227.033L977.005 227.866ZM982.849 233.371C985.437 234.302 988.687 234.748 992.562 234.748V232.748C988.82 232.748 985.821 232.315 983.526 231.489L982.849 233.371ZM992.562 234.748C995.318 234.748 997.697 234.65 999.693 234.45L999.494 232.46C997.584 232.651 995.276 232.748 992.562 232.748V234.748ZM999.693 234.45C1001.67 234.253 1003.5 234.005 1005.19 233.707L1004.84 231.738C1003.21 232.026 1001.43 232.267 999.494 232.46L999.693 234.45ZM1004.01 232.723V265.828H1006.01V232.723H1004.01ZM1004.7 264.877C1000.85 266.129 996.755 267.094 992.409 267.77L992.716 269.746C997.159 269.055 1001.36 268.066 1005.32 266.779L1004.7 264.877ZM992.387 267.773C988.059 268.543 983.333 268.93 978.207 268.93V270.93C983.432 270.93 988.277 270.535 992.738 269.742L992.387 267.773ZM978.207 268.93C968.451 268.93 960.05 267.336 952.979 264.182L952.165 266.009C959.547 269.301 968.237 270.93 978.207 270.93V268.93ZM952.984 264.184C946.055 261.052 940.748 256.126 937.042 249.38L935.29 250.343C939.201 257.464 944.832 262.694 952.16 266.007L952.984 264.184ZM937.045 249.385C933.341 242.547 931.453 233.596 931.453 222.469H929.453C929.453 233.802 931.373 243.113 935.287 250.338L937.045 249.385ZM931.453 222.469V69.2461H929.453V222.469H931.453Z" fill="black" fill-opacity="0.05"/>
</g>
<defs>
<filter id="filter0_bd_59_1205" x="211.445" y="53" width="815.568" height="236.93" filterUnits="userSpaceOnUse" color-interpolation-filters="sRGB">
<feFlood flood-opacity="0" result="BackgroundImageFix"/>
<feGaussianBlur in="BackgroundImage" stdDeviation="0.5"/>
<feComposite in2="SourceAlpha" operator="in" result="effect1_backgroundBlur_59_1205"/>
<feColorMatrix in="SourceAlpha" type="matrix" values="0 0 0 0 0 0 0 0 0 0 0 0 0 0 0 0 0 0 127 0" result="hardAlpha"/>
<feOffset dy="4"/>
<feGaussianBlur stdDeviation="2"/>
<feComposite in2="hardAlpha" operator="out"/>
<feColorMatrix type="matrix" values="0 0 0 0 0 0 0 0 0 0 0 0 0 0 0 0 0 0 0.25 0"/>
<feBlend mode="normal" in2="effect1_backgroundBlur_59_1205" result="effect2_dropShadow_59_1205"/>
<feBlend mode="normal" in="SourceGraphic" in2="effect2_dropShadow_59_1205" result="shape"/>
</filter>
<filter id="filter1_bd_59_1205" x="193.445" y="41" width="815.568" height="236.93" filterUnits="userSpaceOnUse" color-interpolation-filters="sRGB">
<feFlood flood-opacity="0" result="BackgroundImageFix"/>
<feGaussianBlur in="BackgroundImage" stdDeviation="0.5"/>
<feComposite in2="SourceAlpha" operator="in" result="effect1_backgroundBlur_59_1205"/>
<feColorMatrix in="SourceAlpha" type="matrix" values="0 0 0 0 0 0 0 0 0 0 0 0 0 0 0 0 0 0 127 0" result="hardAlpha"/>
<feOffset dy="4"/>
<feGaussianBlur stdDeviation="2"/>
<feComposite in2="hardAlpha" operator="out"/>
<feColorMatrix type="matrix" values="0 0 0 0 0 0 0 0 0 0 0 0 0 0 0 0 0 0 0.25 0"/>
<feBlend mode="normal" in2="effect1_backgroundBlur_59_1205" result="effect2_dropShadow_59_1205"/>
<feBlend mode="normal" in="SourceGraphic" in2="effect2_dropShadow_59_1205" result="shape"/>
</filter>
</defs>
</svg>
