<svg width="1280" height="408" viewBox="0 0 1280 408" fill="none" xmlns="http://www.w3.org/2000/svg">
<g opacity="0.5" filter="url(#filter0_bd_63_1111)">
<path d="M531.578 222.75C531.578 219.137 531.041 215.914 529.967 213.082C528.893 210.152 526.939 207.467 524.107 205.025C521.275 202.584 517.271 200.143 512.096 197.701C506.92 195.162 500.133 192.574 491.734 189.938C482.164 186.812 473.033 183.297 464.342 179.391C455.748 175.387 448.082 170.748 441.344 165.475C434.605 160.201 429.283 154.049 425.377 147.018C421.568 139.986 419.664 131.783 419.664 122.408C419.664 113.326 421.666 105.123 425.67 97.7988C429.674 90.4746 435.289 84.2246 442.516 79.0488C449.742 73.7754 458.238 69.7715 468.004 67.0371C477.77 64.2051 488.512 62.7891 500.23 62.7891C515.855 62.7891 529.576 65.5723 541.393 71.1387C553.307 76.6074 562.584 84.3223 569.225 94.2832C575.865 104.146 579.186 115.621 579.186 128.707H531.725C531.725 122.945 530.504 117.867 528.062 113.473C525.719 108.98 522.105 105.465 517.223 102.926C512.438 100.387 506.432 99.1172 499.205 99.1172C492.174 99.1172 486.266 100.191 481.48 102.34C476.793 104.391 473.229 107.223 470.787 110.836C468.443 114.449 467.271 118.404 467.271 122.701C467.271 126.119 468.15 129.244 469.908 132.076C471.764 134.811 474.4 137.398 477.818 139.84C481.334 142.184 485.631 144.43 490.709 146.578C495.787 148.727 501.598 150.777 508.141 152.73C519.566 156.344 529.674 160.348 538.463 164.742C547.35 169.137 554.82 174.117 560.875 179.684C566.93 185.25 571.471 191.549 574.498 198.58C577.623 205.611 579.186 213.57 579.186 222.457C579.186 231.93 577.33 240.328 573.619 247.652C570.006 254.977 564.732 261.227 557.799 266.402C550.963 271.48 542.76 275.338 533.189 277.975C523.619 280.611 512.926 281.93 501.109 281.93C490.367 281.93 479.771 280.562 469.322 277.828C458.873 274.996 449.4 270.699 440.904 264.938C432.506 259.176 425.768 251.852 420.689 242.965C415.709 233.98 413.219 223.336 413.219 211.031H460.973C460.973 217.477 461.9 222.945 463.756 227.438C465.611 231.832 468.248 235.396 471.666 238.131C475.182 240.865 479.43 242.818 484.41 243.99C489.391 245.162 494.957 245.748 501.109 245.748C508.238 245.748 514 244.771 518.395 242.818C522.887 240.768 526.207 237.984 528.355 234.469C530.504 230.953 531.578 227.047 531.578 222.75ZM650.963 53.8535V279H605.113V53.8535H650.963ZM751.598 120.504L682.604 200.191L646.129 236.812L627.818 205.904L657.408 167.672L696.52 120.504H751.598ZM703.258 279L658.58 206.197L691.393 180.562L755.699 279H703.258ZM815.465 120.504V279H769.615V120.504H815.465ZM766.832 79.4883C766.832 72.8477 769.176 67.4277 773.863 63.2285C778.551 58.9316 784.703 56.7832 792.32 56.7832C799.938 56.7832 806.09 58.9316 810.777 63.2285C815.562 67.4277 817.955 72.8477 817.955 79.4883C817.955 86.0313 815.562 91.4512 810.777 95.748C806.09 99.9473 799.938 102.047 792.32 102.047C784.703 102.047 778.551 99.9473 773.863 95.748C769.176 91.4512 766.832 86.0313 766.832 79.4883ZM896.617 54V279H850.768V54H896.617ZM977.77 54V279H931.92V54H977.77ZM1095.1 234.908C1095.1 231.979 1094.18 229.391 1092.32 227.145C1090.56 224.898 1087.34 222.848 1082.65 220.992C1078.06 219.137 1071.57 217.281 1063.17 215.426C1055.26 213.766 1047.89 211.617 1041.05 208.98C1034.21 206.246 1028.26 202.975 1023.18 199.166C1018.1 195.26 1014.15 190.67 1011.31 185.396C1008.48 180.025 1007.07 173.922 1007.07 167.086C1007.07 160.445 1008.48 154.146 1011.31 148.189C1014.24 142.232 1018.44 136.959 1023.91 132.369C1029.48 127.779 1036.22 124.166 1044.13 121.529C1052.13 118.893 1061.22 117.574 1071.37 117.574C1085.34 117.574 1097.4 119.771 1107.55 124.166C1117.71 128.463 1125.52 134.518 1130.99 142.33C1136.46 150.045 1139.2 158.883 1139.2 168.844H1093.49C1093.49 164.742 1092.71 161.178 1091.15 158.15C1089.59 155.123 1087.19 152.779 1083.97 151.119C1080.75 149.361 1076.5 148.482 1071.23 148.482C1067.12 148.482 1063.51 149.215 1060.39 150.68C1057.36 152.047 1054.97 153.951 1053.21 156.393C1051.55 158.834 1050.72 161.666 1050.72 164.889C1050.72 167.135 1051.21 169.186 1052.18 171.041C1053.26 172.799 1054.87 174.459 1057.02 176.021C1059.26 177.486 1062.14 178.805 1065.66 179.977C1069.27 181.148 1073.67 182.271 1078.84 183.346C1089.88 185.396 1099.94 188.277 1109.02 191.988C1118.2 195.699 1125.52 200.826 1130.99 207.369C1136.56 213.912 1139.34 222.555 1139.34 233.297C1139.34 240.328 1137.73 246.773 1134.51 252.633C1131.38 258.492 1126.84 263.619 1120.88 268.014C1114.93 272.408 1107.8 275.826 1099.5 278.268C1091.2 280.709 1081.82 281.93 1071.37 281.93C1056.43 281.93 1043.79 279.244 1033.43 273.873C1023.08 268.502 1015.27 261.764 1010 253.658C1004.82 245.455 1002.23 237.057 1002.23 228.463H1045.15C1045.35 233.736 1046.67 238.033 1049.11 241.354C1051.65 244.674 1054.92 247.115 1058.92 248.678C1062.93 250.143 1067.42 250.875 1072.4 250.875C1077.38 250.875 1081.53 250.191 1084.85 248.824C1088.17 247.457 1090.71 245.602 1092.47 243.258C1094.22 240.816 1095.1 238.033 1095.1 234.908Z" fill="#FAE9E9" fill-opacity="0.1" shape-rendering="crispEdges"/>
<path d="M529.967 213.082L529.028 213.426L529.032 213.437L529.967 213.082ZM512.096 197.701L511.655 198.599L511.662 198.602L511.669 198.606L512.096 197.701ZM491.734 189.938L491.424 190.888L491.435 190.892L491.734 189.938ZM464.342 179.391L463.919 180.297L463.932 180.303L464.342 179.391ZM425.377 147.018L424.498 147.494L424.503 147.503L425.377 147.018ZM442.516 79.0488L443.098 79.8618L443.105 79.8566L442.516 79.0488ZM468.004 67.0371L468.274 68.0001L468.282 67.9975L468.004 67.0371ZM541.393 71.1387L540.966 72.0434L540.975 72.0475L541.393 71.1387ZM569.225 94.2832L568.393 94.8379L568.395 94.8417L569.225 94.2832ZM579.186 128.707V129.707H580.186V128.707H579.186ZM531.725 128.707H530.725V129.707H531.725V128.707ZM528.062 113.473L527.176 113.935L527.182 113.947L527.188 113.958L528.062 113.473ZM517.223 102.926L516.754 103.809L516.761 103.813L517.223 102.926ZM481.48 102.34L481.881 103.256L481.89 103.252L481.48 102.34ZM470.787 110.836L469.959 110.276L469.953 110.284L469.948 110.292L470.787 110.836ZM469.908 132.076L469.059 132.604L469.069 132.621L469.081 132.638L469.908 132.076ZM477.818 139.84L477.237 140.654L477.25 140.663L477.264 140.672L477.818 139.84ZM508.141 152.73L508.442 151.777L508.434 151.775L508.427 151.772L508.141 152.73ZM538.463 164.742L538.016 165.637L538.02 165.639L538.463 164.742ZM574.498 198.58L573.58 198.976L573.584 198.986L574.498 198.58ZM573.619 247.652L572.727 247.2L572.722 247.21L573.619 247.652ZM557.799 266.402L558.395 267.205L558.397 267.204L557.799 266.402ZM469.322 277.828L469.061 278.793L469.069 278.796L469.322 277.828ZM440.904 264.938L440.339 265.762L440.343 265.765L440.904 264.938ZM420.689 242.965L419.815 243.45L419.821 243.461L420.689 242.965ZM413.219 211.031V210.031H412.219V211.031H413.219ZM460.973 211.031H461.973V210.031H460.973V211.031ZM463.756 227.438L462.832 227.819L462.835 227.826L463.756 227.438ZM471.666 238.131L471.041 238.912L471.052 238.92L471.666 238.131ZM518.395 242.818L518.801 243.732L518.81 243.728L518.395 242.818ZM532.578 222.75C532.578 219.038 532.026 215.692 530.902 212.727L529.032 213.437C530.056 216.136 530.578 219.235 530.578 222.75H532.578ZM530.906 212.738C529.762 209.619 527.696 206.799 524.76 204.268L523.454 205.783C526.183 208.135 528.023 210.685 529.028 213.426L530.906 212.738ZM524.76 204.268C521.834 201.745 517.741 199.259 512.522 196.797L511.669 198.606C516.802 201.027 520.717 203.423 523.454 205.783L524.76 204.268ZM512.536 196.803C507.298 194.234 500.458 191.628 492.034 188.983L491.435 190.892C499.807 193.52 506.542 196.091 511.655 198.599L512.536 196.803ZM492.045 188.987C482.506 185.872 473.409 182.369 464.752 178.479L463.932 180.303C472.658 184.224 481.822 187.753 491.424 190.888L492.045 188.987ZM464.764 178.484C456.232 174.509 448.632 169.909 441.96 164.687L440.727 166.262C447.532 171.587 455.264 176.264 463.919 180.297L464.764 178.484ZM441.96 164.687C435.32 159.491 430.088 153.439 426.251 146.532L424.503 147.503C428.478 154.659 433.891 160.912 440.727 166.262L441.96 164.687ZM426.256 146.541C422.54 139.68 420.664 131.646 420.664 122.408H418.664C418.664 131.921 420.597 140.293 424.498 147.494L426.256 146.541ZM420.664 122.408C420.664 113.479 422.631 105.443 426.547 98.2785L424.792 97.3192C420.701 104.803 418.664 113.174 418.664 122.408H420.664ZM426.547 98.2785C430.475 91.0946 435.985 84.9559 443.098 79.8618L441.933 78.2358C434.593 83.4933 428.873 89.8546 424.792 97.3192L426.547 98.2785ZM443.105 79.8566C450.223 74.6623 458.608 70.7065 468.274 68.0001L467.734 66.0741C457.869 68.8365 449.261 72.8884 441.926 78.241L443.105 79.8566ZM468.282 67.9975C477.945 65.1954 488.592 63.7891 500.23 63.7891V61.7891C488.432 61.7891 477.594 63.2148 467.725 66.0767L468.282 67.9975ZM500.23 63.7891C515.737 63.7891 529.307 66.5508 540.966 72.0433L541.819 70.234C529.845 64.5937 515.974 61.7891 500.23 61.7891V63.7891ZM540.975 72.0475C552.738 77.4465 561.864 85.0457 568.393 94.8379L570.057 93.7285C563.304 83.5989 553.876 75.7683 541.81 70.2298L540.975 72.0475ZM568.395 94.8417C574.914 104.523 578.186 115.799 578.186 128.707H580.186C580.186 115.443 576.817 103.77 570.054 93.7247L568.395 94.8417ZM579.186 127.707H531.725V129.707H579.186V127.707ZM532.725 128.707C532.725 122.8 531.472 117.551 528.937 112.987L527.188 113.958C529.536 118.184 530.725 123.09 530.725 128.707H532.725ZM528.949 113.01C526.502 108.32 522.732 104.664 517.684 102.039L516.761 103.813C521.479 106.266 524.935 109.641 527.176 113.935L528.949 113.01ZM517.691 102.042C512.722 99.4055 506.543 98.1172 499.205 98.1172V100.117C506.321 100.117 512.153 101.368 516.754 103.809L517.691 102.042ZM499.205 98.1172C492.078 98.1172 486.021 99.2052 481.071 101.428L481.89 103.252C486.51 101.178 492.269 100.117 499.205 100.117V98.1172ZM481.08 101.424C476.249 103.537 472.523 106.48 469.959 110.276L471.616 111.396C473.934 107.965 477.337 105.244 481.881 103.256L481.08 101.424ZM469.948 110.292C467.5 114.067 466.271 118.211 466.271 122.701H468.271C468.271 118.598 469.387 114.832 471.626 111.38L469.948 110.292ZM466.271 122.701C466.271 126.301 467.2 129.609 469.059 132.604L470.758 131.549C469.101 128.879 468.271 125.938 468.271 122.701H466.271ZM469.081 132.638C471.018 135.493 473.748 138.161 477.237 140.654L478.4 139.026C475.053 136.636 472.509 134.129 470.736 131.515L469.081 132.638ZM477.264 140.672C480.844 143.059 485.2 145.333 490.319 147.499L491.099 145.657C486.062 143.526 481.824 141.308 478.373 139.008L477.264 140.672ZM490.319 147.499C495.438 149.665 501.284 151.727 507.855 153.689L508.427 151.772C501.911 149.827 496.136 147.788 491.099 145.657L490.319 147.499ZM507.839 153.684C519.225 157.285 529.282 161.27 538.016 165.637L538.91 163.848C530.065 159.425 519.908 155.403 508.442 151.777L507.839 153.684ZM538.02 165.639C546.838 169.999 554.226 174.929 560.198 180.42L561.552 178.947C555.415 173.305 547.861 168.274 538.906 163.846L538.02 165.639ZM560.198 180.42C566.157 185.898 570.612 192.083 573.58 198.976L575.417 198.185C572.329 191.015 567.702 184.602 561.552 178.947L560.198 180.42ZM573.584 198.986C576.644 205.871 578.186 213.689 578.186 222.457H580.186C580.186 213.452 578.602 205.351 575.412 198.174L573.584 198.986ZM578.186 222.457C578.186 231.797 576.357 240.036 572.727 247.2L574.511 248.104C578.303 240.62 580.186 232.063 580.186 222.457H578.186ZM572.722 247.21C569.183 254.384 564.016 260.514 557.201 265.601L558.397 267.204C565.449 261.939 570.829 255.569 574.516 248.095L572.722 247.21ZM557.203 265.6C550.481 270.593 542.394 274.401 532.924 277.011L533.455 278.939C543.125 276.274 551.445 272.368 558.395 267.205L557.203 265.6ZM532.924 277.011C523.455 279.619 512.853 280.93 501.109 280.93V282.93C512.999 282.93 523.784 281.603 533.455 278.939L532.924 277.011ZM501.109 280.93C490.453 280.93 479.942 279.574 469.575 276.861L469.069 278.796C479.601 281.551 490.281 282.93 501.109 282.93V280.93ZM469.584 276.863C459.236 274.058 449.865 269.806 441.466 264.11L440.343 265.765C448.936 271.592 458.511 275.934 469.061 278.793L469.584 276.863ZM441.47 264.113C433.197 258.437 426.561 251.225 421.558 242.469L419.821 243.461C424.974 252.478 431.815 259.915 440.339 265.762L441.47 264.113ZM421.564 242.48C416.681 233.671 414.219 223.2 414.219 211.031H412.219C412.219 223.472 414.737 234.29 419.815 243.45L421.564 242.48ZM413.219 212.031H460.973V210.031H413.219V212.031ZM459.973 211.031C459.973 217.567 460.913 223.174 462.832 227.819L464.68 227.056C462.888 222.717 461.973 217.386 461.973 211.031H459.973ZM462.835 227.826C464.749 232.36 467.482 236.064 471.041 238.912L472.291 237.35C469.014 234.729 466.474 231.304 464.677 227.049L462.835 227.826ZM471.052 238.92C474.697 241.755 479.081 243.764 484.181 244.964L484.639 243.017C479.778 241.873 475.666 239.975 472.28 237.342L471.052 238.92ZM484.181 244.964C489.25 246.156 494.895 246.748 501.109 246.748V244.748C495.019 244.748 489.531 244.168 484.639 243.017L484.181 244.964ZM501.109 246.748C508.317 246.748 514.232 245.763 518.801 243.732L517.988 241.905C513.768 243.78 508.16 244.748 501.109 244.748V246.748ZM518.81 243.728C523.447 241.611 526.937 238.707 529.209 234.99L527.502 233.947C525.477 237.261 522.327 239.924 517.979 241.909L518.81 243.728ZM529.209 234.99C531.457 231.311 532.578 227.223 532.578 222.75H530.578C530.578 226.871 529.55 230.596 527.502 233.947L529.209 234.99ZM650.963 53.8535H651.963V52.8535H650.963V53.8535ZM650.963 279V280H651.963V279H650.963ZM605.113 279H604.113V280H605.113V279ZM605.113 53.8535V52.8535H604.113V53.8535H605.113ZM751.598 120.504L752.354 121.158L753.786 119.504H751.598V120.504ZM682.604 200.191L683.312 200.897L683.337 200.872L683.359 200.846L682.604 200.191ZM646.129 236.812L645.269 237.322L645.927 238.433L646.837 237.518L646.129 236.812ZM627.818 205.904L627.028 205.292L626.612 205.829L626.958 206.414L627.818 205.904ZM657.408 167.672L656.638 167.034L656.628 167.047L656.617 167.06L657.408 167.672ZM696.52 120.504V119.504H696.05L695.75 119.866L696.52 120.504ZM703.258 279L702.406 279.523L702.698 280H703.258V279ZM658.58 206.197L657.964 205.409L657.261 205.959L657.728 206.72L658.58 206.197ZM691.393 180.562L692.23 180.016L691.635 179.104L690.777 179.774L691.393 180.562ZM755.699 279V280H757.547L756.536 278.453L755.699 279ZM649.963 53.8535V279H651.963V53.8535H649.963ZM650.963 278H605.113V280H650.963V278ZM606.113 279V53.8535H604.113V279H606.113ZM605.113 54.8535H650.963V52.8535H605.113V54.8535ZM750.842 119.849L681.848 199.537L683.359 200.846L752.354 121.158L750.842 119.849ZM681.895 199.486L645.42 236.107L646.837 237.518L683.312 200.897L681.895 199.486ZM646.989 236.303L628.679 205.395L626.958 206.414L645.269 237.322L646.989 236.303ZM628.609 206.516L658.199 168.284L656.617 167.06L627.028 205.292L628.609 206.516ZM658.178 168.31L697.289 121.142L695.75 119.866L656.638 167.034L658.178 168.31ZM696.52 121.504H751.598V119.504H696.52V121.504ZM704.11 278.477L659.432 205.674L657.728 206.72L702.406 279.523L704.11 278.477ZM659.196 206.985L692.008 181.351L690.777 179.774L657.964 205.409L659.196 206.985ZM690.555 181.109L754.862 279.547L756.536 278.453L692.23 180.016L690.555 181.109ZM755.699 278H703.258V280H755.699V278ZM815.465 120.504H816.465V119.504H815.465V120.504ZM815.465 279V280H816.465V279H815.465ZM769.615 279H768.615V280H769.615V279ZM769.615 120.504V119.504H768.615V120.504H769.615ZM773.863 63.2285L774.531 63.9734L774.539 63.9657L773.863 63.2285ZM810.777 63.2285L810.102 63.9657L810.11 63.973L810.118 63.9801L810.777 63.2285ZM810.777 95.748L811.445 96.4929L811.445 96.4921L810.777 95.748ZM773.863 95.748L773.188 96.4853L773.196 96.4929L773.863 95.748ZM814.465 120.504V279H816.465V120.504H814.465ZM815.465 278H769.615V280H815.465V278ZM770.615 279V120.504H768.615V279H770.615ZM769.615 121.504H815.465V119.504H769.615V121.504ZM767.832 79.4883C767.832 73.1142 770.068 67.9713 774.531 63.9734L773.196 62.4837C768.284 66.8841 765.832 72.5811 765.832 79.4883H767.832ZM774.539 63.9657C779.007 59.8702 784.901 57.7832 792.32 57.7832V55.7832C784.505 55.7832 778.095 57.9931 773.188 62.4914L774.539 63.9657ZM792.32 57.7832C799.74 57.7832 805.634 59.8702 810.102 63.9657L811.453 62.4914C806.546 57.9931 800.135 55.7832 792.32 55.7832V57.7832ZM810.118 63.9801C814.676 67.9804 816.955 73.1214 816.955 79.4883H818.955C818.955 72.5739 816.449 66.8751 811.437 62.4769L810.118 63.9801ZM816.955 79.4883C816.955 85.753 814.679 90.9005 810.109 95.004L811.445 96.4921C816.446 92.0018 818.955 86.3095 818.955 79.4883H816.955ZM810.11 95.0032C805.643 99.0051 799.746 101.047 792.32 101.047V103.047C800.129 103.047 806.537 100.889 811.445 96.4929L810.11 95.0032ZM792.32 101.047C784.895 101.047 778.998 99.0051 774.531 95.0032L773.196 96.4929C778.104 100.889 784.511 103.047 792.32 103.047V101.047ZM774.539 95.0109C770.065 90.9096 767.832 85.7601 767.832 79.4883H765.832C765.832 86.3024 768.287 91.9928 773.188 96.4852L774.539 95.0109ZM896.617 54H897.617V53H896.617V54ZM896.617 279V280H897.617V279H896.617ZM850.768 279H849.768V280H850.768V279ZM850.768 54V53H849.768V54H850.768ZM895.617 54V279H897.617V54H895.617ZM896.617 278H850.768V280H896.617V278ZM851.768 279V54H849.768V279H851.768ZM850.768 55H896.617V53H850.768V55ZM977.77 54H978.77V53H977.77V54ZM977.77 279V280H978.77V279H977.77ZM931.92 279H930.92V280H931.92V279ZM931.92 54V53H930.92V54H931.92ZM976.77 54V279H978.77V54H976.77ZM977.77 278H931.92V280H977.77V278ZM932.92 279V54H930.92V279H932.92ZM931.92 55H977.77V53H931.92V55ZM1092.32 227.145L1091.53 227.761L1091.54 227.771L1091.55 227.781L1092.32 227.145ZM1082.65 220.992L1082.28 221.919L1082.28 221.922L1082.65 220.992ZM1063.17 215.426L1063.39 214.449L1063.38 214.447L1063.17 215.426ZM1041.05 208.98L1040.68 209.909L1040.69 209.913L1041.05 208.98ZM1023.18 199.166L1022.57 199.959L1022.58 199.966L1023.18 199.166ZM1011.31 185.396L1010.43 185.863L1010.43 185.87L1011.31 185.396ZM1011.31 148.189L1010.42 147.748L1010.41 147.76L1011.31 148.189ZM1023.91 132.369L1023.28 131.598L1023.27 131.603L1023.91 132.369ZM1044.13 121.529L1043.81 120.579L1043.81 120.581L1044.13 121.529ZM1107.55 124.166L1107.16 125.084L1107.17 125.087L1107.55 124.166ZM1130.99 142.33L1130.17 142.904L1130.18 142.908L1130.99 142.33ZM1139.2 168.844V169.844H1140.2V168.844H1139.2ZM1093.49 168.844H1092.49V169.844H1093.49V168.844ZM1083.97 151.119L1083.49 151.997L1083.5 152.003L1083.51 152.008L1083.97 151.119ZM1060.39 150.68L1060.8 151.591L1060.81 151.585L1060.39 150.68ZM1053.21 156.393L1052.4 155.808L1052.39 155.819L1052.38 155.83L1053.21 156.393ZM1052.18 171.041L1051.3 171.507L1051.31 171.535L1051.33 171.562L1052.18 171.041ZM1057.02 176.021L1056.43 176.83L1056.45 176.845L1056.47 176.859L1057.02 176.021ZM1065.66 179.977L1065.34 180.925L1065.35 180.928L1065.66 179.977ZM1078.84 183.346L1078.64 184.325L1078.65 184.327L1078.66 184.329L1078.84 183.346ZM1109.02 191.988L1108.64 192.914L1108.64 192.915L1109.02 191.988ZM1130.99 207.369L1130.22 208.01L1130.23 208.017L1130.99 207.369ZM1134.51 252.633L1133.63 252.151L1133.63 252.162L1134.51 252.633ZM1010 253.658L1009.15 254.192L1009.16 254.204L1010 253.658ZM1002.23 228.463V227.463H1001.23V228.463H1002.23ZM1045.15 228.463L1046.15 228.426L1046.12 227.463H1045.15V228.463ZM1049.11 241.354L1048.3 241.946L1048.31 241.953L1048.31 241.961L1049.11 241.354ZM1058.92 248.678L1058.56 249.609L1058.57 249.613L1058.58 249.617L1058.92 248.678ZM1092.47 243.258L1093.27 243.858L1093.27 243.85L1093.28 243.842L1092.47 243.258ZM1096.1 234.908C1096.1 231.747 1095.1 228.934 1093.09 226.508L1091.55 227.781C1093.26 229.847 1094.1 232.21 1094.1 234.908H1096.1ZM1093.11 226.528C1091.19 224.072 1087.76 221.94 1083.02 220.062L1082.28 221.922C1086.92 223.756 1089.94 225.725 1091.53 227.761L1093.11 226.528ZM1083.03 220.065C1078.36 218.179 1071.81 216.309 1063.39 214.449L1062.95 216.402C1071.33 218.253 1077.76 220.094 1082.28 221.919L1083.03 220.065ZM1063.38 214.447C1055.51 212.797 1048.19 210.663 1041.41 208.047L1040.69 209.913C1047.58 212.571 1055.01 214.734 1062.96 216.404L1063.38 214.447ZM1041.42 208.052C1034.66 205.345 1028.78 202.114 1023.78 198.366L1022.58 199.966C1027.74 203.835 1033.77 207.147 1040.68 209.909L1041.42 208.052ZM1023.79 198.373C1018.82 194.547 1014.96 190.064 1012.2 184.923L1010.43 185.87C1013.34 191.276 1017.39 195.972 1022.57 199.959L1023.79 198.373ZM1012.2 184.93C1009.45 179.72 1008.07 173.78 1008.07 167.086H1006.07C1006.07 174.064 1007.51 180.331 1010.43 185.863L1012.2 184.93ZM1008.07 167.086C1008.07 160.593 1009.45 154.441 1012.22 148.619L1010.41 147.76C1007.52 153.852 1006.07 160.298 1006.07 167.086H1008.07ZM1012.21 148.631C1015.08 142.808 1019.18 137.642 1024.55 133.135L1023.27 131.603C1017.7 136.276 1013.41 141.657 1010.42 147.748L1012.21 148.631ZM1024.55 133.141C1030.01 128.64 1036.63 125.082 1044.44 122.478L1043.81 120.581C1035.8 123.25 1028.95 126.918 1023.28 131.598L1024.55 133.141ZM1044.44 122.479C1052.33 119.882 1061.3 118.574 1071.37 118.574V116.574C1061.13 116.574 1051.94 117.904 1043.81 120.579L1044.44 122.479ZM1071.37 118.574C1085.24 118.574 1097.15 120.756 1107.16 125.084L1107.95 123.248C1097.64 118.787 1085.44 116.574 1071.37 116.574V118.574ZM1107.17 125.087C1117.18 129.322 1124.83 135.268 1130.17 142.904L1131.81 141.757C1126.22 133.767 1118.25 127.603 1107.94 123.245L1107.17 125.087ZM1130.18 142.908C1135.52 150.445 1138.2 159.078 1138.2 168.844H1140.2C1140.2 158.687 1137.4 149.645 1131.81 141.752L1130.18 142.908ZM1139.2 167.844H1093.49V169.844H1139.2V167.844ZM1094.49 168.844C1094.49 164.615 1093.69 160.887 1092.04 157.692L1090.26 158.609C1091.74 161.468 1092.49 164.87 1092.49 168.844H1094.49ZM1092.04 157.692C1090.37 154.468 1087.82 151.979 1084.43 150.23L1083.51 152.008C1086.56 153.58 1088.8 155.779 1090.26 158.609L1092.04 157.692ZM1084.45 150.241C1081.03 148.376 1076.6 147.482 1071.23 147.482V149.482C1076.4 149.482 1080.47 150.347 1083.49 151.997L1084.45 150.241ZM1071.23 147.482C1067.01 147.482 1063.24 148.236 1059.96 149.774L1060.81 151.585C1063.78 150.193 1067.24 149.482 1071.23 149.482V147.482ZM1059.98 149.768C1056.81 151.2 1054.27 153.21 1052.4 155.808L1054.02 156.977C1055.67 154.692 1057.91 152.894 1060.8 151.591L1059.98 149.768ZM1052.38 155.83C1050.6 158.453 1049.72 161.485 1049.72 164.889H1051.72C1051.72 161.847 1052.5 159.215 1054.04 156.955L1052.38 155.83ZM1049.72 164.889C1049.72 167.285 1050.24 169.498 1051.3 171.507L1053.07 170.575C1052.17 168.874 1051.72 166.984 1051.72 164.889H1049.72ZM1051.33 171.562C1052.49 173.46 1054.2 175.212 1056.43 176.83L1057.61 175.213C1055.53 173.706 1054.03 172.138 1053.04 170.52L1051.33 171.562ZM1056.47 176.859C1058.81 178.385 1061.78 179.736 1065.34 180.925L1065.98 179.028C1062.51 177.874 1059.72 176.588 1057.56 175.184L1056.47 176.859ZM1065.35 180.928C1069.01 182.114 1073.44 183.246 1078.64 184.325L1079.05 182.367C1073.89 181.297 1069.54 180.183 1065.97 179.025L1065.35 180.928ZM1078.66 184.329C1089.64 186.369 1099.63 189.232 1108.64 192.914L1109.4 191.063C1100.24 187.323 1090.12 184.424 1079.03 182.363L1078.66 184.329ZM1108.64 192.915C1117.7 196.575 1124.88 201.612 1130.22 208.01L1131.76 206.728C1126.17 200.04 1118.7 194.824 1109.39 191.061L1108.64 192.915ZM1130.23 208.017C1135.61 214.337 1138.34 222.731 1138.34 233.297H1140.34C1140.34 222.379 1137.51 213.487 1131.75 206.721L1130.23 208.017ZM1138.34 233.297C1138.34 240.169 1136.77 246.447 1133.63 252.151L1135.38 253.115C1138.69 247.1 1140.34 240.488 1140.34 233.297H1138.34ZM1133.63 252.162C1130.58 257.876 1126.14 262.893 1120.29 267.209L1121.48 268.818C1127.54 264.346 1132.19 259.109 1135.39 253.103L1133.63 252.162ZM1120.29 267.209C1114.44 271.524 1107.42 274.894 1099.22 277.308L1099.78 279.227C1108.17 276.758 1115.41 273.293 1121.48 268.818L1120.29 267.209ZM1099.22 277.308C1091.02 279.718 1081.75 280.93 1071.37 280.93V282.93C1081.9 282.93 1091.37 281.7 1099.78 279.227L1099.22 277.308ZM1071.37 280.93C1056.55 280.93 1044.07 278.265 1033.89 272.985L1032.97 274.761C1043.5 280.223 1056.32 282.93 1071.37 282.93V280.93ZM1033.89 272.985C1023.66 267.678 1016 261.046 1010.83 253.113L1009.16 254.204C1014.54 262.481 1022.5 269.326 1032.97 274.761L1033.89 272.985ZM1010.84 253.125C1005.75 245.06 1003.23 236.844 1003.23 228.463H1001.23C1001.23 237.269 1003.89 245.85 1009.15 254.192L1010.84 253.125ZM1002.23 229.463H1045.15V227.463H1002.23V229.463ZM1044.15 228.5C1044.35 233.918 1045.71 238.424 1048.3 241.946L1049.91 240.761C1047.62 237.642 1046.34 233.555 1046.15 228.426L1044.15 228.5ZM1048.31 241.961C1050.97 245.431 1054.39 247.982 1058.56 249.609L1059.29 247.746C1055.45 246.248 1052.33 243.917 1049.9 240.746L1048.31 241.961ZM1058.58 249.617C1062.71 251.128 1067.32 251.875 1072.4 251.875V249.875C1067.52 249.875 1063.14 249.157 1059.27 247.739L1058.58 249.617ZM1072.4 251.875C1077.46 251.875 1081.75 251.181 1085.23 249.749L1084.47 247.9C1081.31 249.202 1077.3 249.875 1072.4 249.875V251.875ZM1085.23 249.749C1088.68 248.329 1091.38 246.375 1093.27 243.858L1091.67 242.658C1090.04 244.828 1087.66 246.585 1084.47 247.9L1085.23 249.749ZM1093.28 243.842C1095.16 241.224 1096.1 238.234 1096.1 234.908H1094.1C1094.1 237.832 1093.29 240.409 1091.66 242.674L1093.28 243.842Z" fill="black" fill-opacity="0.05"/>
</g>
<g opacity="0.5" filter="url(#filter1_bd_63_1111)">
<path d="M531.578 222.75C531.578 219.137 531.041 215.914 529.967 213.082C528.893 210.152 526.939 207.467 524.107 205.025C521.275 202.584 517.271 200.143 512.096 197.701C506.92 195.162 500.133 192.574 491.734 189.938C482.164 186.812 473.033 183.297 464.342 179.391C455.748 175.387 448.082 170.748 441.344 165.475C434.605 160.201 429.283 154.049 425.377 147.018C421.568 139.986 419.664 131.783 419.664 122.408C419.664 113.326 421.666 105.123 425.67 97.7988C429.674 90.4746 435.289 84.2246 442.516 79.0488C449.742 73.7754 458.238 69.7715 468.004 67.0371C477.77 64.2051 488.512 62.7891 500.23 62.7891C515.855 62.7891 529.576 65.5723 541.393 71.1387C553.307 76.6074 562.584 84.3223 569.225 94.2832C575.865 104.146 579.186 115.621 579.186 128.707H531.725C531.725 122.945 530.504 117.867 528.062 113.473C525.719 108.98 522.105 105.465 517.223 102.926C512.438 100.387 506.432 99.1172 499.205 99.1172C492.174 99.1172 486.266 100.191 481.48 102.34C476.793 104.391 473.229 107.223 470.787 110.836C468.443 114.449 467.271 118.404 467.271 122.701C467.271 126.119 468.15 129.244 469.908 132.076C471.764 134.811 474.4 137.398 477.818 139.84C481.334 142.184 485.631 144.43 490.709 146.578C495.787 148.727 501.598 150.777 508.141 152.73C519.566 156.344 529.674 160.348 538.463 164.742C547.35 169.137 554.82 174.117 560.875 179.684C566.93 185.25 571.471 191.549 574.498 198.58C577.623 205.611 579.186 213.57 579.186 222.457C579.186 231.93 577.33 240.328 573.619 247.652C570.006 254.977 564.732 261.227 557.799 266.402C550.963 271.48 542.76 275.338 533.189 277.975C523.619 280.611 512.926 281.93 501.109 281.93C490.367 281.93 479.771 280.562 469.322 277.828C458.873 274.996 449.4 270.699 440.904 264.938C432.506 259.176 425.768 251.852 420.689 242.965C415.709 233.98 413.219 223.336 413.219 211.031H460.973C460.973 217.477 461.9 222.945 463.756 227.438C465.611 231.832 468.248 235.396 471.666 238.131C475.182 240.865 479.43 242.818 484.41 243.99C489.391 245.162 494.957 245.748 501.109 245.748C508.238 245.748 514 244.771 518.395 242.818C522.887 240.768 526.207 237.984 528.355 234.469C530.504 230.953 531.578 227.047 531.578 222.75ZM650.963 53.8535V279H605.113V53.8535H650.963ZM751.598 120.504L682.604 200.191L646.129 236.812L627.818 205.904L657.408 167.672L696.52 120.504H751.598ZM703.258 279L658.58 206.197L691.393 180.562L755.699 279H703.258ZM815.465 120.504V279H769.615V120.504H815.465ZM766.832 79.4883C766.832 72.8477 769.176 67.4277 773.863 63.2285C778.551 58.9316 784.703 56.7832 792.32 56.7832C799.938 56.7832 806.09 58.9316 810.777 63.2285C815.562 67.4277 817.955 72.8477 817.955 79.4883C817.955 86.0313 815.562 91.4512 810.777 95.748C806.09 99.9473 799.938 102.047 792.32 102.047C784.703 102.047 778.551 99.9473 773.863 95.748C769.176 91.4512 766.832 86.0313 766.832 79.4883ZM896.617 54V279H850.768V54H896.617ZM977.77 54V279H931.92V54H977.77ZM1095.1 234.908C1095.1 231.979 1094.18 229.391 1092.32 227.145C1090.56 224.898 1087.34 222.848 1082.65 220.992C1078.06 219.137 1071.57 217.281 1063.17 215.426C1055.26 213.766 1047.89 211.617 1041.05 208.98C1034.21 206.246 1028.26 202.975 1023.18 199.166C1018.1 195.26 1014.15 190.67 1011.31 185.396C1008.48 180.025 1007.07 173.922 1007.07 167.086C1007.07 160.445 1008.48 154.146 1011.31 148.189C1014.24 142.232 1018.44 136.959 1023.91 132.369C1029.48 127.779 1036.22 124.166 1044.13 121.529C1052.13 118.893 1061.22 117.574 1071.37 117.574C1085.34 117.574 1097.4 119.771 1107.55 124.166C1117.71 128.463 1125.52 134.518 1130.99 142.33C1136.46 150.045 1139.2 158.883 1139.2 168.844H1093.49C1093.49 164.742 1092.71 161.178 1091.15 158.15C1089.59 155.123 1087.19 152.779 1083.97 151.119C1080.75 149.361 1076.5 148.482 1071.23 148.482C1067.12 148.482 1063.51 149.215 1060.39 150.68C1057.36 152.047 1054.97 153.951 1053.21 156.393C1051.55 158.834 1050.72 161.666 1050.72 164.889C1050.72 167.135 1051.21 169.186 1052.18 171.041C1053.26 172.799 1054.87 174.459 1057.02 176.021C1059.26 177.486 1062.14 178.805 1065.66 179.977C1069.27 181.148 1073.67 182.271 1078.84 183.346C1089.88 185.396 1099.94 188.277 1109.02 191.988C1118.2 195.699 1125.52 200.826 1130.99 207.369C1136.56 213.912 1139.34 222.555 1139.34 233.297C1139.34 240.328 1137.73 246.773 1134.51 252.633C1131.38 258.492 1126.84 263.619 1120.88 268.014C1114.93 272.408 1107.8 275.826 1099.5 278.268C1091.2 280.709 1081.82 281.93 1071.37 281.93C1056.43 281.93 1043.79 279.244 1033.43 273.873C1023.08 268.502 1015.27 261.764 1010 253.658C1004.82 245.455 1002.23 237.057 1002.23 228.463H1045.15C1045.35 233.736 1046.67 238.033 1049.11 241.354C1051.65 244.674 1054.92 247.115 1058.92 248.678C1062.93 250.143 1067.42 250.875 1072.4 250.875C1077.38 250.875 1081.53 250.191 1084.85 248.824C1088.17 247.457 1090.71 245.602 1092.47 243.258C1094.22 240.816 1095.1 238.033 1095.1 234.908Z" fill="#FAE9E9" fill-opacity="0.3" shape-rendering="crispEdges"/>
<path d="M529.967 213.082L529.028 213.426L529.032 213.437L529.967 213.082ZM512.096 197.701L511.655 198.599L511.662 198.602L511.669 198.606L512.096 197.701ZM491.734 189.938L491.424 190.888L491.435 190.892L491.734 189.938ZM464.342 179.391L463.919 180.297L463.932 180.303L464.342 179.391ZM425.377 147.018L424.498 147.494L424.503 147.503L425.377 147.018ZM442.516 79.0488L443.098 79.8618L443.105 79.8566L442.516 79.0488ZM468.004 67.0371L468.274 68.0001L468.282 67.9975L468.004 67.0371ZM541.393 71.1387L540.966 72.0434L540.975 72.0475L541.393 71.1387ZM569.225 94.2832L568.393 94.8379L568.395 94.8417L569.225 94.2832ZM579.186 128.707V129.707H580.186V128.707H579.186ZM531.725 128.707H530.725V129.707H531.725V128.707ZM528.062 113.473L527.176 113.935L527.182 113.947L527.188 113.958L528.062 113.473ZM517.223 102.926L516.754 103.809L516.761 103.813L517.223 102.926ZM481.48 102.34L481.881 103.256L481.89 103.252L481.48 102.34ZM470.787 110.836L469.959 110.276L469.953 110.284L469.948 110.292L470.787 110.836ZM469.908 132.076L469.059 132.604L469.069 132.621L469.081 132.638L469.908 132.076ZM477.818 139.84L477.237 140.654L477.25 140.663L477.264 140.672L477.818 139.84ZM508.141 152.73L508.442 151.777L508.434 151.775L508.427 151.772L508.141 152.73ZM538.463 164.742L538.016 165.637L538.02 165.639L538.463 164.742ZM574.498 198.58L573.58 198.976L573.584 198.986L574.498 198.58ZM573.619 247.652L572.727 247.2L572.722 247.21L573.619 247.652ZM557.799 266.402L558.395 267.205L558.397 267.204L557.799 266.402ZM469.322 277.828L469.061 278.793L469.069 278.796L469.322 277.828ZM440.904 264.938L440.339 265.762L440.343 265.765L440.904 264.938ZM420.689 242.965L419.815 243.45L419.821 243.461L420.689 242.965ZM413.219 211.031V210.031H412.219V211.031H413.219ZM460.973 211.031H461.973V210.031H460.973V211.031ZM463.756 227.438L462.832 227.819L462.835 227.826L463.756 227.438ZM471.666 238.131L471.041 238.912L471.052 238.92L471.666 238.131ZM518.395 242.818L518.801 243.732L518.81 243.728L518.395 242.818ZM532.578 222.75C532.578 219.038 532.026 215.692 530.902 212.727L529.032 213.437C530.056 216.136 530.578 219.235 530.578 222.75H532.578ZM530.906 212.738C529.762 209.619 527.696 206.799 524.76 204.268L523.454 205.783C526.183 208.135 528.023 210.685 529.028 213.426L530.906 212.738ZM524.76 204.268C521.834 201.745 517.741 199.259 512.522 196.797L511.669 198.606C516.802 201.027 520.717 203.423 523.454 205.783L524.76 204.268ZM512.536 196.803C507.298 194.234 500.458 191.628 492.034 188.983L491.435 190.892C499.807 193.52 506.542 196.091 511.655 198.599L512.536 196.803ZM492.045 188.987C482.506 185.872 473.409 182.369 464.752 178.479L463.932 180.303C472.658 184.224 481.822 187.753 491.424 190.888L492.045 188.987ZM464.764 178.484C456.232 174.509 448.632 169.909 441.96 164.687L440.727 166.262C447.532 171.587 455.264 176.264 463.919 180.297L464.764 178.484ZM441.96 164.687C435.32 159.491 430.088 153.439 426.251 146.532L424.503 147.503C428.478 154.659 433.891 160.912 440.727 166.262L441.96 164.687ZM426.256 146.541C422.54 139.68 420.664 131.646 420.664 122.408H418.664C418.664 131.921 420.597 140.293 424.498 147.494L426.256 146.541ZM420.664 122.408C420.664 113.479 422.631 105.443 426.547 98.2785L424.792 97.3192C420.701 104.803 418.664 113.174 418.664 122.408H420.664ZM426.547 98.2785C430.475 91.0946 435.985 84.9559 443.098 79.8618L441.933 78.2358C434.593 83.4933 428.873 89.8546 424.792 97.3192L426.547 98.2785ZM443.105 79.8566C450.223 74.6623 458.608 70.7065 468.274 68.0001L467.734 66.0741C457.869 68.8365 449.261 72.8884 441.926 78.241L443.105 79.8566ZM468.282 67.9975C477.945 65.1954 488.592 63.7891 500.23 63.7891V61.7891C488.432 61.7891 477.594 63.2148 467.725 66.0767L468.282 67.9975ZM500.23 63.7891C515.737 63.7891 529.307 66.5508 540.966 72.0433L541.819 70.234C529.845 64.5937 515.974 61.7891 500.23 61.7891V63.7891ZM540.975 72.0475C552.738 77.4465 561.864 85.0457 568.393 94.8379L570.057 93.7285C563.304 83.5989 553.876 75.7683 541.81 70.2298L540.975 72.0475ZM568.395 94.8417C574.914 104.523 578.186 115.799 578.186 128.707H580.186C580.186 115.443 576.817 103.77 570.054 93.7247L568.395 94.8417ZM579.186 127.707H531.725V129.707H579.186V127.707ZM532.725 128.707C532.725 122.8 531.472 117.551 528.937 112.987L527.188 113.958C529.536 118.184 530.725 123.09 530.725 128.707H532.725ZM528.949 113.01C526.502 108.32 522.732 104.664 517.684 102.039L516.761 103.813C521.479 106.266 524.935 109.641 527.176 113.935L528.949 113.01ZM517.691 102.042C512.722 99.4055 506.543 98.1172 499.205 98.1172V100.117C506.321 100.117 512.153 101.368 516.754 103.809L517.691 102.042ZM499.205 98.1172C492.078 98.1172 486.021 99.2052 481.071 101.428L481.89 103.252C486.51 101.178 492.269 100.117 499.205 100.117V98.1172ZM481.08 101.424C476.249 103.537 472.523 106.48 469.959 110.276L471.616 111.396C473.934 107.965 477.337 105.244 481.881 103.256L481.08 101.424ZM469.948 110.292C467.5 114.067 466.271 118.211 466.271 122.701H468.271C468.271 118.598 469.387 114.832 471.626 111.38L469.948 110.292ZM466.271 122.701C466.271 126.301 467.2 129.609 469.059 132.604L470.758 131.549C469.101 128.879 468.271 125.938 468.271 122.701H466.271ZM469.081 132.638C471.018 135.493 473.748 138.161 477.237 140.654L478.4 139.026C475.053 136.636 472.509 134.129 470.736 131.515L469.081 132.638ZM477.264 140.672C480.844 143.059 485.2 145.333 490.319 147.499L491.099 145.657C486.062 143.526 481.824 141.308 478.373 139.008L477.264 140.672ZM490.319 147.499C495.438 149.665 501.284 151.727 507.855 153.689L508.427 151.772C501.911 149.827 496.136 147.788 491.099 145.657L490.319 147.499ZM507.839 153.684C519.225 157.285 529.282 161.27 538.016 165.637L538.91 163.848C530.065 159.425 519.908 155.403 508.442 151.777L507.839 153.684ZM538.02 165.639C546.838 169.999 554.226 174.929 560.198 180.42L561.552 178.947C555.415 173.305 547.861 168.274 538.906 163.846L538.02 165.639ZM560.198 180.42C566.157 185.898 570.612 192.083 573.58 198.976L575.417 198.185C572.329 191.015 567.702 184.602 561.552 178.947L560.198 180.42ZM573.584 198.986C576.644 205.871 578.186 213.689 578.186 222.457H580.186C580.186 213.452 578.602 205.351 575.412 198.174L573.584 198.986ZM578.186 222.457C578.186 231.797 576.357 240.036 572.727 247.2L574.511 248.104C578.303 240.62 580.186 232.063 580.186 222.457H578.186ZM572.722 247.21C569.183 254.384 564.016 260.514 557.201 265.601L558.397 267.204C565.449 261.939 570.829 255.569 574.516 248.095L572.722 247.21ZM557.203 265.6C550.481 270.593 542.394 274.401 532.924 277.011L533.455 278.939C543.125 276.274 551.445 272.368 558.395 267.205L557.203 265.6ZM532.924 277.011C523.455 279.619 512.853 280.93 501.109 280.93V282.93C512.999 282.93 523.784 281.603 533.455 278.939L532.924 277.011ZM501.109 280.93C490.453 280.93 479.942 279.574 469.575 276.861L469.069 278.796C479.601 281.551 490.281 282.93 501.109 282.93V280.93ZM469.584 276.863C459.236 274.058 449.865 269.806 441.466 264.11L440.343 265.765C448.936 271.592 458.511 275.934 469.061 278.793L469.584 276.863ZM441.47 264.113C433.197 258.437 426.561 251.225 421.558 242.469L419.821 243.461C424.974 252.478 431.815 259.915 440.339 265.762L441.47 264.113ZM421.564 242.48C416.681 233.671 414.219 223.2 414.219 211.031H412.219C412.219 223.472 414.737 234.29 419.815 243.45L421.564 242.48ZM413.219 212.031H460.973V210.031H413.219V212.031ZM459.973 211.031C459.973 217.567 460.913 223.174 462.832 227.819L464.68 227.056C462.888 222.717 461.973 217.386 461.973 211.031H459.973ZM462.835 227.826C464.749 232.36 467.482 236.064 471.041 238.912L472.291 237.35C469.014 234.729 466.474 231.304 464.677 227.049L462.835 227.826ZM471.052 238.92C474.697 241.755 479.081 243.764 484.181 244.964L484.639 243.017C479.778 241.873 475.666 239.975 472.28 237.342L471.052 238.92ZM484.181 244.964C489.25 246.156 494.895 246.748 501.109 246.748V244.748C495.019 244.748 489.531 244.168 484.639 243.017L484.181 244.964ZM501.109 246.748C508.317 246.748 514.232 245.763 518.801 243.732L517.988 241.905C513.768 243.78 508.16 244.748 501.109 244.748V246.748ZM518.81 243.728C523.447 241.611 526.937 238.707 529.209 234.99L527.502 233.947C525.477 237.261 522.327 239.924 517.979 241.909L518.81 243.728ZM529.209 234.99C531.457 231.311 532.578 227.223 532.578 222.75H530.578C530.578 226.871 529.55 230.596 527.502 233.947L529.209 234.99ZM650.963 53.8535H651.963V52.8535H650.963V53.8535ZM650.963 279V280H651.963V279H650.963ZM605.113 279H604.113V280H605.113V279ZM605.113 53.8535V52.8535H604.113V53.8535H605.113ZM751.598 120.504L752.354 121.158L753.786 119.504H751.598V120.504ZM682.604 200.191L683.312 200.897L683.337 200.872L683.359 200.846L682.604 200.191ZM646.129 236.812L645.269 237.322L645.927 238.433L646.837 237.518L646.129 236.812ZM627.818 205.904L627.028 205.292L626.612 205.829L626.958 206.414L627.818 205.904ZM657.408 167.672L656.638 167.034L656.628 167.047L656.617 167.06L657.408 167.672ZM696.52 120.504V119.504H696.05L695.75 119.866L696.52 120.504ZM703.258 279L702.406 279.523L702.698 280H703.258V279ZM658.58 206.197L657.964 205.409L657.261 205.959L657.728 206.72L658.58 206.197ZM691.393 180.562L692.23 180.016L691.635 179.104L690.777 179.774L691.393 180.562ZM755.699 279V280H757.547L756.536 278.453L755.699 279ZM649.963 53.8535V279H651.963V53.8535H649.963ZM650.963 278H605.113V280H650.963V278ZM606.113 279V53.8535H604.113V279H606.113ZM605.113 54.8535H650.963V52.8535H605.113V54.8535ZM750.842 119.849L681.848 199.537L683.359 200.846L752.354 121.158L750.842 119.849ZM681.895 199.486L645.42 236.107L646.837 237.518L683.312 200.897L681.895 199.486ZM646.989 236.303L628.679 205.395L626.958 206.414L645.269 237.322L646.989 236.303ZM628.609 206.516L658.199 168.284L656.617 167.06L627.028 205.292L628.609 206.516ZM658.178 168.31L697.289 121.142L695.75 119.866L656.638 167.034L658.178 168.31ZM696.52 121.504H751.598V119.504H696.52V121.504ZM704.11 278.477L659.432 205.674L657.728 206.72L702.406 279.523L704.11 278.477ZM659.196 206.985L692.008 181.351L690.777 179.774L657.964 205.409L659.196 206.985ZM690.555 181.109L754.862 279.547L756.536 278.453L692.23 180.016L690.555 181.109ZM755.699 278H703.258V280H755.699V278ZM815.465 120.504H816.465V119.504H815.465V120.504ZM815.465 279V280H816.465V279H815.465ZM769.615 279H768.615V280H769.615V279ZM769.615 120.504V119.504H768.615V120.504H769.615ZM773.863 63.2285L774.531 63.9734L774.539 63.9657L773.863 63.2285ZM810.777 63.2285L810.102 63.9657L810.11 63.973L810.118 63.9801L810.777 63.2285ZM810.777 95.748L811.445 96.4929L811.445 96.4921L810.777 95.748ZM773.863 95.748L773.188 96.4853L773.196 96.4929L773.863 95.748ZM814.465 120.504V279H816.465V120.504H814.465ZM815.465 278H769.615V280H815.465V278ZM770.615 279V120.504H768.615V279H770.615ZM769.615 121.504H815.465V119.504H769.615V121.504ZM767.832 79.4883C767.832 73.1142 770.068 67.9713 774.531 63.9734L773.196 62.4837C768.284 66.8841 765.832 72.5811 765.832 79.4883H767.832ZM774.539 63.9657C779.007 59.8702 784.901 57.7832 792.32 57.7832V55.7832C784.505 55.7832 778.095 57.9931 773.188 62.4914L774.539 63.9657ZM792.32 57.7832C799.74 57.7832 805.634 59.8702 810.102 63.9657L811.453 62.4914C806.546 57.9931 800.135 55.7832 792.32 55.7832V57.7832ZM810.118 63.9801C814.676 67.9804 816.955 73.1214 816.955 79.4883H818.955C818.955 72.5739 816.449 66.8751 811.437 62.4769L810.118 63.9801ZM816.955 79.4883C816.955 85.753 814.679 90.9005 810.109 95.004L811.445 96.4921C816.446 92.0018 818.955 86.3095 818.955 79.4883H816.955ZM810.11 95.0032C805.643 99.0051 799.746 101.047 792.32 101.047V103.047C800.129 103.047 806.537 100.889 811.445 96.4929L810.11 95.0032ZM792.32 101.047C784.895 101.047 778.998 99.0051 774.531 95.0032L773.196 96.4929C778.104 100.889 784.511 103.047 792.32 103.047V101.047ZM774.539 95.0109C770.065 90.9096 767.832 85.7601 767.832 79.4883H765.832C765.832 86.3024 768.287 91.9928 773.188 96.4852L774.539 95.0109ZM896.617 54H897.617V53H896.617V54ZM896.617 279V280H897.617V279H896.617ZM850.768 279H849.768V280H850.768V279ZM850.768 54V53H849.768V54H850.768ZM895.617 54V279H897.617V54H895.617ZM896.617 278H850.768V280H896.617V278ZM851.768 279V54H849.768V279H851.768ZM850.768 55H896.617V53H850.768V55ZM977.77 54H978.77V53H977.77V54ZM977.77 279V280H978.77V279H977.77ZM931.92 279H930.92V280H931.92V279ZM931.92 54V53H930.92V54H931.92ZM976.77 54V279H978.77V54H976.77ZM977.77 278H931.92V280H977.77V278ZM932.92 279V54H930.92V279H932.92ZM931.92 55H977.77V53H931.92V55ZM1092.32 227.145L1091.53 227.761L1091.54 227.771L1091.55 227.781L1092.32 227.145ZM1082.65 220.992L1082.28 221.919L1082.28 221.922L1082.65 220.992ZM1063.17 215.426L1063.39 214.449L1063.38 214.447L1063.17 215.426ZM1041.05 208.98L1040.68 209.909L1040.69 209.913L1041.05 208.98ZM1023.18 199.166L1022.57 199.959L1022.58 199.966L1023.18 199.166ZM1011.31 185.396L1010.43 185.863L1010.43 185.87L1011.31 185.396ZM1011.31 148.189L1010.42 147.748L1010.41 147.76L1011.31 148.189ZM1023.91 132.369L1023.28 131.598L1023.27 131.603L1023.91 132.369ZM1044.13 121.529L1043.81 120.579L1043.81 120.581L1044.13 121.529ZM1107.55 124.166L1107.16 125.084L1107.17 125.087L1107.55 124.166ZM1130.99 142.33L1130.17 142.904L1130.18 142.908L1130.99 142.33ZM1139.2 168.844V169.844H1140.2V168.844H1139.2ZM1093.49 168.844H1092.49V169.844H1093.49V168.844ZM1083.97 151.119L1083.49 151.997L1083.5 152.003L1083.51 152.008L1083.97 151.119ZM1060.39 150.68L1060.8 151.591L1060.81 151.585L1060.39 150.68ZM1053.21 156.393L1052.4 155.808L1052.39 155.819L1052.38 155.83L1053.21 156.393ZM1052.18 171.041L1051.3 171.507L1051.31 171.535L1051.33 171.562L1052.18 171.041ZM1057.02 176.021L1056.43 176.83L1056.45 176.845L1056.47 176.859L1057.02 176.021ZM1065.66 179.977L1065.34 180.925L1065.35 180.928L1065.66 179.977ZM1078.84 183.346L1078.64 184.325L1078.65 184.327L1078.66 184.329L1078.84 183.346ZM1109.02 191.988L1108.64 192.914L1108.64 192.915L1109.02 191.988ZM1130.99 207.369L1130.22 208.01L1130.23 208.017L1130.99 207.369ZM1134.51 252.633L1133.63 252.151L1133.63 252.162L1134.51 252.633ZM1010 253.658L1009.15 254.192L1009.16 254.204L1010 253.658ZM1002.23 228.463V227.463H1001.23V228.463H1002.23ZM1045.15 228.463L1046.15 228.426L1046.12 227.463H1045.15V228.463ZM1049.11 241.354L1048.3 241.946L1048.31 241.953L1048.31 241.961L1049.11 241.354ZM1058.92 248.678L1058.56 249.609L1058.57 249.613L1058.58 249.617L1058.92 248.678ZM1092.47 243.258L1093.27 243.858L1093.27 243.85L1093.28 243.842L1092.47 243.258ZM1096.1 234.908C1096.1 231.747 1095.1 228.934 1093.09 226.508L1091.55 227.781C1093.26 229.847 1094.1 232.21 1094.1 234.908H1096.1ZM1093.11 226.528C1091.19 224.072 1087.76 221.94 1083.02 220.062L1082.28 221.922C1086.92 223.756 1089.94 225.725 1091.53 227.761L1093.11 226.528ZM1083.03 220.065C1078.36 218.179 1071.81 216.309 1063.39 214.449L1062.95 216.402C1071.33 218.253 1077.76 220.094 1082.28 221.919L1083.03 220.065ZM1063.38 214.447C1055.51 212.797 1048.19 210.663 1041.41 208.047L1040.69 209.913C1047.58 212.571 1055.01 214.734 1062.96 216.404L1063.38 214.447ZM1041.42 208.052C1034.66 205.345 1028.78 202.114 1023.78 198.366L1022.58 199.966C1027.74 203.835 1033.77 207.147 1040.68 209.909L1041.42 208.052ZM1023.79 198.373C1018.82 194.547 1014.96 190.064 1012.2 184.923L1010.43 185.87C1013.34 191.276 1017.39 195.972 1022.57 199.959L1023.79 198.373ZM1012.2 184.93C1009.45 179.72 1008.07 173.78 1008.07 167.086H1006.07C1006.07 174.064 1007.51 180.331 1010.43 185.863L1012.2 184.93ZM1008.07 167.086C1008.07 160.593 1009.45 154.441 1012.22 148.619L1010.41 147.76C1007.52 153.852 1006.07 160.298 1006.07 167.086H1008.07ZM1012.21 148.631C1015.08 142.808 1019.18 137.642 1024.55 133.135L1023.27 131.603C1017.7 136.276 1013.41 141.657 1010.42 147.748L1012.21 148.631ZM1024.55 133.141C1030.01 128.64 1036.63 125.082 1044.44 122.478L1043.81 120.581C1035.8 123.25 1028.95 126.918 1023.28 131.598L1024.55 133.141ZM1044.44 122.479C1052.33 119.882 1061.3 118.574 1071.37 118.574V116.574C1061.13 116.574 1051.94 117.904 1043.81 120.579L1044.44 122.479ZM1071.37 118.574C1085.24 118.574 1097.15 120.756 1107.16 125.084L1107.95 123.248C1097.64 118.787 1085.44 116.574 1071.37 116.574V118.574ZM1107.17 125.087C1117.18 129.322 1124.83 135.268 1130.17 142.904L1131.81 141.757C1126.22 133.767 1118.25 127.603 1107.94 123.245L1107.17 125.087ZM1130.18 142.908C1135.52 150.445 1138.2 159.078 1138.2 168.844H1140.2C1140.2 158.687 1137.4 149.645 1131.81 141.752L1130.18 142.908ZM1139.2 167.844H1093.49V169.844H1139.2V167.844ZM1094.49 168.844C1094.49 164.615 1093.69 160.887 1092.04 157.692L1090.26 158.609C1091.74 161.468 1092.49 164.87 1092.49 168.844H1094.49ZM1092.04 157.692C1090.37 154.468 1087.82 151.979 1084.43 150.23L1083.51 152.008C1086.56 153.58 1088.8 155.779 1090.26 158.609L1092.04 157.692ZM1084.45 150.241C1081.03 148.376 1076.6 147.482 1071.23 147.482V149.482C1076.4 149.482 1080.47 150.347 1083.49 151.997L1084.45 150.241ZM1071.23 147.482C1067.01 147.482 1063.24 148.236 1059.96 149.774L1060.81 151.585C1063.78 150.193 1067.24 149.482 1071.23 149.482V147.482ZM1059.98 149.768C1056.81 151.2 1054.27 153.21 1052.4 155.808L1054.02 156.977C1055.67 154.692 1057.91 152.894 1060.8 151.591L1059.98 149.768ZM1052.38 155.83C1050.6 158.453 1049.72 161.485 1049.72 164.889H1051.72C1051.72 161.847 1052.5 159.215 1054.04 156.955L1052.38 155.83ZM1049.72 164.889C1049.72 167.285 1050.24 169.498 1051.3 171.507L1053.07 170.575C1052.17 168.874 1051.72 166.984 1051.72 164.889H1049.72ZM1051.33 171.562C1052.49 173.46 1054.2 175.212 1056.43 176.83L1057.61 175.213C1055.53 173.706 1054.03 172.138 1053.04 170.52L1051.33 171.562ZM1056.47 176.859C1058.81 178.385 1061.78 179.736 1065.34 180.925L1065.98 179.028C1062.51 177.874 1059.72 176.588 1057.56 175.184L1056.47 176.859ZM1065.35 180.928C1069.01 182.114 1073.44 183.246 1078.64 184.325L1079.05 182.367C1073.89 181.297 1069.54 180.183 1065.97 179.025L1065.35 180.928ZM1078.66 184.329C1089.64 186.369 1099.63 189.232 1108.64 192.914L1109.4 191.063C1100.24 187.323 1090.12 184.424 1079.03 182.363L1078.66 184.329ZM1108.64 192.915C1117.7 196.575 1124.88 201.612 1130.22 208.01L1131.76 206.728C1126.17 200.04 1118.7 194.824 1109.39 191.061L1108.64 192.915ZM1130.23 208.017C1135.61 214.337 1138.34 222.731 1138.34 233.297H1140.34C1140.34 222.379 1137.51 213.487 1131.75 206.721L1130.23 208.017ZM1138.34 233.297C1138.34 240.169 1136.77 246.447 1133.63 252.151L1135.38 253.115C1138.69 247.1 1140.34 240.488 1140.34 233.297H1138.34ZM1133.63 252.162C1130.58 257.876 1126.14 262.893 1120.29 267.209L1121.48 268.818C1127.54 264.346 1132.19 259.109 1135.39 253.103L1133.63 252.162ZM1120.29 267.209C1114.44 271.524 1107.42 274.894 1099.22 277.308L1099.78 279.227C1108.17 276.758 1115.41 273.293 1121.48 268.818L1120.29 267.209ZM1099.22 277.308C1091.02 279.718 1081.75 280.93 1071.37 280.93V282.93C1081.9 282.93 1091.37 281.7 1099.78 279.227L1099.22 277.308ZM1071.37 280.93C1056.55 280.93 1044.07 278.265 1033.89 272.985L1032.97 274.761C1043.5 280.223 1056.32 282.93 1071.37 282.93V280.93ZM1033.89 272.985C1023.66 267.678 1016 261.046 1010.83 253.113L1009.16 254.204C1014.54 262.481 1022.5 269.326 1032.97 274.761L1033.89 272.985ZM1010.84 253.125C1005.75 245.06 1003.23 236.844 1003.23 228.463H1001.23C1001.23 237.269 1003.89 245.85 1009.15 254.192L1010.84 253.125ZM1002.23 229.463H1045.15V227.463H1002.23V229.463ZM1044.15 228.5C1044.35 233.918 1045.71 238.424 1048.3 241.946L1049.91 240.761C1047.62 237.642 1046.34 233.555 1046.15 228.426L1044.15 228.5ZM1048.31 241.961C1050.97 245.431 1054.39 247.982 1058.56 249.609L1059.29 247.746C1055.45 246.248 1052.33 243.917 1049.9 240.746L1048.31 241.961ZM1058.58 249.617C1062.71 251.128 1067.32 251.875 1072.4 251.875V249.875C1067.52 249.875 1063.14 249.157 1059.27 247.739L1058.58 249.617ZM1072.4 251.875C1077.46 251.875 1081.75 251.181 1085.23 249.749L1084.47 247.9C1081.31 249.202 1077.3 249.875 1072.4 249.875V251.875ZM1085.23 249.749C1088.68 248.329 1091.38 246.375 1093.27 243.858L1091.67 242.658C1090.04 244.828 1087.66 246.585 1084.47 247.9L1085.23 249.749ZM1093.28 243.842C1095.16 241.224 1096.1 238.234 1096.1 234.908H1094.1C1094.1 237.832 1093.29 240.409 1091.66 242.674L1093.28 243.842Z" fill="black" fill-opacity="0.05"/>
</g>
<g opacity="0.5" filter="url(#filter2_bd_63_1111)">
<path d="M531.578 278.75C531.578 275.137 531.041 271.914 529.967 269.082C528.893 266.152 526.939 263.467 524.107 261.025C521.275 258.584 517.271 256.143 512.096 253.701C506.92 251.162 500.133 248.574 491.734 245.938C482.164 242.812 473.033 239.297 464.342 235.391C455.748 231.387 448.082 226.748 441.344 221.475C434.605 216.201 429.283 210.049 425.377 203.018C421.568 195.986 419.664 187.783 419.664 178.408C419.664 169.326 421.666 161.123 425.67 153.799C429.674 146.475 435.289 140.225 442.516 135.049C449.742 129.775 458.238 125.771 468.004 123.037C477.77 120.205 488.512 118.789 500.23 118.789C515.855 118.789 529.576 121.572 541.393 127.139C553.307 132.607 562.584 140.322 569.225 150.283C575.865 160.146 579.186 171.621 579.186 184.707H531.725C531.725 178.945 530.504 173.867 528.062 169.473C525.719 164.98 522.105 161.465 517.223 158.926C512.438 156.387 506.432 155.117 499.205 155.117C492.174 155.117 486.266 156.191 481.48 158.34C476.793 160.391 473.229 163.223 470.787 166.836C468.443 170.449 467.271 174.404 467.271 178.701C467.271 182.119 468.15 185.244 469.908 188.076C471.764 190.811 474.4 193.398 477.818 195.84C481.334 198.184 485.631 200.43 490.709 202.578C495.787 204.727 501.598 206.777 508.141 208.73C519.566 212.344 529.674 216.348 538.463 220.742C547.35 225.137 554.82 230.117 560.875 235.684C566.93 241.25 571.471 247.549 574.498 254.58C577.623 261.611 579.186 269.57 579.186 278.457C579.186 287.93 577.33 296.328 573.619 303.652C570.006 310.977 564.732 317.227 557.799 322.402C550.963 327.48 542.76 331.338 533.189 333.975C523.619 336.611 512.926 337.93 501.109 337.93C490.367 337.93 479.771 336.562 469.322 333.828C458.873 330.996 449.4 326.699 440.904 320.938C432.506 315.176 425.768 307.852 420.689 298.965C415.709 289.98 413.219 279.336 413.219 267.031H460.973C460.973 273.477 461.9 278.945 463.756 283.438C465.611 287.832 468.248 291.396 471.666 294.131C475.182 296.865 479.43 298.818 484.41 299.99C489.391 301.162 494.957 301.748 501.109 301.748C508.238 301.748 514 300.771 518.395 298.818C522.887 296.768 526.207 293.984 528.355 290.469C530.504 286.953 531.578 283.047 531.578 278.75ZM650.963 109.854V335H605.113V109.854H650.963ZM751.598 176.504L682.604 256.191L646.129 292.812L627.818 261.904L657.408 223.672L696.52 176.504H751.598ZM703.258 335L658.58 262.197L691.393 236.562L755.699 335H703.258ZM815.465 176.504V335H769.615V176.504H815.465ZM766.832 135.488C766.832 128.848 769.176 123.428 773.863 119.229C778.551 114.932 784.703 112.783 792.32 112.783C799.938 112.783 806.09 114.932 810.777 119.229C815.562 123.428 817.955 128.848 817.955 135.488C817.955 142.031 815.562 147.451 810.777 151.748C806.09 155.947 799.938 158.047 792.32 158.047C784.703 158.047 778.551 155.947 773.863 151.748C769.176 147.451 766.832 142.031 766.832 135.488ZM896.617 110V335H850.768V110H896.617ZM977.77 110V335H931.92V110H977.77ZM1095.1 290.908C1095.1 287.979 1094.18 285.391 1092.32 283.145C1090.56 280.898 1087.34 278.848 1082.65 276.992C1078.06 275.137 1071.57 273.281 1063.17 271.426C1055.26 269.766 1047.89 267.617 1041.05 264.98C1034.21 262.246 1028.26 258.975 1023.18 255.166C1018.1 251.26 1014.15 246.67 1011.31 241.396C1008.48 236.025 1007.07 229.922 1007.07 223.086C1007.07 216.445 1008.48 210.146 1011.31 204.189C1014.24 198.232 1018.44 192.959 1023.91 188.369C1029.48 183.779 1036.22 180.166 1044.13 177.529C1052.13 174.893 1061.22 173.574 1071.37 173.574C1085.34 173.574 1097.4 175.771 1107.55 180.166C1117.71 184.463 1125.52 190.518 1130.99 198.33C1136.46 206.045 1139.2 214.883 1139.2 224.844H1093.49C1093.49 220.742 1092.71 217.178 1091.15 214.15C1089.59 211.123 1087.19 208.779 1083.97 207.119C1080.75 205.361 1076.5 204.482 1071.23 204.482C1067.12 204.482 1063.51 205.215 1060.39 206.68C1057.36 208.047 1054.97 209.951 1053.21 212.393C1051.55 214.834 1050.72 217.666 1050.72 220.889C1050.72 223.135 1051.21 225.186 1052.18 227.041C1053.26 228.799 1054.87 230.459 1057.02 232.021C1059.26 233.486 1062.14 234.805 1065.66 235.977C1069.27 237.148 1073.67 238.271 1078.84 239.346C1089.88 241.396 1099.94 244.277 1109.02 247.988C1118.2 251.699 1125.52 256.826 1130.99 263.369C1136.56 269.912 1139.34 278.555 1139.34 289.297C1139.34 296.328 1137.73 302.773 1134.51 308.633C1131.38 314.492 1126.84 319.619 1120.88 324.014C1114.93 328.408 1107.8 331.826 1099.5 334.268C1091.2 336.709 1081.82 337.93 1071.37 337.93C1056.43 337.93 1043.79 335.244 1033.43 329.873C1023.08 324.502 1015.27 317.764 1010 309.658C1004.82 301.455 1002.23 293.057 1002.23 284.463H1045.15C1045.35 289.736 1046.67 294.033 1049.11 297.354C1051.65 300.674 1054.92 303.115 1058.92 304.678C1062.93 306.143 1067.42 306.875 1072.4 306.875C1077.38 306.875 1081.53 306.191 1084.85 304.824C1088.17 303.457 1090.71 301.602 1092.47 299.258C1094.22 296.816 1095.1 294.033 1095.1 290.908Z" fill="#FAE9E9" fill-opacity="0.1" shape-rendering="crispEdges"/>
<path d="M529.967 269.082L529.028 269.426L529.032 269.437L529.967 269.082ZM512.096 253.701L511.655 254.599L511.662 254.602L511.669 254.606L512.096 253.701ZM491.734 245.938L491.424 246.888L491.435 246.892L491.734 245.938ZM464.342 235.391L463.919 236.297L463.932 236.303L464.342 235.391ZM425.377 203.018L424.498 203.494L424.503 203.503L425.377 203.018ZM442.516 135.049L443.098 135.862L443.105 135.857L442.516 135.049ZM468.004 123.037L468.274 124L468.282 123.998L468.004 123.037ZM541.393 127.139L540.966 128.043L540.975 128.048L541.393 127.139ZM569.225 150.283L568.393 150.838L568.395 150.842L569.225 150.283ZM579.186 184.707V185.707H580.186V184.707H579.186ZM531.725 184.707H530.725V185.707H531.725V184.707ZM528.062 169.473L527.176 169.935L527.182 169.947L527.188 169.958L528.062 169.473ZM517.223 158.926L516.754 159.809L516.761 159.813L517.223 158.926ZM481.48 158.34L481.881 159.256L481.89 159.252L481.48 158.34ZM470.787 166.836L469.959 166.276L469.953 166.284L469.948 166.292L470.787 166.836ZM469.908 188.076L469.059 188.604L469.069 188.621L469.081 188.638L469.908 188.076ZM477.818 195.84L477.237 196.654L477.25 196.663L477.264 196.672L477.818 195.84ZM508.141 208.73L508.442 207.777L508.434 207.775L508.427 207.772L508.141 208.73ZM538.463 220.742L538.016 221.637L538.02 221.639L538.463 220.742ZM574.498 254.58L573.58 254.976L573.584 254.986L574.498 254.58ZM573.619 303.652L572.727 303.2L572.722 303.21L573.619 303.652ZM557.799 322.402L558.395 323.205L558.397 323.204L557.799 322.402ZM469.322 333.828L469.061 334.793L469.069 334.796L469.322 333.828ZM440.904 320.938L440.339 321.762L440.343 321.765L440.904 320.938ZM420.689 298.965L419.815 299.45L419.821 299.461L420.689 298.965ZM413.219 267.031V266.031H412.219V267.031H413.219ZM460.973 267.031H461.973V266.031H460.973V267.031ZM463.756 283.438L462.832 283.819L462.835 283.826L463.756 283.438ZM471.666 294.131L471.041 294.912L471.052 294.92L471.666 294.131ZM518.395 298.818L518.801 299.732L518.81 299.728L518.395 298.818ZM532.578 278.75C532.578 275.038 532.026 271.692 530.902 268.727L529.032 269.437C530.056 272.136 530.578 275.235 530.578 278.75H532.578ZM530.906 268.738C529.762 265.619 527.696 262.799 524.76 260.268L523.454 261.783C526.183 264.135 528.023 266.685 529.028 269.426L530.906 268.738ZM524.76 260.268C521.834 257.745 517.741 255.259 512.522 252.797L511.669 254.606C516.802 257.027 520.717 259.423 523.454 261.783L524.76 260.268ZM512.536 252.803C507.298 250.234 500.458 247.628 492.034 244.983L491.435 246.892C499.807 249.52 506.542 252.091 511.655 254.599L512.536 252.803ZM492.045 244.987C482.506 241.872 473.409 238.369 464.752 234.479L463.932 236.303C472.658 240.224 481.822 243.753 491.424 246.888L492.045 244.987ZM464.764 234.484C456.232 230.509 448.632 225.909 441.96 220.687L440.727 222.262C447.532 227.587 455.264 232.264 463.919 236.297L464.764 234.484ZM441.96 220.687C435.32 215.491 430.088 209.439 426.251 202.532L424.503 203.503C428.478 210.659 433.891 216.912 440.727 222.262L441.96 220.687ZM426.256 202.541C422.54 195.68 420.664 187.646 420.664 178.408H418.664C418.664 187.921 420.597 196.293 424.498 203.494L426.256 202.541ZM420.664 178.408C420.664 169.479 422.631 161.443 426.547 154.279L424.792 153.319C420.701 160.803 418.664 169.174 418.664 178.408H420.664ZM426.547 154.279C430.475 147.095 435.985 140.956 443.098 135.862L441.933 134.236C434.593 139.493 428.873 145.855 424.792 153.319L426.547 154.279ZM443.105 135.857C450.223 130.662 458.608 126.707 468.274 124L467.734 122.074C457.869 124.836 449.261 128.888 441.926 134.241L443.105 135.857ZM468.282 123.998C477.945 121.195 488.592 119.789 500.23 119.789V117.789C488.432 117.789 477.594 119.215 467.725 122.077L468.282 123.998ZM500.23 119.789C515.737 119.789 529.307 122.551 540.966 128.043L541.819 126.234C529.845 120.594 515.974 117.789 500.23 117.789V119.789ZM540.975 128.048C552.738 133.447 561.864 141.046 568.393 150.838L570.057 149.729C563.304 139.599 553.876 131.768 541.81 126.23L540.975 128.048ZM568.395 150.842C574.914 160.523 578.186 171.799 578.186 184.707H580.186C580.186 171.443 576.817 159.77 570.054 149.725L568.395 150.842ZM579.186 183.707H531.725V185.707H579.186V183.707ZM532.725 184.707C532.725 178.8 531.472 173.551 528.937 168.987L527.188 169.958C529.536 174.184 530.725 179.09 530.725 184.707H532.725ZM528.949 169.01C526.502 164.32 522.732 160.664 517.684 158.039L516.761 159.813C521.479 162.266 524.935 165.641 527.176 169.935L528.949 169.01ZM517.691 158.042C512.722 155.405 506.543 154.117 499.205 154.117V156.117C506.321 156.117 512.153 157.368 516.754 159.809L517.691 158.042ZM499.205 154.117C492.078 154.117 486.021 155.205 481.071 157.428L481.89 159.252C486.51 157.178 492.269 156.117 499.205 156.117V154.117ZM481.08 157.424C476.249 159.537 472.523 162.48 469.959 166.276L471.616 167.396C473.934 163.965 477.337 161.244 481.881 159.256L481.08 157.424ZM469.948 166.292C467.5 170.067 466.271 174.211 466.271 178.701H468.271C468.271 174.598 469.387 170.832 471.626 167.38L469.948 166.292ZM466.271 178.701C466.271 182.301 467.2 185.609 469.059 188.604L470.758 187.549C469.101 184.879 468.271 181.938 468.271 178.701H466.271ZM469.081 188.638C471.018 191.493 473.748 194.161 477.237 196.654L478.4 195.026C475.053 192.636 472.509 190.129 470.736 187.515L469.081 188.638ZM477.264 196.672C480.844 199.059 485.2 201.333 490.319 203.499L491.099 201.657C486.062 199.526 481.824 197.308 478.373 195.008L477.264 196.672ZM490.319 203.499C495.438 205.665 501.284 207.727 507.855 209.689L508.427 207.772C501.911 205.827 496.136 203.788 491.099 201.657L490.319 203.499ZM507.839 209.684C519.225 213.285 529.282 217.27 538.016 221.637L538.91 219.848C530.065 215.425 519.908 211.403 508.442 207.777L507.839 209.684ZM538.02 221.639C546.838 225.999 554.226 230.929 560.198 236.42L561.552 234.947C555.415 229.305 547.861 224.274 538.906 219.846L538.02 221.639ZM560.198 236.42C566.157 241.898 570.612 248.083 573.58 254.976L575.417 254.185C572.329 247.015 567.702 240.602 561.552 234.947L560.198 236.42ZM573.584 254.986C576.644 261.871 578.186 269.689 578.186 278.457H580.186C580.186 269.452 578.602 261.351 575.412 254.174L573.584 254.986ZM578.186 278.457C578.186 287.797 576.357 296.036 572.727 303.2L574.511 304.104C578.303 296.62 580.186 288.063 580.186 278.457H578.186ZM572.722 303.21C569.183 310.384 564.016 316.514 557.201 321.601L558.397 323.204C565.449 317.939 570.829 311.569 574.516 304.095L572.722 303.21ZM557.203 321.6C550.481 326.593 542.394 330.401 532.924 333.011L533.455 334.939C543.125 332.274 551.445 328.368 558.395 323.205L557.203 321.6ZM532.924 333.011C523.455 335.619 512.853 336.93 501.109 336.93V338.93C512.999 338.93 523.784 337.603 533.455 334.939L532.924 333.011ZM501.109 336.93C490.453 336.93 479.942 335.574 469.575 332.861L469.069 334.796C479.601 337.551 490.281 338.93 501.109 338.93V336.93ZM469.584 332.863C459.236 330.058 449.865 325.806 441.466 320.11L440.343 321.765C448.936 327.592 458.511 331.934 469.061 334.793L469.584 332.863ZM441.47 320.113C433.197 314.437 426.561 307.225 421.558 298.469L419.821 299.461C424.974 308.478 431.815 315.915 440.339 321.762L441.47 320.113ZM421.564 298.48C416.681 289.671 414.219 279.2 414.219 267.031H412.219C412.219 279.472 414.737 290.29 419.815 299.45L421.564 298.48ZM413.219 268.031H460.973V266.031H413.219V268.031ZM459.973 267.031C459.973 273.567 460.913 279.174 462.832 283.819L464.68 283.056C462.888 278.717 461.973 273.386 461.973 267.031H459.973ZM462.835 283.826C464.749 288.36 467.482 292.064 471.041 294.912L472.291 293.35C469.014 290.729 466.474 287.304 464.677 283.049L462.835 283.826ZM471.052 294.92C474.697 297.755 479.081 299.764 484.181 300.964L484.639 299.017C479.778 297.873 475.666 295.975 472.28 293.342L471.052 294.92ZM484.181 300.964C489.25 302.156 494.895 302.748 501.109 302.748V300.748C495.019 300.748 489.531 300.168 484.639 299.017L484.181 300.964ZM501.109 302.748C508.317 302.748 514.232 301.763 518.801 299.732L517.988 297.905C513.768 299.78 508.16 300.748 501.109 300.748V302.748ZM518.81 299.728C523.447 297.611 526.937 294.707 529.209 290.99L527.502 289.947C525.477 293.261 522.327 295.924 517.979 297.909L518.81 299.728ZM529.209 290.99C531.457 287.311 532.578 283.223 532.578 278.75H530.578C530.578 282.871 529.55 286.596 527.502 289.947L529.209 290.99ZM650.963 109.854H651.963V108.854H650.963V109.854ZM650.963 335V336H651.963V335H650.963ZM605.113 335H604.113V336H605.113V335ZM605.113 109.854V108.854H604.113V109.854H605.113ZM751.598 176.504L752.354 177.158L753.786 175.504H751.598V176.504ZM682.604 256.191L683.312 256.897L683.337 256.872L683.359 256.846L682.604 256.191ZM646.129 292.812L645.269 293.322L645.927 294.433L646.837 293.518L646.129 292.812ZM627.818 261.904L627.028 261.292L626.612 261.829L626.958 262.414L627.818 261.904ZM657.408 223.672L656.638 223.034L656.628 223.047L656.617 223.06L657.408 223.672ZM696.52 176.504V175.504H696.05L695.75 175.866L696.52 176.504ZM703.258 335L702.406 335.523L702.698 336H703.258V335ZM658.58 262.197L657.964 261.409L657.261 261.959L657.728 262.72L658.58 262.197ZM691.393 236.562L692.23 236.016L691.635 235.104L690.777 235.774L691.393 236.562ZM755.699 335V336H757.547L756.536 334.453L755.699 335ZM649.963 109.854V335H651.963V109.854H649.963ZM650.963 334H605.113V336H650.963V334ZM606.113 335V109.854H604.113V335H606.113ZM605.113 110.854H650.963V108.854H605.113V110.854ZM750.842 175.849L681.848 255.537L683.359 256.846L752.354 177.158L750.842 175.849ZM681.895 255.486L645.42 292.107L646.837 293.518L683.312 256.897L681.895 255.486ZM646.989 292.303L628.679 261.395L626.958 262.414L645.269 293.322L646.989 292.303ZM628.609 262.516L658.199 224.284L656.617 223.06L627.028 261.292L628.609 262.516ZM658.178 224.31L697.289 177.142L695.75 175.866L656.638 223.034L658.178 224.31ZM696.52 177.504H751.598V175.504H696.52V177.504ZM704.11 334.477L659.432 261.674L657.728 262.72L702.406 335.523L704.11 334.477ZM659.196 262.985L692.008 237.351L690.777 235.774L657.964 261.409L659.196 262.985ZM690.555 237.109L754.862 335.547L756.536 334.453L692.23 236.016L690.555 237.109ZM755.699 334H703.258V336H755.699V334ZM815.465 176.504H816.465V175.504H815.465V176.504ZM815.465 335V336H816.465V335H815.465ZM769.615 335H768.615V336H769.615V335ZM769.615 176.504V175.504H768.615V176.504H769.615ZM773.863 119.229L774.531 119.973L774.539 119.966L773.863 119.229ZM810.777 119.229L810.102 119.966L810.11 119.973L810.118 119.98L810.777 119.229ZM810.777 151.748L811.445 152.493L811.445 152.492L810.777 151.748ZM773.863 151.748L773.188 152.485L773.196 152.493L773.863 151.748ZM814.465 176.504V335H816.465V176.504H814.465ZM815.465 334H769.615V336H815.465V334ZM770.615 335V176.504H768.615V335H770.615ZM769.615 177.504H815.465V175.504H769.615V177.504ZM767.832 135.488C767.832 129.114 770.068 123.971 774.531 119.973L773.196 118.484C768.284 122.884 765.832 128.581 765.832 135.488H767.832ZM774.539 119.966C779.007 115.87 784.901 113.783 792.32 113.783V111.783C784.505 111.783 778.095 113.993 773.188 118.491L774.539 119.966ZM792.32 113.783C799.74 113.783 805.634 115.87 810.102 119.966L811.453 118.491C806.546 113.993 800.135 111.783 792.32 111.783V113.783ZM810.118 119.98C814.676 123.98 816.955 129.121 816.955 135.488H818.955C818.955 128.574 816.449 122.875 811.437 118.477L810.118 119.98ZM816.955 135.488C816.955 141.753 814.679 146.901 810.109 151.004L811.445 152.492C816.446 148.002 818.955 142.31 818.955 135.488H816.955ZM810.11 151.003C805.643 155.005 799.746 157.047 792.32 157.047V159.047C800.129 159.047 806.537 156.889 811.445 152.493L810.11 151.003ZM792.32 157.047C784.895 157.047 778.998 155.005 774.531 151.003L773.196 152.493C778.104 156.889 784.511 159.047 792.32 159.047V157.047ZM774.539 151.011C770.065 146.91 767.832 141.76 767.832 135.488H765.832C765.832 142.302 768.287 147.993 773.188 152.485L774.539 151.011ZM896.617 110H897.617V109H896.617V110ZM896.617 335V336H897.617V335H896.617ZM850.768 335H849.768V336H850.768V335ZM850.768 110V109H849.768V110H850.768ZM895.617 110V335H897.617V110H895.617ZM896.617 334H850.768V336H896.617V334ZM851.768 335V110H849.768V335H851.768ZM850.768 111H896.617V109H850.768V111ZM977.77 110H978.77V109H977.77V110ZM977.77 335V336H978.77V335H977.77ZM931.92 335H930.92V336H931.92V335ZM931.92 110V109H930.92V110H931.92ZM976.77 110V335H978.77V110H976.77ZM977.77 334H931.92V336H977.77V334ZM932.92 335V110H930.92V335H932.92ZM931.92 111H977.77V109H931.92V111ZM1092.32 283.145L1091.53 283.761L1091.54 283.771L1091.55 283.781L1092.32 283.145ZM1082.65 276.992L1082.28 277.919L1082.28 277.922L1082.65 276.992ZM1063.17 271.426L1063.39 270.449L1063.38 270.447L1063.17 271.426ZM1041.05 264.98L1040.68 265.909L1040.69 265.913L1041.05 264.98ZM1023.18 255.166L1022.57 255.959L1022.58 255.966L1023.18 255.166ZM1011.31 241.396L1010.43 241.863L1010.43 241.87L1011.31 241.396ZM1011.31 204.189L1010.42 203.748L1010.41 203.76L1011.31 204.189ZM1023.91 188.369L1023.28 187.598L1023.27 187.603L1023.91 188.369ZM1044.13 177.529L1043.81 176.579L1043.81 176.581L1044.13 177.529ZM1107.55 180.166L1107.16 181.084L1107.17 181.087L1107.55 180.166ZM1130.99 198.33L1130.17 198.904L1130.18 198.908L1130.99 198.33ZM1139.2 224.844V225.844H1140.2V224.844H1139.2ZM1093.49 224.844H1092.49V225.844H1093.49V224.844ZM1083.97 207.119L1083.49 207.997L1083.5 208.003L1083.51 208.008L1083.97 207.119ZM1060.39 206.68L1060.8 207.591L1060.81 207.585L1060.39 206.68ZM1053.21 212.393L1052.4 211.808L1052.39 211.819L1052.38 211.83L1053.21 212.393ZM1052.18 227.041L1051.3 227.507L1051.31 227.535L1051.33 227.562L1052.18 227.041ZM1057.02 232.021L1056.43 232.83L1056.45 232.845L1056.47 232.859L1057.02 232.021ZM1065.66 235.977L1065.34 236.925L1065.35 236.928L1065.66 235.977ZM1078.84 239.346L1078.64 240.325L1078.65 240.327L1078.66 240.329L1078.84 239.346ZM1109.02 247.988L1108.64 248.914L1108.64 248.915L1109.02 247.988ZM1130.99 263.369L1130.22 264.01L1130.23 264.017L1130.99 263.369ZM1134.51 308.633L1133.63 308.151L1133.63 308.162L1134.51 308.633ZM1010 309.658L1009.15 310.192L1009.16 310.204L1010 309.658ZM1002.23 284.463V283.463H1001.23V284.463H1002.23ZM1045.15 284.463L1046.15 284.426L1046.12 283.463H1045.15V284.463ZM1049.11 297.354L1048.3 297.946L1048.31 297.953L1048.31 297.961L1049.11 297.354ZM1058.92 304.678L1058.56 305.609L1058.57 305.613L1058.58 305.617L1058.92 304.678ZM1092.47 299.258L1093.27 299.858L1093.27 299.85L1093.28 299.842L1092.47 299.258ZM1096.1 290.908C1096.1 287.747 1095.1 284.934 1093.09 282.508L1091.55 283.781C1093.26 285.847 1094.1 288.21 1094.1 290.908H1096.1ZM1093.11 282.528C1091.19 280.072 1087.76 277.94 1083.02 276.062L1082.28 277.922C1086.92 279.756 1089.94 281.725 1091.53 283.761L1093.11 282.528ZM1083.03 276.065C1078.36 274.179 1071.81 272.309 1063.39 270.449L1062.95 272.402C1071.33 274.253 1077.76 276.094 1082.28 277.919L1083.03 276.065ZM1063.38 270.447C1055.51 268.797 1048.19 266.663 1041.41 264.047L1040.69 265.913C1047.58 268.571 1055.01 270.734 1062.96 272.404L1063.38 270.447ZM1041.42 264.052C1034.66 261.345 1028.78 258.114 1023.78 254.366L1022.58 255.966C1027.74 259.835 1033.77 263.147 1040.68 265.909L1041.42 264.052ZM1023.79 254.373C1018.82 250.547 1014.96 246.064 1012.2 240.923L1010.43 241.87C1013.34 247.276 1017.39 251.972 1022.57 255.959L1023.79 254.373ZM1012.2 240.93C1009.45 235.72 1008.07 229.78 1008.07 223.086H1006.07C1006.07 230.064 1007.51 236.331 1010.43 241.863L1012.2 240.93ZM1008.07 223.086C1008.07 216.593 1009.45 210.441 1012.22 204.619L1010.41 203.76C1007.52 209.852 1006.07 216.298 1006.07 223.086H1008.07ZM1012.21 204.631C1015.08 198.808 1019.18 193.642 1024.55 189.135L1023.27 187.603C1017.7 192.276 1013.41 197.657 1010.42 203.748L1012.21 204.631ZM1024.55 189.141C1030.01 184.64 1036.63 181.082 1044.44 178.478L1043.81 176.581C1035.8 179.25 1028.95 182.918 1023.28 187.598L1024.55 189.141ZM1044.44 178.479C1052.33 175.882 1061.3 174.574 1071.37 174.574V172.574C1061.13 172.574 1051.94 173.904 1043.81 176.579L1044.44 178.479ZM1071.37 174.574C1085.24 174.574 1097.15 176.756 1107.16 181.084L1107.95 179.248C1097.64 174.787 1085.44 172.574 1071.37 172.574V174.574ZM1107.17 181.087C1117.18 185.322 1124.83 191.268 1130.17 198.904L1131.81 197.757C1126.22 189.767 1118.25 183.603 1107.94 179.245L1107.17 181.087ZM1130.18 198.908C1135.52 206.445 1138.2 215.078 1138.2 224.844H1140.2C1140.2 214.687 1137.4 205.645 1131.81 197.752L1130.18 198.908ZM1139.2 223.844H1093.49V225.844H1139.2V223.844ZM1094.49 224.844C1094.49 220.615 1093.69 216.887 1092.04 213.692L1090.26 214.609C1091.74 217.468 1092.49 220.87 1092.49 224.844H1094.49ZM1092.04 213.692C1090.37 210.468 1087.82 207.979 1084.43 206.23L1083.51 208.008C1086.56 209.58 1088.8 211.779 1090.26 214.609L1092.04 213.692ZM1084.45 206.241C1081.03 204.376 1076.6 203.482 1071.23 203.482V205.482C1076.4 205.482 1080.47 206.347 1083.49 207.997L1084.45 206.241ZM1071.23 203.482C1067.01 203.482 1063.24 204.236 1059.96 205.774L1060.81 207.585C1063.78 206.193 1067.24 205.482 1071.23 205.482V203.482ZM1059.98 205.768C1056.81 207.2 1054.27 209.21 1052.4 211.808L1054.02 212.977C1055.67 210.692 1057.91 208.894 1060.8 207.591L1059.98 205.768ZM1052.38 211.83C1050.6 214.453 1049.72 217.485 1049.72 220.889H1051.72C1051.72 217.847 1052.5 215.215 1054.04 212.955L1052.38 211.83ZM1049.72 220.889C1049.72 223.285 1050.24 225.498 1051.3 227.507L1053.07 226.575C1052.17 224.874 1051.72 222.984 1051.72 220.889H1049.72ZM1051.33 227.562C1052.49 229.46 1054.2 231.212 1056.43 232.83L1057.61 231.213C1055.53 229.706 1054.03 228.138 1053.04 226.52L1051.33 227.562ZM1056.47 232.859C1058.81 234.385 1061.78 235.736 1065.34 236.925L1065.98 235.028C1062.51 233.874 1059.72 232.588 1057.56 231.184L1056.47 232.859ZM1065.35 236.928C1069.01 238.114 1073.44 239.246 1078.64 240.325L1079.05 238.367C1073.89 237.297 1069.54 236.183 1065.97 235.025L1065.35 236.928ZM1078.66 240.329C1089.64 242.369 1099.63 245.232 1108.64 248.914L1109.4 247.063C1100.24 243.323 1090.12 240.424 1079.03 238.363L1078.66 240.329ZM1108.64 248.915C1117.7 252.575 1124.88 257.612 1130.22 264.01L1131.76 262.728C1126.17 256.04 1118.7 250.824 1109.39 247.061L1108.64 248.915ZM1130.23 264.017C1135.61 270.337 1138.34 278.731 1138.34 289.297H1140.34C1140.34 278.379 1137.51 269.487 1131.75 262.721L1130.23 264.017ZM1138.34 289.297C1138.34 296.169 1136.77 302.447 1133.63 308.151L1135.38 309.115C1138.69 303.1 1140.34 296.488 1140.34 289.297H1138.34ZM1133.63 308.162C1130.58 313.876 1126.14 318.893 1120.29 323.209L1121.48 324.818C1127.54 320.346 1132.19 315.109 1135.39 309.103L1133.63 308.162ZM1120.29 323.209C1114.44 327.524 1107.42 330.894 1099.22 333.308L1099.78 335.227C1108.17 332.758 1115.41 329.293 1121.48 324.818L1120.29 323.209ZM1099.22 333.308C1091.02 335.718 1081.75 336.93 1071.37 336.93V338.93C1081.9 338.93 1091.37 337.7 1099.78 335.227L1099.22 333.308ZM1071.37 336.93C1056.55 336.93 1044.07 334.265 1033.89 328.985L1032.97 330.761C1043.5 336.223 1056.32 338.93 1071.37 338.93V336.93ZM1033.89 328.985C1023.66 323.678 1016 317.046 1010.83 309.113L1009.16 310.204C1014.54 318.481 1022.5 325.326 1032.97 330.761L1033.89 328.985ZM1010.84 309.125C1005.75 301.06 1003.23 292.844 1003.23 284.463H1001.23C1001.23 293.269 1003.89 301.85 1009.15 310.192L1010.84 309.125ZM1002.23 285.463H1045.15V283.463H1002.23V285.463ZM1044.15 284.5C1044.35 289.918 1045.71 294.424 1048.3 297.946L1049.91 296.761C1047.62 293.642 1046.34 289.555 1046.15 284.426L1044.15 284.5ZM1048.31 297.961C1050.97 301.431 1054.39 303.982 1058.56 305.609L1059.29 303.746C1055.45 302.248 1052.33 299.917 1049.9 296.746L1048.31 297.961ZM1058.58 305.617C1062.71 307.128 1067.32 307.875 1072.4 307.875V305.875C1067.52 305.875 1063.14 305.157 1059.27 303.739L1058.58 305.617ZM1072.4 307.875C1077.46 307.875 1081.75 307.181 1085.23 305.749L1084.47 303.9C1081.31 305.202 1077.3 305.875 1072.4 305.875V307.875ZM1085.23 305.749C1088.68 304.329 1091.38 302.375 1093.27 299.858L1091.67 298.658C1090.04 300.828 1087.66 302.585 1084.47 303.9L1085.23 305.749ZM1093.28 299.842C1095.16 297.224 1096.1 294.234 1096.1 290.908H1094.1C1094.1 293.832 1093.29 296.409 1091.66 298.674L1093.28 299.842Z" fill="black" fill-opacity="0.05"/>
</g>
<defs>
<filter id="filter0_bd_63_1111" x="409.219" y="52.8535" width="734.123" height="237.076" filterUnits="userSpaceOnUse" color-interpolation-filters="sRGB">
<feFlood flood-opacity="0" result="BackgroundImageFix"/>
<feGaussianBlur in="BackgroundImage" stdDeviation="0.5"/>
<feComposite in2="SourceAlpha" operator="in" result="effect1_backgroundBlur_63_1111"/>
<feColorMatrix in="SourceAlpha" type="matrix" values="0 0 0 0 0 0 0 0 0 0 0 0 0 0 0 0 0 0 127 0" result="hardAlpha"/>
<feOffset dy="4"/>
<feGaussianBlur stdDeviation="2"/>
<feComposite in2="hardAlpha" operator="out"/>
<feColorMatrix type="matrix" values="0 0 0 0 0 0 0 0 0 0 0 0 0 0 0 0 0 0 0.25 0"/>
<feBlend mode="normal" in2="effect1_backgroundBlur_63_1111" result="effect2_dropShadow_63_1111"/>
<feBlend mode="normal" in="SourceGraphic" in2="effect2_dropShadow_63_1111" result="shape"/>
</filter>
<filter id="filter1_bd_63_1111" x="409.219" y="52.8535" width="734.123" height="237.076" filterUnits="userSpaceOnUse" color-interpolation-filters="sRGB">
<feFlood flood-opacity="0" result="BackgroundImageFix"/>
<feGaussianBlur in="BackgroundImage" stdDeviation="0.5"/>
<feComposite in2="SourceAlpha" operator="in" result="effect1_backgroundBlur_63_1111"/>
<feColorMatrix in="SourceAlpha" type="matrix" values="0 0 0 0 0 0 0 0 0 0 0 0 0 0 0 0 0 0 127 0" result="hardAlpha"/>
<feOffset dy="4"/>
<feGaussianBlur stdDeviation="2"/>
<feComposite in2="hardAlpha" operator="out"/>
<feColorMatrix type="matrix" values="0 0 0 0 0 0 0 0 0 0 0 0 0 0 0 0 0 0 0.25 0"/>
<feBlend mode="normal" in2="effect1_backgroundBlur_63_1111" result="effect2_dropShadow_63_1111"/>
<feBlend mode="normal" in="SourceGraphic" in2="effect2_dropShadow_63_1111" result="shape"/>
</filter>
<filter id="filter2_bd_63_1111" x="409.219" y="108.854" width="734.123" height="237.076" filterUnits="userSpaceOnUse" color-interpolation-filters="sRGB">
<feFlood flood-opacity="0" result="BackgroundImageFix"/>
<feGaussianBlur in="BackgroundImage" stdDeviation="0.5"/>
<feComposite in2="SourceAlpha" operator="in" result="effect1_backgroundBlur_63_1111"/>
<feColorMatrix in="SourceAlpha" type="matrix" values="0 0 0 0 0 0 0 0 0 0 0 0 0 0 0 0 0 0 127 0" result="hardAlpha"/>
<feOffset dy="4"/>
<feGaussianBlur stdDeviation="2"/>
<feComposite in2="hardAlpha" operator="out"/>
<feColorMatrix type="matrix" values="0 0 0 0 0 0 0 0 0 0 0 0 0 0 0 0 0 0 0.25 0"/>
<feBlend mode="normal" in2="effect1_backgroundBlur_63_1111" result="effect2_dropShadow_63_1111"/>
<feBlend mode="normal" in="SourceGraphic" in2="effect2_dropShadow_63_1111" result="shape"/>
</filter>
</defs>
</svg>
