<svg width="1327" height="377" viewBox="0 0 1327 377" fill="none" xmlns="http://www.w3.org/2000/svg">
<g opacity="0.5" filter="url(#filter0_bd_59_1206)">
<path d="M626.088 90.7188H665.639L716.908 243.209L768.031 90.7188H807.582L732.875 304H700.795L626.088 90.7188ZM603.236 90.7188H643.52L650.99 248.775V304H603.236V90.7188ZM790.15 90.7188H830.58V304H782.68V248.775L790.15 90.7188ZM938.393 306.93C925.795 306.93 914.516 304.928 904.555 300.924C894.594 296.92 886.146 291.402 879.213 284.371C872.377 277.242 867.152 269.039 863.539 259.762C859.926 250.484 858.119 240.572 858.119 230.025V224.459C858.119 212.643 859.779 201.754 863.1 191.793C866.42 181.832 871.254 173.189 877.602 165.865C884.047 158.443 891.957 152.73 901.332 148.727C910.707 144.625 921.4 142.574 933.412 142.574C944.643 142.574 954.652 144.43 963.441 148.141C972.23 151.754 979.652 156.979 985.707 163.814C991.762 170.553 996.352 178.707 999.477 188.277C1002.7 197.75 1004.31 208.395 1004.31 220.211V238.961H876.576V209.518H959.486V206.002C959.486 200.436 958.461 195.553 956.41 191.354C954.457 187.154 951.527 183.932 947.621 181.686C943.812 179.342 938.979 178.17 933.119 178.17C927.553 178.17 922.914 179.342 919.203 181.686C915.492 184.029 912.514 187.35 910.268 191.646C908.119 195.846 906.557 200.777 905.58 206.441C904.604 212.008 904.115 218.014 904.115 224.459V230.025C904.115 236.178 904.945 241.793 906.605 246.871C908.266 251.949 910.707 256.295 913.93 259.908C917.152 263.521 921.059 266.354 925.648 268.404C930.238 270.455 935.463 271.48 941.322 271.48C948.549 271.48 955.434 270.113 961.977 267.379C968.52 264.547 974.184 260.152 978.969 254.195L1000.36 278.658C997.133 283.346 992.592 287.887 986.732 292.281C980.971 296.578 974.037 300.094 965.932 302.828C957.826 305.562 948.646 306.93 938.393 306.93Z" fill="#FAE9E9" fill-opacity="0.1" shape-rendering="crispEdges"/>
<path d="M626.088 90.7188V89.7188H624.678L625.144 91.0493L626.088 90.7188ZM665.639 90.7188L666.587 90.4001L666.357 89.7188H665.639V90.7188ZM716.908 243.209L715.96 243.528L716.91 246.351L717.856 243.527L716.908 243.209ZM768.031 90.7188V89.7188H767.312L767.083 90.4009L768.031 90.7188ZM807.582 90.7188L808.526 91.0493L808.992 89.7188H807.582V90.7188ZM732.875 304V305H733.584L733.819 304.331L732.875 304ZM700.795 304L699.851 304.331L700.086 305H700.795V304ZM603.236 90.7188V89.7188H602.236V90.7188H603.236ZM643.52 90.7188L644.518 90.6715L644.473 89.7188H643.52V90.7188ZM650.99 248.775H651.99V248.752L651.989 248.728L650.99 248.775ZM650.99 304V305H651.99V304H650.99ZM603.236 304H602.236V305H603.236V304ZM790.15 90.7188V89.7188H789.197L789.151 90.6715L790.15 90.7188ZM830.58 90.7188H831.58V89.7188H830.58V90.7188ZM830.58 304V305H831.58V304H830.58ZM782.68 304H781.68V305H782.68V304ZM782.68 248.775L781.681 248.728L781.68 248.752V248.775H782.68ZM626.088 91.7188H665.639V89.7188H626.088V91.7188ZM664.691 91.0374L715.96 243.528L717.856 242.89L666.587 90.4001L664.691 91.0374ZM717.856 243.527L768.979 91.0366L767.083 90.4009L715.96 242.891L717.856 243.527ZM768.031 91.7188H807.582V89.7188H768.031V91.7188ZM806.638 90.3882L731.931 303.669L733.819 304.331L808.526 91.0493L806.638 90.3882ZM732.875 303H700.795V305H732.875V303ZM701.739 303.669L627.032 90.3882L625.144 91.0493L699.851 304.331L701.739 303.669ZM603.236 91.7188H643.52V89.7188H603.236V91.7188ZM642.521 90.766L649.991 248.823L651.989 248.728L644.518 90.6715L642.521 90.766ZM649.99 248.775V304H651.99V248.775H649.99ZM650.99 303H603.236V305H650.99V303ZM604.236 304V90.7188H602.236V304H604.236ZM790.15 91.7188H830.58V89.7188H790.15V91.7188ZM829.58 90.7188V304H831.58V90.7188H829.58ZM830.58 303H782.68V305H830.58V303ZM783.68 304V248.775H781.68V304H783.68ZM783.679 248.823L791.149 90.766L789.151 90.6715L781.681 248.728L783.679 248.823ZM879.213 284.371L878.491 285.063L878.501 285.073L879.213 284.371ZM877.602 165.865L876.847 165.21L876.846 165.21L877.602 165.865ZM901.332 148.727L901.725 149.646L901.733 149.643L901.332 148.727ZM963.441 148.141L963.052 149.062L963.061 149.066L963.441 148.141ZM985.707 163.814L984.958 164.478L984.963 164.483L985.707 163.814ZM999.477 188.277L998.526 188.588L998.53 188.599L999.477 188.277ZM1004.31 238.961V239.961H1005.31V238.961H1004.31ZM876.576 238.961H875.576V239.961H876.576V238.961ZM876.576 209.518V208.518H875.576V209.518H876.576ZM959.486 209.518V210.518H960.486V209.518H959.486ZM956.41 191.354L955.503 191.775L955.507 191.784L955.512 191.792L956.41 191.354ZM947.621 181.686L947.097 182.537L947.11 182.545L947.123 182.552L947.621 181.686ZM910.268 191.646L909.381 191.183L909.377 191.191L910.268 191.646ZM905.58 206.441L906.565 206.614L906.566 206.611L905.58 206.441ZM961.977 267.379L962.362 268.302L962.374 268.297L961.977 267.379ZM978.969 254.195L979.722 253.537L978.936 252.639L978.189 253.569L978.969 254.195ZM1000.36 278.658L1001.18 279.225L1001.62 278.585L1001.11 278L1000.36 278.658ZM986.732 292.281L987.33 293.083L987.332 293.081L986.732 292.281ZM938.393 305.93C925.901 305.93 914.751 303.945 904.928 299.996L904.182 301.852C914.28 305.911 925.689 307.93 938.393 307.93V305.93ZM904.928 299.996C895.083 296.039 886.754 290.594 879.925 283.669L878.501 285.073C885.539 292.21 894.105 297.801 904.182 301.852L904.928 299.996ZM879.935 283.679C873.19 276.646 868.037 268.555 864.471 259.399L862.607 260.125C866.268 269.523 871.563 277.839 878.491 285.063L879.935 283.679ZM864.471 259.399C860.905 250.244 859.119 240.456 859.119 230.025H857.119C857.119 240.689 858.946 250.725 862.607 260.125L864.471 259.399ZM859.119 230.025V224.459H857.119V230.025H859.119ZM859.119 224.459C859.119 212.737 860.766 201.956 864.048 192.109L862.151 191.477C858.793 201.552 857.119 212.548 857.119 224.459H859.119ZM864.048 192.109C867.331 182.262 872.102 173.737 878.357 166.52L876.846 165.21C870.405 172.642 865.509 181.402 862.151 191.477L864.048 192.109ZM878.357 166.521C884.699 159.218 892.484 153.593 901.725 149.646L900.939 147.807C891.43 151.868 883.395 157.669 876.847 165.21L878.357 166.521ZM901.733 149.643C910.961 145.605 921.515 143.574 933.412 143.574V141.574C921.286 141.574 910.453 143.645 900.931 147.81L901.733 149.643ZM933.412 143.574C944.532 143.574 954.406 145.411 963.052 149.062L963.83 147.219C954.898 143.448 944.753 141.574 933.412 141.574V143.574ZM963.061 149.066C971.715 152.623 979.009 157.76 984.958 164.477L986.456 163.151C980.296 156.197 972.746 150.885 963.822 147.216L963.061 149.066ZM984.963 164.483C990.915 171.106 995.439 179.135 998.526 188.588L1000.43 187.967C997.264 178.279 992.609 169.999 986.451 163.146L984.963 164.483ZM998.53 188.599C1001.71 197.952 1003.31 208.485 1003.31 220.211H1005.31C1005.31 208.304 1003.69 197.548 1000.42 187.955L998.53 188.599ZM1003.31 220.211V238.961H1005.31V220.211H1003.31ZM1004.31 237.961H876.576V239.961H1004.31V237.961ZM877.576 238.961V209.518H875.576V238.961H877.576ZM876.576 210.518H959.486V208.518H876.576V210.518ZM960.486 209.518V206.002H958.486V209.518H960.486ZM960.486 206.002C960.486 200.312 959.438 195.274 957.309 190.915L955.512 191.792C957.484 195.831 958.486 200.559 958.486 206.002H960.486ZM957.317 190.932C955.279 186.551 952.21 183.171 948.12 180.819L947.123 182.552C950.845 184.693 953.635 187.757 955.503 191.775L957.317 190.932ZM948.145 180.834C944.137 178.367 939.107 177.17 933.119 177.17V179.17C938.85 179.17 943.488 180.316 947.097 182.537L948.145 180.834ZM933.119 177.17C927.414 177.17 922.578 178.372 918.669 180.84L919.737 182.531C923.25 180.312 927.691 179.17 933.119 179.17V177.17ZM918.669 180.84C914.794 183.288 911.7 186.747 909.381 191.183L911.154 192.11C913.327 187.952 916.19 184.771 919.737 182.531L918.669 180.84ZM909.377 191.191C907.174 195.497 905.585 200.529 904.595 206.271L906.566 206.611C907.529 201.026 909.064 196.194 911.158 192.102L909.377 191.191ZM904.595 206.269C903.607 211.899 903.115 217.964 903.115 224.459H905.115C905.115 218.064 905.6 212.116 906.565 206.614L904.595 206.269ZM903.115 224.459V230.025H905.115V224.459H903.115ZM903.115 230.025C903.115 236.268 903.957 241.99 905.655 247.182L907.556 246.56C905.933 241.596 905.115 236.088 905.115 230.025H903.115ZM905.655 247.182C907.354 252.377 909.86 256.847 913.183 260.574L914.676 259.243C911.554 255.742 909.178 251.521 907.556 246.56L905.655 247.182ZM913.183 260.574C916.504 264.297 920.527 267.211 925.24 269.317L926.056 267.491C921.59 265.496 917.801 262.746 914.676 259.243L913.183 260.574ZM925.24 269.317C929.978 271.434 935.345 272.48 941.322 272.48V270.48C935.58 270.48 930.498 269.476 926.056 267.491L925.24 269.317ZM941.322 272.48C948.679 272.48 955.695 271.088 962.362 268.302L961.591 266.456C955.172 269.139 948.419 270.48 941.322 270.48V272.48ZM962.374 268.297C969.077 265.395 974.869 260.896 979.748 254.822L978.189 253.569C973.498 259.409 967.962 263.698 961.579 266.461L962.374 268.297ZM978.216 254.854L999.603 279.316L1001.11 278L979.722 253.537L978.216 254.854ZM999.531 278.092C996.385 282.668 991.929 287.134 986.132 291.481L987.332 293.081C993.255 288.639 997.881 284.023 1001.18 279.225L999.531 278.092ZM986.135 291.48C980.472 295.703 973.636 299.174 965.612 301.881L966.251 303.776C974.438 301.014 981.47 297.453 987.33 293.083L986.135 291.48ZM965.612 301.881C957.628 304.574 948.559 305.93 938.393 305.93V307.93C948.734 307.93 958.025 306.551 966.251 303.776L965.612 301.881Z" fill="black" fill-opacity="0.05"/>
</g>
<g opacity="0.5" filter="url(#filter1_bd_59_1206)">
<path d="M604.088 65.7188H643.639L694.908 218.209L746.031 65.7188H785.582L710.875 279H678.795L604.088 65.7188ZM581.236 65.7188H621.52L628.99 223.775V279H581.236V65.7188ZM768.15 65.7188H808.58V279H760.68V223.775L768.15 65.7188ZM916.393 281.93C903.795 281.93 892.516 279.928 882.555 275.924C872.594 271.92 864.146 266.402 857.213 259.371C850.377 252.242 845.152 244.039 841.539 234.762C837.926 225.484 836.119 215.572 836.119 205.025V199.459C836.119 187.643 837.779 176.754 841.1 166.793C844.42 156.832 849.254 148.189 855.602 140.865C862.047 133.443 869.957 127.73 879.332 123.727C888.707 119.625 899.4 117.574 911.412 117.574C922.643 117.574 932.652 119.43 941.441 123.141C950.23 126.754 957.652 131.979 963.707 138.814C969.762 145.553 974.352 153.707 977.477 163.277C980.699 172.75 982.311 183.395 982.311 195.211V213.961H854.576V184.518H937.486V181.002C937.486 175.436 936.461 170.553 934.41 166.354C932.457 162.154 929.527 158.932 925.621 156.686C921.812 154.342 916.979 153.17 911.119 153.17C905.553 153.17 900.914 154.342 897.203 156.686C893.492 159.029 890.514 162.35 888.268 166.646C886.119 170.846 884.557 175.777 883.58 181.441C882.604 187.008 882.115 193.014 882.115 199.459V205.025C882.115 211.178 882.945 216.793 884.605 221.871C886.266 226.949 888.707 231.295 891.93 234.908C895.152 238.521 899.059 241.354 903.648 243.404C908.238 245.455 913.463 246.48 919.322 246.48C926.549 246.48 933.434 245.113 939.977 242.379C946.52 239.547 952.184 235.152 956.969 229.195L978.355 253.658C975.133 258.346 970.592 262.887 964.732 267.281C958.971 271.578 952.037 275.094 943.932 277.828C935.826 280.562 926.646 281.93 916.393 281.93Z" fill="black" fill-opacity="0.1" shape-rendering="crispEdges"/>
<path d="M604.088 65.7188V64.7188H602.678L603.144 66.0493L604.088 65.7188ZM643.639 65.7188L644.587 65.4001L644.357 64.7188H643.639V65.7188ZM694.908 218.209L693.96 218.528L694.91 221.351L695.856 218.527L694.908 218.209ZM746.031 65.7188V64.7188H745.312L745.083 65.4009L746.031 65.7188ZM785.582 65.7188L786.526 66.0493L786.992 64.7188H785.582V65.7188ZM710.875 279V280H711.584L711.819 279.331L710.875 279ZM678.795 279L677.851 279.331L678.086 280H678.795V279ZM581.236 65.7188V64.7188H580.236V65.7188H581.236ZM621.52 65.7188L622.518 65.6715L622.473 64.7188H621.52V65.7188ZM628.99 223.775H629.99V223.752L629.989 223.728L628.99 223.775ZM628.99 279V280H629.99V279H628.99ZM581.236 279H580.236V280H581.236V279ZM768.15 65.7188V64.7188H767.197L767.151 65.6715L768.15 65.7188ZM808.58 65.7188H809.58V64.7188H808.58V65.7188ZM808.58 279V280H809.58V279H808.58ZM760.68 279H759.68V280H760.68V279ZM760.68 223.775L759.681 223.728L759.68 223.752V223.775H760.68ZM604.088 66.7188H643.639V64.7188H604.088V66.7188ZM642.691 66.0374L693.96 218.528L695.856 217.89L644.587 65.4001L642.691 66.0374ZM695.856 218.527L746.979 66.0366L745.083 65.4009L693.96 217.891L695.856 218.527ZM746.031 66.7188H785.582V64.7188H746.031V66.7188ZM784.638 65.3882L709.931 278.669L711.819 279.331L786.526 66.0493L784.638 65.3882ZM710.875 278H678.795V280H710.875V278ZM679.739 278.669L605.032 65.3882L603.144 66.0493L677.851 279.331L679.739 278.669ZM581.236 66.7188H621.52V64.7188H581.236V66.7188ZM620.521 65.766L627.991 223.823L629.989 223.728L622.518 65.6715L620.521 65.766ZM627.99 223.775V279H629.99V223.775H627.99ZM628.99 278H581.236V280H628.99V278ZM582.236 279V65.7188H580.236V279H582.236ZM768.15 66.7188H808.58V64.7188H768.15V66.7188ZM807.58 65.7188V279H809.58V65.7188H807.58ZM808.58 278H760.68V280H808.58V278ZM761.68 279V223.775H759.68V279H761.68ZM761.679 223.823L769.149 65.766L767.151 65.6715L759.681 223.728L761.679 223.823ZM857.213 259.371L856.491 260.063L856.501 260.073L857.213 259.371ZM855.602 140.865L854.847 140.21L854.846 140.21L855.602 140.865ZM879.332 123.727L879.725 124.646L879.733 124.643L879.332 123.727ZM941.441 123.141L941.052 124.062L941.061 124.066L941.441 123.141ZM963.707 138.814L962.958 139.478L962.963 139.483L963.707 138.814ZM977.477 163.277L976.526 163.588L976.53 163.599L977.477 163.277ZM982.311 213.961V214.961H983.311V213.961H982.311ZM854.576 213.961H853.576V214.961H854.576V213.961ZM854.576 184.518V183.518H853.576V184.518H854.576ZM937.486 184.518V185.518H938.486V184.518H937.486ZM934.41 166.354L933.503 166.775L933.507 166.784L933.512 166.792L934.41 166.354ZM925.621 156.686L925.097 157.537L925.11 157.545L925.123 157.552L925.621 156.686ZM888.268 166.646L887.381 166.183L887.377 166.191L888.268 166.646ZM883.58 181.441L884.565 181.614L884.566 181.611L883.58 181.441ZM939.977 242.379L940.362 243.302L940.374 243.297L939.977 242.379ZM956.969 229.195L957.722 228.537L956.936 227.639L956.189 228.569L956.969 229.195ZM978.355 253.658L979.18 254.225L979.62 253.585L979.108 253L978.355 253.658ZM964.732 267.281L965.33 268.083L965.332 268.081L964.732 267.281ZM916.393 280.93C903.901 280.93 892.751 278.945 882.928 274.996L882.182 276.852C892.28 280.911 903.689 282.93 916.393 282.93V280.93ZM882.928 274.996C873.083 271.039 864.754 265.594 857.925 258.669L856.501 260.073C863.539 267.21 872.105 272.801 882.182 276.852L882.928 274.996ZM857.935 258.679C851.19 251.646 846.037 243.555 842.471 234.399L840.607 235.125C844.268 244.523 849.563 252.839 856.491 260.063L857.935 258.679ZM842.471 234.399C838.905 225.244 837.119 215.456 837.119 205.025H835.119C835.119 215.689 836.946 225.725 840.607 235.125L842.471 234.399ZM837.119 205.025V199.459H835.119V205.025H837.119ZM837.119 199.459C837.119 187.737 838.766 176.956 842.048 167.109L840.151 166.477C836.793 176.552 835.119 187.548 835.119 199.459H837.119ZM842.048 167.109C845.331 157.262 850.102 148.737 856.357 141.52L854.846 140.21C848.405 147.642 843.509 156.402 840.151 166.477L842.048 167.109ZM856.357 141.521C862.699 134.218 870.484 128.593 879.725 124.646L878.939 122.807C869.43 126.868 861.395 132.669 854.847 140.21L856.357 141.521ZM879.733 124.643C888.961 120.605 899.515 118.574 911.412 118.574V116.574C899.286 116.574 888.453 118.645 878.931 122.81L879.733 124.643ZM911.412 118.574C922.532 118.574 932.406 120.411 941.052 124.062L941.83 122.219C932.898 118.448 922.753 116.574 911.412 116.574V118.574ZM941.061 124.066C949.715 127.623 957.009 132.76 962.958 139.477L964.456 138.151C958.296 131.197 950.746 125.885 941.822 122.216L941.061 124.066ZM962.963 139.483C968.915 146.106 973.439 154.135 976.526 163.588L978.427 162.967C975.264 153.279 970.609 144.999 964.451 138.146L962.963 139.483ZM976.53 163.599C979.711 172.952 981.311 183.485 981.311 195.211H983.311C983.311 183.304 981.687 172.548 978.423 162.955L976.53 163.599ZM981.311 195.211V213.961H983.311V195.211H981.311ZM982.311 212.961H854.576V214.961H982.311V212.961ZM855.576 213.961V184.518H853.576V213.961H855.576ZM854.576 185.518H937.486V183.518H854.576V185.518ZM938.486 184.518V181.002H936.486V184.518H938.486ZM938.486 181.002C938.486 175.312 937.438 170.274 935.309 165.915L933.512 166.792C935.484 170.831 936.486 175.559 936.486 181.002H938.486ZM935.317 165.932C933.279 161.551 930.21 158.171 926.12 155.819L925.123 157.552C928.845 159.693 931.635 162.757 933.503 166.775L935.317 165.932ZM926.145 155.834C922.137 153.367 917.107 152.17 911.119 152.17V154.17C916.85 154.17 921.488 155.316 925.097 157.537L926.145 155.834ZM911.119 152.17C905.414 152.17 900.578 153.372 896.669 155.84L897.737 157.531C901.25 155.312 905.691 154.17 911.119 154.17V152.17ZM896.669 155.84C892.794 158.288 889.7 161.747 887.381 166.183L889.154 167.11C891.327 162.952 894.19 159.771 897.737 157.531L896.669 155.84ZM887.377 166.191C885.174 170.497 883.585 175.529 882.595 181.271L884.566 181.611C885.529 176.026 887.064 171.194 889.158 167.102L887.377 166.191ZM882.595 181.269C881.607 186.899 881.115 192.964 881.115 199.459H883.115C883.115 193.064 883.6 187.116 884.565 181.614L882.595 181.269ZM881.115 199.459V205.025H883.115V199.459H881.115ZM881.115 205.025C881.115 211.268 881.957 216.99 883.655 222.182L885.556 221.56C883.933 216.596 883.115 211.088 883.115 205.025H881.115ZM883.655 222.182C885.354 227.377 887.86 231.847 891.183 235.574L892.676 234.243C889.554 230.742 887.178 226.521 885.556 221.56L883.655 222.182ZM891.183 235.574C894.504 239.297 898.527 242.211 903.24 244.317L904.056 242.491C899.59 240.496 895.801 237.746 892.676 234.243L891.183 235.574ZM903.24 244.317C907.978 246.434 913.345 247.48 919.322 247.48V245.48C913.58 245.48 908.498 244.476 904.056 242.491L903.24 244.317ZM919.322 247.48C926.679 247.48 933.695 246.088 940.362 243.302L939.591 241.456C933.172 244.139 926.419 245.48 919.322 245.48V247.48ZM940.374 243.297C947.077 240.395 952.869 235.896 957.748 229.822L956.189 228.569C951.498 234.409 945.962 238.698 939.579 241.461L940.374 243.297ZM956.216 229.854L977.603 254.316L979.108 253L957.722 228.537L956.216 229.854ZM977.531 253.092C974.385 257.668 969.929 262.134 964.132 266.481L965.332 268.081C971.255 263.639 975.881 259.023 979.18 254.225L977.531 253.092ZM964.135 266.48C958.472 270.703 951.636 274.174 943.612 276.881L944.251 278.776C952.438 276.014 959.47 272.453 965.33 268.083L964.135 266.48ZM943.612 276.881C935.628 279.574 926.559 280.93 916.393 280.93V282.93C926.734 282.93 936.025 281.551 944.251 278.776L943.612 276.881Z" fill="black" fill-opacity="0.05"/>
</g>
<defs>
<filter id="filter0_bd_59_1206" x="599.236" y="89.7188" width="409.074" height="225.211" filterUnits="userSpaceOnUse" color-interpolation-filters="sRGB">
<feFlood flood-opacity="0" result="BackgroundImageFix"/>
<feGaussianBlur in="BackgroundImage" stdDeviation="0.5"/>
<feComposite in2="SourceAlpha" operator="in" result="effect1_backgroundBlur_59_1206"/>
<feColorMatrix in="SourceAlpha" type="matrix" values="0 0 0 0 0 0 0 0 0 0 0 0 0 0 0 0 0 0 127 0" result="hardAlpha"/>
<feOffset dy="4"/>
<feGaussianBlur stdDeviation="2"/>
<feComposite in2="hardAlpha" operator="out"/>
<feColorMatrix type="matrix" values="0 0 0 0 0 0 0 0 0 0 0 0 0 0 0 0 0 0 0.25 0"/>
<feBlend mode="normal" in2="effect1_backgroundBlur_59_1206" result="effect2_dropShadow_59_1206"/>
<feBlend mode="normal" in="SourceGraphic" in2="effect2_dropShadow_59_1206" result="shape"/>
</filter>
<filter id="filter1_bd_59_1206" x="577.236" y="64.7188" width="409.074" height="225.211" filterUnits="userSpaceOnUse" color-interpolation-filters="sRGB">
<feFlood flood-opacity="0" result="BackgroundImageFix"/>
<feGaussianBlur in="BackgroundImage" stdDeviation="0.5"/>
<feComposite in2="SourceAlpha" operator="in" result="effect1_backgroundBlur_59_1206"/>
<feColorMatrix in="SourceAlpha" type="matrix" values="0 0 0 0 0 0 0 0 0 0 0 0 0 0 0 0 0 0 127 0" result="hardAlpha"/>
<feOffset dy="4"/>
<feGaussianBlur stdDeviation="2"/>
<feComposite in2="hardAlpha" operator="out"/>
<feColorMatrix type="matrix" values="0 0 0 0 0 0 0 0 0 0 0 0 0 0 0 0 0 0 0.25 0"/>
<feBlend mode="normal" in2="effect1_backgroundBlur_59_1206" result="effect2_dropShadow_59_1206"/>
<feBlend mode="normal" in="SourceGraphic" in2="effect2_dropShadow_59_1206" result="shape"/>
</filter>
</defs>
</svg>
