<svg width="316" height="439" viewBox="0 0 316 439" fill="none" xmlns="http://www.w3.org/2000/svg">
<path d="M21.1319 437.623C15.7781 437.601 10.5845 435.448 6.81429 431.635C3.10071 427.878 1.03032 422.741 1.00199 417.467C0.997515 416.656 1.00199 415.845 1.00199 415.033C1.00199 412.702 1.00199 410.37 1.00199 408.038C1.00199 404.364 1.00199 400.69 1.00199 397.016C1.00199 392.142 1.00199 387.268 1.00199 382.394C1.00199 376.436 1.00199 370.478 1.00199 364.52C1.00199 357.695 1.00199 350.871 1.00199 344.046C1.00199 336.476 1.00199 328.906 1.00199 321.336C1.00199 313.149 1.00199 304.963 1.00199 296.776C1.00199 288.145 1.00199 279.514 1.00199 270.883C1.00199 261.985 1.00199 253.087 1.00199 244.189C1.00199 235.127 1.00199 226.064 1.00199 217.003C1.00199 207.953 1.00199 198.904 1.00199 189.855C1.00199 180.996 1.00199 172.136 1.00199 163.277C1.00199 154.733 1.00199 146.19 1.00199 137.647C1.00199 129.528 1.00199 121.409 1.00199 113.29C1.00199 105.836 1.00199 98.3831 1.00199 90.9293C1.00199 84.2466 1.00199 77.5639 1.00199 70.8813C1.00199 65.0922 1.00199 59.3031 1.00199 53.5132C1.00199 48.8327 1.00199 44.1521 1.00199 39.4716C1.00199 36.0168 1.00199 32.562 1.00199 29.1079C1.00199 27.023 1.00199 24.938 1.00199 22.8538C1.00199 21.419 0.984833 19.9924 1.17122 18.5636C1.85787 13.2993 4.6522 8.4314 8.85486 5.19309C12.4014 2.46015 16.7704 1.02388 21.2355 1.01045C22.7519 1.00597 24.2684 1.01045 25.7848 1.01045C29.3195 1.01045 32.8549 1.01045 36.3895 1.01045C41.6442 1.01045 46.8988 1.01045 52.1542 1.01045C58.8038 1.01045 65.4541 1.01045 72.1036 1.01045C79.8089 1.01045 87.5134 1.01045 95.2187 1.01045C103.68 1.01045 112.142 1.01045 120.603 1.01045C129.556 1.01045 138.508 1.01045 147.461 1.01045C156.49 1.01045 165.52 1.01045 174.548 1.01045C183.387 1.01045 192.226 1.01045 201.065 1.01045C209.442 1.01045 217.818 1.01045 226.196 1.01045C233.703 1.01045 241.21 1.01045 248.718 1.01045C255.088 1.01045 261.458 1.01045 267.828 1.01045C272.768 1.01045 277.708 1.01045 282.648 1.01045C285.787 1.01045 288.927 1.01045 292.066 1.01045C293.335 1.01045 294.609 0.981334 295.878 1.0209C301.193 1.18587 306.326 3.52242 309.954 7.41467C313.423 11.1375 315.341 16.0867 315.367 21.1704C315.372 22.0423 315.367 22.9142 315.367 23.7861C315.367 26.1645 315.367 28.5421 315.367 30.9204C315.367 34.6522 315.367 38.3832 315.367 42.1149C315.367 47.0321 315.367 51.9493 315.367 56.8665C315.367 62.8266 315.367 68.7866 315.367 74.7467C315.367 81.6383 315.367 88.5293 315.367 95.421C315.367 103.017 315.367 110.612 315.367 118.207C315.367 126.39 315.367 134.574 315.367 142.757C315.367 151.426 315.367 160.094 315.367 168.762C315.367 177.669 315.367 186.575 315.367 195.482C315.367 204.521 315.367 213.56 315.367 222.6C315.367 231.67 315.367 240.74 315.367 249.811C315.367 258.662 315.367 267.511 315.367 276.362C315.367 284.89 315.367 293.419 315.367 301.947C315.367 310.045 315.367 318.142 315.367 326.24C315.367 333.667 315.367 341.094 315.367 348.52C315.367 355.17 315.367 361.82 315.367 368.47C315.367 374.206 315.367 379.942 315.367 385.679C315.367 390.329 315.367 394.979 315.367 399.63C315.367 403.035 315.367 406.439 315.367 409.843C315.367 411.865 315.367 413.886 315.367 415.908C315.367 417.494 315.368 419.064 315.116 420.639C314.273 425.907 311.322 430.701 307.001 433.822C303.533 436.327 299.354 437.612 295.09 437.622C293.488 437.626 291.885 437.622 290.283 437.622C286.677 437.622 283.071 437.622 279.464 437.622C274.166 437.622 268.869 437.622 263.571 437.622C256.858 437.622 250.144 437.622 243.43 437.622C235.69 437.622 227.951 437.622 220.21 437.622C211.726 437.622 203.241 437.622 194.757 437.622C185.794 437.622 176.83 437.622 167.867 437.622C158.84 437.622 149.812 437.622 140.784 437.622C131.959 437.622 123.134 437.622 114.309 437.622C105.98 437.622 97.6507 437.622 89.3214 437.622C81.8301 437.622 74.3388 437.622 66.8475 437.622C60.5275 437.622 54.2075 437.622 47.8874 437.622C43.0212 437.622 38.1543 437.622 33.288 437.622C30.2119 437.622 27.1358 437.622 24.0596 437.622C23.0837 437.623 22.1078 437.623 21.1319 437.623Z" stroke="black" stroke-width="0.935622" stroke-miterlimit="10" stroke-linecap="round" stroke-linejoin="round"/>
</svg>
