<svg width="55" height="124" viewBox="0 0 55 124" fill="none" xmlns="http://www.w3.org/2000/svg">
<path fill-rule="evenodd" clip-rule="evenodd" d="M0.0219994 33.0148C0.898999 42.2468 1.769 51.4268 2.659 60.8128C4.11 58.3178 5.16 55.9248 6.744 53.9648C8.219 52.1388 10.078 50.4538 12.101 49.2868C14.742 47.7628 18.205 49.1978 19.061 51.9008C19.291 52.6258 18.742 53.5978 18.55 54.4568C17.904 54.1158 17.071 53.9278 16.649 53.4058C14.856 51.1888 13.776 50.9268 11.793 52.8428C8.094 56.4188 6.014 60.8988 5.22 65.9338C5.067 66.9078 5.676 68.0008 5.933 69.0388C6.944 68.6908 8.118 68.5628 8.935 67.9548C11.591 65.9778 13.237 63.2888 14.145 60.0748C14.342 59.3788 15.41 58.9298 16.078 58.3668C16.398 59.0248 17.128 59.7998 16.975 60.3208C15.5605 65.1606 14.0482 69.9713 12.439 74.7498C12.277 75.2338 11.388 75.4748 10.835 75.8288C10.612 75.1928 10.143 74.5268 10.218 73.9278C10.386 72.5698 10.823 71.2448 11.128 70.0008L3.888 73.3338C4.293 77.9558 4.713 83.1408 5.211 88.3188C5.593 92.2728 6.24 93.2968 10.134 94.0468C14.678 94.9218 19.307 95.4808 23.926 95.8208C30.7285 96.3333 37.5686 95.6895 44.156 93.9168C46.628 93.2528 47.614 91.6268 47.791 89.1998C47.953 86.9648 48.315 84.7438 48.566 82.5148C49.059 78.1238 49.538 73.7318 50.042 69.1568C48.375 70.2128 47.064 71.3948 45.531 71.8958C44.415 72.2608 43.007 71.7268 41.728 71.5928C41.973 70.4188 41.958 69.0958 42.524 68.1058C43.446 66.4878 44.748 65.0848 45.888 63.5908L45.397 62.9998C44.58 63.4828 43.565 63.7998 42.984 64.4848C41.802 65.8788 40.645 67.3708 39.854 69.0048C38.53 71.7398 37.521 74.6268 36.336 77.4308C35.821 78.6468 35.377 80.5068 33.652 79.7968C31.807 79.0358 33.105 77.4108 33.538 76.2548C34.227 74.4108 35.137 72.6488 35.753 71.2928C34.007 71.5008 32.237 71.7518 30.459 71.9068C29.707 71.9708 28.813 71.5588 28.198 71.8368C26.153 72.7608 24.857 72.3898 24.432 70.1258C23.485 70.7408 22.683 71.5738 21.738 71.7978C20.591 72.0708 19.035 72.2498 18.195 71.6768C17.522 71.2178 17.277 69.4928 17.507 68.4808C17.964 66.4688 18.818 64.5348 19.629 62.6218C20.131 61.4368 20.636 59.5448 22.33 60.3688C24.004 61.1818 22.484 62.5538 22.098 63.6548C21.499 65.3568 20.889 67.0558 20.285 68.7558L21.245 69.3358C22.159 68.5418 23.298 67.8948 23.938 66.9208C24.986 65.3288 25.619 63.4688 26.611 61.8348C27.022 61.1578 27.907 60.7698 28.578 60.2508C28.714 61.1128 29.04 61.9988 28.932 62.8308C28.825 63.6718 28.234 64.4408 27.951 65.2728C27.526 66.5188 27.183 67.7928 26.751 69.2418C28.794 69.3198 29.669 68.4598 30.246 66.9428C32.072 62.1498 33.918 57.3618 35.925 52.6428C36.268 51.8348 37.434 51.3788 38.221 50.7588C38.312 51.7328 38.746 52.8368 38.437 53.6578C36.792 58.0068 34.945 62.2778 33.209 66.5928C32.916 67.3198 32.822 68.1268 32.637 68.8968C35.696 67.5218 38.249 66.0018 39.181 62.7508C39.409 61.9608 40.343 61.3738 40.952 60.6928L42.368 62.1928C42.798 61.8308 43.192 61.4188 43.659 61.1178C45.129 60.1708 46.712 59.3358 48.262 60.8028C49.866 62.3198 48.652 63.7978 47.814 65.1098C46.902 66.5408 45.785 67.8398 44.757 69.1958C47.069 67.7058 50.226 67.0378 50.646 63.8178C51.67 55.9528 52.57 48.0718 53.483 40.1928C53.754 37.8608 53.899 35.5138 54.11 33.0838C35.9 37.4928 18.081 37.5198 0.0219994 33.0148ZM7.838 94.3838C8.715 96.7008 10.047 98.9768 10.396 101.395C11.133 106.542 11.32 111.767 11.842 116.949C11.918 117.704 12.407 118.741 13.017 119.073C21.997 123.953 31.064 124.799 40.226 119.462C41.593 118.666 41.846 117.615 42.023 116.137C42.88 108.956 40.972 101.339 45.563 94.5768C32.707 97.7658 20.16 97.8648 7.838 94.3838ZM38.829 34.3038C43.191 33.8828 47.5 32.8588 51.814 32.0128C52.627 31.8538 53.349 31.2348 54.113 30.8278C53.106 29.9428 52.235 29.5168 51.325 29.4098C46.795 28.8748 42.249 28.4628 37.722 27.9018C37.038 27.8168 35.817 26.9728 35.868 26.8188C37.189 22.8388 37.124 18.3338 40.122 14.9798C43.911 10.7398 47.739 6.53684 51.538 2.33184C48.712 -0.70816 48.674 -0.71216 46.113 1.94884C44.665 3.45284 43.342 5.09884 41.771 6.46084C35.958 11.4988 31.875 17.4658 31.079 25.3328C30.896 27.1378 29.905 27.7898 28.01 27.8178C21.754 27.9088 15.491 28.0808 9.249 28.4918C6.156 28.6948 3.101 29.4888 0.0279999 30.0148L0 31.1638C1.923 31.7568 3.809 32.5358 5.773 32.9128C16.717 35.0108 27.764 35.3708 38.829 34.3038ZM35.333 31.5558C32.856 33.5558 30.809 33.5558 28.832 31.5558H35.333Z" fill="#EB4A4B"/>
</svg>
