<svg width="458" height="338" viewBox="0 0 458 338" fill="none" xmlns="http://www.w3.org/2000/svg">
<path fill-rule="evenodd" clip-rule="evenodd" d="M2.58074 0C1.15544 0 0 1.15542 0 2.58072V334.625C0 336.051 1.15544 337.206 2.58074 337.206H454.66C456.086 337.206 457.241 336.051 457.241 334.625V2.58074C457.241 1.15543 456.086 0 454.66 0H2.58074ZM0.723101 2.58072C0.723101 1.55478 1.55479 0.723101 2.58074 0.723101H454.66C455.686 0.723101 456.518 1.55479 456.518 2.58074V12.5338H0.723101V2.58072ZM0.723101 13.2569V334.625C0.723101 335.651 1.55479 336.483 2.58074 336.483H454.66C455.686 336.483 456.518 335.651 456.518 334.625V13.2569H0.723101Z" fill="black"/>
<rect x="145.464" y="3.25395" width="167.277" height="6.74895" rx="0.867722" stroke="black" stroke-width="0.723101"/>
<path d="M207.711 10.1659V9.56347C207.408 10.037 206.963 10.2738 206.376 10.2738C205.995 10.2738 205.644 10.1689 205.324 9.95908C205.006 9.74929 204.759 9.45708 204.582 9.08244C204.408 8.70482 204.321 8.27174 204.321 7.78322C204.321 7.30669 204.401 6.87511 204.559 6.4885C204.718 6.09888 204.956 5.80067 205.274 5.59388C205.592 5.38708 205.947 5.28368 206.34 5.28368C206.627 5.28368 206.884 5.34512 207.108 5.468C207.333 5.58788 207.516 5.74523 207.657 5.94003V3.57536H208.462V10.1659H207.711ZM205.153 7.78322C205.153 8.39462 205.282 8.85167 205.539 9.15437C205.797 9.45708 206.101 9.60843 206.452 9.60843C206.806 9.60843 207.105 9.46457 207.351 9.17685C207.6 8.88614 207.724 8.44407 207.724 7.85066C207.724 7.1973 207.598 6.71777 207.347 6.41207C207.095 6.10637 206.785 5.95352 206.416 5.95352C206.056 5.95352 205.755 6.10038 205.512 6.39409C205.273 6.6878 205.153 7.15084 205.153 7.78322ZM209.437 7.77873C209.437 6.8946 209.683 6.23974 210.174 5.81416C210.585 5.46051 211.085 5.28368 211.676 5.28368C212.332 5.28368 212.869 5.49947 213.285 5.93104C213.702 6.35962 213.91 6.95304 213.91 7.71129C213.91 8.32569 213.817 8.80971 213.631 9.16336C213.449 9.51402 213.18 9.78675 212.827 9.98156C212.476 10.1764 212.092 10.2738 211.676 10.2738C211.008 10.2738 210.467 10.0595 210.053 9.6309C209.642 9.20233 209.437 8.58493 209.437 7.77873ZM210.269 7.77873C210.269 8.39012 210.402 8.84867 210.669 9.15437C210.936 9.45708 211.271 9.60843 211.676 9.60843C212.077 9.60843 212.412 9.45558 212.678 9.14988C212.945 8.84418 213.078 8.37814 213.078 7.75175C213.078 7.16133 212.944 6.71477 212.674 6.41207C212.407 6.10637 212.074 5.95352 211.676 5.95352C211.271 5.95352 210.936 6.10487 210.669 6.40757C210.402 6.71028 210.269 7.16733 210.269 7.77873ZM214.863 10.1659V5.39157H215.587V6.06142C215.737 5.82765 215.936 5.64033 216.185 5.49947C216.434 5.35561 216.717 5.28368 217.035 5.28368C217.388 5.28368 217.677 5.35711 217.902 5.50396C218.13 5.65082 218.29 5.85612 218.383 6.11986C218.761 5.56241 219.252 5.28368 219.858 5.28368C220.331 5.28368 220.695 5.41555 220.95 5.67929C221.205 5.94003 221.332 6.34314 221.332 6.8886V10.1659H220.528V7.15834C220.528 6.83465 220.501 6.60238 220.447 6.46152C220.396 6.31766 220.301 6.20228 220.164 6.11536C220.026 6.02845 219.864 5.98499 219.678 5.98499C219.342 5.98499 219.064 6.09738 218.842 6.32216C218.62 6.54394 218.509 6.90059 218.509 7.39211V10.1659H217.7V7.06393C217.7 6.70428 217.634 6.43455 217.502 6.25473C217.37 6.0749 217.154 5.98499 216.855 5.98499C216.627 5.98499 216.416 6.04493 216.221 6.16481C216.029 6.2847 215.89 6.46002 215.803 6.6908C215.716 6.92157 215.672 7.25424 215.672 7.68881V10.1659H214.863ZM225.648 9.57696C225.348 9.83171 225.059 10.0115 224.78 10.1164C224.505 10.2213 224.208 10.2738 223.89 10.2738C223.366 10.2738 222.963 10.1464 222.681 9.89165C222.399 9.6339 222.258 9.30572 222.258 8.90712C222.258 8.67335 222.311 8.46056 222.416 8.26874C222.524 8.07394 222.663 7.91809 222.834 7.8012C223.008 7.68432 223.203 7.59591 223.418 7.53596C223.577 7.49401 223.817 7.45355 224.138 7.41458C224.791 7.33666 225.272 7.24375 225.581 7.13586C225.584 7.02497 225.585 6.95454 225.585 6.92457C225.585 6.59489 225.509 6.36262 225.356 6.22775C225.149 6.04493 224.842 5.95352 224.434 5.95352C224.054 5.95352 223.772 6.02096 223.589 6.15582C223.409 6.28769 223.276 6.52296 223.189 6.86163L222.398 6.75373C222.47 6.41507 222.588 6.14234 222.753 5.93554C222.918 5.72575 223.156 5.5654 223.468 5.45451C223.779 5.34062 224.141 5.28368 224.551 5.28368C224.959 5.28368 225.29 5.33163 225.545 5.42754C225.799 5.52344 225.987 5.64482 226.107 5.79168C226.227 5.93554 226.31 6.11836 226.358 6.34014C226.385 6.47801 226.399 6.72676 226.399 7.08641V8.16535C226.399 8.91761 226.415 9.39414 226.448 9.59494C226.484 9.79275 226.553 9.98306 226.655 10.1659H225.81C225.726 9.99804 225.672 9.80174 225.648 9.57696ZM225.581 7.76974C225.287 7.88962 224.846 7.99152 224.259 8.07543C223.926 8.12339 223.691 8.17733 223.553 8.23728C223.415 8.29722 223.309 8.38563 223.234 8.50251C223.159 8.6164 223.122 8.74378 223.122 8.88464C223.122 9.10043 223.203 9.28025 223.364 9.42411C223.529 9.56797 223.769 9.6399 224.084 9.6399C224.395 9.6399 224.673 9.57246 224.915 9.43759C225.158 9.29973 225.336 9.11241 225.45 8.87565C225.537 8.69283 225.581 8.42309 225.581 8.06644V7.76974ZM227.662 4.50595V3.57536H228.471V4.50595H227.662ZM227.662 10.1659V5.39157H228.471V10.1659H227.662ZM229.708 10.1659V5.39157H230.436V6.07041C230.787 5.54592 231.293 5.28368 231.955 5.28368C232.243 5.28368 232.507 5.33613 232.747 5.44103C232.989 5.54293 233.171 5.67779 233.291 5.84563C233.41 6.01346 233.494 6.21277 233.542 6.44354C233.572 6.59339 233.587 6.85563 233.587 7.23027V10.1659H232.778V7.26173C232.778 6.93206 232.747 6.6863 232.684 6.52446C232.621 6.35962 232.508 6.22925 232.347 6.13334C232.188 6.03444 232 5.98499 231.785 5.98499C231.44 5.98499 231.142 6.09438 230.89 6.31317C230.641 6.53195 230.517 6.94704 230.517 7.55844V10.1659H229.708ZM235.062 10.1659V9.24428H235.983V10.1659H235.062ZM240.511 8.4171L241.306 8.5205C241.219 9.06896 240.996 9.49903 240.636 9.81073C240.28 10.1194 239.841 10.2738 239.319 10.2738C238.666 10.2738 238.14 10.061 237.741 9.6354C237.346 9.20682 237.148 8.59392 237.148 7.79671C237.148 7.28122 237.233 6.83016 237.404 6.44354C237.575 6.05692 237.834 5.7677 238.182 5.57589C238.532 5.38108 238.913 5.28368 239.324 5.28368C239.842 5.28368 240.266 5.41555 240.596 5.67929C240.926 5.94003 241.137 6.31167 241.23 6.79419L240.443 6.91558C240.368 6.59489 240.235 6.35363 240.043 6.19179C239.854 6.02995 239.625 5.94903 239.355 5.94903C238.948 5.94903 238.616 6.09588 238.362 6.38959C238.107 6.68031 237.98 7.14185 237.98 7.77423C237.98 8.4156 238.102 8.88164 238.348 9.17236C238.594 9.46307 238.915 9.60843 239.31 9.60843C239.628 9.60843 239.893 9.51102 240.106 9.31621C240.319 9.12141 240.454 8.8217 240.511 8.4171ZM241.697 7.77873C241.697 6.8946 241.943 6.23974 242.435 5.81416C242.845 5.46051 243.346 5.28368 243.936 5.28368C244.593 5.28368 245.129 5.49947 245.546 5.93104C245.962 6.35962 246.17 6.95304 246.17 7.71129C246.17 8.32569 246.078 8.80971 245.892 9.16336C245.709 9.51402 245.441 9.78675 245.087 9.98156C244.736 10.1764 244.353 10.2738 243.936 10.2738C243.268 10.2738 242.727 10.0595 242.313 9.6309C241.903 9.20233 241.697 8.58493 241.697 7.77873ZM242.529 7.77873C242.529 8.39012 242.662 8.84867 242.929 9.15437C243.196 9.45708 243.532 9.60843 243.936 9.60843C244.338 9.60843 244.672 9.45558 244.939 9.14988C245.205 8.84418 245.339 8.37814 245.339 7.75175C245.339 7.16133 245.204 6.71477 244.934 6.41207C244.667 6.10637 244.335 5.95352 243.936 5.95352C243.532 5.95352 243.196 6.10487 242.929 6.40757C242.662 6.71028 242.529 7.16733 242.529 7.77873ZM247.124 10.1659V5.39157H247.847V6.06142C247.997 5.82765 248.196 5.64033 248.445 5.49947C248.694 5.35561 248.977 5.28368 249.295 5.28368C249.649 5.28368 249.938 5.35711 250.163 5.50396C250.39 5.65082 250.551 5.85612 250.644 6.11986C251.021 5.56241 251.513 5.28368 252.118 5.28368C252.592 5.28368 252.956 5.41555 253.211 5.67929C253.465 5.94003 253.593 6.34314 253.593 6.8886V10.1659H252.788V7.15834C252.788 6.83465 252.761 6.60238 252.707 6.46152C252.656 6.31766 252.562 6.20228 252.424 6.11536C252.286 6.02845 252.124 5.98499 251.938 5.98499C251.603 5.98499 251.324 6.09738 251.102 6.32216C250.88 6.54394 250.769 6.90059 250.769 7.39211V10.1659H249.96V7.06393C249.96 6.70428 249.894 6.43455 249.762 6.25473C249.631 6.0749 249.415 5.98499 249.115 5.98499C248.887 5.98499 248.676 6.04493 248.481 6.16481C248.289 6.2847 248.15 6.46002 248.063 6.6908C247.976 6.92157 247.933 7.25424 247.933 7.68881V10.1659H247.124Z" fill="black"/>
<path d="M30.3347 4.94118L28.5993 6.67663L30.3347 8.41208" stroke="black" stroke-width="0.723101" stroke-linecap="round" stroke-linejoin="round"/>
<path d="M36.3746 8.31565L38.1101 6.5802L36.3746 4.84474" stroke="black" stroke-width="0.723101" stroke-linecap="round" stroke-linejoin="round"/>
<path fill-rule="evenodd" clip-rule="evenodd" d="M26.7788 2.8924C26.0999 2.8924 25.5496 3.44276 25.5496 4.12167V9.13517C25.5496 9.81408 26.0999 10.3644 26.7788 10.3644H39.9875C40.6664 10.3644 41.2168 9.81408 41.2168 9.13517V4.12167C41.2168 3.44276 40.6664 2.8924 39.9875 2.8924H26.7788ZM26.2727 4.12167C26.2727 3.84212 26.4993 3.6155 26.7788 3.6155H33.0216V9.64134H26.7788C26.4993 9.64134 26.2727 9.41472 26.2727 9.13517V4.12167ZM33.7447 9.64134H39.9875C40.267 9.64134 40.4937 9.41472 40.4937 9.13517V4.12167C40.4937 3.84212 40.267 3.6155 39.9875 3.6155H33.7447L33.7447 9.64134Z" fill="black"/>
</svg>
