<svg width="816" height="236" viewBox="0 0 816 236" fill="none" xmlns="http://www.w3.org/2000/svg">
<g opacity="0.5" filter="url(#filter0_bd_87_3103)">
<path d="M110.164 52.2949L55.0859 225H4.10931L83.0644 11.7188H115.291L110.164 52.2949ZM155.867 225L100.643 52.2949L94.9296 11.7188H127.596L206.844 225H155.867ZM153.523 145.605V182.52H42.3417V145.605H153.523ZM222.371 0H268.074V187.354L263.387 225H222.371V0ZM366.951 143.994V147.07C366.951 159.082 365.682 170.02 363.143 179.883C360.701 189.746 356.941 198.291 351.863 205.518C346.785 212.646 340.389 218.164 332.674 222.07C324.959 225.977 315.877 227.93 305.428 227.93C295.76 227.93 287.459 225.928 280.525 221.924C273.592 217.822 267.781 212.158 263.094 204.932C258.406 197.705 254.598 189.258 251.668 179.59C248.836 169.922 246.639 159.521 245.076 148.389V143.115C246.639 131.982 248.836 121.582 251.668 111.914C254.598 102.246 258.406 93.7988 263.094 86.5723C267.781 79.3457 273.543 73.7305 280.379 69.7266C287.312 65.625 295.564 63.5742 305.135 63.5742C315.682 63.5742 324.812 65.5762 332.527 69.5801C340.34 73.584 346.785 79.1992 351.863 86.4258C356.941 93.5547 360.701 102.051 363.143 111.914C365.682 121.68 366.951 132.373 366.951 143.994ZM321.248 147.07V143.994C321.248 137.939 320.809 132.227 319.93 126.855C319.148 121.484 317.732 116.748 315.682 112.646C313.728 108.447 310.945 105.176 307.332 102.832C303.816 100.391 299.275 99.1699 293.709 99.1699C288.24 99.1699 283.602 100.098 279.793 101.953C275.984 103.809 272.908 106.445 270.564 109.863C268.221 113.184 266.512 117.236 265.437 122.021C264.363 126.807 263.777 132.129 263.68 137.988V153.516C263.777 161.328 264.803 168.164 266.756 174.023C268.709 179.883 271.883 184.424 276.277 187.646C280.672 190.771 286.58 192.334 294.002 192.334C299.666 192.334 304.256 191.26 307.771 189.111C311.385 186.865 314.119 183.74 315.975 179.736C317.928 175.732 319.295 170.947 320.076 165.381C320.857 159.814 321.248 153.711 321.248 147.07ZM384.676 147.363V144.287C384.676 132.666 386.336 121.973 389.656 112.207C392.977 102.344 397.859 93.7988 404.305 86.5723C410.75 79.3457 418.66 73.7305 428.035 69.7266C437.41 65.625 448.152 63.5742 460.262 63.5742C472.566 63.5742 483.406 65.625 492.781 69.7266C502.254 73.7305 510.213 79.3457 516.658 86.5723C523.103 93.7988 527.986 102.344 531.307 112.207C534.627 121.973 536.287 132.666 536.287 144.287V147.363C536.287 158.887 534.627 169.58 531.307 179.443C527.986 189.209 523.103 197.754 516.658 205.078C510.213 212.305 502.303 217.92 492.928 221.924C483.553 225.928 472.762 227.93 460.555 227.93C448.445 227.93 437.654 225.928 428.182 221.924C418.709 217.92 410.75 212.305 404.305 205.078C397.859 197.754 392.977 189.209 389.656 179.443C386.336 169.58 384.676 158.887 384.676 147.363ZM430.525 144.287V147.363C430.525 153.613 431.014 159.473 431.99 164.941C433.064 170.41 434.773 175.195 437.117 179.297C439.461 183.398 442.537 186.621 446.346 188.965C450.252 191.211 454.988 192.334 460.555 192.334C466.121 192.334 470.809 191.211 474.617 188.965C478.426 186.621 481.502 183.398 483.846 179.297C486.189 175.195 487.85 170.41 488.826 164.941C489.9 159.473 490.437 153.613 490.437 147.363V144.287C490.437 138.135 489.9 132.373 488.826 127.002C487.85 121.533 486.189 116.699 483.846 112.5C481.502 108.301 478.377 105.029 474.471 102.686C470.662 100.342 465.926 99.1699 460.262 99.1699C454.793 99.1699 450.154 100.342 446.346 102.686C442.537 105.029 439.461 108.301 437.117 112.5C434.773 116.699 433.064 121.533 431.99 127.002C431.014 132.373 430.525 138.135 430.525 144.287ZM653.328 186.768V66.5039H699.324V225H656.258L653.328 186.768ZM658.162 154.395L670.76 154.102C670.76 164.746 669.49 174.561 666.951 183.545C664.51 192.529 660.799 200.342 655.818 206.982C650.935 213.623 644.832 218.799 637.508 222.51C630.281 226.123 621.834 227.93 612.166 227.93C604.353 227.93 597.176 226.855 590.633 224.707C584.187 222.461 578.621 218.994 573.934 214.307C569.246 209.521 565.633 203.418 563.094 195.996C560.555 188.477 559.285 179.492 559.285 169.043V66.5039H604.988V169.336C604.988 173.438 605.477 176.953 606.453 179.883C607.527 182.715 608.943 185.059 610.701 186.914C612.557 188.77 614.803 190.137 617.439 191.016C620.174 191.895 623.152 192.334 626.375 192.334C634.48 192.334 640.828 190.674 645.418 187.354C650.105 183.936 653.377 179.395 655.232 173.73C657.185 167.969 658.162 161.523 658.162 154.395ZM809.627 66.5039V98.584H715.584V66.5039H809.627ZM737.117 27.2461H782.967V175.342C782.967 179.736 783.504 183.105 784.578 185.449C785.652 187.793 787.41 189.453 789.852 190.43C792.293 191.309 795.418 191.748 799.227 191.748C801.961 191.748 804.305 191.65 806.258 191.455C808.211 191.26 810.018 191.016 811.678 190.723V223.828C807.771 225.098 803.621 226.074 799.227 226.758C794.832 227.539 790.047 227.93 784.871 227.93C775.008 227.93 766.463 226.318 759.236 223.096C752.107 219.873 746.639 214.795 742.83 207.861C739.021 200.83 737.117 191.699 737.117 180.469V27.2461Z" fill="#FF7F50" shape-rendering="crispEdges"/>
<path d="M110.164 52.2949L111.117 52.5988L111.145 52.5113L111.156 52.4203L110.164 52.2949ZM55.0859 225V226H55.8166L56.0386 225.304L55.0859 225ZM4.10931 225L3.17151 224.653L2.6728 226H4.10931V225ZM83.0644 11.7188V10.7188H82.3683L82.1266 11.3716L83.0644 11.7188ZM115.291 11.7188L116.283 11.8441L116.425 10.7188H115.291V11.7188ZM155.867 225L154.915 225.305L155.137 226H155.867V225ZM100.643 52.2949L99.6523 52.4343L99.6641 52.5185L99.69 52.5995L100.643 52.2949ZM94.9296 11.7188V10.7188H93.779L93.9394 11.8582L94.9296 11.7188ZM127.596 11.7188L128.533 11.3705L128.291 10.7188H127.596V11.7188ZM206.844 225V226H208.282L207.781 224.652L206.844 225ZM153.523 145.605H154.523V144.605H153.523V145.605ZM153.523 182.52V183.52H154.523V182.52H153.523ZM42.3417 182.52H41.3417V183.52H42.3417V182.52ZM42.3417 145.605V144.605H41.3417V145.605H42.3417ZM109.211 51.9911L54.1332 224.696L56.0386 225.304L111.117 52.5988L109.211 51.9911ZM55.0859 224H4.10931V226H55.0859V224ZM5.04712 225.347L84.0022 12.0659L82.1266 11.3716L3.17151 224.653L5.04712 225.347ZM83.0644 12.7188H115.291V10.7188H83.0644V12.7188ZM114.299 11.5934L109.172 52.1696L111.156 52.4203L116.283 11.8441L114.299 11.5934ZM156.82 224.695L101.595 51.9904L99.69 52.5995L154.915 225.305L156.82 224.695ZM101.633 52.1555L95.9199 11.5793L93.9394 11.8582L99.6523 52.4343L101.633 52.1555ZM94.9296 12.7188H127.596V10.7188H94.9296V12.7188ZM126.658 12.067L205.906 225.348L207.781 224.652L128.533 11.3705L126.658 12.067ZM206.844 224H155.867V226H206.844V224ZM152.523 145.605V182.52H154.523V145.605H152.523ZM153.523 181.52H42.3417V183.52H153.523V181.52ZM43.3417 182.52V145.605H41.3417V182.52H43.3417ZM42.3417 146.605H153.523V144.605H42.3417V146.605ZM222.371 0V-1H221.371V0H222.371ZM268.074 0H269.074V-1H268.074V0ZM268.074 187.354L269.066 187.477L269.074 187.416V187.354H268.074ZM263.387 225V226H264.27L264.379 225.124L263.387 225ZM222.371 225H221.371V226H222.371V225ZM363.143 179.883L362.174 179.634L362.172 179.643L363.143 179.883ZM351.863 205.518L352.678 206.098L352.681 206.093L351.863 205.518ZM280.525 221.924L280.016 222.785L280.025 222.79L280.525 221.924ZM251.668 179.59L250.708 179.871L250.711 179.88L251.668 179.59ZM245.076 148.389H244.076V148.459L244.086 148.528L245.076 148.389ZM245.076 143.115L244.086 142.976L244.076 143.045V143.115H245.076ZM251.668 111.914L250.711 111.624L250.708 111.633L251.668 111.914ZM280.379 69.7266L280.884 70.5895L280.888 70.5872L280.379 69.7266ZM332.527 69.5801L332.067 70.4677L332.071 70.47L332.527 69.5801ZM351.863 86.4258L351.045 87.0007L351.049 87.006L351.863 86.4258ZM363.143 111.914L362.172 112.154L362.175 112.166L363.143 111.914ZM319.93 126.855L318.94 126.999L318.941 127.008L318.943 127.017L319.93 126.855ZM315.682 112.646L314.775 113.068L314.781 113.081L314.787 113.094L315.682 112.646ZM307.332 102.832L306.762 103.653L306.775 103.662L306.788 103.671L307.332 102.832ZM270.564 109.863L271.381 110.44L271.389 110.429L270.564 109.863ZM263.68 137.988L262.68 137.972L262.68 137.98V137.988H263.68ZM263.68 153.516H262.68L262.68 153.528L263.68 153.516ZM276.277 187.646L275.686 188.453L275.692 188.457L275.698 188.461L276.277 187.646ZM307.771 189.111L308.293 189.965L308.299 189.961L307.771 189.111ZM315.975 179.736L315.076 179.298L315.071 179.307L315.067 179.316L315.975 179.736ZM222.371 1H268.074V-1H222.371V1ZM267.074 0V187.354H269.074V0H267.074ZM267.082 187.23L262.394 224.876L264.379 225.124L269.066 187.477L267.082 187.23ZM263.387 224H222.371V226H263.387V224ZM223.371 225V0H221.371V225H223.371ZM365.951 143.994V147.07H367.951V143.994H365.951ZM365.951 147.07C365.951 159.013 364.689 169.865 362.174 179.634L364.111 180.132C366.674 170.174 367.951 159.152 367.951 147.07H365.951ZM362.172 179.643C359.756 189.404 356.042 197.831 351.045 204.943L352.681 206.093C357.84 198.751 361.647 190.089 364.113 180.123L362.172 179.643ZM351.049 204.937C346.063 211.936 339.791 217.346 332.222 221.178L333.125 222.962C340.987 218.982 347.507 213.357 352.678 206.098L351.049 204.937ZM332.222 221.178C324.673 225 315.752 226.93 305.428 226.93V228.93C316.002 228.93 325.244 226.953 333.125 222.962L332.222 221.178ZM305.428 226.93C295.899 226.93 287.778 224.957 281.025 221.058L280.025 222.79C287.14 226.898 295.621 228.93 305.428 228.93V226.93ZM281.034 221.063C274.243 217.046 268.542 211.494 263.933 204.387L262.255 205.476C267.02 212.823 272.941 218.599 280.016 222.785L281.034 221.063ZM263.933 204.387C259.304 197.252 255.532 188.893 252.625 179.3L250.711 179.88C253.663 189.623 257.508 198.158 262.255 205.476L263.933 204.387ZM252.628 179.309C249.811 169.692 247.623 159.34 246.066 148.25L244.086 148.528C245.654 159.703 247.861 170.151 250.708 179.871L252.628 179.309ZM246.076 148.389V143.115H244.076V148.389H246.076ZM246.066 143.254C247.623 132.164 249.811 121.812 252.628 112.195L250.708 111.633C247.861 121.352 245.654 131.801 244.086 142.976L246.066 143.254ZM252.625 112.204C255.532 102.611 259.304 94.252 263.933 87.1165L262.255 86.0281C257.508 93.3456 253.663 101.881 250.711 111.624L252.625 112.204ZM263.933 87.1165C268.543 80.009 274.194 74.5078 280.884 70.5894L279.873 68.8637C272.892 72.9531 267.02 78.6824 262.255 86.0281L263.933 87.1165ZM280.888 70.5872C287.641 66.5927 295.71 64.5742 305.135 64.5742V62.5742C295.419 62.5742 286.984 64.6573 279.87 68.8659L280.888 70.5872ZM305.135 64.5742C315.555 64.5742 324.521 66.5518 332.067 70.4677L332.988 68.6925C325.103 64.6006 315.808 62.5742 305.135 62.5742V64.5742ZM332.071 70.47C339.738 74.3994 346.06 79.9061 351.045 87.0007L352.681 85.8508C347.511 78.4923 340.941 72.7686 332.983 68.6901L332.071 70.47ZM351.049 87.006C356.043 94.0173 359.756 102.394 362.172 112.154L364.113 111.674C361.646 101.708 357.84 93.0921 352.678 85.8456L351.049 87.006ZM362.175 112.166C364.689 121.838 365.951 132.445 365.951 143.994H367.951C367.951 132.301 366.674 121.522 364.11 111.662L362.175 112.166ZM322.248 147.07V143.994H320.248V147.07H322.248ZM322.248 143.994C322.248 137.891 321.805 132.124 320.917 126.694L318.943 127.017C319.812 132.329 320.248 137.988 320.248 143.994H322.248ZM320.919 126.712C320.125 121.254 318.682 116.412 316.576 112.199L314.787 113.094C316.782 117.084 318.171 121.715 318.94 126.999L320.919 126.712ZM316.588 112.225C314.562 107.869 311.659 104.447 307.876 101.993L306.788 103.671C310.231 105.905 312.895 109.026 314.775 113.068L316.588 112.225ZM307.902 102.011C304.175 99.4225 299.418 98.1699 293.709 98.1699V100.17C299.132 100.17 303.457 101.359 306.762 103.653L307.902 102.011ZM293.709 98.1699C288.131 98.1699 283.334 99.1158 279.355 101.054L280.231 102.852C283.869 101.08 288.349 100.17 293.709 100.17V98.1699ZM279.355 101.054C275.394 102.984 272.184 105.734 269.74 109.298L271.389 110.429C273.633 107.157 276.574 104.634 280.231 102.852L279.355 101.054ZM269.747 109.287C267.314 112.734 265.559 116.915 264.462 121.802L266.413 122.241C267.464 117.558 269.128 113.633 271.381 110.44L269.747 109.287ZM264.462 121.802C263.37 126.665 262.778 132.057 262.68 137.972L264.679 138.005C264.776 132.201 265.356 126.948 266.413 122.241L264.462 121.802ZM262.68 137.988V153.516H264.68V137.988H262.68ZM262.68 153.528C262.778 161.418 263.814 168.36 265.807 174.34L267.704 173.707C265.791 167.968 264.776 161.238 264.68 153.503L262.68 153.528ZM265.807 174.34C267.817 180.368 271.103 185.092 275.686 188.453L276.869 186.84C272.663 183.756 269.601 179.397 267.704 173.707L265.807 174.34ZM275.698 188.461C280.315 191.745 286.449 193.334 294.002 193.334V191.334C286.711 191.334 281.029 189.798 276.857 186.832L275.698 188.461ZM294.002 193.334C299.784 193.334 304.572 192.239 308.293 189.965L307.25 188.258C303.94 190.281 299.548 191.334 294.002 191.334V193.334ZM308.299 189.961C312.085 187.608 314.948 184.331 316.882 180.157L315.067 179.316C313.291 183.15 310.685 186.123 307.243 188.262L308.299 189.961ZM316.873 180.175C318.883 176.055 320.274 171.164 321.066 165.52L319.086 165.242C318.316 170.73 316.973 175.409 315.076 179.298L316.873 180.175ZM321.066 165.52C321.855 159.9 322.248 153.749 322.248 147.07H320.248C320.248 153.673 319.86 159.729 319.086 165.242L321.066 165.52ZM389.656 112.207L390.603 112.529L390.604 112.526L389.656 112.207ZM428.035 69.7266L428.428 70.6462L428.436 70.6427L428.035 69.7266ZM492.781 69.7266L492.38 70.6428L492.392 70.6477L492.781 69.7266ZM531.307 112.207L530.359 112.526L530.36 112.529L531.307 112.207ZM531.307 179.443L532.253 179.765L532.254 179.762L531.307 179.443ZM516.658 205.078L517.404 205.744L517.409 205.739L516.658 205.078ZM404.305 205.078L403.554 205.739L403.558 205.744L404.305 205.078ZM389.656 179.443L388.708 179.762L388.709 179.765L389.656 179.443ZM431.99 164.941L431.006 165.117L431.007 165.126L431.009 165.134L431.99 164.941ZM446.346 188.965L445.822 189.817L445.834 189.824L445.847 189.832L446.346 188.965ZM474.617 188.965L475.125 189.826L475.133 189.821L475.141 189.817L474.617 188.965ZM488.826 164.941L487.845 164.749L487.843 164.757L487.842 164.766L488.826 164.941ZM488.826 127.002L487.842 127.178L487.844 127.188L487.846 127.198L488.826 127.002ZM474.471 102.686L473.947 103.537L473.956 103.543L474.471 102.686ZM431.99 127.002L431.009 126.809L431.006 126.823L431.99 127.002ZM385.676 147.363V144.287H383.676V147.363H385.676ZM385.676 144.287C385.676 132.762 387.322 122.179 390.603 112.529L388.709 111.885C385.35 121.767 383.676 132.57 383.676 144.287H385.676ZM390.604 112.526C393.884 102.781 398.702 94.3563 405.051 87.2379L403.558 85.9067C397.017 93.2413 392.069 101.906 388.708 111.888L390.604 112.526ZM405.051 87.2379C411.393 80.1267 419.181 74.5955 428.428 70.6462L427.642 68.8069C418.14 72.8654 410.107 78.5647 403.558 85.9067L405.051 87.2379ZM428.436 70.6427C437.664 66.6056 448.265 64.5742 460.262 64.5742V62.5742C448.039 62.5742 437.157 64.6444 427.634 68.8104L428.436 70.6427ZM460.262 64.5742C472.456 64.5742 483.155 66.6065 492.38 70.6427L493.182 68.8104C483.658 64.6435 472.677 62.5742 460.262 62.5742V64.5742ZM492.392 70.6477C501.737 74.5976 509.571 80.1287 515.912 87.2379L517.404 85.9067C510.854 78.5627 502.771 72.8634 493.171 68.8055L492.392 70.6477ZM515.912 87.2379C522.261 94.3563 527.078 102.781 530.359 112.526L532.254 111.888C528.894 101.906 523.946 93.2413 517.404 85.9067L515.912 87.2379ZM530.36 112.529C533.641 122.179 535.287 132.762 535.287 144.287H537.287C537.287 132.57 535.613 121.767 532.253 111.885L530.36 112.529ZM535.287 144.287V147.363H537.287V144.287H535.287ZM535.287 147.363C535.287 158.79 533.641 169.374 530.359 179.124L532.254 179.762C535.613 169.786 537.287 158.984 537.287 147.363H535.287ZM530.36 179.121C527.079 188.77 522.261 197.198 515.907 204.417L517.409 205.739C523.946 198.31 528.893 189.648 532.253 179.765L530.36 179.121ZM515.912 204.413C509.569 211.524 501.782 217.055 492.535 221.004L493.32 222.843C502.823 218.785 510.856 213.086 517.404 205.744L515.912 204.413ZM492.535 221.004C483.306 224.946 472.653 226.93 460.555 226.93V228.93C472.871 228.93 483.799 226.91 493.32 222.843L492.535 221.004ZM460.555 226.93C448.556 226.93 437.901 224.946 428.571 221.003L427.792 222.845C437.408 226.909 448.335 228.93 460.555 228.93V226.93ZM428.571 221.003C419.226 217.053 411.392 211.522 405.051 204.413L403.558 205.744C410.108 213.088 418.192 218.787 427.792 222.845L428.571 221.003ZM405.055 204.417C398.702 197.198 393.883 188.77 390.603 179.121L388.709 179.765C392.07 189.648 397.017 198.31 403.554 205.739L405.055 204.417ZM390.604 179.124C387.322 169.374 385.676 158.79 385.676 147.363H383.676C383.676 158.984 385.35 169.786 388.708 179.762L390.604 179.124ZM429.525 144.287V147.363H431.525V144.287H429.525ZM429.525 147.363C429.525 153.665 430.018 159.584 431.006 165.117L432.975 164.766C432.01 159.362 431.525 153.562 431.525 147.363H429.525ZM431.009 165.134C432.1 170.691 433.843 175.582 436.249 179.793L437.985 178.801C435.704 174.809 434.028 170.129 432.971 164.749L431.009 165.134ZM436.249 179.793C438.671 184.032 441.862 187.38 445.822 189.817L446.87 188.113C443.212 185.862 440.251 182.765 437.985 178.801L436.249 179.793ZM445.847 189.832C449.937 192.183 454.854 193.334 460.555 193.334V191.334C455.122 191.334 450.567 190.239 446.844 188.098L445.847 189.832ZM460.555 193.334C466.254 193.334 471.128 192.184 475.125 189.826L474.109 188.103C470.49 190.238 465.988 191.334 460.555 191.334V193.334ZM475.141 189.817C479.101 187.38 482.292 184.032 484.714 179.793L482.977 178.801C480.712 182.765 477.751 185.862 474.093 188.113L475.141 189.817ZM484.714 179.793C487.123 175.576 488.817 170.679 489.811 165.117L487.842 164.766C486.882 170.141 485.255 174.814 482.977 178.801L484.714 179.793ZM489.807 165.134C490.895 159.595 491.437 153.67 491.437 147.363H489.437C489.437 153.556 488.905 159.351 487.845 164.749L489.807 165.134ZM491.437 147.363V144.287H489.437V147.363H491.437ZM491.437 144.287C491.437 138.077 490.895 132.249 489.807 126.806L487.846 127.198C488.905 132.497 489.437 138.193 489.437 144.287H491.437ZM489.811 126.826C488.817 121.265 487.124 116.323 484.719 112.013L482.972 112.987C485.254 117.076 486.882 121.802 487.842 127.178L489.811 126.826ZM484.719 112.013C482.295 107.67 479.05 104.267 474.985 101.828L473.956 103.543C477.704 105.792 480.709 108.932 482.972 112.987L484.719 112.013ZM474.995 101.834C470.992 99.3704 466.062 98.1699 460.262 98.1699V100.17C465.789 100.17 470.333 101.313 473.947 103.537L474.995 101.834ZM460.262 98.1699C454.649 98.1699 449.82 99.3736 445.822 101.834L446.87 103.537C450.489 101.31 454.937 100.17 460.262 100.17V98.1699ZM445.822 101.834C441.856 104.274 438.665 107.676 436.244 112.013L437.99 112.987C440.257 108.926 443.218 105.785 446.87 103.537L445.822 101.834ZM436.244 112.013C433.841 116.317 432.1 121.253 431.009 126.809L432.971 127.195C434.029 121.813 435.705 117.081 437.99 112.987L436.244 112.013ZM431.006 126.823C430.018 132.26 429.525 138.082 429.525 144.287H431.525C431.525 138.187 432.009 132.486 432.974 127.181L431.006 126.823ZM653.328 186.768H652.328V186.806L652.331 186.844L653.328 186.768ZM653.328 66.5039V65.5039H652.328V66.5039H653.328ZM699.324 66.5039H700.324V65.5039H699.324V66.5039ZM699.324 225V226H700.324V225H699.324ZM656.258 225L655.261 225.076L655.331 226H656.258V225ZM658.162 154.395L658.139 153.395L657.162 153.418V154.395H658.162ZM670.76 154.102H671.76V153.078L670.736 153.102L670.76 154.102ZM666.951 183.545L665.989 183.273L665.986 183.283L666.951 183.545ZM655.818 206.982L655.018 206.382L655.013 206.39L655.818 206.982ZM637.508 222.51L637.955 223.404L637.96 223.402L637.508 222.51ZM590.633 224.707L590.304 225.651L590.312 225.654L590.321 225.657L590.633 224.707ZM573.934 214.307L573.219 215.006L573.226 215.014L573.934 214.307ZM563.094 195.996L562.146 196.316L562.148 196.32L563.094 195.996ZM559.285 66.5039V65.5039H558.285V66.5039H559.285ZM604.988 66.5039H605.988V65.5039H604.988V66.5039ZM606.453 179.883L605.504 180.199L605.511 180.218L605.518 180.237L606.453 179.883ZM610.701 186.914L609.975 187.602L609.984 187.612L609.994 187.621L610.701 186.914ZM617.439 191.016L617.123 191.964L617.133 191.968L617.439 191.016ZM645.418 187.354L646.004 188.164L646.007 188.162L645.418 187.354ZM655.232 173.73L654.285 173.409L654.282 173.419L655.232 173.73ZM654.328 186.768V66.5039H652.328V186.768H654.328ZM653.328 67.5039H699.324V65.5039H653.328V67.5039ZM698.324 66.5039V225H700.324V66.5039H698.324ZM699.324 224H656.258V226H699.324V224ZM657.255 224.924L654.325 186.691L652.331 186.844L655.261 225.076L657.255 224.924ZM658.185 155.394L670.783 155.101L670.736 153.102L658.139 153.395L658.185 155.394ZM669.76 154.102C669.76 164.667 668.5 174.388 665.989 183.273L667.913 183.817C670.481 174.733 671.76 164.825 671.76 154.102H669.76ZM665.986 183.283C663.574 192.16 659.914 199.855 655.018 206.382L656.618 207.582C661.683 200.829 665.446 192.899 667.916 183.807L665.986 183.283ZM655.013 206.39C650.222 212.905 644.24 217.978 637.056 221.618L637.96 223.402C645.424 219.62 651.649 214.341 656.624 207.575L655.013 206.39ZM637.061 221.615C629.998 225.147 621.709 226.93 612.166 226.93V228.93C621.959 228.93 630.565 227.099 637.955 223.404L637.061 221.615ZM612.166 226.93C604.445 226.93 597.374 225.868 590.945 223.757L590.321 225.657C596.977 227.843 604.262 228.93 612.166 228.93V226.93ZM590.962 223.763C584.654 221.565 579.218 218.177 574.641 213.6L573.226 215.014C578.024 219.811 583.72 223.357 590.304 225.651L590.962 223.763ZM574.648 213.607C570.081 208.945 566.539 202.977 564.04 195.672L562.148 196.32C564.727 203.859 568.411 210.098 573.219 215.006L574.648 213.607ZM564.041 195.676C561.546 188.286 560.285 179.416 560.285 169.043H558.285C558.285 179.569 559.563 188.667 562.146 196.316L564.041 195.676ZM560.285 169.043V66.5039H558.285V169.043H560.285ZM559.285 67.5039H604.988V65.5039H559.285V67.5039ZM603.988 66.5039V169.336H605.988V66.5039H603.988ZM603.988 169.336C603.988 173.512 604.485 177.14 605.504 180.199L607.402 179.567C606.468 176.766 605.988 173.363 605.988 169.336H603.988ZM605.518 180.237C606.631 183.171 608.111 185.634 609.975 187.602L611.427 186.226C609.776 184.483 608.424 182.259 607.388 179.528L605.518 180.237ZM609.994 187.621C611.966 189.593 614.348 191.039 617.123 191.964L617.756 190.067C615.257 189.234 613.147 187.946 611.408 186.207L609.994 187.621ZM617.133 191.968C619.978 192.882 623.061 193.334 626.375 193.334V191.334C623.244 191.334 620.37 190.907 617.745 190.064L617.133 191.968ZM626.375 193.334C634.603 193.334 641.184 191.65 646.004 188.164L644.832 186.543C640.472 189.697 634.357 191.334 626.375 191.334V193.334ZM646.007 188.162C650.869 184.616 654.264 179.899 656.183 174.042L654.282 173.419C652.49 178.89 649.342 183.255 644.829 186.546L646.007 188.162ZM656.179 174.052C658.173 168.17 659.162 161.614 659.162 154.395H657.162C657.162 161.433 656.198 167.767 654.285 173.409L656.179 174.052ZM809.627 66.5039H810.627V65.5039H809.627V66.5039ZM809.627 98.584V99.584H810.627V98.584H809.627ZM715.584 98.584H714.584V99.584H715.584V98.584ZM715.584 66.5039V65.5039H714.584V66.5039H715.584ZM737.117 27.2461V26.2461H736.117V27.2461H737.117ZM782.967 27.2461H783.967V26.2461H782.967V27.2461ZM789.852 190.43L789.48 191.358L789.496 191.365L789.513 191.371L789.852 190.43ZM811.678 190.723H812.678V189.531L811.504 189.738L811.678 190.723ZM811.678 223.828L811.987 224.779L812.678 224.555V223.828H811.678ZM799.227 226.758L799.073 225.77L799.062 225.771L799.051 225.773L799.227 226.758ZM759.236 223.096L758.824 224.007L758.829 224.009L759.236 223.096ZM742.83 207.861L741.951 208.338L741.954 208.343L742.83 207.861ZM808.627 66.5039V98.584H810.627V66.5039H808.627ZM809.627 97.584H715.584V99.584H809.627V97.584ZM716.584 98.584V66.5039H714.584V98.584H716.584ZM715.584 67.5039H809.627V65.5039H715.584V67.5039ZM737.117 28.2461H782.967V26.2461H737.117V28.2461ZM781.967 27.2461V175.342H783.967V27.2461H781.967ZM781.967 175.342C781.967 179.793 782.507 183.33 783.669 185.866L785.487 185.033C784.501 182.881 783.967 179.68 783.967 175.342H781.967ZM783.669 185.866C784.852 188.448 786.806 190.288 789.48 191.358L790.223 189.501C788.014 188.618 786.452 187.138 785.487 185.033L783.669 185.866ZM789.513 191.371C792.101 192.302 795.351 192.748 799.227 192.748V190.748C795.484 190.748 792.485 190.315 790.19 189.489L789.513 191.371ZM799.227 192.748C801.982 192.748 804.361 192.65 806.357 192.45L806.158 190.46C804.248 190.651 801.939 190.748 799.227 190.748V192.748ZM806.357 192.45C808.331 192.253 810.163 192.005 811.851 191.707L811.504 189.738C809.872 190.026 808.09 190.267 806.158 190.46L806.357 192.45ZM810.678 190.723V223.828H812.678V190.723H810.678ZM811.369 222.877C807.517 224.129 803.419 225.094 799.073 225.77L799.38 227.746C803.823 227.055 808.026 226.066 811.987 224.779L811.369 222.877ZM799.051 225.773C794.723 226.543 789.997 226.93 784.871 226.93V228.93C790.096 228.93 794.941 228.535 799.402 227.742L799.051 225.773ZM784.871 226.93C775.115 226.93 766.714 225.336 759.644 222.182L758.829 224.009C766.211 227.301 774.901 228.93 784.871 228.93V226.93ZM759.648 222.184C752.719 219.052 747.412 214.126 743.706 207.38L741.954 208.343C745.865 215.464 751.496 220.694 758.824 224.007L759.648 222.184ZM743.709 207.385C740.005 200.547 738.117 191.596 738.117 180.469H736.117C736.117 191.802 738.037 201.113 741.951 208.338L743.709 207.385ZM738.117 180.469V27.2461H736.117V180.469H738.117Z" fill="black" fill-opacity="0.05"/>
</g>
<defs>
<filter id="filter0_bd_87_3103" x="0.109375" y="-1" width="815.568" height="236.93" filterUnits="userSpaceOnUse" color-interpolation-filters="sRGB">
<feFlood flood-opacity="0" result="BackgroundImageFix"/>
<feGaussianBlur in="BackgroundImage" stdDeviation="0.5"/>
<feComposite in2="SourceAlpha" operator="in" result="effect1_backgroundBlur_87_3103"/>
<feColorMatrix in="SourceAlpha" type="matrix" values="0 0 0 0 0 0 0 0 0 0 0 0 0 0 0 0 0 0 127 0" result="hardAlpha"/>
<feOffset dy="4"/>
<feGaussianBlur stdDeviation="2"/>
<feComposite in2="hardAlpha" operator="out"/>
<feColorMatrix type="matrix" values="0 0 0 0 0 0 0 0 0 0 0 0 0 0 0 0 0 0 0.25 0"/>
<feBlend mode="normal" in2="effect1_backgroundBlur_87_3103" result="effect2_dropShadow_87_3103"/>
<feBlend mode="normal" in="SourceGraphic" in2="effect2_dropShadow_87_3103" result="shape"/>
</filter>
</defs>
</svg>
