<svg width="887" height="958" viewBox="0 0 887 958" fill="none" xmlns="http://www.w3.org/2000/svg">
<g opacity="0.5" filter="url(#filter0_bd_74_1113)">
<path d="M112.746 86.2227C116.001 86.2227 118.833 85.6042 121.242 84.3672C123.651 83.1302 125.507 81.4049 126.809 79.1914C128.176 76.9128 128.859 74.1784 128.859 70.9883H157.57C157.57 78.6706 155.585 85.4414 151.613 91.3008C147.707 97.1602 142.434 101.75 135.793 105.07C129.152 108.326 121.665 109.953 113.332 109.953C105.129 109.953 97.9674 108.618 91.8477 105.949C85.7279 103.215 80.6172 99.4062 76.5156 94.5234C72.4141 89.6406 69.3216 83.9766 67.2383 77.5312C65.2201 71.0208 64.2109 63.9896 64.2109 56.4375V53.8984C64.2109 46.4115 65.2201 39.4128 67.2383 32.9023C69.3216 26.3919 72.4141 20.6953 76.5156 15.8125C80.6172 10.9297 85.6953 7.15365 91.75 4.48438C97.8698 1.75 105.031 0.382812 113.234 0.382812C121.893 0.382812 129.543 2.04297 136.184 5.36328C142.889 8.68359 148.13 13.4688 151.906 19.7188C155.682 25.9036 157.57 33.3581 157.57 42.082H128.859C128.859 38.6966 128.241 35.6693 127.004 33C125.832 30.2656 124.009 28.1172 121.535 26.5547C119.126 24.9271 116.132 24.1133 112.551 24.1133C108.84 24.1133 105.78 24.9271 103.371 26.5547C101.027 28.1172 99.237 30.2982 98 33.0977C96.763 35.8971 95.9167 39.0872 95.4609 42.668C95.0052 46.1836 94.7773 49.9271 94.7773 53.8984V56.4375C94.7773 60.474 95.0052 64.3151 95.4609 67.9609C95.9167 71.5417 96.763 74.6992 98 77.4336C99.3021 80.168 101.125 82.3164 103.469 83.8789C105.812 85.4414 108.905 86.2227 112.746 86.2227ZM59.9141 196.242V194.191C59.9141 186.444 61.0208 179.315 63.2344 172.805C65.4479 166.229 68.7031 160.533 73 155.715C77.2969 150.897 82.5703 147.154 88.8203 144.484C95.0703 141.75 102.232 140.383 110.305 140.383C118.508 140.383 125.734 141.75 131.984 144.484C138.299 147.154 143.605 150.897 147.902 155.715C152.199 160.533 155.454 166.229 157.668 172.805C159.882 179.315 160.988 186.444 160.988 194.191V196.242C160.988 203.924 159.882 211.053 157.668 217.629C155.454 224.139 152.199 229.836 147.902 234.719C143.605 239.536 138.332 243.28 132.082 245.949C125.832 248.618 118.638 249.953 110.5 249.953C102.427 249.953 95.2331 248.618 88.918 245.949C82.6029 243.28 77.2969 239.536 73 234.719C68.7031 229.836 65.4479 224.139 63.2344 217.629C61.0208 211.053 59.9141 203.924 59.9141 196.242ZM90.4805 194.191V196.242C90.4805 200.409 90.806 204.315 91.457 207.961C92.1732 211.607 93.3125 214.797 94.875 217.531C96.4375 220.266 98.4883 222.414 101.027 223.977C103.632 225.474 106.789 226.223 110.5 226.223C114.211 226.223 117.336 225.474 119.875 223.977C122.414 222.414 124.465 220.266 126.027 217.531C127.59 214.797 128.697 211.607 129.348 207.961C130.064 204.315 130.422 200.409 130.422 196.242V194.191C130.422 190.09 130.064 186.249 129.348 182.668C128.697 179.022 127.59 175.799 126.027 173C124.465 170.201 122.382 168.02 119.777 166.457C117.238 164.895 114.081 164.113 110.305 164.113C106.659 164.113 103.566 164.895 101.027 166.457C98.4883 168.02 96.4375 170.201 94.875 173C93.3125 175.799 92.1732 179.022 91.457 182.668C90.806 186.249 90.4805 190.09 90.4805 194.191ZM94.2891 304.895V388H63.7227V282.336H92.4336L94.2891 304.895ZM90.2852 331.457L82.668 331.652C82.668 323.71 83.6445 316.581 85.5977 310.266C87.5508 303.951 90.3177 298.579 93.8984 294.152C97.5443 289.66 101.874 286.242 106.887 283.898C111.965 281.555 117.564 280.383 123.684 280.383C128.632 280.383 133.156 281.099 137.258 282.531C141.359 283.964 144.875 286.275 147.805 289.465C150.799 292.59 153.078 296.757 154.641 301.965C156.203 307.108 156.984 313.456 156.984 321.008V388H126.32V320.91C126.32 316.483 125.702 313.065 124.465 310.656C123.228 308.247 121.405 306.555 118.996 305.578C116.652 304.602 113.788 304.113 110.402 304.113C106.822 304.113 103.762 304.829 101.223 306.262C98.6836 307.629 96.6003 309.549 94.9727 312.023C93.3451 314.497 92.1406 317.395 91.3594 320.715C90.6432 324.035 90.2852 327.616 90.2852 331.457ZM140.188 422.336V443.723H77.4922V422.336H140.188ZM91.8477 396.164H122.414V494.895C122.414 497.824 122.772 500.07 123.488 501.633C124.204 503.195 125.376 504.302 127.004 504.953C128.632 505.539 130.715 505.832 133.254 505.832C135.077 505.832 136.639 505.767 137.941 505.637C139.243 505.507 140.448 505.344 141.555 505.148V527.219C138.951 528.065 136.184 528.716 133.254 529.172C130.324 529.693 127.134 529.953 123.684 529.953C117.108 529.953 111.411 528.879 106.594 526.73C101.841 524.582 98.1953 521.197 95.6562 516.574C93.1172 511.887 91.8477 505.799 91.8477 498.312V396.164ZM123.293 642.805V597.492C123.293 594.302 122.805 591.568 121.828 589.289C120.852 587.01 119.322 585.22 117.238 583.918C115.155 582.616 112.453 581.965 109.133 581.965C106.333 581.965 103.892 582.453 101.809 583.43C99.7904 584.406 98.2279 585.806 97.1211 587.629C96.0794 589.452 95.5586 591.698 95.5586 594.367H65.0898C65.0898 589.615 66.1641 585.188 68.3125 581.086C70.4609 576.984 73.5208 573.371 77.4922 570.246C81.5286 567.121 86.3464 564.712 91.9453 563.02C97.5443 561.262 103.827 560.383 110.793 560.383C119.061 560.383 126.418 561.783 132.863 564.582C139.374 567.316 144.517 571.451 148.293 576.984C152.069 582.453 153.957 589.354 153.957 597.688V641.926C153.957 648.306 154.315 653.319 155.031 656.965C155.812 660.546 156.919 663.671 158.352 666.34V668H127.59C126.158 664.94 125.083 661.164 124.367 656.672C123.651 652.115 123.293 647.492 123.293 642.805ZM127.102 603.547L127.297 620.344H112.16C108.775 620.344 105.845 620.767 103.371 621.613C100.962 622.46 99.0091 623.632 97.5117 625.129C96.0143 626.561 94.9076 628.254 94.1914 630.207C93.5404 632.095 93.2148 634.178 93.2148 636.457C93.2148 638.605 93.7357 640.559 94.7773 642.316C95.819 644.009 97.2513 645.344 99.0742 646.32C100.897 647.297 103.013 647.785 105.422 647.785C109.393 647.785 112.779 647.004 115.578 645.441C118.443 643.879 120.656 641.991 122.219 639.777C123.781 637.499 124.562 635.383 124.562 633.43L131.887 646.125C130.715 648.729 129.283 651.431 127.59 654.23C125.897 656.965 123.749 659.536 121.145 661.945C118.54 664.289 115.383 666.21 111.672 667.707C108.026 669.204 103.632 669.953 98.4883 669.953C91.8477 669.953 85.8255 668.618 80.4219 665.949C75.0182 663.215 70.6888 659.471 67.4336 654.719C64.2435 649.966 62.6484 644.497 62.6484 638.312C62.6484 632.779 63.6576 627.863 65.6758 623.566C67.694 619.27 70.7214 615.624 74.7578 612.629C78.8594 609.634 84.0026 607.388 90.1875 605.891C96.3724 604.328 103.599 603.547 111.867 603.547H127.102ZM112.746 786.223C116.001 786.223 118.833 785.604 121.242 784.367C123.651 783.13 125.507 781.405 126.809 779.191C128.176 776.913 128.859 774.178 128.859 770.988H157.57C157.57 778.671 155.585 785.441 151.613 791.301C147.707 797.16 142.434 801.75 135.793 805.07C129.152 808.326 121.665 809.953 113.332 809.953C105.129 809.953 97.9674 808.618 91.8477 805.949C85.7279 803.215 80.6172 799.406 76.5156 794.523C72.4141 789.641 69.3216 783.977 67.2383 777.531C65.2201 771.021 64.2109 763.99 64.2109 756.438V753.898C64.2109 746.411 65.2201 739.413 67.2383 732.902C69.3216 726.392 72.4141 720.695 76.5156 715.812C80.6172 710.93 85.6953 707.154 91.75 704.484C97.8698 701.75 105.031 700.383 113.234 700.383C121.893 700.383 129.543 702.043 136.184 705.363C142.889 708.684 148.13 713.469 151.906 719.719C155.682 725.904 157.57 733.358 157.57 742.082H128.859C128.859 738.697 128.241 735.669 127.004 733C125.832 730.266 124.009 728.117 121.535 726.555C119.126 724.927 116.132 724.113 112.551 724.113C108.84 724.113 105.78 724.927 103.371 726.555C101.027 728.117 99.237 730.298 98 733.098C96.763 735.897 95.9167 739.087 95.4609 742.668C95.0052 746.184 94.7773 749.927 94.7773 753.898V756.438C94.7773 760.474 95.0052 764.315 95.4609 767.961C95.9167 771.542 96.763 774.699 98 777.434C99.3021 780.168 101.125 782.316 103.469 783.879C105.812 785.441 108.905 786.223 112.746 786.223ZM140.188 842.336V863.723H77.4922V842.336H140.188ZM91.8477 816.164H122.414V914.895C122.414 917.824 122.772 920.07 123.488 921.633C124.204 923.195 125.376 924.302 127.004 924.953C128.632 925.539 130.715 925.832 133.254 925.832C135.077 925.832 136.639 925.767 137.941 925.637C139.243 925.507 140.448 925.344 141.555 925.148V947.219C138.951 948.065 136.184 948.716 133.254 949.172C130.324 949.693 127.134 949.953 123.684 949.953C117.108 949.953 111.411 948.879 106.594 946.73C101.841 944.582 98.1953 941.197 95.6562 936.574C93.1172 931.887 91.8477 925.799 91.8477 918.312V816.164Z" fill="#FAE9E9" fill-opacity="0.1" shape-rendering="crispEdges"/>
<path d="M121.242 84.3672L121.699 85.2568L121.242 84.3672ZM126.809 79.1914L125.951 78.6769L125.947 78.6844L126.809 79.1914ZM128.859 70.9883V69.9883H127.859V70.9883H128.859ZM157.57 70.9883H158.57V69.9883H157.57V70.9883ZM151.613 91.3008L150.785 90.7397L150.781 90.7461L151.613 91.3008ZM135.793 105.07L136.233 105.968L136.24 105.965L135.793 105.07ZM91.8477 105.949L91.4397 106.862L91.4479 106.866L91.8477 105.949ZM67.2383 77.5312L66.2831 77.8274L66.2868 77.8388L67.2383 77.5312ZM67.2383 32.9023L66.2858 32.5976L66.2831 32.6062L67.2383 32.9023ZM91.75 4.48438L92.1534 5.39941L92.1579 5.39738L91.75 4.48438ZM136.184 5.36328L135.736 6.25772L135.74 6.25944L136.184 5.36328ZM151.906 19.7188L151.05 20.2359L151.053 20.2398L151.906 19.7188ZM157.57 42.082V43.082H158.57V42.082H157.57ZM128.859 42.082H127.859V43.082H128.859V42.082ZM127.004 33L126.085 33.3939L126.09 33.4073L126.097 33.4205L127.004 33ZM121.535 26.5547L120.975 27.3833L120.988 27.3919L121.001 27.4002L121.535 26.5547ZM103.371 26.5547L103.926 27.3868L103.931 27.3833L103.371 26.5547ZM95.4609 42.668L96.4526 42.7965L96.4529 42.7942L95.4609 42.668ZM95.4609 67.9609L94.4687 68.085L94.4689 68.0872L95.4609 67.9609ZM98 77.4336L97.0889 77.8458L97.0929 77.8547L97.0971 77.8635L98 77.4336ZM112.746 87.2227C116.128 87.2227 119.123 86.5796 121.699 85.2568L120.785 83.4776C118.544 84.6288 115.874 85.2227 112.746 85.2227V87.2227ZM121.699 85.2568C124.267 83.9382 126.267 82.0844 127.671 79.6984L125.947 78.6844C124.746 80.7255 123.035 82.3223 120.785 83.4776L121.699 85.2568ZM127.666 79.7059C129.144 77.2433 129.859 74.3231 129.859 70.9883H127.859C127.859 74.0336 127.208 76.5822 125.951 78.6769L127.666 79.7059ZM128.859 71.9883H157.57V69.9883H128.859V71.9883ZM156.57 70.9883C156.57 78.4884 154.635 85.0601 150.786 90.7397L152.441 91.8618C156.534 85.8227 158.57 78.8527 158.57 70.9883H156.57ZM150.781 90.7461C146.977 96.4527 141.84 100.929 135.346 104.176L136.24 105.965C143.028 102.571 148.437 97.8676 152.445 91.8555L150.781 90.7461ZM135.353 104.172C128.866 107.352 121.532 108.953 113.332 108.953V110.953C121.798 110.953 129.439 109.299 136.233 105.968L135.353 104.172ZM113.332 108.953C105.236 108.953 98.2158 107.636 92.2475 105.033L91.4479 106.866C97.7191 109.601 105.022 110.953 113.332 110.953V108.953ZM92.2556 105.036C86.2667 102.36 81.2806 98.6413 77.2813 93.8802L75.7499 95.1666C79.9538 100.171 85.189 104.069 91.4397 106.862L92.2556 105.036ZM77.2813 93.8802C73.2679 89.1023 70.2359 83.5539 68.1898 77.2237L66.2868 77.8388C68.4073 84.3992 71.5603 90.1789 75.7499 95.1666L77.2813 93.8802ZM68.1934 77.2352C66.208 70.8304 65.2109 63.8999 65.2109 56.4375H63.2109C63.2109 64.0792 64.2322 71.2113 66.2831 77.8273L68.1934 77.2352ZM65.2109 56.4375V53.8984H63.2109V56.4375H65.2109ZM65.2109 53.8984C65.2109 46.502 66.2077 39.604 68.1934 33.1984L66.2831 32.6062C64.2324 39.2215 63.2109 46.3209 63.2109 53.8984H65.2109ZM68.1907 33.2071C70.2373 26.8116 73.2693 21.2319 77.2813 16.4557L75.7499 15.1693C71.5588 20.1587 68.4059 25.9723 66.2859 32.5976L68.1907 33.2071ZM77.2813 16.4557C81.2808 11.6945 86.2333 8.00936 92.1534 5.3994L91.3466 3.56935C85.1574 6.29793 79.9536 10.1649 75.7499 15.1693L77.2813 16.4557ZM92.1579 5.39738C98.124 2.73169 105.141 1.38281 113.234 1.38281V-0.617188C104.921 -0.617188 97.6156 0.768309 91.3421 3.57137L92.1579 5.39738ZM113.234 1.38281C121.764 1.38281 129.256 3.0175 135.736 6.25771L136.631 4.46885C129.83 1.06844 122.023 -0.617188 113.234 -0.617188V1.38281ZM135.74 6.25944C142.279 9.49745 147.375 14.1531 151.05 20.2359L152.762 19.2016C148.885 12.7844 143.499 7.86974 136.627 4.46712L135.74 6.25944ZM151.053 20.2398C154.715 26.2385 156.57 33.5043 156.57 42.082H158.57C158.57 33.2119 156.649 25.5688 152.76 19.1977L151.053 20.2398ZM157.57 41.082H128.859V43.082H157.57V41.082ZM129.859 42.082C129.859 38.5732 129.218 35.399 127.911 32.5795L126.097 33.4205C127.264 35.9395 127.859 38.82 127.859 42.082H129.859ZM127.923 32.6061C126.673 29.689 124.717 27.3817 122.069 25.7092L121.001 27.4002C123.301 28.8527 124.991 30.8423 126.085 33.3939L127.923 32.6061ZM122.095 25.7261C119.486 23.9633 116.284 23.1133 112.551 23.1133V25.1133C115.979 25.1133 118.767 25.8909 120.975 27.3833L122.095 25.7261ZM112.551 23.1133C108.695 23.1133 105.426 23.9595 102.811 25.7261L103.931 27.3833C106.134 25.8946 108.984 25.1133 112.551 25.1133V23.1133ZM102.816 25.7226C100.301 27.3997 98.3922 29.7357 97.0853 32.6935L98.9147 33.5018C100.082 30.8606 101.754 28.8346 103.926 27.3867L102.816 25.7226ZM97.0853 32.6935C95.803 35.5956 94.9347 38.8818 94.4689 42.5417L96.4529 42.7942C96.8986 39.2927 97.723 36.1987 98.9147 33.5018L97.0853 32.6935ZM94.4692 42.5394C94.0074 46.1024 93.7773 49.8891 93.7773 53.8984H95.7773C95.7773 49.965 96.003 46.2648 96.4526 42.7965L94.4692 42.5394ZM93.7773 53.8984V56.4375H95.7773V53.8984H93.7773ZM93.7773 56.4375C93.7773 60.5114 94.0073 64.3942 94.4687 68.085L96.4532 67.8369C96.0031 64.236 95.7773 60.4365 95.7773 56.4375H93.7773ZM94.4689 68.0872C94.9348 71.7474 95.8035 75.0044 97.0889 77.8458L98.9111 77.0214C97.7225 74.394 96.8986 71.336 96.4529 67.8347L94.4689 68.0872ZM97.0971 77.8635C98.4708 80.7482 100.409 83.0408 102.914 84.711L104.023 83.0469C101.841 81.592 100.133 79.5877 98.9029 77.0037L97.0971 77.8635ZM102.914 84.711C105.472 86.4162 108.777 87.2227 112.746 87.2227V85.2227C109.033 85.2227 106.153 84.4667 104.023 83.0469L102.914 84.711ZM63.2344 172.805L64.1812 173.127L64.1821 173.124L63.2344 172.805ZM88.8203 144.484L89.2131 145.404L89.2211 145.401L88.8203 144.484ZM131.984 144.484L131.584 145.401L131.595 145.405L131.984 144.484ZM157.668 172.805L156.72 173.124L156.721 173.127L157.668 172.805ZM157.668 217.629L158.615 217.951L158.616 217.948L157.668 217.629ZM147.902 234.719L148.649 235.384L148.653 235.379L147.902 234.719ZM88.918 245.949L88.5286 246.87L88.918 245.949ZM73 234.719L72.2493 235.379L72.2537 235.384L73 234.719ZM63.2344 217.629L62.2866 217.948L62.2876 217.951L63.2344 217.629ZM91.457 207.961L90.4726 208.137L90.4741 208.145L90.4758 208.154L91.457 207.961ZM101.027 223.977L100.503 224.828L100.516 224.836L100.529 224.843L101.027 223.977ZM119.875 223.977L120.383 224.838L120.391 224.833L120.399 224.828L119.875 223.977ZM129.348 207.961L128.366 207.768L128.365 207.777L128.363 207.785L129.348 207.961ZM129.348 182.668L128.363 182.844L128.365 182.854L128.367 182.864L129.348 182.668ZM119.777 166.457L119.253 167.309L119.263 167.315L119.777 166.457ZM91.457 182.668L90.4757 182.475L90.4732 182.489L91.457 182.668ZM60.9141 196.242V194.191H58.9141V196.242H60.9141ZM60.9141 194.191C60.9141 186.54 62.007 179.521 64.1811 173.127L62.2876 172.483C60.0347 179.109 58.9141 186.348 58.9141 194.191H60.9141ZM64.1821 173.124C66.3558 166.666 69.5458 161.09 73.7463 156.38L72.2537 155.049C67.8604 159.975 64.54 165.792 62.2866 172.486L64.1821 173.124ZM73.7463 156.38C77.9403 151.678 83.0908 148.019 89.2131 145.404L88.4275 143.565C82.0498 146.289 76.6535 150.116 72.2537 155.049L73.7463 156.38ZM89.2211 145.401C95.3237 142.731 102.345 141.383 110.305 141.383V139.383C102.119 139.383 94.8169 140.769 88.4195 143.568L89.2211 145.401ZM110.305 141.383C118.397 141.383 125.483 142.731 131.584 145.401L132.385 143.568C125.986 140.769 118.618 139.383 110.305 139.383V141.383ZM131.595 145.405C137.782 148.021 142.964 151.68 147.156 156.38L148.649 155.049C144.247 150.114 138.817 146.287 132.374 143.563L131.595 145.405ZM147.156 156.38C151.357 161.09 154.546 166.666 156.72 173.124L158.616 172.486C156.362 165.792 153.042 159.975 148.649 155.049L147.156 156.38ZM156.721 173.127C158.895 179.521 159.988 186.54 159.988 194.191H161.988C161.988 186.348 160.868 179.109 158.615 172.483L156.721 173.127ZM159.988 194.191V196.242H161.988V194.191H159.988ZM159.988 196.242C159.988 203.828 158.896 210.848 156.72 217.31L158.616 217.948C160.867 211.259 161.988 204.021 161.988 196.242H159.988ZM156.721 217.307C154.548 223.7 151.357 229.28 147.152 234.058L148.653 235.379C153.042 230.392 156.361 224.579 158.615 217.951L156.721 217.307ZM147.156 234.053C142.962 238.755 137.811 242.415 131.689 245.03L132.475 246.869C138.853 244.145 144.249 240.317 148.649 235.384L147.156 234.053ZM131.689 245.03C125.585 247.636 118.529 248.953 110.5 248.953V250.953C118.747 250.953 126.079 249.601 132.475 246.869L131.689 245.03ZM110.5 248.953C102.537 248.953 95.4794 247.637 89.3073 245.028L88.5286 246.87C94.9868 249.6 102.317 250.953 110.5 250.953V248.953ZM89.3073 245.028C83.12 242.413 77.9385 238.753 73.7463 234.053L72.2537 235.384C76.6552 240.319 82.0857 244.147 88.5286 246.87L89.3073 245.028ZM73.7507 234.058C69.5458 229.28 66.3547 223.7 64.1811 217.307L62.2876 217.951C64.5411 224.579 67.8605 230.392 72.2493 235.379L73.7507 234.058ZM64.1821 217.31C62.0067 210.848 60.9141 203.828 60.9141 196.242H58.9141C58.9141 204.021 60.035 211.259 62.2866 217.948L64.1821 217.31ZM89.4805 194.191V196.242H91.4805V194.191H89.4805ZM89.4805 196.242C89.4805 200.461 89.81 204.426 90.4726 208.137L92.4415 207.785C91.802 204.204 91.4805 200.357 91.4805 196.242H89.4805ZM90.4758 208.154C91.2092 211.887 92.3817 215.183 94.0068 218.027L95.7432 217.035C94.2433 214.41 93.1372 211.326 92.4383 207.768L90.4758 208.154ZM94.0068 218.027C95.6475 220.899 97.8134 223.173 100.503 224.828L101.551 223.125C99.1632 221.655 97.2275 219.632 95.7432 217.035L94.0068 218.027ZM100.529 224.843C103.317 226.446 106.655 227.223 110.5 227.223V225.223C106.923 225.223 103.946 224.502 101.526 223.11L100.529 224.843ZM110.5 227.223C114.344 227.223 117.655 226.447 120.383 224.838L119.367 223.115C117.017 224.501 114.078 225.223 110.5 225.223V227.223ZM120.399 224.828C123.089 223.173 125.255 220.899 126.896 218.027L125.159 217.035C123.675 219.632 121.739 221.655 119.351 223.125L120.399 224.828ZM126.896 218.027C128.524 215.178 129.664 211.876 130.332 208.137L128.363 207.785C127.729 211.338 126.656 214.416 125.159 217.035L126.896 218.027ZM130.329 208.154C131.059 204.437 131.422 200.466 131.422 196.242H129.422C129.422 200.352 129.069 204.193 128.366 207.768L130.329 208.154ZM131.422 196.242V194.191H129.422V196.242H131.422ZM131.422 194.191C131.422 190.032 131.059 186.124 130.328 182.472L128.367 182.864C129.069 186.373 129.422 190.148 129.422 194.191H131.422ZM130.332 182.492C129.664 178.754 128.525 175.423 126.901 172.513L125.154 173.487C126.655 176.176 127.729 179.291 128.363 182.844L130.332 182.492ZM126.901 172.513C125.258 169.569 123.054 167.257 120.292 165.6L119.263 167.315C121.709 168.782 123.672 170.832 125.154 173.487L126.901 172.513ZM120.301 165.605C117.568 163.923 114.217 163.113 110.305 163.113V165.113C113.944 165.113 116.909 165.866 119.253 167.309L120.301 165.605ZM110.305 163.113C106.515 163.113 103.232 163.926 100.503 165.605L101.551 167.309C103.901 165.863 106.803 165.113 110.305 165.113V163.113ZM100.503 165.605C97.8077 167.264 95.6411 169.575 94.0018 172.513L95.7482 173.487C97.2339 170.826 99.1689 168.775 101.551 167.309L100.503 165.605ZM94.0018 172.513C92.3806 175.417 91.2091 178.742 90.4758 182.475L92.4383 182.861C93.1373 179.302 94.2444 176.182 95.7482 173.487L94.0018 172.513ZM90.4732 182.489C89.8101 186.136 89.4805 190.037 89.4805 194.191H91.4805C91.4805 190.142 91.8018 186.362 92.4409 182.847L90.4732 182.489ZM94.2891 304.895H95.2891V304.853L95.2857 304.813L94.2891 304.895ZM94.2891 388V389H95.2891V388H94.2891ZM63.7227 388H62.7227V389H63.7227V388ZM63.7227 282.336V281.336H62.7227V282.336H63.7227ZM92.4336 282.336L93.4302 282.254L93.3547 281.336H92.4336V282.336ZM90.2852 331.457L90.3108 332.457L91.2852 332.432V331.457H90.2852ZM82.668 331.652H81.668V332.678L82.6936 332.652L82.668 331.652ZM93.8984 294.152L93.122 293.522L93.1209 293.523L93.8984 294.152ZM106.887 283.898L106.468 282.99L106.463 282.993L106.887 283.898ZM147.805 289.465L147.068 290.141L147.075 290.149L147.083 290.157L147.805 289.465ZM154.641 301.965L153.683 302.252L153.684 302.256L154.641 301.965ZM156.984 388V389H157.984V388H156.984ZM126.32 388H125.32V389H126.32V388ZM118.996 305.578L118.611 306.501L118.62 306.505L118.996 305.578ZM101.223 306.262L101.697 307.142L101.705 307.138L101.714 307.133L101.223 306.262ZM91.3594 320.715L90.386 320.486L90.3838 320.495L90.3819 320.504L91.3594 320.715ZM93.2891 304.895V388H95.2891V304.895H93.2891ZM94.2891 387H63.7227V389H94.2891V387ZM64.7227 388V282.336H62.7227V388H64.7227ZM63.7227 283.336H92.4336V281.336H63.7227V283.336ZM91.437 282.418L93.2924 304.977L95.2857 304.813L93.4302 282.254L91.437 282.418ZM90.2595 330.457L82.6423 330.653L82.6936 332.652L90.3108 332.457L90.2595 330.457ZM83.668 331.652C83.668 323.79 84.6347 316.763 86.553 310.561L84.6423 309.97C82.6543 316.398 81.668 323.629 81.668 331.652H83.668ZM86.553 310.561C88.4745 304.348 91.1869 299.095 94.6759 294.781L93.1209 293.523C89.4485 298.064 86.627 303.553 84.6423 309.97L86.553 310.561ZM94.6749 294.783C98.2299 290.402 102.44 287.081 107.31 284.804L106.463 282.993C101.307 285.403 96.8586 288.918 93.122 293.522L94.6749 294.783ZM107.306 284.806C112.241 282.529 117.695 281.383 123.684 281.383V279.383C117.433 279.383 111.689 280.581 106.468 282.99L107.306 284.806ZM123.684 281.383C128.535 281.383 132.946 282.085 136.928 283.475L137.587 281.587C133.366 280.113 128.728 279.383 123.684 279.383V281.383ZM136.928 283.475C140.875 284.853 144.25 287.073 147.068 290.141L148.541 288.788C145.5 285.477 141.844 283.074 137.587 281.587L136.928 283.475ZM147.083 290.157C149.943 293.142 152.154 297.158 153.683 302.252L155.598 301.677C154.002 296.356 151.655 292.038 148.527 288.773L147.083 290.157ZM153.684 302.256C155.209 307.275 155.984 313.518 155.984 321.008H157.984C157.984 313.394 157.198 306.941 155.597 301.674L153.684 302.256ZM155.984 321.008V388H157.984V321.008H155.984ZM156.984 387H126.32V389H156.984V387ZM127.32 388V320.91H125.32V388H127.32ZM127.32 320.91C127.32 316.414 126.696 312.812 125.354 310.199L123.575 311.113C124.708 313.318 125.32 316.553 125.32 320.91H127.32ZM125.354 310.199C124.013 307.587 122.013 305.722 119.372 304.651L118.62 306.505C120.797 307.387 122.443 308.908 123.575 311.113L125.354 310.199ZM119.381 304.655C116.882 303.614 113.878 303.113 110.402 303.113V305.113C113.697 305.113 116.423 305.589 118.611 306.501L119.381 304.655ZM110.402 303.113C106.688 303.113 103.451 303.857 100.731 305.391L101.714 307.133C104.072 305.802 106.955 305.113 110.402 305.113V303.113ZM100.749 305.381C98.0595 306.829 95.8534 308.865 94.1372 311.474L95.8081 312.573C97.3471 310.234 99.3077 308.429 101.697 307.142L100.749 305.381ZM94.1372 311.474C92.4362 314.059 91.19 317.068 90.386 320.486L92.3328 320.944C93.0912 317.721 94.2539 314.935 95.8081 312.573L94.1372 311.474ZM90.3819 320.504C89.649 323.902 89.2852 327.554 89.2852 331.457H91.2852C91.2852 327.678 91.6375 324.168 92.3369 320.926L90.3819 320.504ZM140.188 422.336H141.188V421.336H140.188V422.336ZM140.188 443.723V444.723H141.188V443.723H140.188ZM77.4922 443.723H76.4922V444.723H77.4922V443.723ZM77.4922 422.336V421.336H76.4922V422.336H77.4922ZM91.8477 396.164V395.164H90.8477V396.164H91.8477ZM122.414 396.164H123.414V395.164H122.414V396.164ZM127.004 504.953L126.633 505.882L126.649 505.888L126.665 505.894L127.004 504.953ZM141.555 505.148H142.555V503.957L141.381 504.164L141.555 505.148ZM141.555 527.219L141.864 528.17L142.555 527.945V527.219H141.555ZM133.254 529.172L133.1 528.184L133.09 528.185L133.079 528.187L133.254 529.172ZM106.594 526.73L106.182 527.642L106.186 527.644L106.594 526.73ZM95.6562 516.574L94.7769 517.051L94.7798 517.056L95.6562 516.574ZM139.188 422.336V443.723H141.188V422.336H139.188ZM140.188 442.723H77.4922V444.723H140.188V442.723ZM78.4922 443.723V422.336H76.4922V443.723H78.4922ZM77.4922 423.336H140.188V421.336H77.4922V423.336ZM91.8477 397.164H122.414V395.164H91.8477V397.164ZM121.414 396.164V494.895H123.414V396.164H121.414ZM121.414 494.895C121.414 497.88 121.775 500.295 122.579 502.049L124.397 501.216C123.769 499.846 123.414 497.768 123.414 494.895H121.414ZM122.579 502.049C123.405 503.85 124.772 505.137 126.633 505.882L127.375 504.025C125.981 503.467 125.004 502.54 124.397 501.216L122.579 502.049ZM126.665 505.894C128.44 506.533 130.648 506.832 133.254 506.832V504.832C130.781 504.832 128.823 504.545 127.343 504.012L126.665 505.894ZM133.254 506.832C135.098 506.832 136.696 506.766 138.041 506.632L137.842 504.642C136.583 504.768 135.055 504.832 133.254 504.832V506.832ZM138.041 506.632C139.364 506.499 140.593 506.334 141.728 506.133L141.381 504.164C140.302 504.354 139.123 504.514 137.842 504.642L138.041 506.632ZM140.555 505.148V527.219H142.555V505.148H140.555ZM141.246 526.268C138.696 527.096 135.981 527.736 133.1 528.184L133.408 530.16C136.386 529.697 139.205 529.034 141.864 528.17L141.246 526.268ZM133.079 528.187C130.215 528.696 127.084 528.953 123.684 528.953V530.953C127.184 530.953 130.433 530.689 133.429 530.156L133.079 528.187ZM123.684 528.953C117.215 528.953 111.663 527.896 107.001 525.817L106.186 527.644C111.16 529.862 117.001 530.953 123.684 530.953V528.953ZM107.006 525.819C102.453 523.761 98.9688 520.528 96.5327 516.093L94.7798 517.056C97.4218 521.866 101.23 525.403 106.182 527.642L107.006 525.819ZM96.5355 516.098C94.1013 511.604 92.8477 505.697 92.8477 498.312H90.8477C90.8477 505.902 92.1331 512.17 94.777 517.051L96.5355 516.098ZM92.8477 498.312V396.164H90.8477V498.312H92.8477ZM101.809 583.43L101.384 582.524L101.373 582.53L101.809 583.43ZM97.1211 587.629L96.2663 587.11L96.2594 587.121L96.2529 587.133L97.1211 587.629ZM95.5586 594.367V595.367H96.5586V594.367H95.5586ZM65.0898 594.367H64.0898V595.367H65.0898V594.367ZM77.4922 570.246L76.88 569.455L76.8738 569.46L77.4922 570.246ZM91.9453 563.02L92.2347 563.977L92.2449 563.974L91.9453 563.02ZM132.863 564.582L132.465 565.499L132.476 565.504L132.863 564.582ZM148.293 576.984L147.467 577.548L147.47 577.553L148.293 576.984ZM155.031 656.965L154.05 657.158L154.052 657.168L154.054 657.178L155.031 656.965ZM158.352 666.34H159.352V666.089L159.233 665.867L158.352 666.34ZM158.352 668V669H159.352V668H158.352ZM127.59 668L126.684 668.424L126.954 669H127.59V668ZM124.367 656.672L123.379 656.827L123.38 656.829L124.367 656.672ZM127.102 603.547L128.101 603.535L128.09 602.547H127.102V603.547ZM127.297 620.344V621.344H128.309L128.297 620.332L127.297 620.344ZM103.371 621.613L103.047 620.667L103.04 620.67L103.371 621.613ZM97.5117 625.129L98.2029 625.852L98.211 625.844L98.2188 625.836L97.5117 625.129ZM94.1914 630.207L93.2525 629.863L93.2492 629.872L93.246 629.881L94.1914 630.207ZM94.7773 642.316L93.9171 642.826L93.9213 642.833L93.9257 642.841L94.7773 642.316ZM115.578 645.441L115.099 644.563L115.091 644.568L115.578 645.441ZM122.219 639.777L123.036 640.354L123.043 640.343L122.219 639.777ZM124.562 633.43L125.429 632.93L123.562 629.695V633.43H124.562ZM131.887 646.125L132.799 646.535L133.009 646.069L132.753 645.625L131.887 646.125ZM127.59 654.23L128.44 654.757L128.446 654.748L127.59 654.23ZM121.145 661.945L121.814 662.689L121.824 662.679L121.145 661.945ZM111.672 667.707L111.298 666.78L111.292 666.782L111.672 667.707ZM80.4219 665.949L79.9703 666.842L79.979 666.846L80.4219 665.949ZM67.4336 654.719L66.6033 655.276L66.6086 655.284L67.4336 654.719ZM65.6758 623.566L64.7707 623.141L65.6758 623.566ZM74.7578 612.629L74.1681 611.821L74.162 611.826L74.7578 612.629ZM90.1875 605.891L90.4228 606.863L90.4324 606.86L90.1875 605.891ZM124.293 642.805V597.492H122.293V642.805H124.293ZM124.293 597.492C124.293 594.204 123.79 591.328 122.747 588.895L120.909 589.683C121.819 591.807 122.293 594.4 122.293 597.492H124.293ZM122.747 588.895C121.691 586.431 120.026 584.481 117.768 583.07L116.708 584.766C118.617 585.959 120.012 587.59 120.909 589.683L122.747 588.895ZM117.768 583.07C115.479 581.639 112.577 580.965 109.133 580.965V582.965C112.33 582.965 114.83 583.592 116.708 584.766L117.768 583.07ZM109.133 580.965C106.218 580.965 103.626 581.473 101.384 582.524L102.233 584.335C104.158 583.433 106.449 582.965 109.133 582.965V580.965ZM101.373 582.53C99.1906 583.586 97.4784 585.114 96.2663 587.11L97.9759 588.148C98.9773 586.498 100.39 585.227 102.244 584.33L101.373 582.53ZM96.2529 587.133C95.1044 589.142 94.5586 591.57 94.5586 594.367H96.5586C96.5586 591.826 97.0544 589.761 97.9893 588.125L96.2529 587.133ZM95.5586 593.367H65.0898V595.367H95.5586V593.367ZM66.0898 594.367C66.0898 589.772 67.1269 585.504 69.1983 581.55L67.4267 580.622C65.2012 584.871 64.0898 589.457 64.0898 594.367H66.0898ZM69.1983 581.55C71.2755 577.584 74.2398 574.078 78.1106 571.032L76.8738 569.46C72.8018 572.664 69.6463 576.384 67.4267 580.622L69.1983 581.55ZM78.1044 571.037C82.0313 567.997 86.7358 565.639 92.2347 563.977L91.6559 562.062C85.957 563.785 81.026 566.246 76.88 569.455L78.1044 571.037ZM92.2449 563.974C97.7307 562.251 103.91 561.383 110.793 561.383V559.383C103.744 559.383 97.3578 560.272 91.6458 562.065L92.2449 563.974ZM110.793 561.383C118.948 561.383 126.166 562.763 132.465 565.499L133.262 563.665C126.67 560.802 119.174 559.383 110.793 559.383V561.383ZM132.476 565.504C138.819 568.168 143.806 572.182 147.467 577.548L149.119 576.421C145.228 570.719 139.929 566.465 133.251 563.66L132.476 565.504ZM147.47 577.553C151.104 582.816 152.957 589.505 152.957 597.688H154.957C154.957 589.203 153.034 582.09 149.116 576.416L147.47 577.553ZM152.957 597.688V641.926H154.957V597.688H152.957ZM152.957 641.926C152.957 648.332 153.316 653.419 154.05 657.158L156.012 656.772C155.315 653.219 154.957 648.28 154.957 641.926H152.957ZM154.054 657.178C154.851 660.831 155.986 664.047 157.47 666.813L159.233 665.867C157.852 663.294 156.774 660.26 156.008 656.752L154.054 657.178ZM157.352 666.34V668H159.352V666.34H157.352ZM158.352 667H127.59V669H158.352V667ZM128.496 667.576C127.114 664.624 126.061 660.944 125.355 656.514L123.38 656.829C124.106 661.384 125.201 665.256 126.684 668.424L128.496 667.576ZM125.355 656.517C124.647 652.012 124.293 647.441 124.293 642.805H122.293C122.293 647.543 122.655 652.218 123.379 656.827L125.355 656.517ZM126.102 603.559L126.297 620.355L128.297 620.332L128.101 603.535L126.102 603.559ZM127.297 619.344H112.16V621.344H127.297V619.344ZM112.16 619.344C108.695 619.344 105.651 619.776 103.047 620.667L103.695 622.559C106.039 621.757 108.854 621.344 112.16 621.344V619.344ZM103.04 620.67C100.518 621.556 98.4275 622.799 96.8046 624.422L98.2188 625.836C99.5907 624.464 101.406 623.364 103.703 622.557L103.04 620.67ZM96.8205 624.406C95.2123 625.945 94.021 627.767 93.2525 629.863L95.1303 630.551C95.7941 628.741 96.8164 627.178 98.2029 625.852L96.8205 624.406ZM93.246 629.881C92.5541 631.888 92.2148 634.083 92.2148 636.457H94.2148C94.2148 634.274 94.5266 632.303 95.1368 630.533L93.246 629.881ZM92.2148 636.457C92.2148 638.775 92.7791 640.906 93.9171 642.826L95.6376 641.807C94.6922 640.211 94.2148 638.436 94.2148 636.457H92.2148ZM93.9257 642.841C95.0639 644.69 96.6298 646.145 98.602 647.202L99.5464 645.439C97.8728 644.542 96.5742 643.328 95.629 641.792L93.9257 642.841ZM98.602 647.202C100.592 648.268 102.876 648.785 105.422 648.785V646.785C103.151 646.785 101.202 646.326 99.5464 645.439L98.602 647.202ZM105.422 648.785C109.524 648.785 113.085 647.978 116.065 646.315L115.091 644.568C112.472 646.03 109.263 646.785 105.422 646.785V648.785ZM116.057 646.319C119.029 644.698 121.369 642.715 123.036 640.354L121.402 639.201C119.944 641.266 117.857 643.059 115.099 644.564L116.057 646.319ZM123.043 640.343C124.675 637.964 125.562 635.653 125.562 633.43H123.562C123.562 635.113 122.888 637.033 121.394 639.212L123.043 640.343ZM123.696 633.929L131.021 646.625L132.753 645.625L125.429 632.93L123.696 633.929ZM130.975 645.715C129.822 648.277 128.409 650.943 126.734 653.713L128.446 654.748C130.156 651.919 131.608 649.181 132.799 646.535L130.975 645.715ZM126.74 653.704C125.099 656.354 123.01 658.857 120.465 661.211L121.824 662.679C124.487 660.216 126.695 657.575 128.44 654.757L126.74 653.704ZM120.476 661.202C117.97 663.457 114.916 665.32 111.298 666.78L112.046 668.634C115.85 667.099 119.111 665.121 121.813 662.689L120.476 661.202ZM111.292 666.782C107.797 668.217 103.539 668.953 98.4883 668.953V670.953C103.724 670.953 108.255 670.192 112.052 668.632L111.292 666.782ZM98.4883 668.953C91.9854 668.953 86.1171 667.647 80.8648 665.053L79.979 666.846C85.5339 669.59 91.7099 670.953 98.4883 670.953V668.953ZM80.8734 665.057C75.6118 662.394 71.4139 658.76 68.2586 654.154L66.6086 655.284C69.9637 660.182 74.4247 664.035 79.9704 666.841L80.8734 665.057ZM68.2639 654.161C65.1934 649.587 63.6484 644.316 63.6484 638.312H61.6484C61.6484 644.679 63.2936 650.345 66.6033 655.276L68.2639 654.161ZM63.6484 638.312C63.6484 632.901 64.6347 628.135 66.5809 623.992L64.7707 623.141C62.6804 627.591 61.6484 632.656 61.6484 638.312H63.6484ZM66.5809 623.992C68.5247 619.853 71.4419 616.334 75.3537 613.432L74.162 611.826C70.0008 614.913 66.8633 618.686 64.7707 623.141L66.5809 623.992ZM75.3475 613.437C79.3197 610.536 84.3345 608.337 90.4228 606.863L89.9522 604.919C83.6707 606.439 78.399 608.732 74.1681 611.821L75.3475 613.437ZM90.4324 606.86C96.5177 605.323 103.659 604.547 111.867 604.547V602.547C103.539 602.547 96.2271 603.333 89.9426 604.921L90.4324 606.86ZM111.867 604.547H127.102V602.547H111.867V604.547ZM121.242 784.367L121.699 785.257L121.242 784.367ZM126.809 779.191L125.951 778.677L125.947 778.684L126.809 779.191ZM128.859 770.988V769.988H127.859V770.988H128.859ZM157.57 770.988H158.57V769.988H157.57V770.988ZM151.613 791.301L150.785 790.74L150.781 790.746L151.613 791.301ZM135.793 805.07L136.233 805.968L136.24 805.965L135.793 805.07ZM91.8477 805.949L91.4397 806.862L91.4479 806.866L91.8477 805.949ZM67.2383 777.531L66.2831 777.827L66.2868 777.839L67.2383 777.531ZM67.2383 732.902L66.2858 732.598L66.2831 732.606L67.2383 732.902ZM91.75 704.484L92.1534 705.399L92.1579 705.397L91.75 704.484ZM136.184 705.363L135.736 706.258L135.74 706.259L136.184 705.363ZM151.906 719.719L151.05 720.236L151.053 720.24L151.906 719.719ZM157.57 742.082V743.082H158.57V742.082H157.57ZM128.859 742.082H127.859V743.082H128.859V742.082ZM127.004 733L126.085 733.394L126.09 733.407L126.097 733.42L127.004 733ZM121.535 726.555L120.975 727.383L120.988 727.392L121.001 727.4L121.535 726.555ZM103.371 726.555L103.926 727.387L103.931 727.383L103.371 726.555ZM95.4609 742.668L96.4526 742.797L96.4529 742.794L95.4609 742.668ZM95.4609 767.961L94.4687 768.085L94.4689 768.087L95.4609 767.961ZM98 777.434L97.0889 777.846L97.0929 777.855L97.0971 777.864L98 777.434ZM112.746 787.223C116.128 787.223 119.123 786.58 121.699 785.257L120.785 783.478C118.544 784.629 115.874 785.223 112.746 785.223V787.223ZM121.699 785.257C124.267 783.938 126.267 782.084 127.671 779.698L125.947 778.684C124.746 780.726 123.035 782.322 120.785 783.478L121.699 785.257ZM127.666 779.706C129.144 777.243 129.859 774.323 129.859 770.988H127.859C127.859 774.034 127.208 776.582 125.951 778.677L127.666 779.706ZM128.859 771.988H157.57V769.988H128.859V771.988ZM156.57 770.988C156.57 778.488 154.635 785.06 150.786 790.74L152.441 791.862C156.534 785.823 158.57 778.853 158.57 770.988H156.57ZM150.781 790.746C146.977 796.453 141.84 800.929 135.346 804.176L136.24 805.965C143.028 802.571 148.437 797.868 152.445 791.855L150.781 790.746ZM135.353 804.172C128.866 807.352 121.532 808.953 113.332 808.953V810.953C121.798 810.953 129.439 809.299 136.233 805.968L135.353 804.172ZM113.332 808.953C105.236 808.953 98.2158 807.636 92.2475 805.033L91.4479 806.866C97.7191 809.601 105.022 810.953 113.332 810.953V808.953ZM92.2556 805.036C86.2667 802.36 81.2806 798.641 77.2813 793.88L75.7499 795.167C79.9538 800.171 85.189 804.069 91.4397 806.862L92.2556 805.036ZM77.2813 793.88C73.2679 789.102 70.2359 783.554 68.1898 777.224L66.2868 777.839C68.4073 784.399 71.5603 790.179 75.7499 795.167L77.2813 793.88ZM68.1934 777.235C66.208 770.83 65.2109 763.9 65.2109 756.438H63.2109C63.2109 764.079 64.2322 771.211 66.2831 777.827L68.1934 777.235ZM65.2109 756.438V753.898H63.2109V756.438H65.2109ZM65.2109 753.898C65.2109 746.502 66.2077 739.604 68.1934 733.198L66.2831 732.606C64.2324 739.221 63.2109 746.321 63.2109 753.898H65.2109ZM68.1907 733.207C70.2373 726.812 73.2693 721.232 77.2813 716.456L75.7499 715.169C71.5588 720.159 68.4059 725.972 66.2859 732.598L68.1907 733.207ZM77.2813 716.456C81.2808 711.694 86.2333 708.009 92.1534 705.399L91.3466 703.569C85.1574 706.298 79.9536 710.165 75.7499 715.169L77.2813 716.456ZM92.1579 705.397C98.124 702.732 105.141 701.383 113.234 701.383V699.383C104.921 699.383 97.6156 700.768 91.3421 703.571L92.1579 705.397ZM113.234 701.383C121.764 701.383 129.256 703.017 135.736 706.258L136.631 704.469C129.83 701.068 122.023 699.383 113.234 699.383V701.383ZM135.74 706.259C142.279 709.497 147.375 714.153 151.05 720.236L152.762 719.202C148.885 712.784 143.499 707.87 136.627 704.467L135.74 706.259ZM151.053 720.24C154.715 726.238 156.57 733.504 156.57 742.082H158.57C158.57 733.212 156.649 725.569 152.76 719.198L151.053 720.24ZM157.57 741.082H128.859V743.082H157.57V741.082ZM129.859 742.082C129.859 738.573 129.218 735.399 127.911 732.58L126.097 733.42C127.264 735.94 127.859 738.82 127.859 742.082H129.859ZM127.923 732.606C126.673 729.689 124.717 727.382 122.069 725.709L121.001 727.4C123.301 728.853 124.991 730.842 126.085 733.394L127.923 732.606ZM122.095 725.726C119.486 723.963 116.284 723.113 112.551 723.113V725.113C115.979 725.113 118.767 725.891 120.975 727.383L122.095 725.726ZM112.551 723.113C108.695 723.113 105.426 723.96 102.811 725.726L103.931 727.383C106.134 725.895 108.984 725.113 112.551 725.113V723.113ZM102.816 725.723C100.301 727.4 98.3922 729.736 97.0853 732.693L98.9147 733.502C100.082 730.861 101.754 728.835 103.926 727.387L102.816 725.723ZM97.0853 732.693C95.803 735.596 94.9347 738.882 94.4689 742.542L96.4529 742.794C96.8986 739.293 97.723 736.199 98.9147 733.502L97.0853 732.693ZM94.4692 742.539C94.0074 746.102 93.7773 749.889 93.7773 753.898H95.7773C95.7773 749.965 96.003 746.265 96.4526 742.797L94.4692 742.539ZM93.7773 753.898V756.438H95.7773V753.898H93.7773ZM93.7773 756.438C93.7773 760.511 94.0073 764.394 94.4687 768.085L96.4532 767.837C96.0031 764.236 95.7773 760.436 95.7773 756.438H93.7773ZM94.4689 768.087C94.9348 771.747 95.8035 775.004 97.0889 777.846L98.9111 777.021C97.7225 774.394 96.8986 771.336 96.4529 767.835L94.4689 768.087ZM97.0971 777.864C98.4708 780.748 100.409 783.041 102.914 784.711L104.023 783.047C101.841 781.592 100.133 779.588 98.9029 777.004L97.0971 777.864ZM102.914 784.711C105.472 786.416 108.777 787.223 112.746 787.223V785.223C109.033 785.223 106.153 784.467 104.023 783.047L102.914 784.711ZM140.188 842.336H141.188V841.336H140.188V842.336ZM140.188 863.723V864.723H141.188V863.723H140.188ZM77.4922 863.723H76.4922V864.723H77.4922V863.723ZM77.4922 842.336V841.336H76.4922V842.336H77.4922ZM91.8477 816.164V815.164H90.8477V816.164H91.8477ZM122.414 816.164H123.414V815.164H122.414V816.164ZM127.004 924.953L126.633 925.882L126.649 925.888L126.665 925.894L127.004 924.953ZM141.555 925.148H142.555V923.957L141.381 924.164L141.555 925.148ZM141.555 947.219L141.864 948.17L142.555 947.945V947.219H141.555ZM133.254 949.172L133.1 948.184L133.09 948.185L133.079 948.187L133.254 949.172ZM106.594 946.73L106.182 947.642L106.186 947.644L106.594 946.73ZM95.6562 936.574L94.7769 937.051L94.7798 937.056L95.6562 936.574ZM139.188 842.336V863.723H141.188V842.336H139.188ZM140.188 862.723H77.4922V864.723H140.188V862.723ZM78.4922 863.723V842.336H76.4922V863.723H78.4922ZM77.4922 843.336H140.188V841.336H77.4922V843.336ZM91.8477 817.164H122.414V815.164H91.8477V817.164ZM121.414 816.164V914.895H123.414V816.164H121.414ZM121.414 914.895C121.414 917.88 121.775 920.295 122.579 922.049L124.397 921.216C123.769 919.846 123.414 917.768 123.414 914.895H121.414ZM122.579 922.049C123.405 923.85 124.772 925.137 126.633 925.882L127.375 924.025C125.981 923.467 125.004 922.54 124.397 921.216L122.579 922.049ZM126.665 925.894C128.44 926.533 130.648 926.832 133.254 926.832V924.832C130.781 924.832 128.823 924.545 127.343 924.012L126.665 925.894ZM133.254 926.832C135.098 926.832 136.696 926.766 138.041 926.632L137.842 924.642C136.583 924.768 135.055 924.832 133.254 924.832V926.832ZM138.041 926.632C139.364 926.499 140.593 926.334 141.728 926.133L141.381 924.164C140.302 924.354 139.123 924.514 137.842 924.642L138.041 926.632ZM140.555 925.148V947.219H142.555V925.148H140.555ZM141.246 946.268C138.696 947.096 135.981 947.736 133.1 948.184L133.408 950.16C136.386 949.697 139.205 949.034 141.864 948.17L141.246 946.268ZM133.079 948.187C130.215 948.696 127.084 948.953 123.684 948.953V950.953C127.184 950.953 130.433 950.689 133.429 950.156L133.079 948.187ZM123.684 948.953C117.215 948.953 111.663 947.896 107.001 945.817L106.186 947.644C111.16 949.862 117.001 950.953 123.684 950.953V948.953ZM107.006 945.819C102.453 943.761 98.9688 940.528 96.5327 936.093L94.7798 937.056C97.4218 941.866 101.23 945.403 106.182 947.642L107.006 945.819ZM96.5355 936.098C94.1013 931.604 92.8477 925.697 92.8477 918.312H90.8477C90.8477 925.902 92.1331 932.17 94.777 937.051L96.5355 936.098ZM92.8477 918.312V816.164H90.8477V918.312H92.8477Z" fill="black" fill-opacity="0.05"/>
</g>
<g opacity="0.5" filter="url(#filter1_bd_74_1113)">
<path d="M112.746 86.2227C116.001 86.2227 118.833 85.6042 121.242 84.3672C123.651 83.1302 125.507 81.4049 126.809 79.1914C128.176 76.9128 128.859 74.1784 128.859 70.9883H157.57C157.57 78.6706 155.585 85.4414 151.613 91.3008C147.707 97.1602 142.434 101.75 135.793 105.07C129.152 108.326 121.665 109.953 113.332 109.953C105.129 109.953 97.9674 108.618 91.8477 105.949C85.7279 103.215 80.6172 99.4062 76.5156 94.5234C72.4141 89.6406 69.3216 83.9766 67.2383 77.5312C65.2201 71.0208 64.2109 63.9896 64.2109 56.4375V53.8984C64.2109 46.4115 65.2201 39.4128 67.2383 32.9023C69.3216 26.3919 72.4141 20.6953 76.5156 15.8125C80.6172 10.9297 85.6953 7.15365 91.75 4.48438C97.8698 1.75 105.031 0.382812 113.234 0.382812C121.893 0.382812 129.543 2.04297 136.184 5.36328C142.889 8.68359 148.13 13.4688 151.906 19.7188C155.682 25.9036 157.57 33.3581 157.57 42.082H128.859C128.859 38.6966 128.241 35.6693 127.004 33C125.832 30.2656 124.009 28.1172 121.535 26.5547C119.126 24.9271 116.132 24.1133 112.551 24.1133C108.84 24.1133 105.78 24.9271 103.371 26.5547C101.027 28.1172 99.237 30.2982 98 33.0977C96.763 35.8971 95.9167 39.0872 95.4609 42.668C95.0052 46.1836 94.7773 49.9271 94.7773 53.8984V56.4375C94.7773 60.474 95.0052 64.3151 95.4609 67.9609C95.9167 71.5417 96.763 74.6992 98 77.4336C99.3021 80.168 101.125 82.3164 103.469 83.8789C105.812 85.4414 108.905 86.2227 112.746 86.2227ZM59.9141 196.242V194.191C59.9141 186.444 61.0208 179.315 63.2344 172.805C65.4479 166.229 68.7031 160.533 73 155.715C77.2969 150.897 82.5703 147.154 88.8203 144.484C95.0703 141.75 102.232 140.383 110.305 140.383C118.508 140.383 125.734 141.75 131.984 144.484C138.299 147.154 143.605 150.897 147.902 155.715C152.199 160.533 155.454 166.229 157.668 172.805C159.882 179.315 160.988 186.444 160.988 194.191V196.242C160.988 203.924 159.882 211.053 157.668 217.629C155.454 224.139 152.199 229.836 147.902 234.719C143.605 239.536 138.332 243.28 132.082 245.949C125.832 248.618 118.638 249.953 110.5 249.953C102.427 249.953 95.2331 248.618 88.918 245.949C82.6029 243.28 77.2969 239.536 73 234.719C68.7031 229.836 65.4479 224.139 63.2344 217.629C61.0208 211.053 59.9141 203.924 59.9141 196.242ZM90.4805 194.191V196.242C90.4805 200.409 90.806 204.315 91.457 207.961C92.1732 211.607 93.3125 214.797 94.875 217.531C96.4375 220.266 98.4883 222.414 101.027 223.977C103.632 225.474 106.789 226.223 110.5 226.223C114.211 226.223 117.336 225.474 119.875 223.977C122.414 222.414 124.465 220.266 126.027 217.531C127.59 214.797 128.697 211.607 129.348 207.961C130.064 204.315 130.422 200.409 130.422 196.242V194.191C130.422 190.09 130.064 186.249 129.348 182.668C128.697 179.022 127.59 175.799 126.027 173C124.465 170.201 122.382 168.02 119.777 166.457C117.238 164.895 114.081 164.113 110.305 164.113C106.659 164.113 103.566 164.895 101.027 166.457C98.4883 168.02 96.4375 170.201 94.875 173C93.3125 175.799 92.1732 179.022 91.457 182.668C90.806 186.249 90.4805 190.09 90.4805 194.191ZM94.2891 304.895V388H63.7227V282.336H92.4336L94.2891 304.895ZM90.2852 331.457L82.668 331.652C82.668 323.71 83.6445 316.581 85.5977 310.266C87.5508 303.951 90.3177 298.579 93.8984 294.152C97.5443 289.66 101.874 286.242 106.887 283.898C111.965 281.555 117.564 280.383 123.684 280.383C128.632 280.383 133.156 281.099 137.258 282.531C141.359 283.964 144.875 286.275 147.805 289.465C150.799 292.59 153.078 296.757 154.641 301.965C156.203 307.108 156.984 313.456 156.984 321.008V388H126.32V320.91C126.32 316.483 125.702 313.065 124.465 310.656C123.228 308.247 121.405 306.555 118.996 305.578C116.652 304.602 113.788 304.113 110.402 304.113C106.822 304.113 103.762 304.829 101.223 306.262C98.6836 307.629 96.6003 309.549 94.9727 312.023C93.3451 314.497 92.1406 317.395 91.3594 320.715C90.6432 324.035 90.2852 327.616 90.2852 331.457ZM140.188 422.336V443.723H77.4922V422.336H140.188ZM91.8477 396.164H122.414V494.895C122.414 497.824 122.772 500.07 123.488 501.633C124.204 503.195 125.376 504.302 127.004 504.953C128.632 505.539 130.715 505.832 133.254 505.832C135.077 505.832 136.639 505.767 137.941 505.637C139.243 505.507 140.448 505.344 141.555 505.148V527.219C138.951 528.065 136.184 528.716 133.254 529.172C130.324 529.693 127.134 529.953 123.684 529.953C117.108 529.953 111.411 528.879 106.594 526.73C101.841 524.582 98.1953 521.197 95.6562 516.574C93.1172 511.887 91.8477 505.799 91.8477 498.312V396.164ZM123.293 642.805V597.492C123.293 594.302 122.805 591.568 121.828 589.289C120.852 587.01 119.322 585.22 117.238 583.918C115.155 582.616 112.453 581.965 109.133 581.965C106.333 581.965 103.892 582.453 101.809 583.43C99.7904 584.406 98.2279 585.806 97.1211 587.629C96.0794 589.452 95.5586 591.698 95.5586 594.367H65.0898C65.0898 589.615 66.1641 585.188 68.3125 581.086C70.4609 576.984 73.5208 573.371 77.4922 570.246C81.5286 567.121 86.3464 564.712 91.9453 563.02C97.5443 561.262 103.827 560.383 110.793 560.383C119.061 560.383 126.418 561.783 132.863 564.582C139.374 567.316 144.517 571.451 148.293 576.984C152.069 582.453 153.957 589.354 153.957 597.688V641.926C153.957 648.306 154.315 653.319 155.031 656.965C155.812 660.546 156.919 663.671 158.352 666.34V668H127.59C126.158 664.94 125.083 661.164 124.367 656.672C123.651 652.115 123.293 647.492 123.293 642.805ZM127.102 603.547L127.297 620.344H112.16C108.775 620.344 105.845 620.767 103.371 621.613C100.962 622.46 99.0091 623.632 97.5117 625.129C96.0143 626.561 94.9076 628.254 94.1914 630.207C93.5404 632.095 93.2148 634.178 93.2148 636.457C93.2148 638.605 93.7357 640.559 94.7773 642.316C95.819 644.009 97.2513 645.344 99.0742 646.32C100.897 647.297 103.013 647.785 105.422 647.785C109.393 647.785 112.779 647.004 115.578 645.441C118.443 643.879 120.656 641.991 122.219 639.777C123.781 637.499 124.562 635.383 124.562 633.43L131.887 646.125C130.715 648.729 129.283 651.431 127.59 654.23C125.897 656.965 123.749 659.536 121.145 661.945C118.54 664.289 115.383 666.21 111.672 667.707C108.026 669.204 103.632 669.953 98.4883 669.953C91.8477 669.953 85.8255 668.618 80.4219 665.949C75.0182 663.215 70.6888 659.471 67.4336 654.719C64.2435 649.966 62.6484 644.497 62.6484 638.312C62.6484 632.779 63.6576 627.863 65.6758 623.566C67.694 619.27 70.7214 615.624 74.7578 612.629C78.8594 609.634 84.0026 607.388 90.1875 605.891C96.3724 604.328 103.599 603.547 111.867 603.547H127.102ZM112.746 786.223C116.001 786.223 118.833 785.604 121.242 784.367C123.651 783.13 125.507 781.405 126.809 779.191C128.176 776.913 128.859 774.178 128.859 770.988H157.57C157.57 778.671 155.585 785.441 151.613 791.301C147.707 797.16 142.434 801.75 135.793 805.07C129.152 808.326 121.665 809.953 113.332 809.953C105.129 809.953 97.9674 808.618 91.8477 805.949C85.7279 803.215 80.6172 799.406 76.5156 794.523C72.4141 789.641 69.3216 783.977 67.2383 777.531C65.2201 771.021 64.2109 763.99 64.2109 756.438V753.898C64.2109 746.411 65.2201 739.413 67.2383 732.902C69.3216 726.392 72.4141 720.695 76.5156 715.812C80.6172 710.93 85.6953 707.154 91.75 704.484C97.8698 701.75 105.031 700.383 113.234 700.383C121.893 700.383 129.543 702.043 136.184 705.363C142.889 708.684 148.13 713.469 151.906 719.719C155.682 725.904 157.57 733.358 157.57 742.082H128.859C128.859 738.697 128.241 735.669 127.004 733C125.832 730.266 124.009 728.117 121.535 726.555C119.126 724.927 116.132 724.113 112.551 724.113C108.84 724.113 105.78 724.927 103.371 726.555C101.027 728.117 99.237 730.298 98 733.098C96.763 735.897 95.9167 739.087 95.4609 742.668C95.0052 746.184 94.7773 749.927 94.7773 753.898V756.438C94.7773 760.474 95.0052 764.315 95.4609 767.961C95.9167 771.542 96.763 774.699 98 777.434C99.3021 780.168 101.125 782.316 103.469 783.879C105.812 785.441 108.905 786.223 112.746 786.223ZM140.188 842.336V863.723H77.4922V842.336H140.188ZM91.8477 816.164H122.414V914.895C122.414 917.824 122.772 920.07 123.488 921.633C124.204 923.195 125.376 924.302 127.004 924.953C128.632 925.539 130.715 925.832 133.254 925.832C135.077 925.832 136.639 925.767 137.941 925.637C139.243 925.507 140.448 925.344 141.555 925.148V947.219C138.951 948.065 136.184 948.716 133.254 949.172C130.324 949.693 127.134 949.953 123.684 949.953C117.108 949.953 111.411 948.879 106.594 946.73C101.841 944.582 98.1953 941.197 95.6562 936.574C93.1172 931.887 91.8477 925.799 91.8477 918.312V816.164Z" fill="#FAE9E9" fill-opacity="0.3" shape-rendering="crispEdges"/>
<path d="M121.242 84.3672L121.699 85.2568L121.242 84.3672ZM126.809 79.1914L125.951 78.6769L125.947 78.6844L126.809 79.1914ZM128.859 70.9883V69.9883H127.859V70.9883H128.859ZM157.57 70.9883H158.57V69.9883H157.57V70.9883ZM151.613 91.3008L150.785 90.7397L150.781 90.7461L151.613 91.3008ZM135.793 105.07L136.233 105.968L136.24 105.965L135.793 105.07ZM91.8477 105.949L91.4397 106.862L91.4479 106.866L91.8477 105.949ZM67.2383 77.5312L66.2831 77.8274L66.2868 77.8388L67.2383 77.5312ZM67.2383 32.9023L66.2858 32.5976L66.2831 32.6062L67.2383 32.9023ZM91.75 4.48438L92.1534 5.39941L92.1579 5.39738L91.75 4.48438ZM136.184 5.36328L135.736 6.25772L135.74 6.25944L136.184 5.36328ZM151.906 19.7188L151.05 20.2359L151.053 20.2398L151.906 19.7188ZM157.57 42.082V43.082H158.57V42.082H157.57ZM128.859 42.082H127.859V43.082H128.859V42.082ZM127.004 33L126.085 33.3939L126.09 33.4073L126.097 33.4205L127.004 33ZM121.535 26.5547L120.975 27.3833L120.988 27.3919L121.001 27.4002L121.535 26.5547ZM103.371 26.5547L103.926 27.3868L103.931 27.3833L103.371 26.5547ZM95.4609 42.668L96.4526 42.7965L96.4529 42.7942L95.4609 42.668ZM95.4609 67.9609L94.4687 68.085L94.4689 68.0872L95.4609 67.9609ZM98 77.4336L97.0889 77.8458L97.0929 77.8547L97.0971 77.8635L98 77.4336ZM112.746 87.2227C116.128 87.2227 119.123 86.5796 121.699 85.2568L120.785 83.4776C118.544 84.6288 115.874 85.2227 112.746 85.2227V87.2227ZM121.699 85.2568C124.267 83.9382 126.267 82.0844 127.671 79.6984L125.947 78.6844C124.746 80.7255 123.035 82.3223 120.785 83.4776L121.699 85.2568ZM127.666 79.7059C129.144 77.2433 129.859 74.3231 129.859 70.9883H127.859C127.859 74.0336 127.208 76.5822 125.951 78.6769L127.666 79.7059ZM128.859 71.9883H157.57V69.9883H128.859V71.9883ZM156.57 70.9883C156.57 78.4884 154.635 85.0601 150.786 90.7397L152.441 91.8618C156.534 85.8227 158.57 78.8527 158.57 70.9883H156.57ZM150.781 90.7461C146.977 96.4527 141.84 100.929 135.346 104.176L136.24 105.965C143.028 102.571 148.437 97.8676 152.445 91.8555L150.781 90.7461ZM135.353 104.172C128.866 107.352 121.532 108.953 113.332 108.953V110.953C121.798 110.953 129.439 109.299 136.233 105.968L135.353 104.172ZM113.332 108.953C105.236 108.953 98.2158 107.636 92.2475 105.033L91.4479 106.866C97.7191 109.601 105.022 110.953 113.332 110.953V108.953ZM92.2556 105.036C86.2667 102.36 81.2806 98.6413 77.2813 93.8802L75.7499 95.1666C79.9538 100.171 85.189 104.069 91.4397 106.862L92.2556 105.036ZM77.2813 93.8802C73.2679 89.1023 70.2359 83.5539 68.1898 77.2237L66.2868 77.8388C68.4073 84.3992 71.5603 90.1789 75.7499 95.1666L77.2813 93.8802ZM68.1934 77.2352C66.208 70.8304 65.2109 63.8999 65.2109 56.4375H63.2109C63.2109 64.0792 64.2322 71.2113 66.2831 77.8273L68.1934 77.2352ZM65.2109 56.4375V53.8984H63.2109V56.4375H65.2109ZM65.2109 53.8984C65.2109 46.502 66.2077 39.604 68.1934 33.1984L66.2831 32.6062C64.2324 39.2215 63.2109 46.3209 63.2109 53.8984H65.2109ZM68.1907 33.2071C70.2373 26.8116 73.2693 21.2319 77.2813 16.4557L75.7499 15.1693C71.5588 20.1587 68.4059 25.9723 66.2859 32.5976L68.1907 33.2071ZM77.2813 16.4557C81.2808 11.6945 86.2333 8.00936 92.1534 5.3994L91.3466 3.56935C85.1574 6.29793 79.9536 10.1649 75.7499 15.1693L77.2813 16.4557ZM92.1579 5.39738C98.124 2.73169 105.141 1.38281 113.234 1.38281V-0.617188C104.921 -0.617188 97.6156 0.768309 91.3421 3.57137L92.1579 5.39738ZM113.234 1.38281C121.764 1.38281 129.256 3.0175 135.736 6.25771L136.631 4.46885C129.83 1.06844 122.023 -0.617188 113.234 -0.617188V1.38281ZM135.74 6.25944C142.279 9.49745 147.375 14.1531 151.05 20.2359L152.762 19.2016C148.885 12.7844 143.499 7.86974 136.627 4.46712L135.74 6.25944ZM151.053 20.2398C154.715 26.2385 156.57 33.5043 156.57 42.082H158.57C158.57 33.2119 156.649 25.5688 152.76 19.1977L151.053 20.2398ZM157.57 41.082H128.859V43.082H157.57V41.082ZM129.859 42.082C129.859 38.5732 129.218 35.399 127.911 32.5795L126.097 33.4205C127.264 35.9395 127.859 38.82 127.859 42.082H129.859ZM127.923 32.6061C126.673 29.689 124.717 27.3817 122.069 25.7092L121.001 27.4002C123.301 28.8527 124.991 30.8423 126.085 33.3939L127.923 32.6061ZM122.095 25.7261C119.486 23.9633 116.284 23.1133 112.551 23.1133V25.1133C115.979 25.1133 118.767 25.8909 120.975 27.3833L122.095 25.7261ZM112.551 23.1133C108.695 23.1133 105.426 23.9595 102.811 25.7261L103.931 27.3833C106.134 25.8946 108.984 25.1133 112.551 25.1133V23.1133ZM102.816 25.7226C100.301 27.3997 98.3922 29.7357 97.0853 32.6935L98.9147 33.5018C100.082 30.8606 101.754 28.8346 103.926 27.3867L102.816 25.7226ZM97.0853 32.6935C95.803 35.5956 94.9347 38.8818 94.4689 42.5417L96.4529 42.7942C96.8986 39.2927 97.723 36.1987 98.9147 33.5018L97.0853 32.6935ZM94.4692 42.5394C94.0074 46.1024 93.7773 49.8891 93.7773 53.8984H95.7773C95.7773 49.965 96.003 46.2648 96.4526 42.7965L94.4692 42.5394ZM93.7773 53.8984V56.4375H95.7773V53.8984H93.7773ZM93.7773 56.4375C93.7773 60.5114 94.0073 64.3942 94.4687 68.085L96.4532 67.8369C96.0031 64.236 95.7773 60.4365 95.7773 56.4375H93.7773ZM94.4689 68.0872C94.9348 71.7474 95.8035 75.0044 97.0889 77.8458L98.9111 77.0214C97.7225 74.394 96.8986 71.336 96.4529 67.8347L94.4689 68.0872ZM97.0971 77.8635C98.4708 80.7482 100.409 83.0408 102.914 84.711L104.023 83.0469C101.841 81.592 100.133 79.5877 98.9029 77.0037L97.0971 77.8635ZM102.914 84.711C105.472 86.4162 108.777 87.2227 112.746 87.2227V85.2227C109.033 85.2227 106.153 84.4667 104.023 83.0469L102.914 84.711ZM63.2344 172.805L64.1812 173.127L64.1821 173.124L63.2344 172.805ZM88.8203 144.484L89.2131 145.404L89.2211 145.401L88.8203 144.484ZM131.984 144.484L131.584 145.401L131.595 145.405L131.984 144.484ZM157.668 172.805L156.72 173.124L156.721 173.127L157.668 172.805ZM157.668 217.629L158.615 217.951L158.616 217.948L157.668 217.629ZM147.902 234.719L148.649 235.384L148.653 235.379L147.902 234.719ZM88.918 245.949L88.5286 246.87L88.918 245.949ZM73 234.719L72.2493 235.379L72.2537 235.384L73 234.719ZM63.2344 217.629L62.2866 217.948L62.2876 217.951L63.2344 217.629ZM91.457 207.961L90.4726 208.137L90.4741 208.145L90.4758 208.154L91.457 207.961ZM101.027 223.977L100.503 224.828L100.516 224.836L100.529 224.843L101.027 223.977ZM119.875 223.977L120.383 224.838L120.391 224.833L120.399 224.828L119.875 223.977ZM129.348 207.961L128.366 207.768L128.365 207.777L128.363 207.785L129.348 207.961ZM129.348 182.668L128.363 182.844L128.365 182.854L128.367 182.864L129.348 182.668ZM119.777 166.457L119.253 167.309L119.263 167.315L119.777 166.457ZM91.457 182.668L90.4757 182.475L90.4732 182.489L91.457 182.668ZM60.9141 196.242V194.191H58.9141V196.242H60.9141ZM60.9141 194.191C60.9141 186.54 62.007 179.521 64.1811 173.127L62.2876 172.483C60.0347 179.109 58.9141 186.348 58.9141 194.191H60.9141ZM64.1821 173.124C66.3558 166.666 69.5458 161.09 73.7463 156.38L72.2537 155.049C67.8604 159.975 64.54 165.792 62.2866 172.486L64.1821 173.124ZM73.7463 156.38C77.9403 151.678 83.0908 148.019 89.2131 145.404L88.4275 143.565C82.0498 146.289 76.6535 150.116 72.2537 155.049L73.7463 156.38ZM89.2211 145.401C95.3237 142.731 102.345 141.383 110.305 141.383V139.383C102.119 139.383 94.8169 140.769 88.4195 143.568L89.2211 145.401ZM110.305 141.383C118.397 141.383 125.483 142.731 131.584 145.401L132.385 143.568C125.986 140.769 118.618 139.383 110.305 139.383V141.383ZM131.595 145.405C137.782 148.021 142.964 151.68 147.156 156.38L148.649 155.049C144.247 150.114 138.817 146.287 132.374 143.563L131.595 145.405ZM147.156 156.38C151.357 161.09 154.546 166.666 156.72 173.124L158.616 172.486C156.362 165.792 153.042 159.975 148.649 155.049L147.156 156.38ZM156.721 173.127C158.895 179.521 159.988 186.54 159.988 194.191H161.988C161.988 186.348 160.868 179.109 158.615 172.483L156.721 173.127ZM159.988 194.191V196.242H161.988V194.191H159.988ZM159.988 196.242C159.988 203.828 158.896 210.848 156.72 217.31L158.616 217.948C160.867 211.259 161.988 204.021 161.988 196.242H159.988ZM156.721 217.307C154.548 223.7 151.357 229.28 147.152 234.058L148.653 235.379C153.042 230.392 156.361 224.579 158.615 217.951L156.721 217.307ZM147.156 234.053C142.962 238.755 137.811 242.415 131.689 245.03L132.475 246.869C138.853 244.145 144.249 240.317 148.649 235.384L147.156 234.053ZM131.689 245.03C125.585 247.636 118.529 248.953 110.5 248.953V250.953C118.747 250.953 126.079 249.601 132.475 246.869L131.689 245.03ZM110.5 248.953C102.537 248.953 95.4794 247.637 89.3073 245.028L88.5286 246.87C94.9868 249.6 102.317 250.953 110.5 250.953V248.953ZM89.3073 245.028C83.12 242.413 77.9385 238.753 73.7463 234.053L72.2537 235.384C76.6552 240.319 82.0857 244.147 88.5286 246.87L89.3073 245.028ZM73.7507 234.058C69.5458 229.28 66.3547 223.7 64.1811 217.307L62.2876 217.951C64.5411 224.579 67.8605 230.392 72.2493 235.379L73.7507 234.058ZM64.1821 217.31C62.0067 210.848 60.9141 203.828 60.9141 196.242H58.9141C58.9141 204.021 60.035 211.259 62.2866 217.948L64.1821 217.31ZM89.4805 194.191V196.242H91.4805V194.191H89.4805ZM89.4805 196.242C89.4805 200.461 89.81 204.426 90.4726 208.137L92.4415 207.785C91.802 204.204 91.4805 200.357 91.4805 196.242H89.4805ZM90.4758 208.154C91.2092 211.887 92.3817 215.183 94.0068 218.027L95.7432 217.035C94.2433 214.41 93.1372 211.326 92.4383 207.768L90.4758 208.154ZM94.0068 218.027C95.6475 220.899 97.8134 223.173 100.503 224.828L101.551 223.125C99.1632 221.655 97.2275 219.632 95.7432 217.035L94.0068 218.027ZM100.529 224.843C103.317 226.446 106.655 227.223 110.5 227.223V225.223C106.923 225.223 103.946 224.502 101.526 223.11L100.529 224.843ZM110.5 227.223C114.344 227.223 117.655 226.447 120.383 224.838L119.367 223.115C117.017 224.501 114.078 225.223 110.5 225.223V227.223ZM120.399 224.828C123.089 223.173 125.255 220.899 126.896 218.027L125.159 217.035C123.675 219.632 121.739 221.655 119.351 223.125L120.399 224.828ZM126.896 218.027C128.524 215.178 129.664 211.876 130.332 208.137L128.363 207.785C127.729 211.338 126.656 214.416 125.159 217.035L126.896 218.027ZM130.329 208.154C131.059 204.437 131.422 200.466 131.422 196.242H129.422C129.422 200.352 129.069 204.193 128.366 207.768L130.329 208.154ZM131.422 196.242V194.191H129.422V196.242H131.422ZM131.422 194.191C131.422 190.032 131.059 186.124 130.328 182.472L128.367 182.864C129.069 186.373 129.422 190.148 129.422 194.191H131.422ZM130.332 182.492C129.664 178.754 128.525 175.423 126.901 172.513L125.154 173.487C126.655 176.176 127.729 179.291 128.363 182.844L130.332 182.492ZM126.901 172.513C125.258 169.569 123.054 167.257 120.292 165.6L119.263 167.315C121.709 168.782 123.672 170.832 125.154 173.487L126.901 172.513ZM120.301 165.605C117.568 163.923 114.217 163.113 110.305 163.113V165.113C113.944 165.113 116.909 165.866 119.253 167.309L120.301 165.605ZM110.305 163.113C106.515 163.113 103.232 163.926 100.503 165.605L101.551 167.309C103.901 165.863 106.803 165.113 110.305 165.113V163.113ZM100.503 165.605C97.8077 167.264 95.6411 169.575 94.0018 172.513L95.7482 173.487C97.2339 170.826 99.1689 168.775 101.551 167.309L100.503 165.605ZM94.0018 172.513C92.3806 175.417 91.2091 178.742 90.4758 182.475L92.4383 182.861C93.1373 179.302 94.2444 176.182 95.7482 173.487L94.0018 172.513ZM90.4732 182.489C89.8101 186.136 89.4805 190.037 89.4805 194.191H91.4805C91.4805 190.142 91.8018 186.362 92.4409 182.847L90.4732 182.489ZM94.2891 304.895H95.2891V304.853L95.2857 304.813L94.2891 304.895ZM94.2891 388V389H95.2891V388H94.2891ZM63.7227 388H62.7227V389H63.7227V388ZM63.7227 282.336V281.336H62.7227V282.336H63.7227ZM92.4336 282.336L93.4302 282.254L93.3547 281.336H92.4336V282.336ZM90.2852 331.457L90.3108 332.457L91.2852 332.432V331.457H90.2852ZM82.668 331.652H81.668V332.678L82.6936 332.652L82.668 331.652ZM93.8984 294.152L93.122 293.522L93.1209 293.523L93.8984 294.152ZM106.887 283.898L106.468 282.99L106.463 282.993L106.887 283.898ZM147.805 289.465L147.068 290.141L147.075 290.149L147.083 290.157L147.805 289.465ZM154.641 301.965L153.683 302.252L153.684 302.256L154.641 301.965ZM156.984 388V389H157.984V388H156.984ZM126.32 388H125.32V389H126.32V388ZM118.996 305.578L118.611 306.501L118.62 306.505L118.996 305.578ZM101.223 306.262L101.697 307.142L101.705 307.138L101.714 307.133L101.223 306.262ZM91.3594 320.715L90.386 320.486L90.3838 320.495L90.3819 320.504L91.3594 320.715ZM93.2891 304.895V388H95.2891V304.895H93.2891ZM94.2891 387H63.7227V389H94.2891V387ZM64.7227 388V282.336H62.7227V388H64.7227ZM63.7227 283.336H92.4336V281.336H63.7227V283.336ZM91.437 282.418L93.2924 304.977L95.2857 304.813L93.4302 282.254L91.437 282.418ZM90.2595 330.457L82.6423 330.653L82.6936 332.652L90.3108 332.457L90.2595 330.457ZM83.668 331.652C83.668 323.79 84.6347 316.763 86.553 310.561L84.6423 309.97C82.6543 316.398 81.668 323.629 81.668 331.652H83.668ZM86.553 310.561C88.4745 304.348 91.1869 299.095 94.6759 294.781L93.1209 293.523C89.4485 298.064 86.627 303.553 84.6423 309.97L86.553 310.561ZM94.6749 294.783C98.2299 290.402 102.44 287.081 107.31 284.804L106.463 282.993C101.307 285.403 96.8586 288.918 93.122 293.522L94.6749 294.783ZM107.306 284.806C112.241 282.529 117.695 281.383 123.684 281.383V279.383C117.433 279.383 111.689 280.581 106.468 282.99L107.306 284.806ZM123.684 281.383C128.535 281.383 132.946 282.085 136.928 283.475L137.587 281.587C133.366 280.113 128.728 279.383 123.684 279.383V281.383ZM136.928 283.475C140.875 284.853 144.25 287.073 147.068 290.141L148.541 288.788C145.5 285.477 141.844 283.074 137.587 281.587L136.928 283.475ZM147.083 290.157C149.943 293.142 152.154 297.158 153.683 302.252L155.598 301.677C154.002 296.356 151.655 292.038 148.527 288.773L147.083 290.157ZM153.684 302.256C155.209 307.275 155.984 313.518 155.984 321.008H157.984C157.984 313.394 157.198 306.941 155.597 301.674L153.684 302.256ZM155.984 321.008V388H157.984V321.008H155.984ZM156.984 387H126.32V389H156.984V387ZM127.32 388V320.91H125.32V388H127.32ZM127.32 320.91C127.32 316.414 126.696 312.812 125.354 310.199L123.575 311.113C124.708 313.318 125.32 316.553 125.32 320.91H127.32ZM125.354 310.199C124.013 307.587 122.013 305.722 119.372 304.651L118.62 306.505C120.797 307.387 122.443 308.908 123.575 311.113L125.354 310.199ZM119.381 304.655C116.882 303.614 113.878 303.113 110.402 303.113V305.113C113.697 305.113 116.423 305.589 118.611 306.501L119.381 304.655ZM110.402 303.113C106.688 303.113 103.451 303.857 100.731 305.391L101.714 307.133C104.072 305.802 106.955 305.113 110.402 305.113V303.113ZM100.749 305.381C98.0595 306.829 95.8534 308.865 94.1372 311.474L95.8081 312.573C97.3471 310.234 99.3077 308.429 101.697 307.142L100.749 305.381ZM94.1372 311.474C92.4362 314.059 91.19 317.068 90.386 320.486L92.3328 320.944C93.0912 317.721 94.2539 314.935 95.8081 312.573L94.1372 311.474ZM90.3819 320.504C89.649 323.902 89.2852 327.554 89.2852 331.457H91.2852C91.2852 327.678 91.6375 324.168 92.3369 320.926L90.3819 320.504ZM140.188 422.336H141.188V421.336H140.188V422.336ZM140.188 443.723V444.723H141.188V443.723H140.188ZM77.4922 443.723H76.4922V444.723H77.4922V443.723ZM77.4922 422.336V421.336H76.4922V422.336H77.4922ZM91.8477 396.164V395.164H90.8477V396.164H91.8477ZM122.414 396.164H123.414V395.164H122.414V396.164ZM127.004 504.953L126.633 505.882L126.649 505.888L126.665 505.894L127.004 504.953ZM141.555 505.148H142.555V503.957L141.381 504.164L141.555 505.148ZM141.555 527.219L141.864 528.17L142.555 527.945V527.219H141.555ZM133.254 529.172L133.1 528.184L133.09 528.185L133.079 528.187L133.254 529.172ZM106.594 526.73L106.182 527.642L106.186 527.644L106.594 526.73ZM95.6562 516.574L94.7769 517.051L94.7798 517.056L95.6562 516.574ZM139.188 422.336V443.723H141.188V422.336H139.188ZM140.188 442.723H77.4922V444.723H140.188V442.723ZM78.4922 443.723V422.336H76.4922V443.723H78.4922ZM77.4922 423.336H140.188V421.336H77.4922V423.336ZM91.8477 397.164H122.414V395.164H91.8477V397.164ZM121.414 396.164V494.895H123.414V396.164H121.414ZM121.414 494.895C121.414 497.88 121.775 500.295 122.579 502.049L124.397 501.216C123.769 499.846 123.414 497.768 123.414 494.895H121.414ZM122.579 502.049C123.405 503.85 124.772 505.137 126.633 505.882L127.375 504.025C125.981 503.467 125.004 502.54 124.397 501.216L122.579 502.049ZM126.665 505.894C128.44 506.533 130.648 506.832 133.254 506.832V504.832C130.781 504.832 128.823 504.545 127.343 504.012L126.665 505.894ZM133.254 506.832C135.098 506.832 136.696 506.766 138.041 506.632L137.842 504.642C136.583 504.768 135.055 504.832 133.254 504.832V506.832ZM138.041 506.632C139.364 506.499 140.593 506.334 141.728 506.133L141.381 504.164C140.302 504.354 139.123 504.514 137.842 504.642L138.041 506.632ZM140.555 505.148V527.219H142.555V505.148H140.555ZM141.246 526.268C138.696 527.096 135.981 527.736 133.1 528.184L133.408 530.16C136.386 529.697 139.205 529.034 141.864 528.17L141.246 526.268ZM133.079 528.187C130.215 528.696 127.084 528.953 123.684 528.953V530.953C127.184 530.953 130.433 530.689 133.429 530.156L133.079 528.187ZM123.684 528.953C117.215 528.953 111.663 527.896 107.001 525.817L106.186 527.644C111.16 529.862 117.001 530.953 123.684 530.953V528.953ZM107.006 525.819C102.453 523.761 98.9688 520.528 96.5327 516.093L94.7798 517.056C97.4218 521.866 101.23 525.403 106.182 527.642L107.006 525.819ZM96.5355 516.098C94.1013 511.604 92.8477 505.697 92.8477 498.312H90.8477C90.8477 505.902 92.1331 512.17 94.777 517.051L96.5355 516.098ZM92.8477 498.312V396.164H90.8477V498.312H92.8477ZM101.809 583.43L101.384 582.524L101.373 582.53L101.809 583.43ZM97.1211 587.629L96.2663 587.11L96.2594 587.121L96.2529 587.133L97.1211 587.629ZM95.5586 594.367V595.367H96.5586V594.367H95.5586ZM65.0898 594.367H64.0898V595.367H65.0898V594.367ZM77.4922 570.246L76.88 569.455L76.8738 569.46L77.4922 570.246ZM91.9453 563.02L92.2347 563.977L92.2449 563.974L91.9453 563.02ZM132.863 564.582L132.465 565.499L132.476 565.504L132.863 564.582ZM148.293 576.984L147.467 577.548L147.47 577.553L148.293 576.984ZM155.031 656.965L154.05 657.158L154.052 657.168L154.054 657.178L155.031 656.965ZM158.352 666.34H159.352V666.089L159.233 665.867L158.352 666.34ZM158.352 668V669H159.352V668H158.352ZM127.59 668L126.684 668.424L126.954 669H127.59V668ZM124.367 656.672L123.379 656.827L123.38 656.829L124.367 656.672ZM127.102 603.547L128.101 603.535L128.09 602.547H127.102V603.547ZM127.297 620.344V621.344H128.309L128.297 620.332L127.297 620.344ZM103.371 621.613L103.047 620.667L103.04 620.67L103.371 621.613ZM97.5117 625.129L98.2029 625.852L98.211 625.844L98.2188 625.836L97.5117 625.129ZM94.1914 630.207L93.2525 629.863L93.2492 629.872L93.246 629.881L94.1914 630.207ZM94.7773 642.316L93.9171 642.826L93.9213 642.833L93.9257 642.841L94.7773 642.316ZM115.578 645.441L115.099 644.563L115.091 644.568L115.578 645.441ZM122.219 639.777L123.036 640.354L123.043 640.343L122.219 639.777ZM124.562 633.43L125.429 632.93L123.562 629.695V633.43H124.562ZM131.887 646.125L132.799 646.535L133.009 646.069L132.753 645.625L131.887 646.125ZM127.59 654.23L128.44 654.757L128.446 654.748L127.59 654.23ZM121.145 661.945L121.814 662.689L121.824 662.679L121.145 661.945ZM111.672 667.707L111.298 666.78L111.292 666.782L111.672 667.707ZM80.4219 665.949L79.9703 666.842L79.979 666.846L80.4219 665.949ZM67.4336 654.719L66.6033 655.276L66.6086 655.284L67.4336 654.719ZM65.6758 623.566L64.7707 623.141L65.6758 623.566ZM74.7578 612.629L74.1681 611.821L74.162 611.826L74.7578 612.629ZM90.1875 605.891L90.4228 606.863L90.4324 606.86L90.1875 605.891ZM124.293 642.805V597.492H122.293V642.805H124.293ZM124.293 597.492C124.293 594.204 123.79 591.328 122.747 588.895L120.909 589.683C121.819 591.807 122.293 594.4 122.293 597.492H124.293ZM122.747 588.895C121.691 586.431 120.026 584.481 117.768 583.07L116.708 584.766C118.617 585.959 120.012 587.59 120.909 589.683L122.747 588.895ZM117.768 583.07C115.479 581.639 112.577 580.965 109.133 580.965V582.965C112.33 582.965 114.83 583.592 116.708 584.766L117.768 583.07ZM109.133 580.965C106.218 580.965 103.626 581.473 101.384 582.524L102.233 584.335C104.158 583.433 106.449 582.965 109.133 582.965V580.965ZM101.373 582.53C99.1906 583.586 97.4784 585.114 96.2663 587.11L97.9759 588.148C98.9773 586.498 100.39 585.227 102.244 584.33L101.373 582.53ZM96.2529 587.133C95.1044 589.142 94.5586 591.57 94.5586 594.367H96.5586C96.5586 591.826 97.0544 589.761 97.9893 588.125L96.2529 587.133ZM95.5586 593.367H65.0898V595.367H95.5586V593.367ZM66.0898 594.367C66.0898 589.772 67.1269 585.504 69.1983 581.55L67.4267 580.622C65.2012 584.871 64.0898 589.457 64.0898 594.367H66.0898ZM69.1983 581.55C71.2755 577.584 74.2398 574.078 78.1106 571.032L76.8738 569.46C72.8018 572.664 69.6463 576.384 67.4267 580.622L69.1983 581.55ZM78.1044 571.037C82.0313 567.997 86.7358 565.639 92.2347 563.977L91.6559 562.062C85.957 563.785 81.026 566.246 76.88 569.455L78.1044 571.037ZM92.2449 563.974C97.7307 562.251 103.91 561.383 110.793 561.383V559.383C103.744 559.383 97.3578 560.272 91.6458 562.065L92.2449 563.974ZM110.793 561.383C118.948 561.383 126.166 562.763 132.465 565.499L133.262 563.665C126.67 560.802 119.174 559.383 110.793 559.383V561.383ZM132.476 565.504C138.819 568.168 143.806 572.182 147.467 577.548L149.119 576.421C145.228 570.719 139.929 566.465 133.251 563.66L132.476 565.504ZM147.47 577.553C151.104 582.816 152.957 589.505 152.957 597.688H154.957C154.957 589.203 153.034 582.09 149.116 576.416L147.47 577.553ZM152.957 597.688V641.926H154.957V597.688H152.957ZM152.957 641.926C152.957 648.332 153.316 653.419 154.05 657.158L156.012 656.772C155.315 653.219 154.957 648.28 154.957 641.926H152.957ZM154.054 657.178C154.851 660.831 155.986 664.047 157.47 666.813L159.233 665.867C157.852 663.294 156.774 660.26 156.008 656.752L154.054 657.178ZM157.352 666.34V668H159.352V666.34H157.352ZM158.352 667H127.59V669H158.352V667ZM128.496 667.576C127.114 664.624 126.061 660.944 125.355 656.514L123.38 656.829C124.106 661.384 125.201 665.256 126.684 668.424L128.496 667.576ZM125.355 656.517C124.647 652.012 124.293 647.441 124.293 642.805H122.293C122.293 647.543 122.655 652.218 123.379 656.827L125.355 656.517ZM126.102 603.559L126.297 620.355L128.297 620.332L128.101 603.535L126.102 603.559ZM127.297 619.344H112.16V621.344H127.297V619.344ZM112.16 619.344C108.695 619.344 105.651 619.776 103.047 620.667L103.695 622.559C106.039 621.757 108.854 621.344 112.16 621.344V619.344ZM103.04 620.67C100.518 621.556 98.4275 622.799 96.8046 624.422L98.2188 625.836C99.5907 624.464 101.406 623.364 103.703 622.557L103.04 620.67ZM96.8205 624.406C95.2123 625.945 94.021 627.767 93.2525 629.863L95.1303 630.551C95.7941 628.741 96.8164 627.178 98.2029 625.852L96.8205 624.406ZM93.246 629.881C92.5541 631.888 92.2148 634.083 92.2148 636.457H94.2148C94.2148 634.274 94.5266 632.303 95.1368 630.533L93.246 629.881ZM92.2148 636.457C92.2148 638.775 92.7791 640.906 93.9171 642.826L95.6376 641.807C94.6922 640.211 94.2148 638.436 94.2148 636.457H92.2148ZM93.9257 642.841C95.0639 644.69 96.6298 646.145 98.602 647.202L99.5464 645.439C97.8728 644.542 96.5742 643.328 95.629 641.792L93.9257 642.841ZM98.602 647.202C100.592 648.268 102.876 648.785 105.422 648.785V646.785C103.151 646.785 101.202 646.326 99.5464 645.439L98.602 647.202ZM105.422 648.785C109.524 648.785 113.085 647.978 116.065 646.315L115.091 644.568C112.472 646.03 109.263 646.785 105.422 646.785V648.785ZM116.057 646.319C119.029 644.698 121.369 642.715 123.036 640.354L121.402 639.201C119.944 641.266 117.857 643.059 115.099 644.564L116.057 646.319ZM123.043 640.343C124.675 637.964 125.562 635.653 125.562 633.43H123.562C123.562 635.113 122.888 637.033 121.394 639.212L123.043 640.343ZM123.696 633.929L131.021 646.625L132.753 645.625L125.429 632.93L123.696 633.929ZM130.975 645.715C129.822 648.277 128.409 650.943 126.734 653.713L128.446 654.748C130.156 651.919 131.608 649.181 132.799 646.535L130.975 645.715ZM126.74 653.704C125.099 656.354 123.01 658.857 120.465 661.211L121.824 662.679C124.487 660.216 126.695 657.575 128.44 654.757L126.74 653.704ZM120.476 661.202C117.97 663.457 114.916 665.32 111.298 666.78L112.046 668.634C115.85 667.099 119.111 665.121 121.813 662.689L120.476 661.202ZM111.292 666.782C107.797 668.217 103.539 668.953 98.4883 668.953V670.953C103.724 670.953 108.255 670.192 112.052 668.632L111.292 666.782ZM98.4883 668.953C91.9854 668.953 86.1171 667.647 80.8648 665.053L79.979 666.846C85.5339 669.59 91.7099 670.953 98.4883 670.953V668.953ZM80.8734 665.057C75.6118 662.394 71.4139 658.76 68.2586 654.154L66.6086 655.284C69.9637 660.182 74.4247 664.035 79.9704 666.841L80.8734 665.057ZM68.2639 654.161C65.1934 649.587 63.6484 644.316 63.6484 638.312H61.6484C61.6484 644.679 63.2936 650.345 66.6033 655.276L68.2639 654.161ZM63.6484 638.312C63.6484 632.901 64.6347 628.135 66.5809 623.992L64.7707 623.141C62.6804 627.591 61.6484 632.656 61.6484 638.312H63.6484ZM66.5809 623.992C68.5247 619.853 71.4419 616.334 75.3537 613.432L74.162 611.826C70.0008 614.913 66.8633 618.686 64.7707 623.141L66.5809 623.992ZM75.3475 613.437C79.3197 610.536 84.3345 608.337 90.4228 606.863L89.9522 604.919C83.6707 606.439 78.399 608.732 74.1681 611.821L75.3475 613.437ZM90.4324 606.86C96.5177 605.323 103.659 604.547 111.867 604.547V602.547C103.539 602.547 96.2271 603.333 89.9426 604.921L90.4324 606.86ZM111.867 604.547H127.102V602.547H111.867V604.547ZM121.242 784.367L121.699 785.257L121.242 784.367ZM126.809 779.191L125.951 778.677L125.947 778.684L126.809 779.191ZM128.859 770.988V769.988H127.859V770.988H128.859ZM157.57 770.988H158.57V769.988H157.57V770.988ZM151.613 791.301L150.785 790.74L150.781 790.746L151.613 791.301ZM135.793 805.07L136.233 805.968L136.24 805.965L135.793 805.07ZM91.8477 805.949L91.4397 806.862L91.4479 806.866L91.8477 805.949ZM67.2383 777.531L66.2831 777.827L66.2868 777.839L67.2383 777.531ZM67.2383 732.902L66.2858 732.598L66.2831 732.606L67.2383 732.902ZM91.75 704.484L92.1534 705.399L92.1579 705.397L91.75 704.484ZM136.184 705.363L135.736 706.258L135.74 706.259L136.184 705.363ZM151.906 719.719L151.05 720.236L151.053 720.24L151.906 719.719ZM157.57 742.082V743.082H158.57V742.082H157.57ZM128.859 742.082H127.859V743.082H128.859V742.082ZM127.004 733L126.085 733.394L126.09 733.407L126.097 733.42L127.004 733ZM121.535 726.555L120.975 727.383L120.988 727.392L121.001 727.4L121.535 726.555ZM103.371 726.555L103.926 727.387L103.931 727.383L103.371 726.555ZM95.4609 742.668L96.4526 742.797L96.4529 742.794L95.4609 742.668ZM95.4609 767.961L94.4687 768.085L94.4689 768.087L95.4609 767.961ZM98 777.434L97.0889 777.846L97.0929 777.855L97.0971 777.864L98 777.434ZM112.746 787.223C116.128 787.223 119.123 786.58 121.699 785.257L120.785 783.478C118.544 784.629 115.874 785.223 112.746 785.223V787.223ZM121.699 785.257C124.267 783.938 126.267 782.084 127.671 779.698L125.947 778.684C124.746 780.726 123.035 782.322 120.785 783.478L121.699 785.257ZM127.666 779.706C129.144 777.243 129.859 774.323 129.859 770.988H127.859C127.859 774.034 127.208 776.582 125.951 778.677L127.666 779.706ZM128.859 771.988H157.57V769.988H128.859V771.988ZM156.57 770.988C156.57 778.488 154.635 785.06 150.786 790.74L152.441 791.862C156.534 785.823 158.57 778.853 158.57 770.988H156.57ZM150.781 790.746C146.977 796.453 141.84 800.929 135.346 804.176L136.24 805.965C143.028 802.571 148.437 797.868 152.445 791.855L150.781 790.746ZM135.353 804.172C128.866 807.352 121.532 808.953 113.332 808.953V810.953C121.798 810.953 129.439 809.299 136.233 805.968L135.353 804.172ZM113.332 808.953C105.236 808.953 98.2158 807.636 92.2475 805.033L91.4479 806.866C97.7191 809.601 105.022 810.953 113.332 810.953V808.953ZM92.2556 805.036C86.2667 802.36 81.2806 798.641 77.2813 793.88L75.7499 795.167C79.9538 800.171 85.189 804.069 91.4397 806.862L92.2556 805.036ZM77.2813 793.88C73.2679 789.102 70.2359 783.554 68.1898 777.224L66.2868 777.839C68.4073 784.399 71.5603 790.179 75.7499 795.167L77.2813 793.88ZM68.1934 777.235C66.208 770.83 65.2109 763.9 65.2109 756.438H63.2109C63.2109 764.079 64.2322 771.211 66.2831 777.827L68.1934 777.235ZM65.2109 756.438V753.898H63.2109V756.438H65.2109ZM65.2109 753.898C65.2109 746.502 66.2077 739.604 68.1934 733.198L66.2831 732.606C64.2324 739.221 63.2109 746.321 63.2109 753.898H65.2109ZM68.1907 733.207C70.2373 726.812 73.2693 721.232 77.2813 716.456L75.7499 715.169C71.5588 720.159 68.4059 725.972 66.2859 732.598L68.1907 733.207ZM77.2813 716.456C81.2808 711.694 86.2333 708.009 92.1534 705.399L91.3466 703.569C85.1574 706.298 79.9536 710.165 75.7499 715.169L77.2813 716.456ZM92.1579 705.397C98.124 702.732 105.141 701.383 113.234 701.383V699.383C104.921 699.383 97.6156 700.768 91.3421 703.571L92.1579 705.397ZM113.234 701.383C121.764 701.383 129.256 703.017 135.736 706.258L136.631 704.469C129.83 701.068 122.023 699.383 113.234 699.383V701.383ZM135.74 706.259C142.279 709.497 147.375 714.153 151.05 720.236L152.762 719.202C148.885 712.784 143.499 707.87 136.627 704.467L135.74 706.259ZM151.053 720.24C154.715 726.238 156.57 733.504 156.57 742.082H158.57C158.57 733.212 156.649 725.569 152.76 719.198L151.053 720.24ZM157.57 741.082H128.859V743.082H157.57V741.082ZM129.859 742.082C129.859 738.573 129.218 735.399 127.911 732.58L126.097 733.42C127.264 735.94 127.859 738.82 127.859 742.082H129.859ZM127.923 732.606C126.673 729.689 124.717 727.382 122.069 725.709L121.001 727.4C123.301 728.853 124.991 730.842 126.085 733.394L127.923 732.606ZM122.095 725.726C119.486 723.963 116.284 723.113 112.551 723.113V725.113C115.979 725.113 118.767 725.891 120.975 727.383L122.095 725.726ZM112.551 723.113C108.695 723.113 105.426 723.96 102.811 725.726L103.931 727.383C106.134 725.895 108.984 725.113 112.551 725.113V723.113ZM102.816 725.723C100.301 727.4 98.3922 729.736 97.0853 732.693L98.9147 733.502C100.082 730.861 101.754 728.835 103.926 727.387L102.816 725.723ZM97.0853 732.693C95.803 735.596 94.9347 738.882 94.4689 742.542L96.4529 742.794C96.8986 739.293 97.723 736.199 98.9147 733.502L97.0853 732.693ZM94.4692 742.539C94.0074 746.102 93.7773 749.889 93.7773 753.898H95.7773C95.7773 749.965 96.003 746.265 96.4526 742.797L94.4692 742.539ZM93.7773 753.898V756.438H95.7773V753.898H93.7773ZM93.7773 756.438C93.7773 760.511 94.0073 764.394 94.4687 768.085L96.4532 767.837C96.0031 764.236 95.7773 760.436 95.7773 756.438H93.7773ZM94.4689 768.087C94.9348 771.747 95.8035 775.004 97.0889 777.846L98.9111 777.021C97.7225 774.394 96.8986 771.336 96.4529 767.835L94.4689 768.087ZM97.0971 777.864C98.4708 780.748 100.409 783.041 102.914 784.711L104.023 783.047C101.841 781.592 100.133 779.588 98.9029 777.004L97.0971 777.864ZM102.914 784.711C105.472 786.416 108.777 787.223 112.746 787.223V785.223C109.033 785.223 106.153 784.467 104.023 783.047L102.914 784.711ZM140.188 842.336H141.188V841.336H140.188V842.336ZM140.188 863.723V864.723H141.188V863.723H140.188ZM77.4922 863.723H76.4922V864.723H77.4922V863.723ZM77.4922 842.336V841.336H76.4922V842.336H77.4922ZM91.8477 816.164V815.164H90.8477V816.164H91.8477ZM122.414 816.164H123.414V815.164H122.414V816.164ZM127.004 924.953L126.633 925.882L126.649 925.888L126.665 925.894L127.004 924.953ZM141.555 925.148H142.555V923.957L141.381 924.164L141.555 925.148ZM141.555 947.219L141.864 948.17L142.555 947.945V947.219H141.555ZM133.254 949.172L133.1 948.184L133.09 948.185L133.079 948.187L133.254 949.172ZM106.594 946.73L106.182 947.642L106.186 947.644L106.594 946.73ZM95.6562 936.574L94.7769 937.051L94.7798 937.056L95.6562 936.574ZM139.188 842.336V863.723H141.188V842.336H139.188ZM140.188 862.723H77.4922V864.723H140.188V862.723ZM78.4922 863.723V842.336H76.4922V863.723H78.4922ZM77.4922 843.336H140.188V841.336H77.4922V843.336ZM91.8477 817.164H122.414V815.164H91.8477V817.164ZM121.414 816.164V914.895H123.414V816.164H121.414ZM121.414 914.895C121.414 917.88 121.775 920.295 122.579 922.049L124.397 921.216C123.769 919.846 123.414 917.768 123.414 914.895H121.414ZM122.579 922.049C123.405 923.85 124.772 925.137 126.633 925.882L127.375 924.025C125.981 923.467 125.004 922.54 124.397 921.216L122.579 922.049ZM126.665 925.894C128.44 926.533 130.648 926.832 133.254 926.832V924.832C130.781 924.832 128.823 924.545 127.343 924.012L126.665 925.894ZM133.254 926.832C135.098 926.832 136.696 926.766 138.041 926.632L137.842 924.642C136.583 924.768 135.055 924.832 133.254 924.832V926.832ZM138.041 926.632C139.364 926.499 140.593 926.334 141.728 926.133L141.381 924.164C140.302 924.354 139.123 924.514 137.842 924.642L138.041 926.632ZM140.555 925.148V947.219H142.555V925.148H140.555ZM141.246 946.268C138.696 947.096 135.981 947.736 133.1 948.184L133.408 950.16C136.386 949.697 139.205 949.034 141.864 948.17L141.246 946.268ZM133.079 948.187C130.215 948.696 127.084 948.953 123.684 948.953V950.953C127.184 950.953 130.433 950.689 133.429 950.156L133.079 948.187ZM123.684 948.953C117.215 948.953 111.663 947.896 107.001 945.817L106.186 947.644C111.16 949.862 117.001 950.953 123.684 950.953V948.953ZM107.006 945.819C102.453 943.761 98.9688 940.528 96.5327 936.093L94.7798 937.056C97.4218 941.866 101.23 945.403 106.182 947.642L107.006 945.819ZM96.5355 936.098C94.1013 931.604 92.8477 925.697 92.8477 918.312H90.8477C90.8477 925.902 92.1331 932.17 94.777 937.051L96.5355 936.098ZM92.8477 918.312V816.164H90.8477V918.312H92.8477Z" fill="black" fill-opacity="0.05"/>
</g>
<defs>
<filter id="filter0_bd_74_1113" x="55.9141" y="-0.617188" width="109.074" height="958.57" filterUnits="userSpaceOnUse" color-interpolation-filters="sRGB">
<feFlood flood-opacity="0" result="BackgroundImageFix"/>
<feGaussianBlur in="BackgroundImage" stdDeviation="0.5"/>
<feComposite in2="SourceAlpha" operator="in" result="effect1_backgroundBlur_74_1113"/>
<feColorMatrix in="SourceAlpha" type="matrix" values="0 0 0 0 0 0 0 0 0 0 0 0 0 0 0 0 0 0 127 0" result="hardAlpha"/>
<feOffset dy="4"/>
<feGaussianBlur stdDeviation="2"/>
<feComposite in2="hardAlpha" operator="out"/>
<feColorMatrix type="matrix" values="0 0 0 0 0 0 0 0 0 0 0 0 0 0 0 0 0 0 0.25 0"/>
<feBlend mode="normal" in2="effect1_backgroundBlur_74_1113" result="effect2_dropShadow_74_1113"/>
<feBlend mode="normal" in="SourceGraphic" in2="effect2_dropShadow_74_1113" result="shape"/>
</filter>
<filter id="filter1_bd_74_1113" x="55.9141" y="-0.617188" width="109.074" height="958.57" filterUnits="userSpaceOnUse" color-interpolation-filters="sRGB">
<feFlood flood-opacity="0" result="BackgroundImageFix"/>
<feGaussianBlur in="BackgroundImage" stdDeviation="0.5"/>
<feComposite in2="SourceAlpha" operator="in" result="effect1_backgroundBlur_74_1113"/>
<feColorMatrix in="SourceAlpha" type="matrix" values="0 0 0 0 0 0 0 0 0 0 0 0 0 0 0 0 0 0 127 0" result="hardAlpha"/>
<feOffset dy="4"/>
<feGaussianBlur stdDeviation="2"/>
<feComposite in2="hardAlpha" operator="out"/>
<feColorMatrix type="matrix" values="0 0 0 0 0 0 0 0 0 0 0 0 0 0 0 0 0 0 0.25 0"/>
<feBlend mode="normal" in2="effect1_backgroundBlur_74_1113" result="effect2_dropShadow_74_1113"/>
<feBlend mode="normal" in="SourceGraphic" in2="effect2_dropShadow_74_1113" result="shape"/>
</filter>
</defs>
</svg>
