<svg width="883" height="375" viewBox="0 0 883 375" fill="none" xmlns="http://www.w3.org/2000/svg">
<g opacity="0.5" filter="url(#filter0_bd_63_1111)">
<path d="M196.578 207.75C196.578 204.137 196.041 200.914 194.967 198.082C193.893 195.152 191.939 192.467 189.107 190.025C186.275 187.584 182.271 185.143 177.096 182.701C171.92 180.162 165.133 177.574 156.734 174.938C147.164 171.812 138.033 168.297 129.342 164.391C120.748 160.387 113.082 155.748 106.344 150.475C99.6055 145.201 94.2832 139.049 90.377 132.018C86.5684 124.986 84.6641 116.783 84.6641 107.408C84.6641 98.3262 86.666 90.123 90.6699 82.7988C94.6738 75.4746 100.289 69.2246 107.516 64.0488C114.742 58.7754 123.238 54.7715 133.004 52.0371C142.77 49.2051 153.512 47.7891 165.23 47.7891C180.855 47.7891 194.576 50.5723 206.393 56.1387C218.307 61.6074 227.584 69.3223 234.225 79.2832C240.865 89.1465 244.186 100.621 244.186 113.707H196.725C196.725 107.945 195.504 102.867 193.062 98.4727C190.719 93.9805 187.105 90.4648 182.223 87.9258C177.438 85.3867 171.432 84.1172 164.205 84.1172C157.174 84.1172 151.266 85.1914 146.48 87.3398C141.793 89.3906 138.229 92.2227 135.787 95.8359C133.443 99.4492 132.271 103.404 132.271 107.701C132.271 111.119 133.15 114.244 134.908 117.076C136.764 119.811 139.4 122.398 142.818 124.84C146.334 127.184 150.631 129.43 155.709 131.578C160.787 133.727 166.598 135.777 173.141 137.73C184.566 141.344 194.674 145.348 203.463 149.742C212.35 154.137 219.82 159.117 225.875 164.684C231.93 170.25 236.471 176.549 239.498 183.58C242.623 190.611 244.186 198.57 244.186 207.457C244.186 216.93 242.33 225.328 238.619 232.652C235.006 239.977 229.732 246.227 222.799 251.402C215.963 256.48 207.76 260.338 198.189 262.975C188.619 265.611 177.926 266.93 166.109 266.93C155.367 266.93 144.771 265.562 134.322 262.828C123.873 259.996 114.4 255.699 105.904 249.938C97.5059 244.176 90.7676 236.852 85.6895 227.965C80.709 218.98 78.2188 208.336 78.2188 196.031H125.973C125.973 202.477 126.9 207.945 128.756 212.438C130.611 216.832 133.248 220.396 136.666 223.131C140.182 225.865 144.43 227.818 149.41 228.99C154.391 230.162 159.957 230.748 166.109 230.748C173.238 230.748 179 229.771 183.395 227.818C187.887 225.768 191.207 222.984 193.355 219.469C195.504 215.953 196.578 212.047 196.578 207.75ZM315.963 38.8535V264H270.113V38.8535H315.963ZM416.598 105.504L347.604 185.191L311.129 221.812L292.818 190.904L322.408 152.672L361.52 105.504H416.598ZM368.258 264L323.58 191.197L356.393 165.562L420.699 264H368.258ZM480.465 105.504V264H434.615V105.504H480.465ZM431.832 64.4883C431.832 57.8477 434.176 52.4277 438.863 48.2285C443.551 43.9316 449.703 41.7832 457.32 41.7832C464.938 41.7832 471.09 43.9316 475.777 48.2285C480.562 52.4277 482.955 57.8477 482.955 64.4883C482.955 71.0313 480.562 76.4512 475.777 80.748C471.09 84.9473 464.938 87.0469 457.32 87.0469C449.703 87.0469 443.551 84.9473 438.863 80.748C434.176 76.4512 431.832 71.0313 431.832 64.4883ZM561.617 39V264H515.768V39H561.617ZM642.77 39V264H596.92V39H642.77ZM760.104 219.908C760.104 216.979 759.176 214.391 757.32 212.145C755.562 209.898 752.34 207.848 747.652 205.992C743.062 204.137 736.568 202.281 728.17 200.426C720.26 198.766 712.887 196.617 706.051 193.98C699.215 191.246 693.258 187.975 688.18 184.166C683.102 180.26 679.146 175.67 676.314 170.396C673.482 165.025 672.066 158.922 672.066 152.086C672.066 145.445 673.482 139.146 676.314 133.189C679.244 127.232 683.443 121.959 688.912 117.369C694.479 112.779 701.217 109.166 709.127 106.529C717.135 103.893 726.217 102.574 736.373 102.574C750.338 102.574 762.398 104.771 772.555 109.166C782.711 113.463 790.523 119.518 795.992 127.33C801.461 135.045 804.195 143.883 804.195 153.844H758.492C758.492 149.742 757.711 146.178 756.148 143.15C754.586 140.123 752.193 137.779 748.971 136.119C745.748 134.361 741.5 133.482 736.227 133.482C732.125 133.482 728.512 134.215 725.387 135.68C722.359 137.047 719.967 138.951 718.209 141.393C716.549 143.834 715.719 146.666 715.719 149.889C715.719 152.135 716.207 154.186 717.184 156.041C718.258 157.799 719.869 159.459 722.018 161.021C724.264 162.486 727.145 163.805 730.66 164.977C734.273 166.148 738.668 167.271 743.844 168.346C754.879 170.396 764.938 173.277 774.02 176.988C783.199 180.699 790.523 185.826 795.992 192.369C801.559 198.912 804.342 207.555 804.342 218.297C804.342 225.328 802.73 231.773 799.508 237.633C796.383 243.492 791.842 248.619 785.885 253.014C779.928 257.408 772.799 260.826 764.498 263.268C756.197 265.709 746.822 266.93 736.373 266.93C721.432 266.93 708.785 264.244 698.434 258.873C688.082 253.502 680.27 246.764 674.996 238.658C669.82 230.455 667.232 222.057 667.232 213.463H710.152C710.348 218.736 711.666 223.033 714.107 226.354C716.646 229.674 719.918 232.115 723.922 233.678C727.926 235.143 732.418 235.875 737.398 235.875C742.379 235.875 746.529 235.191 749.85 233.824C753.17 232.457 755.709 230.602 757.467 228.258C759.225 225.816 760.104 223.033 760.104 219.908Z" fill="#FF7F50" fill-opacity="0.6" shape-rendering="crispEdges"/>
<path d="M194.967 198.082L194.028 198.426L194.032 198.437L194.967 198.082ZM177.096 182.701L176.655 183.599L176.662 183.602L176.669 183.606L177.096 182.701ZM156.734 174.938L156.424 175.888L156.435 175.892L156.734 174.938ZM129.342 164.391L128.919 165.297L128.932 165.303L129.342 164.391ZM90.377 132.018L89.4976 132.494L89.5028 132.503L90.377 132.018ZM107.516 64.0488L108.098 64.8619L108.105 64.8566L107.516 64.0488ZM133.004 52.0371L133.274 53.0001L133.282 52.9975L133.004 52.0371ZM206.393 56.1387L205.966 57.0434L205.975 57.0475L206.393 56.1387ZM234.225 79.2832L233.393 79.8379L233.395 79.8417L234.225 79.2832ZM244.186 113.707V114.707H245.186V113.707H244.186ZM196.725 113.707H195.725V114.707H196.725V113.707ZM193.062 98.4727L192.176 98.9352L192.182 98.9468L192.188 98.9583L193.062 98.4727ZM182.223 87.9258L181.754 88.8092L181.761 88.813L182.223 87.9258ZM146.48 87.3398L146.881 88.256L146.89 88.2521L146.48 87.3398ZM135.787 95.8359L134.959 95.2761L134.953 95.2839L134.948 95.2917L135.787 95.8359ZM134.908 117.076L134.059 117.604L134.069 117.621L134.081 117.638L134.908 117.076ZM142.818 124.84L142.237 125.654L142.25 125.663L142.264 125.672L142.818 124.84ZM173.141 137.73L173.442 136.777L173.434 136.775L173.427 136.772L173.141 137.73ZM203.463 149.742L203.016 150.637L203.02 150.639L203.463 149.742ZM239.498 183.58L238.58 183.976L238.584 183.986L239.498 183.58ZM238.619 232.652L237.727 232.2L237.722 232.21L238.619 232.652ZM222.799 251.402L223.395 252.205L223.397 252.204L222.799 251.402ZM134.322 262.828L134.061 263.793L134.069 263.796L134.322 262.828ZM105.904 249.938L105.339 250.762L105.343 250.765L105.904 249.938ZM85.6895 227.965L84.8148 228.45L84.8212 228.461L85.6895 227.965ZM78.2188 196.031V195.031H77.2188V196.031H78.2188ZM125.973 196.031H126.973V195.031H125.973V196.031ZM128.756 212.438L127.832 212.819L127.835 212.826L128.756 212.438ZM136.666 223.131L136.041 223.912L136.052 223.92L136.666 223.131ZM183.395 227.818L183.801 228.732L183.81 228.728L183.395 227.818ZM197.578 207.75C197.578 204.038 197.026 200.692 195.902 197.727L194.032 198.437C195.056 201.136 195.578 204.235 195.578 207.75H197.578ZM195.906 197.738C194.762 194.619 192.696 191.799 189.76 189.268L188.454 190.783C191.183 193.135 193.023 195.685 194.028 198.426L195.906 197.738ZM189.76 189.268C186.834 186.745 182.741 184.259 177.522 181.797L176.669 183.606C181.802 186.027 185.717 188.423 188.454 190.783L189.76 189.268ZM177.536 181.803C172.298 179.234 165.458 176.628 157.034 173.983L156.435 175.892C164.807 178.52 171.542 181.091 176.655 183.599L177.536 181.803ZM157.045 173.987C147.506 170.872 138.409 167.369 129.752 163.479L128.932 165.303C137.657 169.224 146.822 172.753 156.424 175.888L157.045 173.987ZM129.764 163.484C121.232 159.509 113.632 154.909 106.96 149.687L105.727 151.262C112.532 156.587 120.264 161.264 128.919 165.297L129.764 163.484ZM106.96 149.687C100.32 144.491 95.0884 138.439 91.2511 131.532L89.5028 132.503C93.478 139.659 98.8907 145.912 105.727 151.262L106.96 149.687ZM91.2562 131.541C87.5395 124.68 85.6641 116.646 85.6641 107.408H83.6641C83.6641 116.921 85.5972 125.293 89.4977 132.494L91.2562 131.541ZM85.6641 107.408C85.6641 98.4787 87.6308 90.4429 91.5474 83.2785L89.7925 82.3192C85.7012 89.8032 83.6641 98.1737 83.6641 107.408H85.6641ZM91.5474 83.2785C95.4746 76.0946 100.985 69.9559 108.098 64.8618L106.933 63.2358C99.5927 68.4933 93.8731 74.8546 89.7925 82.3192L91.5474 83.2785ZM108.105 64.8566C115.223 59.6623 123.608 55.7065 133.274 53.0001L132.734 51.0741C122.869 53.8365 114.261 57.8884 106.926 63.241L108.105 64.8566ZM133.282 52.9975C142.945 50.1954 153.592 48.7891 165.23 48.7891V46.7891C153.432 46.7891 142.594 48.2148 132.725 51.0767L133.282 52.9975ZM165.23 48.7891C180.737 48.7891 194.307 51.5508 205.966 57.0433L206.819 55.234C194.845 49.5937 180.974 46.7891 165.23 46.7891V48.7891ZM205.975 57.0475C217.738 62.4465 226.864 70.0457 233.393 79.8379L235.057 78.7285C228.304 68.5989 218.876 60.7683 206.81 55.2298L205.975 57.0475ZM233.395 79.8417C239.913 89.5234 243.186 100.799 243.186 113.707H245.186C245.186 100.443 241.817 88.7695 235.054 78.7247L233.395 79.8417ZM244.186 112.707H196.725V114.707H244.186V112.707ZM197.725 113.707C197.725 107.8 196.472 102.551 193.937 97.987L192.188 98.9583C194.536 103.184 195.725 108.09 195.725 113.707H197.725ZM193.949 98.0101C191.502 93.3203 187.732 89.6637 182.684 87.0386L181.761 88.813C186.479 91.266 189.935 94.6406 192.176 98.9352L193.949 98.0101ZM182.691 87.0424C177.722 84.4055 171.543 83.1172 164.205 83.1172V85.1172C171.321 85.1172 177.153 86.368 181.754 88.8091L182.691 87.0424ZM164.205 83.1172C157.078 83.1172 151.021 84.2052 146.071 86.4276L146.89 88.2521C151.51 86.1776 157.269 85.1172 164.205 85.1172V83.1172ZM146.08 86.4237C141.249 88.537 137.523 91.4804 134.959 95.2761L136.616 96.3958C138.934 92.9649 142.337 90.2443 146.881 88.256L146.08 86.4237ZM134.948 95.2917C132.5 99.0667 131.271 103.211 131.271 107.701H133.271C133.271 103.598 134.387 99.8318 136.626 96.3801L134.948 95.2917ZM131.271 107.701C131.271 111.301 132.2 114.609 134.059 117.604L135.758 116.549C134.101 113.879 133.271 110.938 133.271 107.701H131.271ZM134.081 117.638C136.018 120.493 138.748 123.161 142.237 125.654L143.4 124.026C140.053 121.636 137.509 119.129 135.736 116.515L134.081 117.638ZM142.264 125.672C145.844 128.059 150.2 130.333 155.319 132.499L156.099 130.657C151.062 128.526 146.824 126.308 143.373 124.008L142.264 125.672ZM155.319 132.499C160.438 134.665 166.284 136.727 172.855 138.689L173.427 136.772C166.911 134.827 161.136 132.788 156.099 130.657L155.319 132.499ZM172.839 138.684C184.225 142.285 194.282 146.27 203.016 150.637L203.91 148.848C195.065 144.425 184.908 140.403 173.442 136.777L172.839 138.684ZM203.02 150.639C211.838 154.999 219.226 159.929 225.198 165.42L226.552 163.947C220.415 158.305 212.861 153.274 203.906 148.846L203.02 150.639ZM225.198 165.42C231.157 170.898 235.612 177.083 238.58 183.976L240.417 183.185C237.329 176.015 232.702 169.602 226.552 163.947L225.198 165.42ZM238.584 183.986C241.644 190.871 243.186 198.689 243.186 207.457H245.186C245.186 198.452 243.602 190.351 240.412 183.174L238.584 183.986ZM243.186 207.457C243.186 216.797 241.357 225.036 237.727 232.2L239.511 233.104C243.303 225.62 245.186 217.063 245.186 207.457H243.186ZM237.722 232.21C234.183 239.384 229.015 245.514 222.201 250.601L223.397 252.204C230.449 246.939 235.829 240.569 239.516 233.095L237.722 232.21ZM222.203 250.6C215.481 255.593 207.394 259.401 197.924 262.011L198.455 263.939C208.125 261.274 216.445 257.368 223.395 252.205L222.203 250.6ZM197.924 262.011C188.455 264.619 177.853 265.93 166.109 265.93V267.93C177.999 267.93 188.784 266.603 198.455 263.939L197.924 262.011ZM166.109 265.93C155.453 265.93 144.942 264.574 134.575 261.861L134.069 263.796C144.601 266.551 155.281 267.93 166.109 267.93V265.93ZM134.584 261.863C124.236 259.058 114.865 254.806 106.466 249.11L105.343 250.765C113.936 256.592 123.511 260.934 134.061 263.793L134.584 261.863ZM106.47 249.113C98.1965 243.437 91.5614 236.225 86.5577 227.469L84.8212 228.461C89.9737 237.478 96.8152 244.915 105.339 250.762L106.47 249.113ZM86.5641 227.48C81.6807 218.671 79.2188 208.2 79.2188 196.031H77.2188C77.2188 208.472 79.7373 219.29 84.8148 228.45L86.5641 227.48ZM78.2188 197.031H125.973V195.031H78.2188V197.031ZM124.973 196.031C124.973 202.567 125.913 208.174 127.832 212.819L129.68 212.056C127.888 207.717 126.973 202.386 126.973 196.031H124.973ZM127.835 212.826C129.749 217.36 132.482 221.064 136.041 223.912L137.291 222.35C134.014 219.729 131.474 216.304 129.677 212.049L127.835 212.826ZM136.052 223.92C139.697 226.755 144.081 228.764 149.181 229.964L149.639 228.017C144.778 226.873 140.666 224.975 137.28 222.342L136.052 223.92ZM149.181 229.964C154.25 231.156 159.895 231.748 166.109 231.748V229.748C160.019 229.748 154.531 229.168 149.639 228.017L149.181 229.964ZM166.109 231.748C173.317 231.748 179.232 230.763 183.801 228.732L182.988 226.905C178.768 228.78 173.16 229.748 166.109 229.748V231.748ZM183.81 228.728C188.447 226.611 191.937 223.707 194.209 219.99L192.502 218.947C190.477 222.261 187.327 224.924 182.979 226.909L183.81 228.728ZM194.209 219.99C196.457 216.311 197.578 212.223 197.578 207.75H195.578C195.578 211.871 194.55 215.596 192.502 218.947L194.209 219.99ZM315.963 38.8535H316.963V37.8535H315.963V38.8535ZM315.963 264V265H316.963V264H315.963ZM270.113 264H269.113V265H270.113V264ZM270.113 38.8535V37.8535H269.113V38.8535H270.113ZM416.598 105.504L417.354 106.158L418.786 104.504H416.598V105.504ZM347.604 185.191L348.312 185.897L348.337 185.872L348.36 185.846L347.604 185.191ZM311.129 221.812L310.269 222.322L310.926 223.433L311.837 222.518L311.129 221.812ZM292.818 190.904L292.028 190.292L291.612 190.829L291.958 191.414L292.818 190.904ZM322.408 152.672L321.638 152.034L321.628 152.047L321.617 152.06L322.408 152.672ZM361.52 105.504V104.504H361.05L360.75 104.866L361.52 105.504ZM368.258 264L367.406 264.523L367.698 265H368.258V264ZM323.58 191.197L322.964 190.409L322.261 190.959L322.728 191.72L323.58 191.197ZM356.393 165.562L357.23 165.016L356.635 164.104L355.777 164.774L356.393 165.562ZM420.699 264V265H422.547L421.536 263.453L420.699 264ZM314.963 38.8535V264H316.963V38.8535H314.963ZM315.963 263H270.113V265H315.963V263ZM271.113 264V38.8535H269.113V264H271.113ZM270.113 39.8535H315.963V37.8535H270.113V39.8535ZM415.842 104.849L346.848 184.537L348.36 185.846L417.354 106.158L415.842 104.849ZM346.895 184.486L310.42 221.107L311.837 222.518L348.312 185.897L346.895 184.486ZM311.989 221.303L293.679 190.395L291.958 191.414L310.269 222.322L311.989 221.303ZM293.609 191.516L323.199 153.284L321.617 152.06L292.028 190.292L293.609 191.516ZM323.178 153.31L362.289 106.142L360.75 104.866L321.638 152.034L323.178 153.31ZM361.52 106.504H416.598V104.504H361.52V106.504ZM369.11 263.477L324.432 190.674L322.728 191.72L367.406 264.523L369.11 263.477ZM324.196 191.985L357.008 166.351L355.777 164.774L322.964 190.409L324.196 191.985ZM355.555 166.109L419.862 264.547L421.536 263.453L357.23 165.016L355.555 166.109ZM420.699 263H368.258V265H420.699V263ZM480.465 105.504H481.465V104.504H480.465V105.504ZM480.465 264V265H481.465V264H480.465ZM434.615 264H433.615V265H434.615V264ZM434.615 105.504V104.504H433.615V105.504H434.615ZM438.863 48.2285L439.531 48.9734L439.539 48.9657L438.863 48.2285ZM475.777 48.2285L475.102 48.9657L475.11 48.973L475.118 48.9801L475.777 48.2285ZM475.777 80.748L476.445 81.4929L476.445 81.4921L475.777 80.748ZM438.863 80.748L438.188 81.4852L438.196 81.4929L438.863 80.748ZM479.465 105.504V264H481.465V105.504H479.465ZM480.465 263H434.615V265H480.465V263ZM435.615 264V105.504H433.615V264H435.615ZM434.615 106.504H480.465V104.504H434.615V106.504ZM432.832 64.4883C432.832 58.1142 435.068 52.9713 439.531 48.9734L438.196 47.4837C433.284 51.8841 430.832 57.5811 430.832 64.4883H432.832ZM439.539 48.9657C444.007 44.8702 449.901 42.7832 457.32 42.7832V40.7832C449.505 40.7832 443.095 42.9931 438.188 47.4914L439.539 48.9657ZM457.32 42.7832C464.74 42.7832 470.634 44.8702 475.102 48.9657L476.453 47.4914C471.546 42.9931 465.135 40.7832 457.32 40.7832V42.7832ZM475.118 48.9801C479.676 52.9804 481.955 58.1214 481.955 64.4883H483.955C483.955 57.5739 481.449 51.8751 476.437 47.4769L475.118 48.9801ZM481.955 64.4883C481.955 70.753 479.679 75.9005 475.109 80.004L476.445 81.4921C481.446 77.0018 483.955 71.3095 483.955 64.4883H481.955ZM475.11 80.0032C470.643 84.0051 464.746 86.0469 457.32 86.0469V88.0469C465.129 88.0469 471.537 85.8894 476.445 81.4929L475.11 80.0032ZM457.32 86.0469C449.895 86.0469 443.998 84.0051 439.531 80.0032L438.196 81.4929C443.104 85.8894 449.511 88.0469 457.32 88.0469V86.0469ZM439.539 80.0109C435.065 75.9096 432.832 70.7601 432.832 64.4883H430.832C430.832 71.3024 433.287 76.9928 438.188 81.4852L439.539 80.0109ZM561.617 39H562.617V38H561.617V39ZM561.617 264V265H562.617V264H561.617ZM515.768 264H514.768V265H515.768V264ZM515.768 39V38H514.768V39H515.768ZM560.617 39V264H562.617V39H560.617ZM561.617 263H515.768V265H561.617V263ZM516.768 264V39H514.768V264H516.768ZM515.768 40H561.617V38H515.768V40ZM642.77 39H643.77V38H642.77V39ZM642.77 264V265H643.77V264H642.77ZM596.92 264H595.92V265H596.92V264ZM596.92 39V38H595.92V39H596.92ZM641.77 39V264H643.77V39H641.77ZM642.77 263H596.92V265H642.77V263ZM597.92 264V39H595.92V264H597.92ZM596.92 40H642.77V38H596.92V40ZM757.32 212.145L756.533 212.761L756.541 212.771L756.549 212.781L757.32 212.145ZM747.652 205.992L747.278 206.919L747.284 206.922L747.652 205.992ZM728.17 200.426L728.386 199.449L728.375 199.447L728.17 200.426ZM706.051 193.98L705.679 194.909L705.691 194.913L706.051 193.98ZM688.18 184.166L687.57 184.959L687.58 184.966L688.18 184.166ZM676.314 170.396L675.43 170.863L675.433 170.87L676.314 170.396ZM676.314 133.189L675.417 132.748L675.411 132.76L676.314 133.189ZM688.912 117.369L688.276 116.598L688.269 116.603L688.912 117.369ZM709.127 106.529L708.814 105.579L708.811 105.581L709.127 106.529ZM772.555 109.166L772.158 110.084L772.165 110.087L772.555 109.166ZM795.992 127.33L795.173 127.904L795.176 127.908L795.992 127.33ZM804.195 153.844V154.844H805.195V153.844H804.195ZM758.492 153.844H757.492V154.844H758.492V153.844ZM748.971 136.119L748.492 136.997L748.502 137.003L748.513 137.008L748.971 136.119ZM725.387 135.68L725.798 136.591L725.811 136.585L725.387 135.68ZM718.209 141.393L717.397 140.808L717.39 140.819L717.382 140.83L718.209 141.393ZM717.184 156.041L716.299 156.507L716.314 156.535L716.33 156.562L717.184 156.041ZM722.018 161.021L721.429 161.83L721.45 161.845L721.471 161.859L722.018 161.021ZM730.66 164.977L730.344 165.925L730.352 165.928L730.66 164.977ZM743.844 168.346L743.641 169.325L743.651 169.327L743.661 169.329L743.844 168.346ZM774.02 176.988L773.641 177.914L773.645 177.915L774.02 176.988ZM795.992 192.369L795.225 193.01L795.231 193.017L795.992 192.369ZM799.508 237.633L798.632 237.151L798.625 237.162L799.508 237.633ZM674.996 238.658L674.15 239.192L674.158 239.204L674.996 238.658ZM667.232 213.463V212.463H666.232V213.463H667.232ZM710.152 213.463L711.152 213.426L711.116 212.463H710.152V213.463ZM714.107 226.354L713.302 226.946L713.307 226.953L713.313 226.961L714.107 226.354ZM723.922 233.678L723.558 234.609L723.568 234.613L723.578 234.617L723.922 233.678ZM757.467 228.258L758.267 228.858L758.273 228.85L758.278 228.842L757.467 228.258ZM761.104 219.908C761.104 216.747 760.096 213.934 758.091 211.508L756.549 212.781C758.256 214.847 759.104 217.21 759.104 219.908H761.104ZM758.108 211.528C756.185 209.072 752.763 206.94 748.02 205.062L747.284 206.922C751.916 208.756 754.94 210.725 756.533 212.761L758.108 211.528ZM748.027 205.065C743.362 203.179 736.805 201.309 728.386 199.449L727.954 201.402C736.332 203.253 742.763 205.094 747.278 206.919L748.027 205.065ZM728.375 199.447C720.512 197.797 713.192 195.663 706.411 193.047L705.691 194.913C712.582 197.571 720.007 199.734 727.965 201.404L728.375 199.447ZM706.422 193.052C699.655 190.345 693.777 187.114 688.78 183.366L687.58 184.966C692.738 188.835 698.775 192.147 705.679 194.909L706.422 193.052ZM688.789 183.373C683.815 179.547 679.956 175.064 677.195 169.923L675.433 170.87C678.337 176.276 682.388 180.972 687.57 184.959L688.789 183.373ZM677.199 169.93C674.452 164.72 673.066 158.78 673.066 152.086H671.066C671.066 159.064 672.513 165.331 675.43 170.863L677.199 169.93ZM673.066 152.086C673.066 145.593 674.45 139.441 677.218 133.619L675.411 132.76C672.515 138.852 671.066 145.298 671.066 152.086H673.066ZM677.212 133.631C680.076 127.808 684.185 122.642 689.555 118.135L688.269 116.603C682.702 121.276 678.413 126.657 675.417 132.748L677.212 133.631ZM689.548 118.141C695.006 113.64 701.632 110.082 709.443 107.478L708.811 105.581C700.802 108.25 693.951 111.918 688.276 116.598L689.548 118.141ZM709.44 107.479C717.328 104.882 726.302 103.574 736.373 103.574V101.574C726.132 101.574 716.941 102.904 708.814 105.579L709.44 107.479ZM736.373 103.574C750.236 103.574 762.155 105.756 772.158 110.084L772.952 108.248C762.642 103.787 750.44 101.574 736.373 101.574V103.574ZM772.165 110.087C782.176 114.322 789.828 120.268 795.173 127.904L796.811 126.757C791.219 118.767 783.246 112.603 772.944 108.245L772.165 110.087ZM795.176 127.908C800.519 135.445 803.195 144.078 803.195 153.844H805.195C805.195 143.687 802.403 134.645 796.808 126.752L795.176 127.908ZM804.195 152.844H758.492V154.844H804.195V152.844ZM759.492 153.844C759.492 149.615 758.686 145.887 757.037 142.692L755.26 143.609C756.736 146.468 757.492 149.87 757.492 153.844H759.492ZM757.037 142.692C755.373 139.468 752.824 136.979 749.429 135.23L748.513 137.008C751.563 138.58 753.799 140.779 755.26 143.609L757.037 142.692ZM749.45 135.241C746.03 133.376 741.599 132.482 736.227 132.482V134.482C741.401 134.482 745.466 135.347 748.492 136.997L749.45 135.241ZM736.227 132.482C732.006 132.482 728.243 133.236 724.962 134.774L725.811 136.585C728.781 135.193 732.244 134.482 736.227 134.482V132.482ZM724.975 134.768C721.805 136.2 719.268 138.21 717.397 140.808L719.021 141.977C720.666 139.692 722.914 137.894 725.798 136.591L724.975 134.768ZM717.382 140.83C715.599 143.453 714.719 146.485 714.719 149.889H716.719C716.719 146.847 717.499 144.215 719.036 141.955L717.382 140.83ZM714.719 149.889C714.719 152.285 715.241 154.498 716.299 156.507L718.069 155.575C717.173 153.874 716.719 151.984 716.719 149.889H714.719ZM716.33 156.562C717.49 158.46 719.204 160.212 721.429 161.83L722.606 160.213C720.534 158.706 719.026 157.138 718.037 155.52L716.33 156.562ZM721.471 161.859C723.81 163.385 726.776 164.736 730.344 165.925L730.976 164.028C727.513 162.874 724.717 161.588 722.564 160.184L721.471 161.859ZM730.352 165.928C734.01 167.114 738.442 168.246 743.641 169.325L744.047 167.367C738.894 166.297 734.537 165.183 730.969 164.025L730.352 165.928ZM743.661 169.329C754.639 171.369 764.631 174.232 773.641 177.914L774.398 176.063C765.244 172.323 755.119 169.424 744.026 167.363L743.661 169.329ZM773.645 177.915C782.697 181.575 789.877 186.612 795.225 193.01L796.759 191.728C791.17 185.04 783.702 179.824 774.394 176.061L773.645 177.915ZM795.231 193.017C800.608 199.337 803.342 207.731 803.342 218.297H805.342C805.342 207.379 802.51 198.487 796.754 191.721L795.231 193.017ZM803.342 218.297C803.342 225.169 801.769 231.447 798.632 237.151L800.384 238.115C803.692 232.1 805.342 225.488 805.342 218.297H803.342ZM798.625 237.162C795.578 242.876 791.142 247.893 785.291 252.209L786.478 253.818C792.541 249.346 797.187 244.109 800.39 238.103L798.625 237.162ZM785.291 252.209C779.442 256.524 772.423 259.894 764.216 262.308L764.78 264.227C773.175 261.758 780.413 258.293 786.478 253.818L785.291 252.209ZM764.216 262.308C756.023 264.718 746.746 265.93 736.373 265.93V267.93C746.899 267.93 756.371 266.7 764.78 264.227L764.216 262.308ZM736.373 265.93C721.548 265.93 709.069 263.265 698.894 257.985L697.973 259.761C708.501 265.223 721.315 267.93 736.373 267.93V265.93ZM698.894 257.985C688.664 252.678 680.996 246.046 675.834 238.113L674.158 239.204C679.543 247.481 687.5 254.326 697.973 259.761L698.894 257.985ZM675.842 238.125C670.753 230.06 668.232 221.844 668.232 213.463H666.232C666.232 222.269 668.887 230.85 674.15 239.192L675.842 238.125ZM667.232 214.463H710.152V212.463H667.232V214.463ZM709.153 213.5C709.354 218.918 710.712 223.424 713.302 226.946L714.913 225.761C712.62 222.642 711.342 218.555 711.152 213.426L709.153 213.5ZM713.313 226.961C715.967 230.431 719.389 232.982 723.558 234.609L724.285 232.746C720.447 231.248 717.326 228.917 714.902 225.746L713.313 226.961ZM723.578 234.617C727.709 236.128 732.32 236.875 737.398 236.875V234.875C732.516 234.875 728.142 234.157 724.265 232.739L723.578 234.617ZM737.398 236.875C742.462 236.875 746.752 236.181 750.23 234.749L749.469 232.9C746.306 234.202 742.295 234.875 737.398 234.875V236.875ZM750.23 234.749C753.68 233.329 756.379 231.375 758.267 228.858L756.667 227.658C755.039 229.828 752.66 231.585 749.469 232.9L750.23 234.749ZM758.278 228.842C760.164 226.224 761.104 223.234 761.104 219.908H759.104C759.104 222.832 758.286 225.409 756.655 227.674L758.278 228.842Z" fill="black" fill-opacity="0.05"/>
</g>
<g opacity="0.5" filter="url(#filter1_bd_63_1111)">
<path d="M196.578 207.75C196.578 204.137 196.041 200.914 194.967 198.082C193.893 195.152 191.939 192.467 189.107 190.025C186.275 187.584 182.271 185.143 177.096 182.701C171.92 180.162 165.133 177.574 156.734 174.938C147.164 171.812 138.033 168.297 129.342 164.391C120.748 160.387 113.082 155.748 106.344 150.475C99.6055 145.201 94.2832 139.049 90.377 132.018C86.5684 124.986 84.6641 116.783 84.6641 107.408C84.6641 98.3262 86.666 90.123 90.6699 82.7988C94.6738 75.4746 100.289 69.2246 107.516 64.0488C114.742 58.7754 123.238 54.7715 133.004 52.0371C142.77 49.2051 153.512 47.7891 165.23 47.7891C180.855 47.7891 194.576 50.5723 206.393 56.1387C218.307 61.6074 227.584 69.3223 234.225 79.2832C240.865 89.1465 244.186 100.621 244.186 113.707H196.725C196.725 107.945 195.504 102.867 193.062 98.4727C190.719 93.9805 187.105 90.4648 182.223 87.9258C177.438 85.3867 171.432 84.1172 164.205 84.1172C157.174 84.1172 151.266 85.1914 146.48 87.3398C141.793 89.3906 138.229 92.2227 135.787 95.8359C133.443 99.4492 132.271 103.404 132.271 107.701C132.271 111.119 133.15 114.244 134.908 117.076C136.764 119.811 139.4 122.398 142.818 124.84C146.334 127.184 150.631 129.43 155.709 131.578C160.787 133.727 166.598 135.777 173.141 137.73C184.566 141.344 194.674 145.348 203.463 149.742C212.35 154.137 219.82 159.117 225.875 164.684C231.93 170.25 236.471 176.549 239.498 183.58C242.623 190.611 244.186 198.57 244.186 207.457C244.186 216.93 242.33 225.328 238.619 232.652C235.006 239.977 229.732 246.227 222.799 251.402C215.963 256.48 207.76 260.338 198.189 262.975C188.619 265.611 177.926 266.93 166.109 266.93C155.367 266.93 144.771 265.562 134.322 262.828C123.873 259.996 114.4 255.699 105.904 249.938C97.5059 244.176 90.7676 236.852 85.6895 227.965C80.709 218.98 78.2188 208.336 78.2188 196.031H125.973C125.973 202.477 126.9 207.945 128.756 212.438C130.611 216.832 133.248 220.396 136.666 223.131C140.182 225.865 144.43 227.818 149.41 228.99C154.391 230.162 159.957 230.748 166.109 230.748C173.238 230.748 179 229.771 183.395 227.818C187.887 225.768 191.207 222.984 193.355 219.469C195.504 215.953 196.578 212.047 196.578 207.75ZM315.963 38.8535V264H270.113V38.8535H315.963ZM416.598 105.504L347.604 185.191L311.129 221.812L292.818 190.904L322.408 152.672L361.52 105.504H416.598ZM368.258 264L323.58 191.197L356.393 165.562L420.699 264H368.258ZM480.465 105.504V264H434.615V105.504H480.465ZM431.832 64.4883C431.832 57.8477 434.176 52.4277 438.863 48.2285C443.551 43.9316 449.703 41.7832 457.32 41.7832C464.938 41.7832 471.09 43.9316 475.777 48.2285C480.562 52.4277 482.955 57.8477 482.955 64.4883C482.955 71.0313 480.562 76.4512 475.777 80.748C471.09 84.9473 464.938 87.0469 457.32 87.0469C449.703 87.0469 443.551 84.9473 438.863 80.748C434.176 76.4512 431.832 71.0313 431.832 64.4883ZM561.617 39V264H515.768V39H561.617ZM642.77 39V264H596.92V39H642.77ZM760.104 219.908C760.104 216.979 759.176 214.391 757.32 212.145C755.562 209.898 752.34 207.848 747.652 205.992C743.062 204.137 736.568 202.281 728.17 200.426C720.26 198.766 712.887 196.617 706.051 193.98C699.215 191.246 693.258 187.975 688.18 184.166C683.102 180.26 679.146 175.67 676.314 170.396C673.482 165.025 672.066 158.922 672.066 152.086C672.066 145.445 673.482 139.146 676.314 133.189C679.244 127.232 683.443 121.959 688.912 117.369C694.479 112.779 701.217 109.166 709.127 106.529C717.135 103.893 726.217 102.574 736.373 102.574C750.338 102.574 762.398 104.771 772.555 109.166C782.711 113.463 790.523 119.518 795.992 127.33C801.461 135.045 804.195 143.883 804.195 153.844H758.492C758.492 149.742 757.711 146.178 756.148 143.15C754.586 140.123 752.193 137.779 748.971 136.119C745.748 134.361 741.5 133.482 736.227 133.482C732.125 133.482 728.512 134.215 725.387 135.68C722.359 137.047 719.967 138.951 718.209 141.393C716.549 143.834 715.719 146.666 715.719 149.889C715.719 152.135 716.207 154.186 717.184 156.041C718.258 157.799 719.869 159.459 722.018 161.021C724.264 162.486 727.145 163.805 730.66 164.977C734.273 166.148 738.668 167.271 743.844 168.346C754.879 170.396 764.938 173.277 774.02 176.988C783.199 180.699 790.523 185.826 795.992 192.369C801.559 198.912 804.342 207.555 804.342 218.297C804.342 225.328 802.73 231.773 799.508 237.633C796.383 243.492 791.842 248.619 785.885 253.014C779.928 257.408 772.799 260.826 764.498 263.268C756.197 265.709 746.822 266.93 736.373 266.93C721.432 266.93 708.785 264.244 698.434 258.873C688.082 253.502 680.27 246.764 674.996 238.658C669.82 230.455 667.232 222.057 667.232 213.463H710.152C710.348 218.736 711.666 223.033 714.107 226.354C716.646 229.674 719.918 232.115 723.922 233.678C727.926 235.143 732.418 235.875 737.398 235.875C742.379 235.875 746.529 235.191 749.85 233.824C753.17 232.457 755.709 230.602 757.467 228.258C759.225 225.816 760.104 223.033 760.104 219.908Z" fill="#FF7F50" fill-opacity="0.6" shape-rendering="crispEdges"/>
<path d="M194.967 198.082L194.028 198.426L194.032 198.437L194.967 198.082ZM177.096 182.701L176.655 183.599L176.662 183.602L176.669 183.606L177.096 182.701ZM156.734 174.938L156.424 175.888L156.435 175.892L156.734 174.938ZM129.342 164.391L128.919 165.297L128.932 165.303L129.342 164.391ZM90.377 132.018L89.4976 132.494L89.5028 132.503L90.377 132.018ZM107.516 64.0488L108.098 64.8619L108.105 64.8566L107.516 64.0488ZM133.004 52.0371L133.274 53.0001L133.282 52.9975L133.004 52.0371ZM206.393 56.1387L205.966 57.0434L205.975 57.0475L206.393 56.1387ZM234.225 79.2832L233.393 79.8379L233.395 79.8417L234.225 79.2832ZM244.186 113.707V114.707H245.186V113.707H244.186ZM196.725 113.707H195.725V114.707H196.725V113.707ZM193.062 98.4727L192.176 98.9352L192.182 98.9468L192.188 98.9583L193.062 98.4727ZM182.223 87.9258L181.754 88.8092L181.761 88.813L182.223 87.9258ZM146.48 87.3398L146.881 88.256L146.89 88.2521L146.48 87.3398ZM135.787 95.8359L134.959 95.2761L134.953 95.2839L134.948 95.2917L135.787 95.8359ZM134.908 117.076L134.059 117.604L134.069 117.621L134.081 117.638L134.908 117.076ZM142.818 124.84L142.237 125.654L142.25 125.663L142.264 125.672L142.818 124.84ZM173.141 137.73L173.442 136.777L173.434 136.775L173.427 136.772L173.141 137.73ZM203.463 149.742L203.016 150.637L203.02 150.639L203.463 149.742ZM239.498 183.58L238.58 183.976L238.584 183.986L239.498 183.58ZM238.619 232.652L237.727 232.2L237.722 232.21L238.619 232.652ZM222.799 251.402L223.395 252.205L223.397 252.204L222.799 251.402ZM134.322 262.828L134.061 263.793L134.069 263.796L134.322 262.828ZM105.904 249.938L105.339 250.762L105.343 250.765L105.904 249.938ZM85.6895 227.965L84.8148 228.45L84.8212 228.461L85.6895 227.965ZM78.2188 196.031V195.031H77.2188V196.031H78.2188ZM125.973 196.031H126.973V195.031H125.973V196.031ZM128.756 212.438L127.832 212.819L127.835 212.826L128.756 212.438ZM136.666 223.131L136.041 223.912L136.052 223.92L136.666 223.131ZM183.395 227.818L183.801 228.732L183.81 228.728L183.395 227.818ZM197.578 207.75C197.578 204.038 197.026 200.692 195.902 197.727L194.032 198.437C195.056 201.136 195.578 204.235 195.578 207.75H197.578ZM195.906 197.738C194.762 194.619 192.696 191.799 189.76 189.268L188.454 190.783C191.183 193.135 193.023 195.685 194.028 198.426L195.906 197.738ZM189.76 189.268C186.834 186.745 182.741 184.259 177.522 181.797L176.669 183.606C181.802 186.027 185.717 188.423 188.454 190.783L189.76 189.268ZM177.536 181.803C172.298 179.234 165.458 176.628 157.034 173.983L156.435 175.892C164.807 178.52 171.542 181.091 176.655 183.599L177.536 181.803ZM157.045 173.987C147.506 170.872 138.409 167.369 129.752 163.479L128.932 165.303C137.657 169.224 146.822 172.753 156.424 175.888L157.045 173.987ZM129.764 163.484C121.232 159.509 113.632 154.909 106.96 149.687L105.727 151.262C112.532 156.587 120.264 161.264 128.919 165.297L129.764 163.484ZM106.96 149.687C100.32 144.491 95.0884 138.439 91.2511 131.532L89.5028 132.503C93.478 139.659 98.8907 145.912 105.727 151.262L106.96 149.687ZM91.2562 131.541C87.5395 124.68 85.6641 116.646 85.6641 107.408H83.6641C83.6641 116.921 85.5972 125.293 89.4977 132.494L91.2562 131.541ZM85.6641 107.408C85.6641 98.4787 87.6308 90.4429 91.5474 83.2785L89.7925 82.3192C85.7012 89.8032 83.6641 98.1737 83.6641 107.408H85.6641ZM91.5474 83.2785C95.4746 76.0946 100.985 69.9559 108.098 64.8618L106.933 63.2358C99.5927 68.4933 93.8731 74.8546 89.7925 82.3192L91.5474 83.2785ZM108.105 64.8566C115.223 59.6623 123.608 55.7065 133.274 53.0001L132.734 51.0741C122.869 53.8365 114.261 57.8884 106.926 63.241L108.105 64.8566ZM133.282 52.9975C142.945 50.1954 153.592 48.7891 165.23 48.7891V46.7891C153.432 46.7891 142.594 48.2148 132.725 51.0767L133.282 52.9975ZM165.23 48.7891C180.737 48.7891 194.307 51.5508 205.966 57.0433L206.819 55.234C194.845 49.5937 180.974 46.7891 165.23 46.7891V48.7891ZM205.975 57.0475C217.738 62.4465 226.864 70.0457 233.393 79.8379L235.057 78.7285C228.304 68.5989 218.876 60.7683 206.81 55.2298L205.975 57.0475ZM233.395 79.8417C239.913 89.5234 243.186 100.799 243.186 113.707H245.186C245.186 100.443 241.817 88.7695 235.054 78.7247L233.395 79.8417ZM244.186 112.707H196.725V114.707H244.186V112.707ZM197.725 113.707C197.725 107.8 196.472 102.551 193.937 97.987L192.188 98.9583C194.536 103.184 195.725 108.09 195.725 113.707H197.725ZM193.949 98.0101C191.502 93.3203 187.732 89.6637 182.684 87.0386L181.761 88.813C186.479 91.266 189.935 94.6406 192.176 98.9352L193.949 98.0101ZM182.691 87.0424C177.722 84.4055 171.543 83.1172 164.205 83.1172V85.1172C171.321 85.1172 177.153 86.368 181.754 88.8091L182.691 87.0424ZM164.205 83.1172C157.078 83.1172 151.021 84.2052 146.071 86.4276L146.89 88.2521C151.51 86.1776 157.269 85.1172 164.205 85.1172V83.1172ZM146.08 86.4237C141.249 88.537 137.523 91.4804 134.959 95.2761L136.616 96.3958C138.934 92.9649 142.337 90.2443 146.881 88.256L146.08 86.4237ZM134.948 95.2917C132.5 99.0667 131.271 103.211 131.271 107.701H133.271C133.271 103.598 134.387 99.8318 136.626 96.3801L134.948 95.2917ZM131.271 107.701C131.271 111.301 132.2 114.609 134.059 117.604L135.758 116.549C134.101 113.879 133.271 110.938 133.271 107.701H131.271ZM134.081 117.638C136.018 120.493 138.748 123.161 142.237 125.654L143.4 124.026C140.053 121.636 137.509 119.129 135.736 116.515L134.081 117.638ZM142.264 125.672C145.844 128.059 150.2 130.333 155.319 132.499L156.099 130.657C151.062 128.526 146.824 126.308 143.373 124.008L142.264 125.672ZM155.319 132.499C160.438 134.665 166.284 136.727 172.855 138.689L173.427 136.772C166.911 134.827 161.136 132.788 156.099 130.657L155.319 132.499ZM172.839 138.684C184.225 142.285 194.282 146.27 203.016 150.637L203.91 148.848C195.065 144.425 184.908 140.403 173.442 136.777L172.839 138.684ZM203.02 150.639C211.838 154.999 219.226 159.929 225.198 165.42L226.552 163.947C220.415 158.305 212.861 153.274 203.906 148.846L203.02 150.639ZM225.198 165.42C231.157 170.898 235.612 177.083 238.58 183.976L240.417 183.185C237.329 176.015 232.702 169.602 226.552 163.947L225.198 165.42ZM238.584 183.986C241.644 190.871 243.186 198.689 243.186 207.457H245.186C245.186 198.452 243.602 190.351 240.412 183.174L238.584 183.986ZM243.186 207.457C243.186 216.797 241.357 225.036 237.727 232.2L239.511 233.104C243.303 225.62 245.186 217.063 245.186 207.457H243.186ZM237.722 232.21C234.183 239.384 229.015 245.514 222.201 250.601L223.397 252.204C230.449 246.939 235.829 240.569 239.516 233.095L237.722 232.21ZM222.203 250.6C215.481 255.593 207.394 259.401 197.924 262.011L198.455 263.939C208.125 261.274 216.445 257.368 223.395 252.205L222.203 250.6ZM197.924 262.011C188.455 264.619 177.853 265.93 166.109 265.93V267.93C177.999 267.93 188.784 266.603 198.455 263.939L197.924 262.011ZM166.109 265.93C155.453 265.93 144.942 264.574 134.575 261.861L134.069 263.796C144.601 266.551 155.281 267.93 166.109 267.93V265.93ZM134.584 261.863C124.236 259.058 114.865 254.806 106.466 249.11L105.343 250.765C113.936 256.592 123.511 260.934 134.061 263.793L134.584 261.863ZM106.47 249.113C98.1965 243.437 91.5614 236.225 86.5577 227.469L84.8212 228.461C89.9737 237.478 96.8152 244.915 105.339 250.762L106.47 249.113ZM86.5641 227.48C81.6807 218.671 79.2188 208.2 79.2188 196.031H77.2188C77.2188 208.472 79.7373 219.29 84.8148 228.45L86.5641 227.48ZM78.2188 197.031H125.973V195.031H78.2188V197.031ZM124.973 196.031C124.973 202.567 125.913 208.174 127.832 212.819L129.68 212.056C127.888 207.717 126.973 202.386 126.973 196.031H124.973ZM127.835 212.826C129.749 217.36 132.482 221.064 136.041 223.912L137.291 222.35C134.014 219.729 131.474 216.304 129.677 212.049L127.835 212.826ZM136.052 223.92C139.697 226.755 144.081 228.764 149.181 229.964L149.639 228.017C144.778 226.873 140.666 224.975 137.28 222.342L136.052 223.92ZM149.181 229.964C154.25 231.156 159.895 231.748 166.109 231.748V229.748C160.019 229.748 154.531 229.168 149.639 228.017L149.181 229.964ZM166.109 231.748C173.317 231.748 179.232 230.763 183.801 228.732L182.988 226.905C178.768 228.78 173.16 229.748 166.109 229.748V231.748ZM183.81 228.728C188.447 226.611 191.937 223.707 194.209 219.99L192.502 218.947C190.477 222.261 187.327 224.924 182.979 226.909L183.81 228.728ZM194.209 219.99C196.457 216.311 197.578 212.223 197.578 207.75H195.578C195.578 211.871 194.55 215.596 192.502 218.947L194.209 219.99ZM315.963 38.8535H316.963V37.8535H315.963V38.8535ZM315.963 264V265H316.963V264H315.963ZM270.113 264H269.113V265H270.113V264ZM270.113 38.8535V37.8535H269.113V38.8535H270.113ZM416.598 105.504L417.354 106.158L418.786 104.504H416.598V105.504ZM347.604 185.191L348.312 185.897L348.337 185.872L348.36 185.846L347.604 185.191ZM311.129 221.812L310.269 222.322L310.926 223.433L311.837 222.518L311.129 221.812ZM292.818 190.904L292.028 190.292L291.612 190.829L291.958 191.414L292.818 190.904ZM322.408 152.672L321.638 152.034L321.628 152.047L321.617 152.06L322.408 152.672ZM361.52 105.504V104.504H361.05L360.75 104.866L361.52 105.504ZM368.258 264L367.406 264.523L367.698 265H368.258V264ZM323.58 191.197L322.964 190.409L322.261 190.959L322.728 191.72L323.58 191.197ZM356.393 165.562L357.23 165.016L356.635 164.104L355.777 164.774L356.393 165.562ZM420.699 264V265H422.547L421.536 263.453L420.699 264ZM314.963 38.8535V264H316.963V38.8535H314.963ZM315.963 263H270.113V265H315.963V263ZM271.113 264V38.8535H269.113V264H271.113ZM270.113 39.8535H315.963V37.8535H270.113V39.8535ZM415.842 104.849L346.848 184.537L348.36 185.846L417.354 106.158L415.842 104.849ZM346.895 184.486L310.42 221.107L311.837 222.518L348.312 185.897L346.895 184.486ZM311.989 221.303L293.679 190.395L291.958 191.414L310.269 222.322L311.989 221.303ZM293.609 191.516L323.199 153.284L321.617 152.06L292.028 190.292L293.609 191.516ZM323.178 153.31L362.289 106.142L360.75 104.866L321.638 152.034L323.178 153.31ZM361.52 106.504H416.598V104.504H361.52V106.504ZM369.11 263.477L324.432 190.674L322.728 191.72L367.406 264.523L369.11 263.477ZM324.196 191.985L357.008 166.351L355.777 164.774L322.964 190.409L324.196 191.985ZM355.555 166.109L419.862 264.547L421.536 263.453L357.23 165.016L355.555 166.109ZM420.699 263H368.258V265H420.699V263ZM480.465 105.504H481.465V104.504H480.465V105.504ZM480.465 264V265H481.465V264H480.465ZM434.615 264H433.615V265H434.615V264ZM434.615 105.504V104.504H433.615V105.504H434.615ZM438.863 48.2285L439.531 48.9734L439.539 48.9657L438.863 48.2285ZM475.777 48.2285L475.102 48.9657L475.11 48.973L475.118 48.9801L475.777 48.2285ZM475.777 80.748L476.445 81.4929L476.445 81.4921L475.777 80.748ZM438.863 80.748L438.188 81.4852L438.196 81.4929L438.863 80.748ZM479.465 105.504V264H481.465V105.504H479.465ZM480.465 263H434.615V265H480.465V263ZM435.615 264V105.504H433.615V264H435.615ZM434.615 106.504H480.465V104.504H434.615V106.504ZM432.832 64.4883C432.832 58.1142 435.068 52.9713 439.531 48.9734L438.196 47.4837C433.284 51.8841 430.832 57.5811 430.832 64.4883H432.832ZM439.539 48.9657C444.007 44.8702 449.901 42.7832 457.32 42.7832V40.7832C449.505 40.7832 443.095 42.9931 438.188 47.4914L439.539 48.9657ZM457.32 42.7832C464.74 42.7832 470.634 44.8702 475.102 48.9657L476.453 47.4914C471.546 42.9931 465.135 40.7832 457.32 40.7832V42.7832ZM475.118 48.9801C479.676 52.9804 481.955 58.1214 481.955 64.4883H483.955C483.955 57.5739 481.449 51.8751 476.437 47.4769L475.118 48.9801ZM481.955 64.4883C481.955 70.753 479.679 75.9005 475.109 80.004L476.445 81.4921C481.446 77.0018 483.955 71.3095 483.955 64.4883H481.955ZM475.11 80.0032C470.643 84.0051 464.746 86.0469 457.32 86.0469V88.0469C465.129 88.0469 471.537 85.8894 476.445 81.4929L475.11 80.0032ZM457.32 86.0469C449.895 86.0469 443.998 84.0051 439.531 80.0032L438.196 81.4929C443.104 85.8894 449.511 88.0469 457.32 88.0469V86.0469ZM439.539 80.0109C435.065 75.9096 432.832 70.7601 432.832 64.4883H430.832C430.832 71.3024 433.287 76.9928 438.188 81.4852L439.539 80.0109ZM561.617 39H562.617V38H561.617V39ZM561.617 264V265H562.617V264H561.617ZM515.768 264H514.768V265H515.768V264ZM515.768 39V38H514.768V39H515.768ZM560.617 39V264H562.617V39H560.617ZM561.617 263H515.768V265H561.617V263ZM516.768 264V39H514.768V264H516.768ZM515.768 40H561.617V38H515.768V40ZM642.77 39H643.77V38H642.77V39ZM642.77 264V265H643.77V264H642.77ZM596.92 264H595.92V265H596.92V264ZM596.92 39V38H595.92V39H596.92ZM641.77 39V264H643.77V39H641.77ZM642.77 263H596.92V265H642.77V263ZM597.92 264V39H595.92V264H597.92ZM596.92 40H642.77V38H596.92V40ZM757.32 212.145L756.533 212.761L756.541 212.771L756.549 212.781L757.32 212.145ZM747.652 205.992L747.278 206.919L747.284 206.922L747.652 205.992ZM728.17 200.426L728.386 199.449L728.375 199.447L728.17 200.426ZM706.051 193.98L705.679 194.909L705.691 194.913L706.051 193.98ZM688.18 184.166L687.57 184.959L687.58 184.966L688.18 184.166ZM676.314 170.396L675.43 170.863L675.433 170.87L676.314 170.396ZM676.314 133.189L675.417 132.748L675.411 132.76L676.314 133.189ZM688.912 117.369L688.276 116.598L688.269 116.603L688.912 117.369ZM709.127 106.529L708.814 105.579L708.811 105.581L709.127 106.529ZM772.555 109.166L772.158 110.084L772.165 110.087L772.555 109.166ZM795.992 127.33L795.173 127.904L795.176 127.908L795.992 127.33ZM804.195 153.844V154.844H805.195V153.844H804.195ZM758.492 153.844H757.492V154.844H758.492V153.844ZM748.971 136.119L748.492 136.997L748.502 137.003L748.513 137.008L748.971 136.119ZM725.387 135.68L725.798 136.591L725.811 136.585L725.387 135.68ZM718.209 141.393L717.397 140.808L717.39 140.819L717.382 140.83L718.209 141.393ZM717.184 156.041L716.299 156.507L716.314 156.535L716.33 156.562L717.184 156.041ZM722.018 161.021L721.429 161.83L721.45 161.845L721.471 161.859L722.018 161.021ZM730.66 164.977L730.344 165.925L730.352 165.928L730.66 164.977ZM743.844 168.346L743.641 169.325L743.651 169.327L743.661 169.329L743.844 168.346ZM774.02 176.988L773.641 177.914L773.645 177.915L774.02 176.988ZM795.992 192.369L795.225 193.01L795.231 193.017L795.992 192.369ZM799.508 237.633L798.632 237.151L798.625 237.162L799.508 237.633ZM674.996 238.658L674.15 239.192L674.158 239.204L674.996 238.658ZM667.232 213.463V212.463H666.232V213.463H667.232ZM710.152 213.463L711.152 213.426L711.116 212.463H710.152V213.463ZM714.107 226.354L713.302 226.946L713.307 226.953L713.313 226.961L714.107 226.354ZM723.922 233.678L723.558 234.609L723.568 234.613L723.578 234.617L723.922 233.678ZM757.467 228.258L758.267 228.858L758.273 228.85L758.278 228.842L757.467 228.258ZM761.104 219.908C761.104 216.747 760.096 213.934 758.091 211.508L756.549 212.781C758.256 214.847 759.104 217.21 759.104 219.908H761.104ZM758.108 211.528C756.185 209.072 752.763 206.94 748.02 205.062L747.284 206.922C751.916 208.756 754.94 210.725 756.533 212.761L758.108 211.528ZM748.027 205.065C743.362 203.179 736.805 201.309 728.386 199.449L727.954 201.402C736.332 203.253 742.763 205.094 747.278 206.919L748.027 205.065ZM728.375 199.447C720.512 197.797 713.192 195.663 706.411 193.047L705.691 194.913C712.582 197.571 720.007 199.734 727.965 201.404L728.375 199.447ZM706.422 193.052C699.655 190.345 693.777 187.114 688.78 183.366L687.58 184.966C692.738 188.835 698.775 192.147 705.679 194.909L706.422 193.052ZM688.789 183.373C683.815 179.547 679.956 175.064 677.195 169.923L675.433 170.87C678.337 176.276 682.388 180.972 687.57 184.959L688.789 183.373ZM677.199 169.93C674.452 164.72 673.066 158.78 673.066 152.086H671.066C671.066 159.064 672.513 165.331 675.43 170.863L677.199 169.93ZM673.066 152.086C673.066 145.593 674.45 139.441 677.218 133.619L675.411 132.76C672.515 138.852 671.066 145.298 671.066 152.086H673.066ZM677.212 133.631C680.076 127.808 684.185 122.642 689.555 118.135L688.269 116.603C682.702 121.276 678.413 126.657 675.417 132.748L677.212 133.631ZM689.548 118.141C695.006 113.64 701.632 110.082 709.443 107.478L708.811 105.581C700.802 108.25 693.951 111.918 688.276 116.598L689.548 118.141ZM709.44 107.479C717.328 104.882 726.302 103.574 736.373 103.574V101.574C726.132 101.574 716.941 102.904 708.814 105.579L709.44 107.479ZM736.373 103.574C750.236 103.574 762.155 105.756 772.158 110.084L772.952 108.248C762.642 103.787 750.44 101.574 736.373 101.574V103.574ZM772.165 110.087C782.176 114.322 789.828 120.268 795.173 127.904L796.811 126.757C791.219 118.767 783.246 112.603 772.944 108.245L772.165 110.087ZM795.176 127.908C800.519 135.445 803.195 144.078 803.195 153.844H805.195C805.195 143.687 802.403 134.645 796.808 126.752L795.176 127.908ZM804.195 152.844H758.492V154.844H804.195V152.844ZM759.492 153.844C759.492 149.615 758.686 145.887 757.037 142.692L755.26 143.609C756.736 146.468 757.492 149.87 757.492 153.844H759.492ZM757.037 142.692C755.373 139.468 752.824 136.979 749.429 135.23L748.513 137.008C751.563 138.58 753.799 140.779 755.26 143.609L757.037 142.692ZM749.45 135.241C746.03 133.376 741.599 132.482 736.227 132.482V134.482C741.401 134.482 745.466 135.347 748.492 136.997L749.45 135.241ZM736.227 132.482C732.006 132.482 728.243 133.236 724.962 134.774L725.811 136.585C728.781 135.193 732.244 134.482 736.227 134.482V132.482ZM724.975 134.768C721.805 136.2 719.268 138.21 717.397 140.808L719.021 141.977C720.666 139.692 722.914 137.894 725.798 136.591L724.975 134.768ZM717.382 140.83C715.599 143.453 714.719 146.485 714.719 149.889H716.719C716.719 146.847 717.499 144.215 719.036 141.955L717.382 140.83ZM714.719 149.889C714.719 152.285 715.241 154.498 716.299 156.507L718.069 155.575C717.173 153.874 716.719 151.984 716.719 149.889H714.719ZM716.33 156.562C717.49 158.46 719.204 160.212 721.429 161.83L722.606 160.213C720.534 158.706 719.026 157.138 718.037 155.52L716.33 156.562ZM721.471 161.859C723.81 163.385 726.776 164.736 730.344 165.925L730.976 164.028C727.513 162.874 724.717 161.588 722.564 160.184L721.471 161.859ZM730.352 165.928C734.01 167.114 738.442 168.246 743.641 169.325L744.047 167.367C738.894 166.297 734.537 165.183 730.969 164.025L730.352 165.928ZM743.661 169.329C754.639 171.369 764.631 174.232 773.641 177.914L774.398 176.063C765.244 172.323 755.119 169.424 744.026 167.363L743.661 169.329ZM773.645 177.915C782.697 181.575 789.877 186.612 795.225 193.01L796.759 191.728C791.17 185.04 783.702 179.824 774.394 176.061L773.645 177.915ZM795.231 193.017C800.608 199.337 803.342 207.731 803.342 218.297H805.342C805.342 207.379 802.51 198.487 796.754 191.721L795.231 193.017ZM803.342 218.297C803.342 225.169 801.769 231.447 798.632 237.151L800.384 238.115C803.692 232.1 805.342 225.488 805.342 218.297H803.342ZM798.625 237.162C795.578 242.876 791.142 247.893 785.291 252.209L786.478 253.818C792.541 249.346 797.187 244.109 800.39 238.103L798.625 237.162ZM785.291 252.209C779.442 256.524 772.423 259.894 764.216 262.308L764.78 264.227C773.175 261.758 780.413 258.293 786.478 253.818L785.291 252.209ZM764.216 262.308C756.023 264.718 746.746 265.93 736.373 265.93V267.93C746.899 267.93 756.371 266.7 764.78 264.227L764.216 262.308ZM736.373 265.93C721.548 265.93 709.069 263.265 698.894 257.985L697.973 259.761C708.501 265.223 721.315 267.93 736.373 267.93V265.93ZM698.894 257.985C688.664 252.678 680.996 246.046 675.834 238.113L674.158 239.204C679.543 247.481 687.5 254.326 697.973 259.761L698.894 257.985ZM675.842 238.125C670.753 230.06 668.232 221.844 668.232 213.463H666.232C666.232 222.269 668.887 230.85 674.15 239.192L675.842 238.125ZM667.232 214.463H710.152V212.463H667.232V214.463ZM709.153 213.5C709.354 218.918 710.712 223.424 713.302 226.946L714.913 225.761C712.62 222.642 711.342 218.555 711.152 213.426L709.153 213.5ZM713.313 226.961C715.967 230.431 719.389 232.982 723.558 234.609L724.285 232.746C720.447 231.248 717.326 228.917 714.902 225.746L713.313 226.961ZM723.578 234.617C727.709 236.128 732.32 236.875 737.398 236.875V234.875C732.516 234.875 728.142 234.157 724.265 232.739L723.578 234.617ZM737.398 236.875C742.462 236.875 746.752 236.181 750.23 234.749L749.469 232.9C746.306 234.202 742.295 234.875 737.398 234.875V236.875ZM750.23 234.749C753.68 233.329 756.379 231.375 758.267 228.858L756.667 227.658C755.039 229.828 752.66 231.585 749.469 232.9L750.23 234.749ZM758.278 228.842C760.164 226.224 761.104 223.234 761.104 219.908H759.104C759.104 222.832 758.286 225.409 756.655 227.674L758.278 228.842Z" fill="black" fill-opacity="0.05"/>
</g>
<g opacity="0.5" filter="url(#filter2_bd_63_1111)">
<path d="M196.578 259.221C196.578 255.607 196.041 252.385 194.967 249.553C193.893 246.623 191.939 243.938 189.107 241.496C186.275 239.055 182.271 236.613 177.096 234.172C171.92 231.633 165.133 229.045 156.734 226.408C147.164 223.283 138.033 219.768 129.342 215.861C120.748 211.857 113.082 207.219 106.344 201.945C99.6055 196.672 94.2832 190.52 90.377 183.488C86.5684 176.457 84.6641 168.254 84.6641 158.879C84.6641 149.797 86.666 141.594 90.6699 134.27C94.6738 126.945 100.289 120.695 107.516 115.52C114.742 110.246 123.238 106.242 133.004 103.508C142.77 100.676 153.512 99.2598 165.23 99.2598C180.855 99.2598 194.576 102.043 206.393 107.609C218.307 113.078 227.584 120.793 234.225 130.754C240.865 140.617 244.186 152.092 244.186 165.178H196.725C196.725 159.416 195.504 154.338 193.062 149.943C190.719 145.451 187.105 141.936 182.223 139.396C177.438 136.857 171.432 135.588 164.205 135.588C157.174 135.588 151.266 136.662 146.48 138.811C141.793 140.861 138.229 143.693 135.787 147.307C133.443 150.92 132.271 154.875 132.271 159.172C132.271 162.59 133.15 165.715 134.908 168.547C136.764 171.281 139.4 173.869 142.818 176.311C146.334 178.654 150.631 180.9 155.709 183.049C160.787 185.197 166.598 187.248 173.141 189.201C184.566 192.814 194.674 196.818 203.463 201.213C212.35 205.607 219.82 210.588 225.875 216.154C231.93 221.721 236.471 228.02 239.498 235.051C242.623 242.082 244.186 250.041 244.186 258.928C244.186 268.4 242.33 276.799 238.619 284.123C235.006 291.447 229.732 297.697 222.799 302.873C215.963 307.951 207.76 311.809 198.189 314.445C188.619 317.082 177.926 318.4 166.109 318.4C155.367 318.4 144.771 317.033 134.322 314.299C123.873 311.467 114.4 307.17 105.904 301.408C97.5059 295.646 90.7676 288.322 85.6895 279.436C80.709 270.451 78.2188 259.807 78.2188 247.502H125.973C125.973 253.947 126.9 259.416 128.756 263.908C130.611 268.303 133.248 271.867 136.666 274.602C140.182 277.336 144.43 279.289 149.41 280.461C154.391 281.633 159.957 282.219 166.109 282.219C173.238 282.219 179 281.242 183.395 279.289C187.887 277.238 191.207 274.455 193.355 270.939C195.504 267.424 196.578 263.518 196.578 259.221ZM315.963 90.3242V315.471H270.113V90.3242H315.963ZM416.598 156.975L347.604 236.662L311.129 273.283L292.818 242.375L322.408 204.143L361.52 156.975H416.598ZM368.258 315.471L323.58 242.668L356.393 217.033L420.699 315.471H368.258ZM480.465 156.975V315.471H434.615V156.975H480.465ZM431.832 115.959C431.832 109.318 434.176 103.898 438.863 99.6992C443.551 95.4023 449.703 93.2539 457.32 93.2539C464.938 93.2539 471.09 95.4023 475.777 99.6992C480.562 103.898 482.955 109.318 482.955 115.959C482.955 122.502 480.562 127.922 475.777 132.219C471.09 136.418 464.938 138.518 457.32 138.518C449.703 138.518 443.551 136.418 438.863 132.219C434.176 127.922 431.832 122.502 431.832 115.959ZM561.617 90.4707V315.471H515.768V90.4707H561.617ZM642.77 90.4707V315.471H596.92V90.4707H642.77ZM760.104 271.379C760.104 268.449 759.176 265.861 757.32 263.615C755.562 261.369 752.34 259.318 747.652 257.463C743.062 255.607 736.568 253.752 728.17 251.896C720.26 250.236 712.887 248.088 706.051 245.451C699.215 242.717 693.258 239.445 688.18 235.637C683.102 231.73 679.146 227.141 676.314 221.867C673.482 216.496 672.066 210.393 672.066 203.557C672.066 196.916 673.482 190.617 676.314 184.66C679.244 178.703 683.443 173.43 688.912 168.84C694.479 164.25 701.217 160.637 709.127 158C717.135 155.363 726.217 154.045 736.373 154.045C750.338 154.045 762.398 156.242 772.555 160.637C782.711 164.934 790.523 170.988 795.992 178.801C801.461 186.516 804.195 195.354 804.195 205.314H758.492C758.492 201.213 757.711 197.648 756.148 194.621C754.586 191.594 752.193 189.25 748.971 187.59C745.748 185.832 741.5 184.953 736.227 184.953C732.125 184.953 728.512 185.686 725.387 187.15C722.359 188.518 719.967 190.422 718.209 192.863C716.549 195.305 715.719 198.137 715.719 201.359C715.719 203.605 716.207 205.656 717.184 207.512C718.258 209.27 719.869 210.93 722.018 212.492C724.264 213.957 727.145 215.275 730.66 216.447C734.273 217.619 738.668 218.742 743.844 219.816C754.879 221.867 764.938 224.748 774.02 228.459C783.199 232.17 790.523 237.297 795.992 243.84C801.559 250.383 804.342 259.025 804.342 269.768C804.342 276.799 802.73 283.244 799.508 289.104C796.383 294.963 791.842 300.09 785.885 304.484C779.928 308.879 772.799 312.297 764.498 314.738C756.197 317.18 746.822 318.4 736.373 318.4C721.432 318.4 708.785 315.715 698.434 310.344C688.082 304.973 680.27 298.234 674.996 290.129C669.82 281.926 667.232 273.527 667.232 264.934H710.152C710.348 270.207 711.666 274.504 714.107 277.824C716.646 281.145 719.918 283.586 723.922 285.148C727.926 286.613 732.418 287.346 737.398 287.346C742.379 287.346 746.529 286.662 749.85 285.295C753.17 283.928 755.709 282.072 757.467 279.729C759.225 277.287 760.104 274.504 760.104 271.379Z" fill="#FF7F50" fill-opacity="0.6" shape-rendering="crispEdges"/>
<path d="M194.967 249.553L194.028 249.897L194.032 249.907L194.967 249.553ZM177.096 234.172L176.655 235.07L176.662 235.073L176.669 235.076L177.096 234.172ZM156.734 226.408L156.424 227.359L156.435 227.362L156.734 226.408ZM129.342 215.861L128.919 216.768L128.932 216.773L129.342 215.861ZM90.377 183.488L89.4976 183.965L89.5028 183.974L90.377 183.488ZM107.516 115.52L108.098 116.333L108.105 116.327L107.516 115.52ZM133.004 103.508L133.274 104.471L133.282 104.468L133.004 103.508ZM206.393 107.609L205.966 108.514L205.975 108.518L206.393 107.609ZM234.225 130.754L233.393 131.309L233.395 131.312L234.225 130.754ZM244.186 165.178V166.178H245.186V165.178H244.186ZM196.725 165.178H195.725V166.178H196.725V165.178ZM193.062 149.943L192.176 150.406L192.182 150.418L192.188 150.429L193.062 149.943ZM182.223 139.396L181.754 140.28L181.761 140.284L182.223 139.396ZM146.48 138.811L146.881 139.727L146.89 139.723L146.48 138.811ZM135.787 147.307L134.959 146.747L134.953 146.755L134.948 146.762L135.787 147.307ZM134.908 168.547L134.059 169.074L134.069 169.092L134.081 169.108L134.908 168.547ZM142.818 176.311L142.237 177.124L142.25 177.134L142.264 177.143L142.818 176.311ZM173.141 189.201L173.442 188.248L173.434 188.245L173.427 188.243L173.141 189.201ZM203.463 201.213L203.016 202.107L203.02 202.109L203.463 201.213ZM239.498 235.051L238.58 235.446L238.584 235.457L239.498 235.051ZM238.619 284.123L237.727 283.671L237.722 283.681L238.619 284.123ZM222.799 302.873L223.395 303.676L223.397 303.674L222.799 302.873ZM134.322 314.299L134.061 315.264L134.069 315.266L134.322 314.299ZM105.904 301.408L105.339 302.233L105.343 302.236L105.904 301.408ZM85.6895 279.436L84.8148 279.92L84.8212 279.932L85.6895 279.436ZM78.2188 247.502V246.502H77.2188V247.502H78.2188ZM125.973 247.502H126.973V246.502H125.973V247.502ZM128.756 263.908L127.832 264.29L127.835 264.297L128.756 263.908ZM136.666 274.602L136.041 275.383L136.052 275.391L136.666 274.602ZM183.395 279.289L183.801 280.203L183.81 280.199L183.395 279.289ZM197.578 259.221C197.578 255.509 197.026 252.163 195.902 249.198L194.032 249.907C195.056 252.607 195.578 255.706 195.578 259.221H197.578ZM195.906 249.208C194.762 246.09 192.696 243.269 189.76 240.739L188.454 242.254C191.183 244.606 193.023 247.156 194.028 249.897L195.906 249.208ZM189.76 240.739C186.834 238.216 182.741 235.729 177.522 233.267L176.669 235.076C181.802 237.497 185.717 239.894 188.454 242.254L189.76 240.739ZM177.536 233.274C172.298 230.704 165.458 228.099 157.034 225.454L156.435 227.362C164.807 229.991 171.542 232.561 176.655 235.07L177.536 233.274ZM157.045 225.458C147.506 222.343 138.409 218.84 129.752 214.949L128.932 216.773C137.657 220.695 146.822 224.223 156.424 227.359L157.045 225.458ZM129.764 214.955C121.232 210.98 113.632 206.38 106.96 201.158L105.727 202.733C112.532 208.058 120.264 212.735 128.919 216.768L129.764 214.955ZM106.96 201.158C100.32 195.961 95.0884 189.91 91.2511 183.003L89.5028 183.974C93.478 191.129 98.8907 197.382 105.727 202.733L106.96 201.158ZM91.2562 183.012C87.5395 176.15 85.6641 168.116 85.6641 158.879H83.6641C83.6641 168.391 85.5972 176.764 89.4977 183.965L91.2562 183.012ZM85.6641 158.879C85.6641 149.949 87.6308 141.914 91.5474 134.749L89.7925 133.79C85.7012 141.274 83.6641 149.644 83.6641 158.879H85.6641ZM91.5474 134.749C95.4746 127.565 100.985 121.427 108.098 116.333L106.933 114.707C99.5927 119.964 93.8731 126.325 89.7925 133.79L91.5474 134.749ZM108.105 116.327C115.223 111.133 123.608 107.177 133.274 104.471L132.734 102.545C122.869 105.307 114.261 109.359 106.926 114.712L108.105 116.327ZM133.282 104.468C142.945 101.666 153.592 100.26 165.23 100.26V98.2598C153.432 98.2598 142.594 99.6855 132.725 102.547L133.282 104.468ZM165.23 100.26C180.737 100.26 194.307 103.022 205.966 108.514L206.819 106.705C194.845 101.064 180.974 98.2598 165.23 98.2598V100.26ZM205.975 108.518C217.738 113.917 226.864 121.516 233.393 131.309L235.057 130.199C228.304 120.07 218.876 112.239 206.81 106.701L205.975 108.518ZM233.395 131.312C239.913 140.994 243.186 152.27 243.186 165.178H245.186C245.186 151.914 241.817 140.24 235.054 130.195L233.395 131.312ZM244.186 164.178H196.725V166.178H244.186V164.178ZM197.725 165.178C197.725 159.271 196.472 154.021 193.937 149.458L192.188 150.429C194.536 154.654 195.725 159.561 195.725 165.178H197.725ZM193.949 149.481C191.502 144.791 187.732 141.134 182.684 138.509L181.761 140.284C186.479 142.737 189.935 146.111 192.176 150.406L193.949 149.481ZM182.691 138.513C177.722 135.876 171.543 134.588 164.205 134.588V136.588C171.321 136.588 177.153 137.839 181.754 140.28L182.691 138.513ZM164.205 134.588C157.078 134.588 151.021 135.676 146.071 137.898L146.89 139.723C151.51 137.648 157.269 136.588 164.205 136.588V134.588ZM146.08 137.894C141.249 140.008 137.523 142.951 134.959 146.747L136.616 147.866C138.934 144.436 142.337 141.715 146.881 139.727L146.08 137.894ZM134.948 146.762C132.5 150.537 131.271 154.681 131.271 159.172H133.271C133.271 155.069 134.387 151.302 136.626 147.851L134.948 146.762ZM131.271 159.172C131.271 162.771 132.2 166.08 134.059 169.074L135.758 168.02C134.101 165.35 133.271 162.408 133.271 159.172H131.271ZM134.081 169.108C136.018 171.963 138.748 174.632 142.237 177.124L143.4 175.497C140.053 173.106 137.509 170.599 135.736 167.985L134.081 169.108ZM142.264 177.143C145.844 179.53 150.2 181.804 155.319 183.97L156.099 182.128C151.062 179.997 146.824 177.779 143.373 175.478L142.264 177.143ZM155.319 183.97C160.438 186.135 166.284 188.198 172.855 190.159L173.427 188.243C166.911 186.298 161.136 184.259 156.099 182.128L155.319 183.97ZM172.839 190.155C184.225 193.755 194.282 197.741 203.016 202.107L203.91 200.318C195.065 195.896 184.908 191.874 173.442 188.248L172.839 190.155ZM203.02 202.109C211.838 206.47 219.226 211.4 225.198 216.89L226.552 215.418C220.415 209.776 212.861 204.745 203.906 200.317L203.02 202.109ZM225.198 216.89C231.157 222.369 235.612 228.554 238.58 235.446L240.417 234.655C237.329 227.485 232.702 221.073 226.552 215.418L225.198 216.89ZM238.584 235.457C241.644 242.342 243.186 250.159 243.186 258.928H245.186C245.186 249.923 243.602 241.822 240.412 234.645L238.584 235.457ZM243.186 258.928C243.186 268.268 241.357 276.507 237.727 283.671L239.511 284.575C243.303 277.091 245.186 268.533 245.186 258.928H243.186ZM237.722 283.681C234.183 290.855 229.015 296.985 222.201 302.072L223.397 303.674C230.449 298.41 235.829 292.04 239.516 284.565L237.722 283.681ZM222.203 302.07C215.481 307.064 207.394 310.872 197.924 313.481L198.455 315.409C208.125 312.745 216.445 308.839 223.395 303.676L222.203 302.07ZM197.924 313.481C188.455 316.09 177.853 317.4 166.109 317.4V319.4C177.999 319.4 188.784 318.074 198.455 315.409L197.924 313.481ZM166.109 317.4C155.453 317.4 144.942 316.044 134.575 313.331L134.069 315.266C144.601 318.022 155.281 319.4 166.109 319.4V317.4ZM134.584 313.334C124.236 310.529 114.865 306.277 106.466 300.581L105.343 302.236C113.936 308.063 123.511 312.405 134.061 315.264L134.584 313.334ZM106.47 300.584C98.1965 294.908 91.5614 287.696 86.5577 278.939L84.8212 279.932C89.9737 288.949 96.8152 296.385 105.339 302.233L106.47 300.584ZM86.5641 278.951C81.6807 270.141 79.2188 259.671 79.2188 247.502H77.2188C77.2188 259.943 79.7373 270.761 84.8148 279.92L86.5641 278.951ZM78.2188 248.502H125.973V246.502H78.2188V248.502ZM124.973 247.502C124.973 254.038 125.913 259.644 127.832 264.29L129.68 263.526C127.888 259.188 126.973 253.857 126.973 247.502H124.973ZM127.835 264.297C129.749 268.831 132.482 272.535 136.041 275.382L137.291 273.821C134.014 271.199 131.474 267.775 129.677 263.519L127.835 264.297ZM136.052 275.391C139.697 278.226 144.081 280.234 149.181 281.434L149.639 279.488C144.778 278.344 140.666 276.446 137.28 273.812L136.052 275.391ZM149.181 281.434C154.25 282.627 159.895 283.219 166.109 283.219V281.219C160.019 281.219 154.531 280.639 149.639 279.488L149.181 281.434ZM166.109 283.219C173.317 283.219 179.232 282.233 183.801 280.203L182.988 278.375C178.768 280.251 173.16 281.219 166.109 281.219V283.219ZM183.81 280.199C188.447 278.082 191.937 275.178 194.209 271.461L192.502 270.418C190.477 273.732 187.327 276.395 182.979 278.379L183.81 280.199ZM194.209 271.461C196.457 267.781 197.578 263.693 197.578 259.221H195.578C195.578 263.342 194.55 267.066 192.502 270.418L194.209 271.461ZM315.963 90.3242H316.963V89.3242H315.963V90.3242ZM315.963 315.471V316.471H316.963V315.471H315.963ZM270.113 315.471H269.113V316.471H270.113V315.471ZM270.113 90.3242V89.3242H269.113V90.3242H270.113ZM416.598 156.975L417.354 157.629L418.786 155.975H416.598V156.975ZM347.604 236.662L348.312 237.368L348.337 237.343L348.36 237.317L347.604 236.662ZM311.129 273.283L310.269 273.793L310.926 274.903L311.837 273.989L311.129 273.283ZM292.818 242.375L292.028 241.763L291.612 242.3L291.958 242.885L292.818 242.375ZM322.408 204.143L321.638 203.504L321.628 203.517L321.617 203.531L322.408 204.143ZM361.52 156.975V155.975H361.05L360.75 156.336L361.52 156.975ZM368.258 315.471L367.406 315.994L367.698 316.471H368.258V315.471ZM323.58 242.668L322.964 241.88L322.261 242.43L322.728 243.191L323.58 242.668ZM356.393 217.033L357.23 216.486L356.635 215.575L355.777 216.245L356.393 217.033ZM420.699 315.471V316.471H422.547L421.536 314.924L420.699 315.471ZM314.963 90.3242V315.471H316.963V90.3242H314.963ZM315.963 314.471H270.113V316.471H315.963V314.471ZM271.113 315.471V90.3242H269.113V315.471H271.113ZM270.113 91.3242H315.963V89.3242H270.113V91.3242ZM415.842 156.32L346.848 236.008L348.36 237.317L417.354 157.629L415.842 156.32ZM346.895 235.956L310.42 272.578L311.837 273.989L348.312 237.368L346.895 235.956ZM311.989 272.774L293.679 241.865L291.958 242.885L310.269 273.793L311.989 272.774ZM293.609 242.987L323.199 204.755L321.617 203.531L292.028 241.763L293.609 242.987ZM323.178 204.781L362.289 157.613L360.75 156.336L321.638 203.504L323.178 204.781ZM361.52 157.975H416.598V155.975H361.52V157.975ZM369.11 314.948L324.432 242.145L322.728 243.191L367.406 315.994L369.11 314.948ZM324.196 243.456L357.008 217.821L355.777 216.245L322.964 241.88L324.196 243.456ZM355.555 217.58L419.862 316.018L421.536 314.924L357.23 216.486L355.555 217.58ZM420.699 314.471H368.258V316.471H420.699V314.471ZM480.465 156.975H481.465V155.975H480.465V156.975ZM480.465 315.471V316.471H481.465V315.471H480.465ZM434.615 315.471H433.615V316.471H434.615V315.471ZM434.615 156.975V155.975H433.615V156.975H434.615ZM438.863 99.6992L439.531 100.444L439.539 100.436L438.863 99.6992ZM475.777 99.6992L475.102 100.436L475.11 100.444L475.118 100.451L475.777 99.6992ZM475.777 132.219L476.445 132.964L476.445 132.963L475.777 132.219ZM438.863 132.219L438.188 132.956L438.196 132.964L438.863 132.219ZM479.465 156.975V315.471H481.465V156.975H479.465ZM480.465 314.471H434.615V316.471H480.465V314.471ZM435.615 315.471V156.975H433.615V315.471H435.615ZM434.615 157.975H480.465V155.975H434.615V157.975ZM432.832 115.959C432.832 109.585 435.068 104.442 439.531 100.444L438.196 98.9544C433.284 103.355 430.832 109.052 430.832 115.959H432.832ZM439.539 100.436C444.007 96.3409 449.901 94.2539 457.32 94.2539V92.2539C449.505 92.2539 443.095 94.4638 438.188 98.9621L439.539 100.436ZM457.32 94.2539C464.74 94.2539 470.634 96.3409 475.102 100.436L476.453 98.9621C471.546 94.4638 465.135 92.2539 457.32 92.2539V94.2539ZM475.118 100.451C479.676 104.451 481.955 109.592 481.955 115.959H483.955C483.955 109.045 481.449 103.346 476.437 98.9476L475.118 100.451ZM481.955 115.959C481.955 122.224 479.679 127.371 475.109 131.475L476.445 132.963C481.446 128.473 483.955 122.78 483.955 115.959H481.955ZM475.11 131.474C470.643 135.476 464.746 137.518 457.32 137.518V139.518C465.129 139.518 471.537 137.36 476.445 132.964L475.11 131.474ZM457.32 137.518C449.895 137.518 443.998 135.476 439.531 131.474L438.196 132.964C443.104 137.36 449.511 139.518 457.32 139.518V137.518ZM439.539 131.482C435.065 127.38 432.832 122.231 432.832 115.959H430.832C430.832 122.773 433.287 128.463 438.188 132.956L439.539 131.482ZM561.617 90.4707H562.617V89.4707H561.617V90.4707ZM561.617 315.471V316.471H562.617V315.471H561.617ZM515.768 315.471H514.768V316.471H515.768V315.471ZM515.768 90.4707V89.4707H514.768V90.4707H515.768ZM560.617 90.4707V315.471H562.617V90.4707H560.617ZM561.617 314.471H515.768V316.471H561.617V314.471ZM516.768 315.471V90.4707H514.768V315.471H516.768ZM515.768 91.4707H561.617V89.4707H515.768V91.4707ZM642.77 90.4707H643.77V89.4707H642.77V90.4707ZM642.77 315.471V316.471H643.77V315.471H642.77ZM596.92 315.471H595.92V316.471H596.92V315.471ZM596.92 90.4707V89.4707H595.92V90.4707H596.92ZM641.77 90.4707V315.471H643.77V90.4707H641.77ZM642.77 314.471H596.92V316.471H642.77V314.471ZM597.92 315.471V90.4707H595.92V315.471H597.92ZM596.92 91.4707H642.77V89.4707H596.92V91.4707ZM757.32 263.615L756.533 264.232L756.541 264.242L756.549 264.252L757.32 263.615ZM747.652 257.463L747.278 258.39L747.284 258.393L747.652 257.463ZM728.17 251.896L728.386 250.92L728.375 250.918L728.17 251.896ZM706.051 245.451L705.679 246.38L705.691 246.384L706.051 245.451ZM688.18 235.637L687.57 236.429L687.58 236.437L688.18 235.637ZM676.314 221.867L675.43 222.334L675.433 222.34L676.314 221.867ZM676.314 184.66L675.417 184.219L675.411 184.231L676.314 184.66ZM688.912 168.84L688.276 168.068L688.269 168.074L688.912 168.84ZM709.127 158L708.814 157.05L708.811 157.051L709.127 158ZM772.555 160.637L772.158 161.555L772.165 161.558L772.555 160.637ZM795.992 178.801L795.173 179.374L795.176 179.379L795.992 178.801ZM804.195 205.314V206.314H805.195V205.314H804.195ZM758.492 205.314H757.492V206.314H758.492V205.314ZM748.971 187.59L748.492 188.468L748.502 188.473L748.513 188.479L748.971 187.59ZM725.387 187.15L725.798 188.062L725.811 188.056L725.387 187.15ZM718.209 192.863L717.397 192.279L717.39 192.29L717.382 192.301L718.209 192.863ZM717.184 207.512L716.299 207.977L716.314 208.006L716.33 208.033L717.184 207.512ZM722.018 212.492L721.429 213.301L721.45 213.316L721.471 213.33L722.018 212.492ZM730.66 216.447L730.344 217.396L730.352 217.398L730.66 216.447ZM743.844 219.816L743.641 220.796L743.651 220.798L743.661 220.8L743.844 219.816ZM774.02 228.459L773.641 229.385L773.645 229.386L774.02 228.459ZM795.992 243.84L795.225 244.481L795.231 244.488L795.992 243.84ZM799.508 289.104L798.632 288.622L798.625 288.633L799.508 289.104ZM674.996 290.129L674.15 290.663L674.158 290.674L674.996 290.129ZM667.232 264.934V263.934H666.232V264.934H667.232ZM710.152 264.934L711.152 264.897L711.116 263.934H710.152V264.934ZM714.107 277.824L713.302 278.417L713.307 278.424L713.313 278.432L714.107 277.824ZM723.922 285.148L723.558 286.08L723.568 286.084L723.578 286.088L723.922 285.148ZM757.467 279.729L758.267 280.329L758.273 280.321L758.278 280.313L757.467 279.729ZM761.104 271.379C761.104 268.218 760.096 265.405 758.091 262.978L756.549 264.252C758.256 266.318 759.104 268.68 759.104 271.379H761.104ZM758.108 262.999C756.185 260.543 752.763 258.411 748.02 256.533L747.284 258.393C751.916 260.226 754.94 262.196 756.533 264.232L758.108 262.999ZM748.027 256.536C743.362 254.65 736.805 252.78 728.386 250.92L727.954 252.873C736.332 254.724 742.763 256.565 747.278 258.39L748.027 256.536ZM728.375 250.918C720.512 249.268 713.192 247.134 706.411 244.518L705.691 246.384C712.582 249.042 720.007 251.205 727.965 252.875L728.375 250.918ZM706.422 244.523C699.655 241.816 693.777 238.585 688.78 234.837L687.58 236.437C692.738 240.306 698.775 243.618 705.679 246.38L706.422 244.523ZM688.789 234.844C683.815 231.018 679.956 226.534 677.195 221.394L675.433 222.34C678.337 227.747 682.388 232.443 687.57 236.429L688.789 234.844ZM677.199 221.401C674.452 216.191 673.066 210.251 673.066 203.557H671.066C671.066 210.534 672.513 216.801 675.43 222.334L677.199 221.401ZM673.066 203.557C673.066 197.064 674.45 190.911 677.218 185.09L675.411 184.231C672.515 190.323 671.066 196.769 671.066 203.557H673.066ZM677.212 185.101C680.076 179.278 684.185 174.113 689.555 169.606L688.269 168.074C682.702 172.746 678.413 178.128 675.417 184.219L677.212 185.101ZM689.548 169.611C695.006 165.111 701.632 161.552 709.443 158.949L708.811 157.051C700.802 159.721 693.951 163.389 688.276 168.068L689.548 169.611ZM709.44 158.95C717.328 156.352 726.302 155.045 736.373 155.045V153.045C726.132 153.045 716.941 154.374 708.814 157.05L709.44 158.95ZM736.373 155.045C750.236 155.045 762.155 157.226 772.158 161.554L772.952 159.719C762.642 155.258 750.44 153.045 736.373 153.045V155.045ZM772.165 161.558C782.176 165.793 789.828 171.738 795.173 179.374L796.811 178.227C791.219 170.238 783.246 164.074 772.944 159.716L772.165 161.558ZM795.176 179.379C800.519 186.916 803.195 195.549 803.195 205.314H805.195C805.195 195.158 802.403 186.116 796.808 178.222L795.176 179.379ZM804.195 204.314H758.492V206.314H804.195V204.314ZM759.492 205.314C759.492 201.086 758.686 197.358 757.037 194.162L755.26 195.08C756.736 197.939 757.492 201.34 757.492 205.314H759.492ZM757.037 194.162C755.373 190.938 752.824 188.45 749.429 186.701L748.513 188.479C751.563 190.05 753.799 192.249 755.26 195.08L757.037 194.162ZM749.45 186.712C746.03 184.847 741.599 183.953 736.227 183.953V185.953C741.401 185.953 745.466 186.817 748.492 188.468L749.45 186.712ZM736.227 183.953C732.006 183.953 728.243 184.707 724.962 186.245L725.811 188.056C728.781 186.664 732.244 185.953 736.227 185.953V183.953ZM724.975 186.239C721.805 187.671 719.268 189.681 717.397 192.279L719.021 193.448C720.666 191.163 722.914 189.365 725.798 188.062L724.975 186.239ZM717.382 192.301C715.599 194.923 714.719 197.955 714.719 201.359H716.719C716.719 198.318 717.499 195.686 719.036 193.426L717.382 192.301ZM714.719 201.359C714.719 203.756 715.241 205.968 716.299 207.977L718.069 207.046C717.173 205.344 716.719 203.455 716.719 201.359H714.719ZM716.33 208.033C717.49 209.931 719.204 211.682 721.429 213.301L722.606 211.683C720.534 210.177 719.026 208.608 718.037 206.99L716.33 208.033ZM721.471 213.33C723.81 214.855 726.776 216.207 730.344 217.396L730.976 215.499C727.513 214.344 724.717 213.059 722.564 211.655L721.471 213.33ZM730.352 217.398C734.01 218.585 738.442 219.717 743.641 220.796L744.047 218.837C738.894 217.768 734.537 216.653 730.969 215.496L730.352 217.398ZM743.661 220.8C754.639 222.84 764.631 225.703 773.641 229.385L774.398 227.533C765.244 223.793 755.119 220.895 744.026 218.833L743.661 220.8ZM773.645 229.386C782.697 233.045 789.877 238.083 795.225 244.481L796.759 243.199C791.17 236.511 783.702 231.294 774.394 227.532L773.645 229.386ZM795.231 244.488C800.608 250.808 803.342 259.201 803.342 269.768H805.342C805.342 258.849 802.51 249.957 796.754 243.192L795.231 244.488ZM803.342 269.768C803.342 276.639 801.769 282.918 798.632 288.622L800.384 289.585C803.692 283.571 805.342 276.958 805.342 269.768H803.342ZM798.625 288.633C795.578 294.346 791.142 299.363 785.291 303.68L786.478 305.289C792.541 300.816 797.187 295.579 800.39 289.574L798.625 288.633ZM785.291 303.68C779.442 307.994 772.423 311.365 764.216 313.779L764.78 315.698C773.175 313.229 780.413 309.764 786.478 305.289L785.291 303.68ZM764.216 313.779C756.023 316.188 746.746 317.4 736.373 317.4V319.4C746.899 319.4 756.371 318.171 764.78 315.698L764.216 313.779ZM736.373 317.4C721.548 317.4 709.069 314.736 698.894 309.456L697.973 311.231C708.501 316.694 721.315 319.4 736.373 319.4V317.4ZM698.894 309.456C688.664 304.148 680.996 297.517 675.834 289.584L674.158 290.674C679.543 298.952 687.5 305.797 697.973 311.231L698.894 309.456ZM675.842 289.595C670.753 281.531 668.232 273.315 668.232 264.934H666.232C666.232 273.74 668.887 282.321 674.15 290.663L675.842 289.595ZM667.232 265.934H710.152V263.934H667.232V265.934ZM709.153 264.971C709.354 270.388 710.712 274.895 713.302 278.417L714.913 277.232C712.62 274.113 711.342 270.026 711.152 264.897L709.153 264.971ZM713.313 278.432C715.967 281.902 719.389 284.453 723.558 286.08L724.285 284.217C720.447 282.719 717.326 280.387 714.902 277.217L713.313 278.432ZM723.578 286.088C727.709 287.599 732.32 288.346 737.398 288.346V286.346C732.516 286.346 728.142 285.628 724.265 284.209L723.578 286.088ZM737.398 288.346C742.462 288.346 746.752 287.652 750.23 286.22L749.469 284.37C746.306 285.672 742.295 286.346 737.398 286.346V288.346ZM750.23 286.22C753.68 284.799 756.379 282.846 758.267 280.329L756.667 279.129C755.039 281.299 752.66 283.056 749.469 284.37L750.23 286.22ZM758.278 280.313C760.164 277.694 761.104 274.705 761.104 271.379H759.104C759.104 274.303 758.286 276.88 756.655 279.144L758.278 280.313Z" fill="black" fill-opacity="0.05"/>
</g>
<defs>
<filter id="filter0_bd_63_1111" x="74.2188" y="37.8535" width="734.123" height="237.076" filterUnits="userSpaceOnUse" color-interpolation-filters="sRGB">
<feFlood flood-opacity="0" result="BackgroundImageFix"/>
<feGaussianBlur in="BackgroundImage" stdDeviation="0.5"/>
<feComposite in2="SourceAlpha" operator="in" result="effect1_backgroundBlur_63_1111"/>
<feColorMatrix in="SourceAlpha" type="matrix" values="0 0 0 0 0 0 0 0 0 0 0 0 0 0 0 0 0 0 127 0" result="hardAlpha"/>
<feOffset dy="4"/>
<feGaussianBlur stdDeviation="2"/>
<feComposite in2="hardAlpha" operator="out"/>
<feColorMatrix type="matrix" values="0 0 0 0 0 0 0 0 0 0 0 0 0 0 0 0 0 0 0.25 0"/>
<feBlend mode="normal" in2="effect1_backgroundBlur_63_1111" result="effect2_dropShadow_63_1111"/>
<feBlend mode="normal" in="SourceGraphic" in2="effect2_dropShadow_63_1111" result="shape"/>
</filter>
<filter id="filter1_bd_63_1111" x="74.2188" y="37.8535" width="734.123" height="237.076" filterUnits="userSpaceOnUse" color-interpolation-filters="sRGB">
<feFlood flood-opacity="0" result="BackgroundImageFix"/>
<feGaussianBlur in="BackgroundImage" stdDeviation="0.5"/>
<feComposite in2="SourceAlpha" operator="in" result="effect1_backgroundBlur_63_1111"/>
<feColorMatrix in="SourceAlpha" type="matrix" values="0 0 0 0 0 0 0 0 0 0 0 0 0 0 0 0 0 0 127 0" result="hardAlpha"/>
<feOffset dy="4"/>
<feGaussianBlur stdDeviation="2"/>
<feComposite in2="hardAlpha" operator="out"/>
<feColorMatrix type="matrix" values="0 0 0 0 0 0 0 0 0 0 0 0 0 0 0 0 0 0 0.25 0"/>
<feBlend mode="normal" in2="effect1_backgroundBlur_63_1111" result="effect2_dropShadow_63_1111"/>
<feBlend mode="normal" in="SourceGraphic" in2="effect2_dropShadow_63_1111" result="shape"/>
</filter>
<filter id="filter2_bd_63_1111" x="74.2188" y="89.3242" width="734.123" height="237.076" filterUnits="userSpaceOnUse" color-interpolation-filters="sRGB">
<feFlood flood-opacity="0" result="BackgroundImageFix"/>
<feGaussianBlur in="BackgroundImage" stdDeviation="0.5"/>
<feComposite in2="SourceAlpha" operator="in" result="effect1_backgroundBlur_63_1111"/>
<feColorMatrix in="SourceAlpha" type="matrix" values="0 0 0 0 0 0 0 0 0 0 0 0 0 0 0 0 0 0 127 0" result="hardAlpha"/>
<feOffset dy="4"/>
<feGaussianBlur stdDeviation="2"/>
<feComposite in2="hardAlpha" operator="out"/>
<feColorMatrix type="matrix" values="0 0 0 0 0 0 0 0 0 0 0 0 0 0 0 0 0 0 0.25 0"/>
<feBlend mode="normal" in2="effect1_backgroundBlur_63_1111" result="effect2_dropShadow_63_1111"/>
<feBlend mode="normal" in="SourceGraphic" in2="effect2_dropShadow_63_1111" result="shape"/>
</filter>
</defs>
</svg>
