<svg width="410" height="225" viewBox="0 0 410 225" fill="none" xmlns="http://www.w3.org/2000/svg">
<g opacity="0.5" filter="url(#filter0_bd_87_3101)">
<path d="M27.0879 0.60791H66.6387L117.908 153.098L169.031 0.60791H208.582L133.875 213.889H101.795L27.0879 0.60791ZM4.23633 0.60791H44.5195L51.9902 158.665V213.889H4.23633V0.60791ZM191.15 0.60791H231.58V213.889H183.68V158.665L191.15 0.60791ZM339.393 216.819C326.795 216.819 315.516 214.817 305.555 210.813C295.594 206.809 287.146 201.292 280.213 194.26C273.377 187.131 268.152 178.928 264.539 169.651C260.926 160.374 259.119 150.461 259.119 139.915V134.348C259.119 122.532 260.779 111.643 264.1 101.682C267.42 91.7212 272.254 83.0786 278.602 75.7544C285.047 68.3325 292.957 62.6196 302.332 58.6157C311.707 54.5142 322.4 52.4634 334.412 52.4634C345.643 52.4634 355.652 54.3188 364.441 58.0298C373.23 61.6431 380.652 66.8677 386.707 73.7036C392.762 80.4419 397.352 88.5962 400.477 98.1665C403.699 107.639 405.311 118.284 405.311 130.1V148.85H277.576V119.407H360.486V115.891C360.486 110.325 359.461 105.442 357.41 101.243C355.457 97.0435 352.527 93.8208 348.621 91.5747C344.812 89.231 339.979 88.0591 334.119 88.0591C328.553 88.0591 323.914 89.231 320.203 91.5747C316.492 93.9185 313.514 97.2388 311.268 101.536C309.119 105.735 307.557 110.667 306.58 116.331C305.604 121.897 305.115 127.903 305.115 134.348V139.915C305.115 146.067 305.945 151.682 307.605 156.76C309.266 161.838 311.707 166.184 314.93 169.797C318.152 173.411 322.059 176.243 326.648 178.293C331.238 180.344 336.463 181.37 342.322 181.37C349.549 181.37 356.434 180.002 362.977 177.268C369.52 174.436 375.184 170.042 379.969 164.084L401.355 188.547C398.133 193.235 393.592 197.776 387.732 202.17C381.971 206.467 375.037 209.983 366.932 212.717C358.826 215.452 349.646 216.819 339.393 216.819Z" fill="#FF7F50" shape-rendering="crispEdges"/>
<path d="M27.0879 0.60791V-0.39209H25.678L26.1441 0.938492L27.0879 0.60791ZM66.6387 0.60791L67.5865 0.289225L67.3575 -0.39209H66.6387V0.60791ZM117.908 153.098L116.96 153.417L117.91 156.24L118.856 153.416L117.908 153.098ZM169.031 0.60791V-0.39209H168.312L168.083 0.290043L169.031 0.60791ZM208.582 0.60791L209.526 0.938492L209.992 -0.39209H208.582V0.60791ZM133.875 213.889V214.889H134.584L134.819 214.22L133.875 213.889ZM101.795 213.889L100.851 214.22L101.086 214.889H101.795V213.889ZM4.23633 0.60791V-0.39209H3.23633V0.60791H4.23633ZM44.5195 0.60791L45.5184 0.560697L45.4734 -0.39209H44.5195V0.60791ZM51.9902 158.665H52.9902V158.641L52.9891 158.617L51.9902 158.665ZM51.9902 213.889V214.889H52.9902V213.889H51.9902ZM4.23633 213.889H3.23633V214.889H4.23633V213.889ZM191.15 0.60791V-0.39209H190.197L190.152 0.560697L191.15 0.60791ZM231.58 0.60791H232.58V-0.39209H231.58V0.60791ZM231.58 213.889V214.889H232.58V213.889H231.58ZM183.68 213.889H182.68V214.889H183.68V213.889ZM183.68 158.665L182.681 158.617L182.68 158.641V158.665H183.68ZM27.0879 1.60791H66.6387V-0.39209H27.0879V1.60791ZM65.6908 0.926595L116.96 153.417L118.856 152.779L67.5865 0.289225L65.6908 0.926595ZM118.856 153.416L169.979 0.925777L168.083 0.290043L116.96 152.78L118.856 153.416ZM169.031 1.60791H208.582V-0.39209H169.031V1.60791ZM207.638 0.277329L132.931 213.559L134.819 214.22L209.526 0.938492L207.638 0.277329ZM133.875 212.889H101.795V214.889H133.875V212.889ZM102.739 213.559L28.0317 0.277329L26.1441 0.938492L100.851 214.22L102.739 213.559ZM4.23633 1.60791H44.5195V-0.39209H4.23633V1.60791ZM43.5206 0.655123L50.9913 158.712L52.9891 158.617L45.5184 0.560697L43.5206 0.655123ZM50.9902 158.665V213.889H52.9902V158.665H50.9902ZM51.9902 212.889H4.23633V214.889H51.9902V212.889ZM5.23633 213.889V0.60791H3.23633V213.889H5.23633ZM191.15 1.60791H231.58V-0.39209H191.15V1.60791ZM230.58 0.60791V213.889H232.58V0.60791H230.58ZM231.58 212.889H183.68V214.889H231.58V212.889ZM184.68 213.889V158.665H182.68V213.889H184.68ZM184.679 158.712L192.149 0.655123L190.152 0.560697L182.681 158.617L184.679 158.712ZM280.213 194.26L279.491 194.952L279.501 194.962L280.213 194.26ZM278.602 75.7544L277.847 75.0987L277.846 75.0995L278.602 75.7544ZM302.332 58.6157L302.725 59.5354L302.733 59.5319L302.332 58.6157ZM364.441 58.0298L364.052 58.9511L364.061 58.9547L364.441 58.0298ZM386.707 73.7036L385.958 74.3667L385.963 74.372L386.707 73.7036ZM400.477 98.1665L399.526 98.4769L399.53 98.4886L400.477 98.1665ZM405.311 148.85V149.85H406.311V148.85H405.311ZM277.576 148.85H276.576V149.85H277.576V148.85ZM277.576 119.407V118.407H276.576V119.407H277.576ZM360.486 119.407V120.407H361.486V119.407H360.486ZM357.41 101.243L356.503 101.664L356.507 101.673L356.512 101.682L357.41 101.243ZM348.621 91.5747L348.097 92.4264L348.11 92.4342L348.123 92.4416L348.621 91.5747ZM311.268 101.536L310.381 101.072L310.377 101.08L311.268 101.536ZM306.58 116.331L307.565 116.503L307.566 116.5L306.58 116.331ZM362.977 177.268L363.362 178.191L363.374 178.186L362.977 177.268ZM379.969 164.084L380.722 163.426L379.936 162.528L379.189 163.458L379.969 164.084ZM401.355 188.547L402.18 189.114L402.62 188.474L402.108 187.889L401.355 188.547ZM387.732 202.17L388.33 202.972L388.332 202.97L387.732 202.17ZM339.393 215.819C326.901 215.819 315.751 213.834 305.928 209.885L305.182 211.741C315.28 215.8 326.689 217.819 339.393 217.819V215.819ZM305.928 209.885C296.083 205.928 287.754 200.483 280.925 193.558L279.501 194.962C286.539 202.1 295.105 207.69 305.182 211.741L305.928 209.885ZM280.935 193.568C274.19 186.535 269.037 178.444 265.471 169.288L263.607 170.014C267.268 179.413 272.563 187.728 279.491 194.952L280.935 193.568ZM265.471 169.288C261.905 160.133 260.119 150.345 260.119 139.915H258.119C258.119 150.578 259.946 160.614 263.607 170.014L265.471 169.288ZM260.119 139.915V134.348H258.119V139.915H260.119ZM260.119 134.348C260.119 122.626 261.766 111.845 265.048 101.998L263.151 101.366C259.793 111.441 258.119 122.438 258.119 134.348H260.119ZM265.048 101.998C268.331 92.1514 273.102 83.6264 279.357 76.4093L277.846 75.0995C271.405 82.5308 266.509 91.291 263.151 101.366L265.048 101.998ZM279.357 76.4101C285.699 69.1068 293.484 63.4821 302.725 59.5354L301.939 57.6961C292.43 61.7572 284.395 67.5583 277.847 75.0987L279.357 76.4101ZM302.733 59.5319C311.961 55.4944 322.515 53.4634 334.412 53.4634V51.4634C322.286 51.4634 311.453 53.5339 301.931 57.6996L302.733 59.5319ZM334.412 53.4634C345.532 53.4634 355.406 55.3004 364.052 58.951L364.83 57.1085C355.898 53.3373 345.753 51.4634 334.412 51.4634V53.4634ZM364.061 58.9547C372.715 62.5124 380.009 67.6496 385.958 74.3666L387.456 73.0406C381.296 66.0857 373.746 60.7738 364.822 57.1049L364.061 58.9547ZM385.963 74.372C391.915 80.9957 396.439 89.0242 399.526 98.4769L401.427 97.8561C398.264 88.1682 393.609 79.8881 387.451 73.0352L385.963 74.372ZM399.53 98.4886C402.711 107.841 404.311 118.374 404.311 130.1H406.311C406.311 118.193 404.687 107.438 401.423 97.8444L399.53 98.4886ZM404.311 130.1V148.85H406.311V130.1H404.311ZM405.311 147.85H277.576V149.85H405.311V147.85ZM278.576 148.85V119.407H276.576V148.85H278.576ZM277.576 120.407H360.486V118.407H277.576V120.407ZM361.486 119.407V115.891H359.486V119.407H361.486ZM361.486 115.891C361.486 110.201 360.438 105.163 358.309 100.804L356.512 101.682C358.484 105.72 359.486 110.448 359.486 115.891H361.486ZM358.317 100.821C356.279 96.4403 353.21 93.0597 349.12 90.7078L348.123 92.4416C351.845 94.5819 354.635 97.6466 356.503 101.664L358.317 100.821ZM349.145 90.723C345.137 88.2566 340.107 87.0591 334.119 87.0591V89.0591C339.85 89.0591 344.488 90.2053 348.097 92.4264L349.145 90.723ZM334.119 87.0591C328.414 87.0591 323.578 88.2607 319.669 90.7292L320.737 92.4202C324.25 90.2012 328.691 89.0591 334.119 89.0591V87.0591ZM319.669 90.7292C315.794 93.1767 312.7 96.6361 310.381 101.072L312.154 101.999C314.327 97.8415 317.19 94.6602 320.737 92.4202L319.669 90.7292ZM310.377 101.08C308.174 105.386 306.585 110.418 305.595 116.161L307.566 116.5C308.529 110.915 310.064 106.083 312.158 101.991L310.377 101.08ZM305.595 116.158C304.607 121.789 304.115 127.853 304.115 134.348H306.115C306.115 127.953 306.6 122.005 307.565 116.503L305.595 116.158ZM304.115 134.348V139.915H306.115V134.348H304.115ZM304.115 139.915C304.115 146.157 304.957 151.879 306.655 157.071L308.556 156.45C306.933 151.486 306.115 145.977 306.115 139.915H304.115ZM306.655 157.071C308.354 162.267 310.86 166.737 314.183 170.463L315.676 169.132C312.554 165.632 310.178 161.41 308.556 156.45L306.655 157.071ZM314.183 170.463C317.504 174.186 321.527 177.1 326.24 179.206L327.056 177.38C322.59 175.385 318.801 172.636 315.676 169.132L314.183 170.463ZM326.24 179.206C330.978 181.323 336.345 182.37 342.322 182.37V180.37C336.58 180.37 331.498 179.365 327.056 177.38L326.24 179.206ZM342.322 182.37C349.679 182.37 356.695 180.977 363.362 178.191L362.591 176.345C356.173 179.028 349.419 180.37 342.322 180.37V182.37ZM363.374 178.186C370.077 175.285 375.869 170.785 380.748 164.711L379.189 163.458C374.498 169.298 368.962 173.588 362.579 176.35L363.374 178.186ZM379.216 164.743L400.603 189.206L402.108 187.889L380.722 163.426L379.216 164.743ZM400.531 187.981C397.385 192.557 392.929 197.023 387.132 201.37L388.332 202.97C394.255 198.528 398.881 193.912 402.18 189.114L400.531 187.981ZM387.135 201.369C381.472 205.592 374.636 209.063 366.612 211.77L367.251 213.665C375.438 210.903 382.47 207.343 388.33 202.972L387.135 201.369ZM366.612 211.77C358.628 214.463 349.559 215.819 339.393 215.819V217.819C349.734 217.819 359.025 216.44 367.251 213.665L366.612 211.77Z" fill="black" fill-opacity="0.05"/>
</g>
<defs>
<filter id="filter0_bd_87_3101" x="0.236328" y="-0.39209" width="409.074" height="225.211" filterUnits="userSpaceOnUse" color-interpolation-filters="sRGB">
<feFlood flood-opacity="0" result="BackgroundImageFix"/>
<feGaussianBlur in="BackgroundImage" stdDeviation="0.5"/>
<feComposite in2="SourceAlpha" operator="in" result="effect1_backgroundBlur_87_3101"/>
<feColorMatrix in="SourceAlpha" type="matrix" values="0 0 0 0 0 0 0 0 0 0 0 0 0 0 0 0 0 0 127 0" result="hardAlpha"/>
<feOffset dy="4"/>
<feGaussianBlur stdDeviation="2"/>
<feComposite in2="hardAlpha" operator="out"/>
<feColorMatrix type="matrix" values="0 0 0 0 0 0 0 0 0 0 0 0 0 0 0 0 0 0 0.25 0"/>
<feBlend mode="normal" in2="effect1_backgroundBlur_87_3101" result="effect2_dropShadow_87_3101"/>
<feBlend mode="normal" in="SourceGraphic" in2="effect2_dropShadow_87_3101" result="shape"/>
</filter>
</defs>
</svg>
