<svg width="118" height="60" viewBox="0 0 118 60" fill="none" xmlns="http://www.w3.org/2000/svg">
<path d="M58.593 59.388C90.953 59.388 117.187 46.093 117.187 29.694C117.187 13.295 90.954 0 58.593 0C26.232 0 0 13.295 0 29.694C0 46.093 26.233 59.388 58.593 59.388Z" fill="#6181B6"/>
<path d="M33.2368 20.5838C35.8968 20.5838 37.6708 21.0748 38.5568 22.0578C39.4418 23.0398 39.6538 24.7258 39.1898 27.1148C38.7058 29.6028 37.7738 31.3788 36.3918 32.4428C35.0098 33.5058 32.9068 34.0378 30.0838 34.0378H25.8238L28.4378 20.5848L33.2368 20.5838ZM16.1758 47.6558H23.1778L24.8388 39.1098H30.8368C33.4828 39.1098 35.6598 38.8328 37.3688 38.2758C39.0778 37.7198 40.6318 36.7878 42.0298 35.4788C43.164 34.4487 44.1261 33.2439 44.8798 31.9098C45.6068 30.6098 46.1218 29.1758 46.4268 27.6048C47.1678 23.7938 46.6088 20.8268 44.7508 18.7008C42.8928 16.5748 39.9388 15.5118 35.8888 15.5118H22.4228L16.1758 47.6558ZM51.5698 6.96484H58.5168L56.8558 15.5108H63.0448C66.9388 15.5108 69.6248 16.1908 71.1038 17.5478C72.5828 18.9068 73.0248 21.1088 72.4338 24.1508L69.5278 39.1098H62.4698L65.2328 24.8868C65.5468 23.2688 65.4318 22.1648 64.8858 21.5758C64.3398 20.9888 63.1778 20.6938 61.4008 20.6938H55.8478L52.2698 39.1098H45.3228L51.5698 6.96484ZM87.8908 20.5838C90.5508 20.5838 92.3248 21.0748 93.2098 22.0578C94.0968 23.0398 94.3068 24.7258 93.8438 27.1148C93.3598 29.6028 92.4268 31.3788 91.0448 32.4428C89.6628 33.5058 87.5608 34.0378 84.7368 34.0378H80.4778L83.0918 20.5848L87.8908 20.5838ZM70.8308 47.6558H77.8328L79.4938 39.1098H85.4908C88.1368 39.1098 90.3138 38.8328 92.0228 38.2758C93.7328 37.7198 95.2868 36.7878 96.6838 35.4788C97.8186 34.449 98.7811 33.2441 99.5348 31.9098C100.261 30.6098 100.777 29.1758 101.082 27.6048C101.822 23.7938 101.264 20.8268 99.4058 18.7008C97.5478 16.5748 94.5938 15.5118 90.5428 15.5118H77.0778L70.8308 47.6558Z" fill="#000004"/>
<path d="M69.2393 39.279L72.1453 24.321C72.8013 20.944 72.2553 18.425 70.5253 16.835C68.8483 15.295 66.0023 14.547 61.8223 14.547H56.7893L58.2293 7.135C58.2558 6.99709 58.2515 6.85504 58.2168 6.71898C58.1821 6.58291 58.1179 6.45617 58.0286 6.34778C57.9393 6.2394 57.8272 6.15204 57.7003 6.09192C57.5734 6.03181 57.4348 6.00042 57.2943 6H50.3473C50.1261 6.00007 49.9118 6.077 49.7411 6.21765C49.5703 6.35829 49.4538 6.5539 49.4113 6.771L46.3253 22.652C46.0453 20.865 45.3523 19.329 44.2463 18.061C42.2083 15.729 38.9853 14.546 34.6663 14.546H21.1993C20.9782 14.5457 20.7638 14.6226 20.5931 14.7633C20.4225 14.904 20.3062 15.0998 20.2643 15.317L14.0173 47.461C13.9907 47.5989 13.9948 47.7409 14.0294 47.877C14.0641 48.0131 14.1284 48.1399 14.2177 48.2483C14.307 48.3566 14.4192 48.4439 14.5462 48.5038C14.6732 48.5638 14.8119 48.5949 14.9523 48.595H21.9543C22.1756 48.5951 22.39 48.5183 22.5608 48.3776C22.7316 48.2369 22.8481 48.0412 22.8903 47.824L24.4013 40.049H29.6143C32.3493 40.049 34.6463 39.753 36.4413 39.168C38.2753 38.572 39.9633 37.561 41.4523 36.167C42.6225 35.1014 43.6209 33.8615 44.4123 32.491L43.1643 38.915C43.1371 39.0529 43.1408 39.1952 43.1753 39.3316C43.2097 39.4679 43.2739 39.5949 43.3634 39.7034C43.4528 39.8118 43.5652 39.8991 43.6925 39.9589C43.8198 40.0187 43.9587 40.0494 44.0993 40.049H51.0463C51.2676 40.0489 51.4819 39.972 51.6526 39.8314C51.8234 39.6907 51.9399 39.4951 51.9823 39.278L55.4113 21.633H60.1783C62.2093 21.633 62.8043 22.037 62.9653 22.211C63.1123 22.37 63.4173 22.929 63.0753 24.691L60.3113 38.914C60.2841 39.0519 60.2878 39.1942 60.3223 39.3306C60.3567 39.4669 60.4209 39.5939 60.5104 39.7024C60.5998 39.8108 60.7122 39.8981 60.8395 39.9579C60.9668 40.0177 61.1057 40.0484 61.2463 40.048H68.3043C68.5253 40.0484 68.7394 39.9718 68.91 39.8315C69.0806 39.6912 69.1971 39.4958 69.2393 39.279ZM37.0313 26.919C36.5943 29.161 35.7723 30.761 34.5873 31.674C33.3823 32.601 31.4553 33.071 28.8603 33.071H25.7563L28.0003 21.523H32.0123C34.9603 21.523 36.1483 22.153 36.6243 22.681C37.2863 23.415 37.4263 24.88 37.0313 26.919V26.919ZM98.9473 18.061C96.9093 15.729 93.6863 14.546 89.3663 14.546H75.9023C75.681 14.5457 75.4665 14.6225 75.2957 14.7632C75.1249 14.9039 75.0084 15.0997 74.9663 15.317L68.7183 47.461C68.6917 47.5989 68.6958 47.7409 68.7304 47.877C68.7651 48.0131 68.8294 48.1399 68.9187 48.2483C69.008 48.3566 69.1202 48.4439 69.2472 48.5038C69.3742 48.5638 69.5129 48.5949 69.6533 48.595H76.6563C76.8774 48.5949 77.0916 48.5179 77.2622 48.3773C77.4328 48.2366 77.5491 48.041 77.5913 47.824L79.1033 40.049H84.3153C87.0503 40.049 89.3483 39.753 91.1423 39.168C92.9773 38.572 94.6643 37.561 96.1533 36.167C97.3943 35.026 98.4173 33.746 99.1903 32.361C99.9804 30.929 100.537 29.3802 100.84 27.773C101.637 23.679 101 20.41 98.9473 18.061V18.061ZM91.6853 26.919C91.2483 29.161 90.4263 30.761 89.2413 31.674C88.0373 32.601 86.1103 33.071 83.5143 33.071H80.4103L82.6553 21.523H86.6673C89.6153 21.523 90.8033 22.153 91.2793 22.681C91.9413 23.415 92.0803 24.88 91.6853 26.919Z" fill="white"/>
</svg>
